<?xml version="1.0" encoding="UTF-8" standalone="no"?>
<!DOCTYPE svg PUBLIC "-//W3C//DTD SVG 1.1//EN"
 "http://www.w3.org/Graphics/SVG/1.1/DTD/svg11.dtd">
<!-- Generated by graphviz version 14.0.2 (20251019.1705)
 -->
<!-- Title: main.h Pages: 1 -->
<svg width="677pt" height="252pt"
 viewBox="0.00 0.00 677.00 252.00" xmlns="http://www.w3.org/2000/svg" xmlns:xlink="http://www.w3.org/1999/xlink">
<g id="graph0" class="graph" transform="scale(1 1) rotate(0) translate(4 248)">
<title>main.h</title>
<!-- Node1 -->
<g id="Node000001" class="node">
<title>Node1</title>
<g id="a_Node000001"><a xlink:title=": Header for main.c file. This file contains the common defines of the application.">
<polygon fill="#999999" stroke="#666666" points="331.86,-244 286.61,-244 286.61,-224 331.86,-224 331.86,-244"/>
<text xml:space="preserve" text-anchor="middle" x="309.24" y="-230.5" font-family="Helvetica,sans-Serif" font-size="10.00">main.h</text>
</a>
</g>
</g>
<!-- Node2 -->
<g id="Node000002" class="node">
<title>Node2</title>
<g id="a_Node000002"><a xlink:href="_i_p_o_s__071125_2_core_2_inc_2dma_8h.html" target="_top" xlink:title="This file contains all the function prototypes for the dma.c file.">
<polygon fill="white" stroke="#666666" points="126.74,-188 83.74,-188 83.74,-168 126.74,-168 126.74,-188"/>
<text xml:space="preserve" text-anchor="middle" x="105.24" y="-174.5" font-family="Helvetica,sans-Serif" font-size="10.00">dma.h</text>
</a>
</g>
</g>
<!-- Node1&#45;&gt;Node2 -->
<g id="edge1_Node000001_Node000002" class="edge">
<title>Node1&#45;&gt;Node2</title>
<g id="a_edge1_Node000001_Node000002"><a xlink:title=" ">
<path fill="none" stroke="#63b8ff" d="M275.23,-224.46C240.29,-215.6 184.36,-201.24 136.24,-188 133.32,-187.2 130.25,-186.33 127.23,-185.47"/>
<polygon fill="#63b8ff" stroke="#63b8ff" points="274.21,-227.81 284.77,-226.86 275.93,-221.02 274.21,-227.81"/>
</a>
</g>
</g>
<!-- Node3 -->
<g id="Node000003" class="node">
<title>Node3</title>
<g id="a_Node000003"><a xlink:href="_i_p_o_s__071125_2_core_2_inc_2gpio_8h.html" target="_top" xlink:title="This file contains all the function prototypes for the gpio.c file.">
<polygon fill="white" stroke="#666666" points="187.36,-188 145.11,-188 145.11,-168 187.36,-168 187.36,-188"/>
<text xml:space="preserve" text-anchor="middle" x="166.24" y="-174.5" font-family="Helvetica,sans-Serif" font-size="10.00">gpio.h</text>
</a>
</g>
</g>
<!-- Node1&#45;&gt;Node3 -->
<g id="edge2_Node000001_Node000003" class="edge">
<title>Node1&#45;&gt;Node3</title>
<g id="a_edge2_Node000001_Node000003"><a xlink:title=" ">
<path fill="none" stroke="#63b8ff" d="M275.68,-220.33C248.51,-210.07 211.05,-195.92 187.75,-187.12"/>
<polygon fill="#63b8ff" stroke="#63b8ff" points="274.25,-223.53 284.84,-223.79 276.73,-216.98 274.25,-223.53"/>
</a>
</g>
</g>
<!-- Node4 -->
<g id="Node000004" class="node">
<title>Node4</title>
<g id="a_Node000004"><a xlink:href="inputs_8h.html" target="_top" xlink:title="Input handling, safety interlock logic, and laser control API.">
<polygon fill="white" stroke="#666666" points="394.49,-132 343.99,-132 343.99,-112 394.49,-112 394.49,-132"/>
<text xml:space="preserve" text-anchor="middle" x="369.24" y="-118.5" font-family="Helvetica,sans-Serif" font-size="10.00">inputs.h</text>
</a>
</g>
</g>
<!-- Node1&#45;&gt;Node4 -->
<g id="edge3_Node000001_Node000004" class="edge">
<title>Node1&#45;&gt;Node4</title>
<g id="a_edge3_Node000001_Node000004"><a xlink:title=" ">
<path fill="none" stroke="#63b8ff" d="M319.8,-213.62C332.81,-189.78 354.36,-150.28 364.13,-132.35"/>
<polygon fill="#63b8ff" stroke="#63b8ff" points="316.79,-211.84 315.08,-222.29 322.94,-215.19 316.79,-211.84"/>
</a>
</g>
</g>
<!-- Node13 -->
<g id="Node000013" class="node">
<title>Node13</title>
<g id="a_Node000013"><a xlink:href="log__flash_8h.html" target="_top" xlink:title="Public API for flash&#45;based logging of system events and errors.">
<polygon fill="white" stroke="#666666" points="211.86,-132 148.61,-132 148.61,-112 211.86,-112 211.86,-132"/>
<text xml:space="preserve" text-anchor="middle" x="180.24" y="-118.5" font-family="Helvetica,sans-Serif" font-size="10.00">log_flash.h</text>
</a>
</g>
</g>
<!-- Node1&#45;&gt;Node13 -->
<g id="edge13_Node000001_Node000013" class="edge">
<title>Node1&#45;&gt;Node13</title>
<g id="a_edge13_Node000001_Node000013"><a xlink:title=" ">
<path fill="none" stroke="#63b8ff" d="M279.6,-218.26C265.15,-210.33 247.96,-199.77 234.24,-188 214.19,-170.81 195.64,-145.66 186.39,-132.24"/>
<polygon fill="#63b8ff" stroke="#63b8ff" points="277.75,-221.24 288.22,-222.83 281.03,-215.05 277.75,-221.24"/>
</a>
</g>
</g>
<!-- Node15 -->
<g id="Node000015" class="node">
<title>Node15</title>
<g id="a_Node000015"><a xlink:href="max31855_8h.html" target="_top" xlink:title=" ">
<polygon fill="white" stroke="#666666" points="312.86,-188 243.61,-188 243.61,-168 312.86,-168 312.86,-188"/>
<text xml:space="preserve" text-anchor="middle" x="278.24" y="-174.5" font-family="Helvetica,sans-Serif" font-size="10.00">max31855.h</text>
</a>
</g>
</g>
<!-- Node1&#45;&gt;Node15 -->
<g id="edge18_Node000001_Node000015" class="edge">
<title>Node1&#45;&gt;Node15</title>
<g id="a_edge18_Node000001_Node000015"><a xlink:title=" ">
<path fill="none" stroke="#63b8ff" d="M298.25,-213.87C293.27,-205.19 287.6,-195.32 283.57,-188.3"/>
<polygon fill="#63b8ff" stroke="#63b8ff" points="295.07,-215.35 303.08,-222.28 301.14,-211.87 295.07,-215.35"/>
</a>
</g>
</g>
<!-- Node16 -->
<g id="Node000016" class="node">
<title>Node16</title>
<g id="a_Node000016"><a xlink:href="_i_p_o_s__071125_2_core_2_inc_2spi_8h.html" target="_top" xlink:title="This file contains all the function prototypes for the spi.c file.">
<polygon fill="white" stroke="#666666" points="406.74,-188 369.74,-188 369.74,-168 406.74,-168 406.74,-188"/>
<text xml:space="preserve" text-anchor="middle" x="388.24" y="-174.5" font-family="Helvetica,sans-Serif" font-size="10.00">spi.h</text>
</a>
</g>
</g>
<!-- Node1&#45;&gt;Node16 -->
<g id="edge24_Node000001_Node000016" class="edge">
<title>Node1&#45;&gt;Node16</title>
<g id="a_edge24_Node000001_Node000016"><a xlink:title=" ">
<path fill="none" stroke="#63b8ff" d="M332.25,-217.27C345.89,-207.94 362.74,-196.43 374.37,-188.48"/>
<polygon fill="#63b8ff" stroke="#63b8ff" points="330.53,-214.21 324.25,-222.74 334.48,-219.99 330.53,-214.21"/>
</a>
</g>
</g>
<!-- Node17 -->
<g id="Node000017" class="node">
<title>Node17</title>
<g id="a_Node000017"><a xlink:href="_i_p_o_s__071125_2_core_2_inc_2usart_8h.html" target="_top" xlink:title="This file contains all the function prototypes for the usart.c file.">
<polygon fill="white" stroke="#666666" points="471.24,-188 425.24,-188 425.24,-168 471.24,-168 471.24,-188"/>
<text xml:space="preserve" text-anchor="middle" x="448.24" y="-174.5" font-family="Helvetica,sans-Serif" font-size="10.00">usart.h</text>
</a>
</g>
</g>
<!-- Node1&#45;&gt;Node17 -->
<g id="edge25_Node000001_Node000017" class="edge">
<title>Node1&#45;&gt;Node17</title>
<g id="a_edge25_Node000001_Node000017"><a xlink:title=" ">
<path fill="none" stroke="#63b8ff" d="M342.8,-219.96C368.15,-210.11 402.31,-196.84 424.78,-188.11"/>
<polygon fill="#63b8ff" stroke="#63b8ff" points="341.65,-216.65 333.6,-223.53 344.19,-223.18 341.65,-216.65"/>
</a>
</g>
</g>
<!-- Node18 -->
<g id="Node000018" class="node">
<title>Node18</title>
<g id="a_Node000018"><a xlink:href="w25q_8h.html" target="_top" xlink:title=" ">
<polygon fill="white" stroke="#666666" points="536.99,-188 489.49,-188 489.49,-168 536.99,-168 536.99,-188"/>
<text xml:space="preserve" text-anchor="middle" x="513.24" y="-174.5" font-family="Helvetica,sans-Serif" font-size="10.00">w25q.h</text>
</a>
</g>
</g>
<!-- Node1&#45;&gt;Node18 -->
<g id="edge26_Node000001_Node000018" class="edge">
<title>Node1&#45;&gt;Node18</title>
<g id="a_edge26_Node000001_Node000018"><a xlink:title=" ">
<path fill="none" stroke="#63b8ff" d="M343.09,-224.19C377.6,-215.18 432.68,-200.74 480.24,-188 483.1,-187.23 486.11,-186.42 489.09,-185.61"/>
<polygon fill="#63b8ff" stroke="#63b8ff" points="342.47,-220.73 333.67,-226.64 344.23,-227.5 342.47,-220.73"/>
</a>
</g>
</g>
<!-- Node5 -->
<g id="Node000005" class="node">
<title>Node5</title>
<g id="a_Node000005"><a xlink:href="app__main_8c.html" target="_top" xlink:title=" ">
<polygon fill="white" stroke="#666666" points="311.36,-76 245.11,-76 245.11,-56 311.36,-56 311.36,-76"/>
<text xml:space="preserve" text-anchor="middle" x="278.24" y="-62.5" font-family="Helvetica,sans-Serif" font-size="10.00">app_main.c</text>
</a>
</g>
</g>
<!-- Node4&#45;&gt;Node5 -->
<g id="edge4_Node000004_Node000005" class="edge">
<title>Node4&#45;&gt;Node5</title>
<g id="a_edge4_Node000004_Node000005"><a xlink:title=" ">
<path fill="none" stroke="#63b8ff" d="M343.64,-105.81C327.77,-96.39 307.87,-84.58 294.21,-76.48"/>
<polygon fill="#63b8ff" stroke="#63b8ff" points="341.7,-108.73 352.08,-110.82 345.27,-102.71 341.7,-108.73"/>
</a>
</g>
</g>
<!-- Node6 -->
<g id="Node000006" class="node">
<title>Node6</title>
<g id="a_Node000006"><a xlink:href="freertos_8c.html" target="_top" xlink:title=" ">
<polygon fill="white" stroke="#666666" points="512.86,-76 455.61,-76 455.61,-56 512.86,-56 512.86,-76"/>
<text xml:space="preserve" text-anchor="middle" x="484.24" y="-62.5" font-family="Helvetica,sans-Serif" font-size="10.00">freertos.c</text>
</a>
</g>
</g>
<!-- Node4&#45;&gt;Node6 -->
<g id="edge5_Node000004_Node000006" class="edge">
<title>Node4&#45;&gt;Node6</title>
<g id="a_edge5_Node000004_Node000006"><a xlink:title=" ">
<path fill="none" stroke="#63b8ff" d="M399.59,-106.75C419.96,-97.18 446.22,-84.85 464.05,-76.48"/>
<polygon fill="#63b8ff" stroke="#63b8ff" points="398.2,-103.53 390.64,-110.95 401.18,-109.87 398.2,-103.53"/>
</a>
</g>
</g>
<!-- Node7 -->
<g id="Node000007" class="node">
<title>Node7</title>
<g id="a_Node000007"><a xlink:href="inputs_8c.html" target="_top" xlink:title=" ">
<polygon fill="white" stroke="#666666" points="291.49,-20 240.99,-20 240.99,0 291.49,0 291.49,-20"/>
<text xml:space="preserve" text-anchor="middle" x="266.24" y="-6.5" font-family="Helvetica,sans-Serif" font-size="10.00">inputs.c</text>
</a>
</g>
</g>
<!-- Node4&#45;&gt;Node7 -->
<g id="edge6_Node000004_Node000007" class="edge">
<title>Node4&#45;&gt;Node7</title>
<g id="a_edge6_Node000004_Node000007"><a xlink:title=" ">
<path fill="none" stroke="#63b8ff" d="M390.36,-104.44C404.92,-90.97 419.74,-71.71 408.24,-56 381.5,-19.48 324.96,-11.86 291.86,-10.7"/>
<polygon fill="#63b8ff" stroke="#63b8ff" points="388.46,-101.45 383.16,-110.63 393.02,-106.76 388.46,-101.45"/>
</a>
</g>
</g>
<!-- Node8 -->
<g id="Node000008" class="node">
<title>Node8</title>
<g id="a_Node000008"><a xlink:href="_i_p_o_s__071125_2_core_2_src_2main_8c.html" target="_top" xlink:title=": Main program body">
<polygon fill="white" stroke="#666666" points="668.86,-76 623.61,-76 623.61,-56 668.86,-56 668.86,-76"/>
<text xml:space="preserve" text-anchor="middle" x="646.24" y="-62.5" font-family="Helvetica,sans-Serif" font-size="10.00">main.c</text>
</a>
</g>
</g>
<!-- Node4&#45;&gt;Node8 -->
<g id="edge7_Node000004_Node000008" class="edge">
<title>Node4&#45;&gt;Node8</title>
<g id="a_edge7_Node000004_Node000008"><a xlink:title=" ">
<path fill="none" stroke="#63b8ff" d="M405.86,-115.36C453.95,-107.7 540.87,-93.02 614.24,-76 617.16,-75.32 620.21,-74.55 623.23,-73.75"/>
<polygon fill="#63b8ff" stroke="#63b8ff" points="405.62,-111.85 396.28,-116.87 406.71,-118.77 405.62,-111.85"/>
</a>
</g>
</g>
<!-- Node9 -->
<g id="Node000009" class="node">
<title>Node9</title>
<g id="a_Node000009"><a xlink:href="max31855_8c.html" target="_top" xlink:title=" ">
<polygon fill="white" stroke="#666666" points="398.86,-76 329.61,-76 329.61,-56 398.86,-56 398.86,-76"/>
<text xml:space="preserve" text-anchor="middle" x="364.24" y="-62.5" font-family="Helvetica,sans-Serif" font-size="10.00">max31855.c</text>
</a>
</g>
</g>
<!-- Node4&#45;&gt;Node9 -->
<g id="edge8_Node000004_Node000009" class="edge">
<title>Node4&#45;&gt;Node9</title>
<g id="a_edge8_Node000004_Node000009"><a xlink:title=" ">
<path fill="none" stroke="#63b8ff" d="M367.3,-100.13C366.54,-91.9 365.7,-82.85 365.1,-76.3"/>
<polygon fill="#63b8ff" stroke="#63b8ff" points="363.82,-100.45 368.22,-110.09 370.79,-99.81 363.82,-100.45"/>
</a>
</g>
</g>
<!-- Node10 -->
<g id="Node000010" class="node">
<title>Node10</title>
<g id="a_Node000010"><a xlink:href="safety__utils_8h.html" target="_top" xlink:title=" ">
<polygon fill="white" stroke="#666666" points="605.49,-76 530.99,-76 530.99,-56 605.49,-56 605.49,-76"/>
<text xml:space="preserve" text-anchor="middle" x="568.24" y="-62.5" font-family="Helvetica,sans-Serif" font-size="10.00">safety_utils.h</text>
</a>
</g>
</g>
<!-- Node4&#45;&gt;Node10 -->
<g id="edge9_Node000004_Node000010" class="edge">
<title>Node4&#45;&gt;Node10</title>
<g id="a_edge9_Node000004_Node000010"><a xlink:title=" ">
<path fill="none" stroke="#63b8ff" d="M405.94,-111.04C442.32,-101.17 497.63,-86.16 533.36,-76.46"/>
<polygon fill="#63b8ff" stroke="#63b8ff" points="405.04,-107.66 396.3,-113.65 406.87,-114.41 405.04,-107.66"/>
</a>
</g>
</g>
<!-- Node12 -->
<g id="Node000012" class="node">
<title>Node12</title>
<g id="a_Node000012"><a xlink:href="usb__commands_8c.html" target="_top" xlink:title="USB command interface for IPOS firmware.">
<polygon fill="white" stroke="#666666" points="226.86,-76 133.61,-76 133.61,-56 226.86,-56 226.86,-76"/>
<text xml:space="preserve" text-anchor="middle" x="180.24" y="-62.5" font-family="Helvetica,sans-Serif" font-size="10.00">usb_commands.c</text>
</a>
</g>
</g>
<!-- Node4&#45;&gt;Node12 -->
<g id="edge12_Node000004_Node000012" class="edge">
<title>Node4&#45;&gt;Node12</title>
<g id="a_edge12_Node000004_Node000012"><a xlink:title=" ">
<path fill="none" stroke="#63b8ff" d="M332.71,-110.56C298.12,-100.68 246.63,-85.97 213.25,-76.43"/>
<polygon fill="#63b8ff" stroke="#63b8ff" points="331.71,-113.92 342.29,-113.3 333.64,-107.19 331.71,-113.92"/>
</a>
</g>
</g>
<!-- Node10&#45;&gt;Node7 -->
<g id="edge10_Node000010_Node000007" class="edge">
<title>Node10&#45;&gt;Node7</title>
<g id="a_edge10_Node000010_Node000007"><a xlink:title=" ">
<path fill="none" stroke="#63b8ff" d="M519.43,-55.51C430,-38.98 335.91,-22.83 291.7,-15.31"/>
<polygon fill="#63b8ff" stroke="#63b8ff" points="518.63,-58.92 529.1,-57.3 519.91,-52.03 518.63,-58.92"/>
</a>
</g>
</g>
<!-- Node11 -->
<g id="Node000011" class="node">
<title>Node11</title>
<g id="a_Node000011"><a xlink:href="safety__utils_8c.html" target="_top" xlink:title=" ">
<polygon fill="white" stroke="#666666" points="605.49,-20 530.99,-20 530.99,0 605.49,0 605.49,-20"/>
<text xml:space="preserve" text-anchor="middle" x="568.24" y="-6.5" font-family="Helvetica,sans-Serif" font-size="10.00">safety_utils.c</text>
</a>
</g>
</g>
<!-- Node10&#45;&gt;Node11 -->
<g id="edge11_Node000010_Node000011" class="edge">
<title>Node10&#45;&gt;Node11</title>
<g id="a_edge11_Node000010_Node000011"><a xlink:title=" ">
<path fill="none" stroke="#63b8ff" d="M568.24,-44.13C568.24,-35.9 568.24,-26.85 568.24,-20.3"/>
<polygon fill="#63b8ff" stroke="#63b8ff" points="564.74,-44.08 568.24,-54.08 571.74,-44.08 564.74,-44.08"/>
</a>
</g>
</g>
<!-- Node13&#45;&gt;Node5 -->
<g id="edge14_Node000013_Node000005" class="edge">
<title>Node13&#45;&gt;Node5</title>
<g id="a_edge14_Node000013_Node000005"><a xlink:title=" ">
<path fill="none" stroke="#63b8ff" d="M207.31,-106.08C224.49,-96.62 246.19,-84.66 261.03,-76.48"/>
<polygon fill="#63b8ff" stroke="#63b8ff" points="205.7,-102.97 198.63,-110.86 209.08,-109.1 205.7,-102.97"/>
</a>
</g>
</g>
<!-- Node13&#45;&gt;Node7 -->
<g id="edge15_Node000013_Node000007" class="edge">
<title>Node13&#45;&gt;Node7</title>
<g id="a_edge15_Node000013_Node000007"><a xlink:title=" ">
<path fill="none" stroke="#63b8ff" d="M152.13,-105.77C132.2,-92.95 111.14,-73.89 124.24,-56 150.97,-19.48 207.51,-11.86 240.61,-10.7"/>
<polygon fill="#63b8ff" stroke="#63b8ff" points="150.3,-108.75 160.67,-110.92 153.91,-102.76 150.3,-108.75"/>
</a>
</g>
</g>
<!-- Node13&#45;&gt;Node12 -->
<g id="edge17_Node000013_Node000012" class="edge">
<title>Node13&#45;&gt;Node12</title>
<g id="a_edge17_Node000013_Node000012"><a xlink:title=" ">
<path fill="none" stroke="#63b8ff" d="M180.24,-100.13C180.24,-91.9 180.24,-82.85 180.24,-76.3"/>
<polygon fill="#63b8ff" stroke="#63b8ff" points="176.74,-100.08 180.24,-110.08 183.74,-100.08 176.74,-100.08"/>
</a>
</g>
</g>
<!-- Node14 -->
<g id="Node000014" class="node">
<title>Node14</title>
<g id="a_Node000014"><a xlink:href="log__flash_8c.html" target="_top" xlink:title="Persistent flash&#45;based event and error logging.">
<polygon fill="white" stroke="#666666" points="76.86,-76 13.61,-76 13.61,-56 76.86,-56 76.86,-76"/>
<text xml:space="preserve" text-anchor="middle" x="45.24" y="-62.5" font-family="Helvetica,sans-Serif" font-size="10.00">log_flash.c</text>
</a>
</g>
</g>
<!-- Node13&#45;&gt;Node14 -->
<g id="edge16_Node000013_Node000014" class="edge">
<title>Node13&#45;&gt;Node14</title>
<g id="a_edge16_Node000013_Node000014"><a xlink:title=" ">
<path fill="none" stroke="#63b8ff" d="M146.24,-107.4C122.12,-97.75 90.35,-85.05 68.93,-76.48"/>
<polygon fill="#63b8ff" stroke="#63b8ff" points="144.73,-110.57 155.31,-111.03 147.33,-104.07 144.73,-110.57"/>
</a>
</g>
</g>
<!-- Node15&#45;&gt;Node4 -->
<g id="edge21_Node000015_Node000004" class="edge">
<title>Node15&#45;&gt;Node4</title>
<g id="a_edge21_Node000015_Node000004"><a xlink:title=" ">
<path fill="none" stroke="#63b8ff" d="M303.83,-161.81C319.7,-152.39 339.61,-140.58 353.26,-132.48"/>
<polygon fill="#63b8ff" stroke="#63b8ff" points="302.2,-158.71 295.39,-166.82 305.77,-164.73 302.2,-158.71"/>
</a>
</g>
</g>
<!-- Node15&#45;&gt;Node5 -->
<g id="edge19_Node000015_Node000005" class="edge">
<title>Node15&#45;&gt;Node5</title>
<g id="a_edge19_Node000015_Node000005"><a xlink:title=" ">
<path fill="none" stroke="#63b8ff" d="M278.24,-156.31C278.24,-132.36 278.24,-93.95 278.24,-76.35"/>
<polygon fill="#63b8ff" stroke="#63b8ff" points="274.74,-156.11 278.24,-166.11 281.74,-156.11 274.74,-156.11"/>
</a>
</g>
</g>
<!-- Node15&#45;&gt;Node7 -->
<g id="edge20_Node000015_Node000007" class="edge">
<title>Node15&#45;&gt;Node7</title>
<g id="a_edge20_Node000015_Node000007"><a xlink:title=" ">
<path fill="none" stroke="#63b8ff" d="M232.14,-165.95C145.91,-144.19 -28.28,-94.58 4.24,-56 34.35,-20.27 180.76,-12.91 240.64,-11.39"/>
<polygon fill="#63b8ff" stroke="#63b8ff" points="231.17,-169.31 241.72,-168.34 232.87,-162.52 231.17,-169.31"/>
</a>
</g>
</g>
<!-- Node15&#45;&gt;Node9 -->
<g id="edge22_Node000015_Node000009" class="edge">
<title>Node15&#45;&gt;Node9</title>
<g id="a_edge22_Node000015_Node000009"><a xlink:title=" ">
<path fill="none" stroke="#63b8ff" d="M292.63,-158.58C311.18,-134.86 342.72,-94.52 356.92,-76.35"/>
<polygon fill="#63b8ff" stroke="#63b8ff" points="289.9,-156.4 286.5,-166.43 295.42,-160.71 289.9,-156.4"/>
</a>
</g>
</g>
<!-- Node15&#45;&gt;Node12 -->
<g id="edge23_Node000015_Node000012" class="edge">
<title>Node15&#45;&gt;Node12</title>
<g id="a_edge23_Node000015_Node000012"><a xlink:title=" ">
<path fill="none" stroke="#63b8ff" d="M262.75,-159.16C251.34,-146.05 235.4,-127.85 221.24,-112 210.11,-99.55 197.1,-85.33 188.77,-76.26"/>
<polygon fill="#63b8ff" stroke="#63b8ff" points="259.98,-161.3 269.18,-166.55 265.26,-156.71 259.98,-161.3"/>
</a>
</g>
</g>
<!-- Node19 -->
<g id="Node000019" class="node">
<title>Node19</title>
<g id="a_Node000019"><a xlink:href="w25q_8c.html" target="_top" xlink:title=" ">
<polygon fill="white" stroke="#666666" points="536.99,-132 489.49,-132 489.49,-112 536.99,-112 536.99,-132"/>
<text xml:space="preserve" text-anchor="middle" x="513.24" y="-118.5" font-family="Helvetica,sans-Serif" font-size="10.00">w25q.c</text>
</a>
</g>
</g>
<!-- Node18&#45;&gt;Node19 -->
<g id="edge27_Node000018_Node000019" class="edge">
<title>Node18&#45;&gt;Node19</title>
<g id="a_edge27_Node000018_Node000019"><a xlink:title=" ">
<path fill="none" stroke="#63b8ff" d="M513.24,-156.13C513.24,-147.9 513.24,-138.85 513.24,-132.3"/>
<polygon fill="#63b8ff" stroke="#63b8ff" points="509.74,-156.08 513.24,-166.08 516.74,-156.08 509.74,-156.08"/>
</a>
</g>
</g>
</g>
</svg>
