<?xml version="1.0" encoding="UTF-8" standalone="no"?>
<!DOCTYPE svg PUBLIC "-//W3C//DTD SVG 1.1//EN"
 "http://www.w3.org/Graphics/SVG/1.1/DTD/svg11.dtd">
<!-- Generated by graphviz version 14.0.2 (20251019.1705)
 -->
<!-- Title: main.h Pages: 1 -->
<svg width="531pt" height="140pt"
 viewBox="0.00 0.00 531.00 140.00" xmlns="http://www.w3.org/2000/svg" xmlns:xlink="http://www.w3.org/1999/xlink">
<g id="graph0" class="graph" transform="scale(1 1) rotate(0) translate(4 136)">
<title>main.h</title>
<!-- Node1 -->
<g id="Node000001" class="node">
<title>Node1</title>
<g id="a_Node000001"><a xlink:title=": Header for main.c file. This file contains the common defines of the application.">
<polygon fill="#999999" stroke="#666666" points="308.75,-132 263.5,-132 263.5,-112 308.75,-112 308.75,-132"/>
<text xml:space="preserve" text-anchor="middle" x="286.12" y="-118.5" font-family="Helvetica,sans-Serif" font-size="10.00">main.h</text>
</a>
</g>
</g>
<!-- Node2 -->
<g id="Node000002" class="node">
<title>Node2</title>
<g id="a_Node000002"><a xlink:href="bdma_8h.html" target="_top" xlink:title="This file contains all the function prototypes for the bdma.c file.">
<polygon fill="white" stroke="#666666" points="81.25,-76 33,-76 33,-56 81.25,-56 81.25,-76"/>
<text xml:space="preserve" text-anchor="middle" x="57.12" y="-62.5" font-family="Helvetica,sans-Serif" font-size="10.00">bdma.h</text>
</a>
</g>
</g>
<!-- Node1&#45;&gt;Node2 -->
<g id="edge1_Node000001_Node000002" class="edge">
<title>Node1&#45;&gt;Node2</title>
<g id="a_edge1_Node000001_Node000002"><a xlink:title=" ">
<path fill="none" stroke="#63b8ff" d="M252.11,-113.63C212.94,-105.04 146.71,-90.21 90.12,-76 87.36,-75.31 84.47,-74.56 81.6,-73.79"/>
<polygon fill="#63b8ff" stroke="#63b8ff" points="251.12,-117 261.64,-115.71 252.62,-110.16 251.12,-117"/>
</a>
</g>
</g>
<!-- Node5 -->
<g id="Node000005" class="node">
<title>Node5</title>
<g id="a_Node000005"><a xlink:href="debug_8h.html" target="_top" xlink:title=" ">
<polygon fill="white" stroke="#666666" points="149.38,-76 98.88,-76 98.88,-56 149.38,-56 149.38,-76"/>
<text xml:space="preserve" text-anchor="middle" x="124.12" y="-62.5" font-family="Helvetica,sans-Serif" font-size="10.00">debug.h</text>
</a>
</g>
</g>
<!-- Node1&#45;&gt;Node5 -->
<g id="edge4_Node000001_Node000005" class="edge">
<title>Node1&#45;&gt;Node5</title>
<g id="a_edge4_Node000001_Node000005"><a xlink:title=" ">
<path fill="none" stroke="#63b8ff" d="M252.7,-109.86C222.16,-99.68 177.65,-84.84 149.82,-75.56"/>
<polygon fill="#63b8ff" stroke="#63b8ff" points="251.23,-113.06 261.82,-112.9 253.44,-106.42 251.23,-113.06"/>
</a>
</g>
</g>
<!-- Node7 -->
<g id="Node000007" class="node">
<title>Node7</title>
<g id="a_Node000007"><a xlink:href="_i_p_o_s___m40___v1__00__101125_2_core_2_inc_2dma_8h.html" target="_top" xlink:title="This file contains all the function prototypes for the dma.c file.">
<polygon fill="white" stroke="#666666" points="342.62,-76 299.62,-76 299.62,-56 342.62,-56 342.62,-76"/>
<text xml:space="preserve" text-anchor="middle" x="321.12" y="-62.5" font-family="Helvetica,sans-Serif" font-size="10.00">dma.h</text>
</a>
</g>
</g>
<!-- Node1&#45;&gt;Node7 -->
<g id="edge7_Node000001_Node000007" class="edge">
<title>Node1&#45;&gt;Node7</title>
<g id="a_edge7_Node000001_Node000007"><a xlink:title=" ">
<path fill="none" stroke="#63b8ff" d="M298.34,-102.15C304.01,-93.4 310.5,-83.39 315.1,-76.3"/>
<polygon fill="#63b8ff" stroke="#63b8ff" points="295.55,-100.03 293.04,-110.32 301.42,-103.84 295.55,-100.03"/>
</a>
</g>
</g>
<!-- Node8 -->
<g id="Node000008" class="node">
<title>Node8</title>
<g id="a_Node000008"><a xlink:href="_i_p_o_s___m40___v1__00__101125_2_core_2_inc_2gpio_8h.html" target="_top" xlink:title="This file contains all the function prototypes for the gpio.c file.">
<polygon fill="white" stroke="#666666" points="403.25,-76 361,-76 361,-56 403.25,-56 403.25,-76"/>
<text xml:space="preserve" text-anchor="middle" x="382.12" y="-62.5" font-family="Helvetica,sans-Serif" font-size="10.00">gpio.h</text>
</a>
</g>
</g>
<!-- Node1&#45;&gt;Node8 -->
<g id="edge8_Node000001_Node000008" class="edge">
<title>Node1&#45;&gt;Node8</title>
<g id="a_edge8_Node000001_Node000008"><a xlink:title=" ">
<path fill="none" stroke="#63b8ff" d="M312.65,-106.08C329.47,-96.62 350.73,-84.66 365.27,-76.48"/>
<polygon fill="#63b8ff" stroke="#63b8ff" points="311.17,-102.9 304.17,-110.85 314.6,-109 311.17,-102.9"/>
</a>
</g>
</g>
<!-- Node9 -->
<g id="Node000009" class="node">
<title>Node9</title>
<g id="a_Node000009"><a xlink:href="i2c_8h.html" target="_top" xlink:title="This file contains all the function prototypes for the i2c.c file.">
<polygon fill="white" stroke="#666666" points="204.62,-76 167.62,-76 167.62,-56 204.62,-56 204.62,-76"/>
<text xml:space="preserve" text-anchor="middle" x="186.12" y="-62.5" font-family="Helvetica,sans-Serif" font-size="10.00">i2c.h</text>
</a>
</g>
</g>
<!-- Node1&#45;&gt;Node9 -->
<g id="edge9_Node000001_Node000009" class="edge">
<title>Node1&#45;&gt;Node9</title>
<g id="a_edge9_Node000001_Node000009"><a xlink:title=" ">
<path fill="none" stroke="#63b8ff" d="M258.99,-106.35C241.39,-96.84 218.97,-84.74 203.68,-76.48"/>
<polygon fill="#63b8ff" stroke="#63b8ff" points="256.91,-109.2 267.37,-110.87 260.24,-103.04 256.91,-109.2"/>
</a>
</g>
</g>
<!-- Node11 -->
<g id="Node000011" class="node">
<title>Node11</title>
<g id="a_Node000011"><a xlink:href="_i_p_o_s___m40___v1__00__101125_2_core_2_inc_2spi_8h.html" target="_top" xlink:title="This file contains all the function prototypes for the spi.c file.">
<polygon fill="white" stroke="#666666" points="458.62,-76 421.62,-76 421.62,-56 458.62,-56 458.62,-76"/>
<text xml:space="preserve" text-anchor="middle" x="440.12" y="-62.5" font-family="Helvetica,sans-Serif" font-size="10.00">spi.h</text>
</a>
</g>
</g>
<!-- Node1&#45;&gt;Node11 -->
<g id="edge12_Node000001_Node000011" class="edge">
<title>Node1&#45;&gt;Node11</title>
<g id="a_edge12_Node000001_Node000011"><a xlink:title=" ">
<path fill="none" stroke="#63b8ff" d="M319.96,-109.14C351.08,-98.22 396.11,-82.43 421.28,-73.61"/>
<polygon fill="#63b8ff" stroke="#63b8ff" points="318.89,-105.8 310.61,-112.41 321.2,-112.41 318.89,-105.8"/>
</a>
</g>
</g>
<!-- Node12 -->
<g id="Node000012" class="node">
<title>Node12</title>
<g id="a_Node000012"><a xlink:href="_i_p_o_s___m40___v1__00__101125_2_core_2_inc_2usart_8h.html" target="_top" xlink:title="This file contains all the function prototypes for the usart.c file.">
<polygon fill="white" stroke="#666666" points="523.12,-76 477.12,-76 477.12,-56 523.12,-56 523.12,-76"/>
<text xml:space="preserve" text-anchor="middle" x="500.12" y="-62.5" font-family="Helvetica,sans-Serif" font-size="10.00">usart.h</text>
</a>
</g>
</g>
<!-- Node1&#45;&gt;Node12 -->
<g id="edge13_Node000001_Node000012" class="edge">
<title>Node1&#45;&gt;Node12</title>
<g id="a_edge13_Node000001_Node000012"><a xlink:title=" ">
<path fill="none" stroke="#63b8ff" d="M320.2,-112.92C356.83,-104.15 416.73,-89.58 468.12,-76 470.91,-75.26 473.84,-74.47 476.73,-73.67"/>
<polygon fill="#63b8ff" stroke="#63b8ff" points="319.55,-109.47 310.64,-115.2 321.18,-116.28 319.55,-109.47"/>
</a>
</g>
</g>
<!-- Node13 -->
<g id="Node000013" class="node">
<title>Node13</title>
<g id="a_Node000013"><a xlink:href="usb__otg_8h.html" target="_top" xlink:title="This file contains all the function prototypes for the usb_otg.c file.">
<polygon fill="white" stroke="#666666" points="281.5,-76 222.75,-76 222.75,-56 281.5,-56 281.5,-76"/>
<text xml:space="preserve" text-anchor="middle" x="252.12" y="-62.5" font-family="Helvetica,sans-Serif" font-size="10.00">usb_otg.h</text>
</a>
</g>
</g>
<!-- Node1&#45;&gt;Node13 -->
<g id="edge14_Node000001_Node000013" class="edge">
<title>Node1&#45;&gt;Node13</title>
<g id="a_edge14_Node000001_Node000013"><a xlink:title=" ">
<path fill="none" stroke="#63b8ff" d="M274.08,-101.87C268.61,-93.19 262.4,-83.32 257.98,-76.3"/>
<polygon fill="#63b8ff" stroke="#63b8ff" points="271.11,-103.72 279.4,-110.31 277.03,-99.99 271.11,-103.72"/>
</a>
</g>
</g>
<!-- Node3 -->
<g id="Node000003" class="node">
<title>Node3</title>
<g id="a_Node000003"><a xlink:href="bdma_8c.html" target="_top" xlink:title="This file provides code for the configuration of all the requested memory to memory DMA transfers.">
<polygon fill="white" stroke="#666666" points="48.25,-20 0,-20 0,0 48.25,0 48.25,-20"/>
<text xml:space="preserve" text-anchor="middle" x="24.12" y="-6.5" font-family="Helvetica,sans-Serif" font-size="10.00">bdma.c</text>
</a>
</g>
</g>
<!-- Node2&#45;&gt;Node3 -->
<g id="edge2_Node000002_Node000003" class="edge">
<title>Node2&#45;&gt;Node3</title>
<g id="a_edge2_Node000002_Node000003"><a xlink:title=" ">
<path fill="none" stroke="#63b8ff" d="M45.43,-45.87C40.13,-37.19 34.1,-27.32 29.81,-20.3"/>
<polygon fill="#63b8ff" stroke="#63b8ff" points="42.39,-47.59 50.59,-54.3 48.36,-43.94 42.39,-47.59"/>
</a>
</g>
</g>
<!-- Node4 -->
<g id="Node000004" class="node">
<title>Node4</title>
<g id="a_Node000004"><a xlink:href="_i_p_o_s___m40___v1__00__101125_2_core_2_src_2main_8c.html" target="_top" xlink:title=": Main program body">
<polygon fill="white" stroke="#666666" points="179.75,-20 134.5,-20 134.5,0 179.75,0 179.75,-20"/>
<text xml:space="preserve" text-anchor="middle" x="157.12" y="-6.5" font-family="Helvetica,sans-Serif" font-size="10.00">main.c</text>
</a>
</g>
</g>
<!-- Node2&#45;&gt;Node4 -->
<g id="edge3_Node000002_Node000004" class="edge">
<title>Node2&#45;&gt;Node4</title>
<g id="a_edge3_Node000002_Node000004"><a xlink:title=" ">
<path fill="none" stroke="#63b8ff" d="M84.26,-50.35C101.86,-40.84 124.28,-28.74 139.57,-20.48"/>
<polygon fill="#63b8ff" stroke="#63b8ff" points="83.01,-47.04 75.88,-54.87 86.34,-53.2 83.01,-47.04"/>
</a>
</g>
</g>
<!-- Node5&#45;&gt;Node4 -->
<g id="edge6_Node000005_Node000004" class="edge">
<title>Node5&#45;&gt;Node4</title>
<g id="a_edge6_Node000005_Node000004"><a xlink:title=" ">
<path fill="none" stroke="#63b8ff" d="M135.82,-45.87C141.12,-37.19 147.15,-27.32 151.44,-20.3"/>
<polygon fill="#63b8ff" stroke="#63b8ff" points="132.89,-43.94 130.66,-54.3 138.86,-47.59 132.89,-43.94"/>
</a>
</g>
</g>
<!-- Node6 -->
<g id="Node000006" class="node">
<title>Node6</title>
<g id="a_Node000006"><a xlink:href="_i_p_o_s___m40___v1__00__101125_2_core_2_src_2debug_8c.html" target="_top" xlink:title=" ">
<polygon fill="white" stroke="#666666" points="116.38,-20 65.88,-20 65.88,0 116.38,0 116.38,-20"/>
<text xml:space="preserve" text-anchor="middle" x="91.12" y="-6.5" font-family="Helvetica,sans-Serif" font-size="10.00">debug.c</text>
</a>
</g>
</g>
<!-- Node5&#45;&gt;Node6 -->
<g id="edge5_Node000005_Node000006" class="edge">
<title>Node5&#45;&gt;Node6</title>
<g id="a_edge5_Node000005_Node000006"><a xlink:title=" ">
<path fill="none" stroke="#63b8ff" d="M112.43,-45.87C107.13,-37.19 101.1,-27.32 96.81,-20.3"/>
<polygon fill="#63b8ff" stroke="#63b8ff" points="109.39,-47.59 117.59,-54.3 115.36,-43.94 109.39,-47.59"/>
</a>
</g>
</g>
<!-- Node9&#45;&gt;Node4 -->
<g id="edge11_Node000009_Node000004" class="edge">
<title>Node9&#45;&gt;Node4</title>
<g id="a_edge11_Node000009_Node000004"><a xlink:title=" ">
<path fill="none" stroke="#63b8ff" d="M175.7,-45.58C171.07,-36.97 165.85,-27.24 162.12,-20.3"/>
<polygon fill="#63b8ff" stroke="#63b8ff" points="172.54,-47.11 180.36,-54.26 178.71,-43.79 172.54,-47.11"/>
</a>
</g>
</g>
<!-- Node10 -->
<g id="Node000010" class="node">
<title>Node10</title>
<g id="a_Node000010"><a xlink:href="i2c_8c.html" target="_top" xlink:title="This file provides code for the configuration of the I2C instances.">
<polygon fill="white" stroke="#666666" points="234.62,-20 197.62,-20 197.62,0 234.62,0 234.62,-20"/>
<text xml:space="preserve" text-anchor="middle" x="216.12" y="-6.5" font-family="Helvetica,sans-Serif" font-size="10.00">i2c.c</text>
</a>
</g>
</g>
<!-- Node9&#45;&gt;Node10 -->
<g id="edge10_Node000009_Node000010" class="edge">
<title>Node9&#45;&gt;Node10</title>
<g id="a_edge10_Node000009_Node000010"><a xlink:title=" ">
<path fill="none" stroke="#63b8ff" d="M196.91,-45.58C201.7,-36.97 207.1,-27.24 210.96,-20.3"/>
<polygon fill="#63b8ff" stroke="#63b8ff" points="193.88,-43.83 192.09,-54.27 200,-47.23 193.88,-43.83"/>
</a>
</g>
</g>
<!-- Node13&#45;&gt;Node4 -->
<g id="edge15_Node000013_Node000004" class="edge">
<title>Node13&#45;&gt;Node4</title>
<g id="a_edge15_Node000013_Node000004"><a xlink:title=" ">
<path fill="none" stroke="#63b8ff" d="M225.88,-50.08C209.23,-40.62 188.19,-28.66 173.8,-20.48"/>
<polygon fill="#63b8ff" stroke="#63b8ff" points="223.84,-52.95 234.26,-54.85 227.3,-46.86 223.84,-52.95"/>
</a>
</g>
</g>
<!-- Node14 -->
<g id="Node000014" class="node">
<title>Node14</title>
<g id="a_Node000014"><a xlink:href="usb__otg_8c.html" target="_top" xlink:title="This file provides code for the configuration of the USB_OTG instances.">
<polygon fill="white" stroke="#666666" points="311.5,-20 252.75,-20 252.75,0 311.5,0 311.5,-20"/>
<text xml:space="preserve" text-anchor="middle" x="282.12" y="-6.5" font-family="Helvetica,sans-Serif" font-size="10.00">usb_otg.c</text>
</a>
</g>
</g>
<!-- Node13&#45;&gt;Node14 -->
<g id="edge16_Node000013_Node000014" class="edge">
<title>Node13&#45;&gt;Node14</title>
<g id="a_edge16_Node000013_Node000014"><a xlink:title=" ">
<path fill="none" stroke="#63b8ff" d="M262.91,-45.58C267.7,-36.97 273.1,-27.24 276.96,-20.3"/>
<polygon fill="#63b8ff" stroke="#63b8ff" points="259.88,-43.83 258.09,-54.27 266,-47.23 259.88,-43.83"/>
</a>
</g>
</g>
</g>
</svg>
