<?xml version="1.0" encoding="UTF-8" standalone="no"?>
<!DOCTYPE svg PUBLIC "-//W3C//DTD SVG 1.1//EN"
 "http://www.w3.org/Graphics/SVG/1.1/DTD/svg11.dtd">
<!-- Generated by graphviz version 14.0.2 (20251019.1705)
 -->
<!-- Title: main.c Pages: 1 -->
<svg width="594pt" height="252pt"
 viewBox="0.00 0.00 594.00 252.00" xmlns="http://www.w3.org/2000/svg" xmlns:xlink="http://www.w3.org/1999/xlink">
<g id="graph0" class="graph" transform="scale(1 1) rotate(0) translate(4 248)">
<title>main.c</title>
<!-- Node1 -->
<g id="Node000001" class="node">
<title>Node1</title>
<g id="a_Node000001"><a xlink:title=": Main program body">
<polygon fill="#999999" stroke="#666666" points="296.25,-244 251,-244 251,-224 296.25,-224 296.25,-244"/>
<text xml:space="preserve" text-anchor="middle" x="273.62" y="-230.5" font-family="Helvetica,sans-Serif" font-size="10.00">main.c</text>
</a>
</g>
</g>
<!-- Node2 -->
<g id="Node000002" class="node">
<title>Node2</title>
<g id="a_Node000002"><a xlink:title=" ">
<polygon fill="#e0e0e0" stroke="#999999" points="45.25,-188 0,-188 0,-168 45.25,-168 45.25,-188"/>
<text xml:space="preserve" text-anchor="middle" x="22.62" y="-174.5" font-family="Helvetica,sans-Serif" font-size="10.00">main.h</text>
</a>
</g>
</g>
<!-- Node1&#45;&gt;Node2 -->
<g id="edge1_Node000001_Node000002" class="edge">
<title>Node1&#45;&gt;Node2</title>
<g id="a_edge1_Node000001_Node000002"><a xlink:title=" ">
<path fill="none" stroke="#63b8ff" d="M250.77,-228.44C211.58,-220.56 129.05,-203.74 59.62,-188 58.64,-187.78 57.64,-187.55 56.63,-187.31"/>
<polygon fill="#63b8ff" stroke="#63b8ff" points="57.7,-183.97 47.16,-185.08 56.09,-190.78 57.7,-183.97"/>
</a>
</g>
</g>
<!-- Node3 -->
<g id="Node000003" class="node">
<title>Node3</title>
<g id="a_Node000003"><a xlink:title=" ">
<polygon fill="#e0e0e0" stroke="#999999" points="118.75,-76 52.5,-76 52.5,-56 118.75,-56 118.75,-76"/>
<text xml:space="preserve" text-anchor="middle" x="85.62" y="-62.5" font-family="Helvetica,sans-Serif" font-size="10.00">cmsis_os.h</text>
</a>
</g>
</g>
<!-- Node1&#45;&gt;Node3 -->
<g id="edge2_Node000001_Node000003" class="edge">
<title>Node1&#45;&gt;Node3</title>
<g id="a_edge2_Node000001_Node000003"><a xlink:title=" ">
<path fill="none" stroke="#63b8ff" d="M250.59,-233.16C216.42,-232.1 152.5,-224.9 116.62,-188 90.26,-160.87 85.43,-114.53 85.03,-87.75"/>
<polygon fill="#63b8ff" stroke="#63b8ff" points="88.53,-87.89 85.1,-77.87 81.53,-87.84 88.53,-87.89"/>
</a>
</g>
</g>
<!-- Node4 -->
<g id="Node000004" class="node">
<title>Node4</title>
<g id="a_Node000004"><a xlink:title=" ">
<polygon fill="#e0e0e0" stroke="#999999" points="237.12,-188 194.12,-188 194.12,-168 237.12,-168 237.12,-188"/>
<text xml:space="preserve" text-anchor="middle" x="215.62" y="-174.5" font-family="Helvetica,sans-Serif" font-size="10.00">dma.h</text>
</a>
</g>
</g>
<!-- Node1&#45;&gt;Node4 -->
<g id="edge3_Node000001_Node000004" class="edge">
<title>Node1&#45;&gt;Node4</title>
<g id="a_edge3_Node000001_Node000004"><a xlink:title=" ">
<path fill="none" stroke="#63b8ff" d="M263.52,-223.59C255.37,-216.01 243.69,-205.13 233.91,-196.02"/>
<polygon fill="#63b8ff" stroke="#63b8ff" points="236.42,-193.58 226.72,-189.33 231.65,-198.71 236.42,-193.58"/>
</a>
</g>
</g>
<!-- Node5 -->
<g id="Node000005" class="node">
<title>Node5</title>
<g id="a_Node000005"><a xlink:title=" ">
<polygon fill="#e0e0e0" stroke="#999999" points="292.12,-188 255.12,-188 255.12,-168 292.12,-168 292.12,-188"/>
<text xml:space="preserve" text-anchor="middle" x="273.62" y="-174.5" font-family="Helvetica,sans-Serif" font-size="10.00">spi.h</text>
</a>
</g>
</g>
<!-- Node1&#45;&gt;Node5 -->
<g id="edge4_Node000001_Node000005" class="edge">
<title>Node1&#45;&gt;Node5</title>
<g id="a_edge4_Node000001_Node000005"><a xlink:title=" ">
<path fill="none" stroke="#63b8ff" d="M273.62,-223.59C273.62,-217.01 273.62,-207.96 273.62,-199.73"/>
<polygon fill="#63b8ff" stroke="#63b8ff" points="277.13,-199.81 273.63,-189.81 270.13,-199.81 277.13,-199.81"/>
</a>
</g>
</g>
<!-- Node6 -->
<g id="Node000006" class="node">
<title>Node6</title>
<g id="a_Node000006"><a xlink:title=" ">
<polygon fill="#e0e0e0" stroke="#999999" points="356.62,-188 310.62,-188 310.62,-168 356.62,-168 356.62,-188"/>
<text xml:space="preserve" text-anchor="middle" x="333.62" y="-174.5" font-family="Helvetica,sans-Serif" font-size="10.00">usart.h</text>
</a>
</g>
</g>
<!-- Node1&#45;&gt;Node6 -->
<g id="edge5_Node000001_Node000006" class="edge">
<title>Node1&#45;&gt;Node6</title>
<g id="a_edge5_Node000001_Node000006"><a xlink:title=" ">
<path fill="none" stroke="#63b8ff" d="M284.08,-223.59C292.59,-215.93 304.84,-204.91 315.02,-195.75"/>
<polygon fill="#63b8ff" stroke="#63b8ff" points="317.08,-198.6 322.17,-189.31 312.39,-193.4 317.08,-198.6"/>
</a>
</g>
</g>
<!-- Node7 -->
<g id="Node000007" class="node">
<title>Node7</title>
<g id="a_Node000007"><a xlink:title=" ">
<polygon fill="#e0e0e0" stroke="#999999" points="448.5,-188 374.75,-188 374.75,-168 448.5,-168 448.5,-188"/>
<text xml:space="preserve" text-anchor="middle" x="411.62" y="-174.5" font-family="Helvetica,sans-Serif" font-size="10.00">usb_device.h</text>
</a>
</g>
</g>
<!-- Node1&#45;&gt;Node7 -->
<g id="edge6_Node000001_Node000007" class="edge">
<title>Node1&#45;&gt;Node7</title>
<g id="a_edge6_Node000001_Node000007"><a xlink:title=" ">
<path fill="none" stroke="#63b8ff" d="M296.72,-223.96C318.65,-215.38 351.88,-202.38 376.98,-192.56"/>
<polygon fill="#63b8ff" stroke="#63b8ff" points="378.08,-195.89 386.11,-188.98 375.53,-189.37 378.08,-195.89"/>
</a>
</g>
</g>
<!-- Node8 -->
<g id="Node000008" class="node">
<title>Node8</title>
<g id="a_Node000008"><a xlink:title=" ">
<polygon fill="#e0e0e0" stroke="#999999" points="508.75,-188 466.5,-188 466.5,-168 508.75,-168 508.75,-188"/>
<text xml:space="preserve" text-anchor="middle" x="487.62" y="-174.5" font-family="Helvetica,sans-Serif" font-size="10.00">gpio.h</text>
</a>
</g>
</g>
<!-- Node1&#45;&gt;Node8 -->
<g id="edge7_Node000001_Node000008" class="edge">
<title>Node1&#45;&gt;Node8</title>
<g id="a_edge7_Node000001_Node000008"><a xlink:title=" ">
<path fill="none" stroke="#63b8ff" d="M296.67,-227.77C329.7,-220.18 392.65,-205.4 455.19,-188.56"/>
<polygon fill="#63b8ff" stroke="#63b8ff" points="455.84,-192.02 464.57,-186.02 454,-185.26 455.84,-192.02"/>
</a>
</g>
</g>
<!-- Node9 -->
<g id="Node000009" class="node">
<title>Node9</title>
<g id="a_Node000009"><a xlink:title=" ">
<polygon fill="#e0e0e0" stroke="#999999" points="586,-188 527.25,-188 527.25,-168 586,-168 586,-188"/>
<text xml:space="preserve" text-anchor="middle" x="556.62" y="-174.5" font-family="Helvetica,sans-Serif" font-size="10.00">protocol.h</text>
</a>
</g>
</g>
<!-- Node1&#45;&gt;Node9 -->
<g id="edge8_Node000001_Node000009" class="edge">
<title>Node1&#45;&gt;Node9</title>
<g id="a_edge8_Node000001_Node000009"><a xlink:title=" ">
<path fill="none" stroke="#63b8ff" d="M296.57,-229.12C338.11,-222.02 428.8,-206.17 515.72,-188.32"/>
<polygon fill="#63b8ff" stroke="#63b8ff" points="516.28,-191.78 525.36,-186.32 514.86,-184.92 516.28,-191.78"/>
</a>
</g>
</g>
<!-- Node10 -->
<g id="Node000010" class="node">
<title>Node10</title>
<g id="a_Node000010"><a xlink:href="inputs_8h.html" target="_top" xlink:title="Input handling, safety interlock logic, and laser control API.">
<polygon fill="white" stroke="#666666" points="175.88,-188 125.38,-188 125.38,-168 175.88,-168 175.88,-188"/>
<text xml:space="preserve" text-anchor="middle" x="150.62" y="-174.5" font-family="Helvetica,sans-Serif" font-size="10.00">inputs.h</text>
</a>
</g>
</g>
<!-- Node1&#45;&gt;Node10 -->
<g id="edge9_Node000001_Node000010" class="edge">
<title>Node1&#45;&gt;Node10</title>
<g id="a_edge9_Node000001_Node000010"><a xlink:title=" ">
<path fill="none" stroke="#63b8ff" d="M252.2,-223.59C233,-215.17 204.58,-202.69 182.68,-193.07"/>
<polygon fill="#63b8ff" stroke="#63b8ff" points="184.17,-189.9 173.6,-189.09 181.35,-196.31 184.17,-189.9"/>
</a>
</g>
</g>
<!-- Node11 -->
<g id="Node000011" class="node">
<title>Node11</title>
<g id="a_Node000011"><a xlink:title=" ">
<polygon fill="#e0e0e0" stroke="#999999" points="190.75,-76 142.5,-76 142.5,-56 190.75,-56 190.75,-76"/>
<text xml:space="preserve" text-anchor="middle" x="166.62" y="-62.5" font-family="Helvetica,sans-Serif" font-size="10.00">stdint.h</text>
</a>
</g>
</g>
<!-- Node10&#45;&gt;Node11 -->
<g id="edge10_Node000010_Node000011" class="edge">
<title>Node10&#45;&gt;Node11</title>
<g id="a_edge10_Node000010_Node000011"><a xlink:title=" ">
<path fill="none" stroke="#63b8ff" d="M143.97,-167.67C135.78,-154.98 123.75,-131.61 130.62,-112 134.2,-101.82 141.14,-92.23 147.99,-84.55"/>
<polygon fill="#63b8ff" stroke="#63b8ff" points="150.3,-87.19 154.72,-77.56 145.26,-82.33 150.3,-87.19"/>
</a>
</g>
</g>
<!-- Node12 -->
<g id="Node000012" class="node">
<title>Node12</title>
<g id="a_Node000012"><a xlink:title=" ">
<polygon fill="#e0e0e0" stroke="#999999" points="337.38,-132 265.88,-132 265.88,-112 337.38,-112 337.38,-132"/>
<text xml:space="preserve" text-anchor="middle" x="301.62" y="-118.5" font-family="Helvetica,sans-Serif" font-size="10.00">cmsis_os2.h</text>
</a>
</g>
</g>
<!-- Node10&#45;&gt;Node12 -->
<g id="edge11_Node000010_Node000012" class="edge">
<title>Node10&#45;&gt;Node12</title>
<g id="a_edge11_Node000010_Node000012"><a xlink:title=" ">
<path fill="none" stroke="#63b8ff" d="M176.24,-167.84C200.42,-159.19 236.96,-146.12 264.37,-136.32"/>
<polygon fill="#63b8ff" stroke="#63b8ff" points="265.46,-139.65 273.7,-132.99 263.1,-133.06 265.46,-139.65"/>
</a>
</g>
</g>
<!-- Node13 -->
<g id="Node000013" class="node">
<title>Node13</title>
<g id="a_Node000013"><a xlink:href="_i_p_o_s__071125_2_core_2_inc_2main_8h.html" target="_top" xlink:title=": Header for main.c file. This file contains the common defines of the application.">
<polygon fill="white" stroke="#666666" points="257.25,-76 212,-76 212,-56 257.25,-56 257.25,-76"/>
<text xml:space="preserve" text-anchor="middle" x="234.62" y="-62.5" font-family="Helvetica,sans-Serif" font-size="10.00">main.h</text>
</a>
</g>
</g>
<!-- Node10&#45;&gt;Node13 -->
<g id="edge12_Node000010_Node000013" class="edge">
<title>Node10&#45;&gt;Node13</title>
<g id="a_edge12_Node000010_Node000013"><a xlink:title=" ">
<path fill="none" stroke="#63b8ff" d="M172.83,-167.63C187.94,-160.14 207.21,-148.2 218.62,-132 227.85,-118.91 231.78,-101.07 233.44,-87.4"/>
<polygon fill="#63b8ff" stroke="#63b8ff" points="236.9,-88.04 234.29,-77.77 229.93,-87.43 236.9,-88.04"/>
</a>
</g>
</g>
<!-- Node15 -->
<g id="Node000015" class="node">
<title>Node15</title>
<g id="a_Node000015"><a xlink:href="max31855_8h.html" target="_top" xlink:title=" ">
<polygon fill="white" stroke="#666666" points="209.25,-132 140,-132 140,-112 209.25,-112 209.25,-132"/>
<text xml:space="preserve" text-anchor="middle" x="174.62" y="-118.5" font-family="Helvetica,sans-Serif" font-size="10.00">max31855.h</text>
</a>
</g>
</g>
<!-- Node10&#45;&gt;Node15 -->
<g id="edge14_Node000010_Node000015" class="edge">
<title>Node10&#45;&gt;Node15</title>
<g id="a_edge14_Node000010_Node000015"><a xlink:title=" ">
<path fill="none" stroke="#63b8ff" d="M154.81,-167.59C157.87,-160.7 162.14,-151.1 165.93,-142.57"/>
<polygon fill="#63b8ff" stroke="#63b8ff" points="169.01,-144.24 169.88,-133.68 162.62,-141.4 169.01,-144.24"/>
</a>
</g>
</g>
<!-- Node14 -->
<g id="Node000014" class="node">
<title>Node14</title>
<g id="a_Node000014"><a xlink:title=" ">
<polygon fill="#e0e0e0" stroke="#999999" points="278.62,-20 190.62,-20 190.62,0 278.62,0 278.62,-20"/>
<text xml:space="preserve" text-anchor="middle" x="234.62" y="-6.5" font-family="Helvetica,sans-Serif" font-size="10.00">stm32f4xx_hal.h</text>
</a>
</g>
</g>
<!-- Node13&#45;&gt;Node14 -->
<g id="edge13_Node000013_Node000014" class="edge">
<title>Node13&#45;&gt;Node14</title>
<g id="a_edge13_Node000013_Node000014"><a xlink:title=" ">
<path fill="none" stroke="#63b8ff" d="M234.62,-55.59C234.62,-49.01 234.62,-39.96 234.62,-31.73"/>
<polygon fill="#63b8ff" stroke="#63b8ff" points="238.13,-31.81 234.63,-21.81 231.13,-31.81 238.13,-31.81"/>
</a>
</g>
</g>
<!-- Node15&#45;&gt;Node3 -->
<g id="edge16_Node000015_Node000003" class="edge">
<title>Node15&#45;&gt;Node3</title>
<g id="a_edge16_Node000015_Node000003"><a xlink:title=" ">
<path fill="none" stroke="#63b8ff" d="M159.12,-111.59C145.8,-103.51 126.35,-91.71 110.8,-82.27"/>
<polygon fill="#63b8ff" stroke="#63b8ff" points="112.91,-79.46 102.54,-77.26 109.28,-85.44 112.91,-79.46"/>
</a>
</g>
</g>
<!-- Node15&#45;&gt;Node11 -->
<g id="edge17_Node000015_Node000011" class="edge">
<title>Node15&#45;&gt;Node11</title>
<g id="a_edge17_Node000015_Node000011"><a xlink:title=" ">
<path fill="none" stroke="#63b8ff" d="M173.23,-111.59C172.24,-104.93 170.88,-95.75 169.65,-87.44"/>
<polygon fill="#63b8ff" stroke="#63b8ff" points="173.15,-87.17 168.22,-77.8 166.23,-88.2 173.15,-87.17"/>
</a>
</g>
</g>
<!-- Node15&#45;&gt;Node13 -->
<g id="edge15_Node000015_Node000013" class="edge">
<title>Node15&#45;&gt;Node13</title>
<g id="a_edge15_Node000015_Node000013"><a xlink:title=" ">
<path fill="none" stroke="#63b8ff" d="M185.08,-111.59C193.59,-103.93 205.84,-92.91 216.02,-83.75"/>
<polygon fill="#63b8ff" stroke="#63b8ff" points="218.08,-86.6 223.17,-77.31 213.39,-81.4 218.08,-86.6"/>
</a>
</g>
</g>
</g>
</svg>
