<?xml version="1.0" encoding="UTF-8" standalone="no"?>
<!DOCTYPE svg PUBLIC "-//W3C//DTD SVG 1.1//EN"
 "http://www.w3.org/Graphics/SVG/1.1/DTD/svg11.dtd">
<!-- Generated by graphviz version 14.0.2 (20251019.1705)
 -->
<!-- Title: syscalls.c Pages: 1 -->
<svg width="554pt" height="84pt"
 viewBox="0.00 0.00 554.00 84.00" xmlns="http://www.w3.org/2000/svg" xmlns:xlink="http://www.w3.org/1999/xlink">
<g id="graph0" class="graph" transform="scale(1 1) rotate(0) translate(4 80)">
<title>syscalls.c</title>
<!-- Node1 -->
<g id="Node000001" class="node">
<title>Node1</title>
<g id="a_Node000001"><a xlink:title="STM32CubeIDE Minimal System calls file.">
<polygon fill="#999999" stroke="#666666" points="293.88,-76 233.62,-76 233.62,-56 293.88,-56 293.88,-76"/>
<text xml:space="preserve" text-anchor="middle" x="263.75" y="-62.5" font-family="Helvetica,sans-Serif" font-size="10.00">syscalls.c</text>
</a>
</g>
</g>
<!-- Node2 -->
<g id="Node000002" class="node">
<title>Node2</title>
<g id="a_Node000002"><a xlink:title=" ">
<polygon fill="#e0e0e0" stroke="#999999" points="59.5,-20 0,-20 0,0 59.5,0 59.5,-20"/>
<text xml:space="preserve" text-anchor="middle" x="29.75" y="-6.5" font-family="Helvetica,sans-Serif" font-size="10.00">sys/stat.h</text>
</a>
</g>
</g>
<!-- Node1&#45;&gt;Node2 -->
<g id="edge1_Node000001_Node000002" class="edge">
<title>Node1&#45;&gt;Node2</title>
<g id="a_edge1_Node000001_Node000002"><a xlink:title=" ">
<path fill="none" stroke="#63b8ff" d="M233.16,-57.94C191.7,-48.37 117.54,-31.26 71.14,-20.55"/>
<polygon fill="#63b8ff" stroke="#63b8ff" points="71.98,-17.15 61.45,-18.32 70.41,-23.98 71.98,-17.15"/>
</a>
</g>
</g>
<!-- Node3 -->
<g id="Node000003" class="node">
<title>Node3</title>
<g id="a_Node000003"><a xlink:title=" ">
<polygon fill="#e0e0e0" stroke="#999999" points="125.5,-20 78,-20 78,0 125.5,0 125.5,-20"/>
<text xml:space="preserve" text-anchor="middle" x="101.75" y="-6.5" font-family="Helvetica,sans-Serif" font-size="10.00">stdlib.h</text>
</a>
</g>
</g>
<!-- Node1&#45;&gt;Node3 -->
<g id="edge2_Node000001_Node000003" class="edge">
<title>Node1&#45;&gt;Node3</title>
<g id="a_edge2_Node000001_Node000003"><a xlink:title=" ">
<path fill="none" stroke="#63b8ff" d="M235.53,-55.59C208.04,-46.43 166.18,-32.48 136.62,-22.62"/>
<polygon fill="#63b8ff" stroke="#63b8ff" points="137.98,-19.39 127.38,-19.54 135.76,-26.03 137.98,-19.39"/>
</a>
</g>
</g>
<!-- Node4 -->
<g id="Node000004" class="node">
<title>Node4</title>
<g id="a_Node000004"><a xlink:title=" ">
<polygon fill="#e0e0e0" stroke="#999999" points="189.75,-20 143.75,-20 143.75,0 189.75,0 189.75,-20"/>
<text xml:space="preserve" text-anchor="middle" x="166.75" y="-6.5" font-family="Helvetica,sans-Serif" font-size="10.00">errno.h</text>
</a>
</g>
</g>
<!-- Node1&#45;&gt;Node4 -->
<g id="edge3_Node000001_Node000004" class="edge">
<title>Node1&#45;&gt;Node4</title>
<g id="a_edge3_Node000001_Node000004"><a xlink:title=" ">
<path fill="none" stroke="#63b8ff" d="M246.85,-55.59C232.2,-47.44 210.73,-35.48 193.7,-26"/>
<polygon fill="#63b8ff" stroke="#63b8ff" points="195.54,-23.02 185.1,-21.22 192.14,-29.14 195.54,-23.02"/>
</a>
</g>
</g>
<!-- Node5 -->
<g id="Node000005" class="node">
<title>Node5</title>
<g id="a_Node000005"><a xlink:title=" ">
<polygon fill="#e0e0e0" stroke="#999999" points="253.38,-20 208.12,-20 208.12,0 253.38,0 253.38,-20"/>
<text xml:space="preserve" text-anchor="middle" x="230.75" y="-6.5" font-family="Helvetica,sans-Serif" font-size="10.00">stdio.h</text>
</a>
</g>
</g>
<!-- Node1&#45;&gt;Node5 -->
<g id="edge4_Node000001_Node000005" class="edge">
<title>Node1&#45;&gt;Node5</title>
<g id="a_edge4_Node000001_Node000005"><a xlink:title=" ">
<path fill="none" stroke="#63b8ff" d="M258,-55.59C253.7,-48.55 247.66,-38.67 242.36,-30"/>
<polygon fill="#63b8ff" stroke="#63b8ff" points="245.42,-28.3 237.22,-21.59 239.45,-31.95 245.42,-28.3"/>
</a>
</g>
</g>
<!-- Node6 -->
<g id="Node000006" class="node">
<title>Node6</title>
<g id="a_Node000006"><a xlink:title=" ">
<polygon fill="#e0e0e0" stroke="#999999" points="321.62,-20 271.88,-20 271.88,0 321.62,0 321.62,-20"/>
<text xml:space="preserve" text-anchor="middle" x="296.75" y="-6.5" font-family="Helvetica,sans-Serif" font-size="10.00">signal.h</text>
</a>
</g>
</g>
<!-- Node1&#45;&gt;Node6 -->
<g id="edge5_Node000001_Node000006" class="edge">
<title>Node1&#45;&gt;Node6</title>
<g id="a_edge5_Node000001_Node000006"><a xlink:title=" ">
<path fill="none" stroke="#63b8ff" d="M269.5,-55.59C273.8,-48.55 279.84,-38.67 285.14,-30"/>
<polygon fill="#63b8ff" stroke="#63b8ff" points="288.05,-31.95 290.28,-21.59 282.08,-28.3 288.05,-31.95"/>
</a>
</g>
</g>
<!-- Node7 -->
<g id="Node000007" class="node">
<title>Node7</title>
<g id="a_Node000007"><a xlink:title=" ">
<polygon fill="#e0e0e0" stroke="#999999" points="382.25,-20 339.25,-20 339.25,0 382.25,0 382.25,-20"/>
<text xml:space="preserve" text-anchor="middle" x="360.75" y="-6.5" font-family="Helvetica,sans-Serif" font-size="10.00">time.h</text>
</a>
</g>
</g>
<!-- Node1&#45;&gt;Node7 -->
<g id="edge6_Node000001_Node000007" class="edge">
<title>Node1&#45;&gt;Node7</title>
<g id="a_edge6_Node000001_Node000007"><a xlink:title=" ">
<path fill="none" stroke="#63b8ff" d="M280.65,-55.59C295.3,-47.44 316.77,-35.48 333.8,-26"/>
<polygon fill="#63b8ff" stroke="#63b8ff" points="335.36,-29.14 342.4,-21.22 331.96,-23.02 335.36,-29.14"/>
</a>
</g>
</g>
<!-- Node8 -->
<g id="Node000008" class="node">
<title>Node8</title>
<g id="a_Node000008"><a xlink:title=" ">
<polygon fill="#e0e0e0" stroke="#999999" points="461.62,-20 399.88,-20 399.88,0 461.62,0 461.62,-20"/>
<text xml:space="preserve" text-anchor="middle" x="430.75" y="-6.5" font-family="Helvetica,sans-Serif" font-size="10.00">sys/time.h</text>
</a>
</g>
</g>
<!-- Node1&#45;&gt;Node8 -->
<g id="edge7_Node000001_Node000008" class="edge">
<title>Node1&#45;&gt;Node8</title>
<g id="a_edge7_Node000001_Node000008"><a xlink:title=" ">
<path fill="none" stroke="#63b8ff" d="M292.84,-55.59C319.97,-46.82 360.68,-33.66 390.84,-23.9"/>
<polygon fill="#63b8ff" stroke="#63b8ff" points="391.56,-27.35 399.99,-20.95 389.4,-20.69 391.56,-27.35"/>
</a>
</g>
</g>
<!-- Node9 -->
<g id="Node000009" class="node">
<title>Node9</title>
<g id="a_Node000009"><a xlink:title=" ">
<polygon fill="#e0e0e0" stroke="#999999" points="546.25,-20 479.25,-20 479.25,0 546.25,0 546.25,-20"/>
<text xml:space="preserve" text-anchor="middle" x="512.75" y="-6.5" font-family="Helvetica,sans-Serif" font-size="10.00">sys/times.h</text>
</a>
</g>
</g>
<!-- Node1&#45;&gt;Node9 -->
<g id="edge8_Node000001_Node000009" class="edge">
<title>Node1&#45;&gt;Node9</title>
<g id="a_edge8_Node000001_Node000009"><a xlink:title=" ">
<path fill="none" stroke="#63b8ff" d="M294.28,-58.38C337.65,-48.97 417.4,-31.68 467.61,-20.79"/>
<polygon fill="#63b8ff" stroke="#63b8ff" points="468.27,-24.23 477.3,-18.69 466.79,-17.39 468.27,-24.23"/>
</a>
</g>
</g>
</g>
</svg>
