<?xml version="1.0" encoding="UTF-8" standalone="no"?>
<!DOCTYPE svg PUBLIC "-//W3C//DTD SVG 1.1//EN"
 "http://www.w3.org/Graphics/SVG/1.1/DTD/svg11.dtd">
<!-- Generated by graphviz version 14.0.2 (20251019.1705)
 -->
<!-- Title: debug.c Pages: 1 -->
<svg width="140pt" height="84pt"
 viewBox="0.00 0.00 140.00 84.00" xmlns="http://www.w3.org/2000/svg" xmlns:xlink="http://www.w3.org/1999/xlink">
<g id="graph0" class="graph" transform="scale(1 1) rotate(0) translate(4 80)">
<title>debug.c</title>
<!-- Node1 -->
<g id="Node000001" class="node">
<title>Node1</title>
<g id="a_Node000001"><a xlink:title=" ">
<polygon fill="#999999" stroke="#666666" points="97.62,-76 47.12,-76 47.12,-56 97.62,-56 97.62,-76"/>
<text xml:space="preserve" text-anchor="middle" x="72.38" y="-62.5" font-family="Helvetica,sans-Serif" font-size="10.00">debug.c</text>
</a>
</g>
</g>
<!-- Node2 -->
<g id="Node000002" class="node">
<title>Node2</title>
<g id="a_Node000002"><a xlink:title=" ">
<polygon fill="#e0e0e0" stroke="#999999" points="70.75,-20 0,-20 0,0 70.75,0 70.75,-20"/>
<text xml:space="preserve" text-anchor="middle" x="35.38" y="-6.5" font-family="Helvetica,sans-Serif" font-size="10.00">FreeRTOS.h</text>
</a>
</g>
</g>
<!-- Node1&#45;&gt;Node2 -->
<g id="edge1_Node000001_Node000002" class="edge">
<title>Node1&#45;&gt;Node2</title>
<g id="a_edge1_Node000001_Node000002"><a xlink:title=" ">
<path fill="none" stroke="#63b8ff" d="M65.93,-55.59C61.05,-48.47 54.18,-38.45 48.2,-29.72"/>
<polygon fill="#63b8ff" stroke="#63b8ff" points="51.14,-27.82 42.6,-21.55 45.37,-31.77 51.14,-27.82"/>
</a>
</g>
</g>
<!-- Node3 -->
<g id="Node000003" class="node">
<title>Node3</title>
<g id="a_Node000003"><a xlink:title=" ">
<polygon fill="#e0e0e0" stroke="#999999" points="131.88,-20 88.88,-20 88.88,0 131.88,0 131.88,-20"/>
<text xml:space="preserve" text-anchor="middle" x="110.38" y="-6.5" font-family="Helvetica,sans-Serif" font-size="10.00">task.h</text>
</a>
</g>
</g>
<!-- Node1&#45;&gt;Node3 -->
<g id="edge2_Node000001_Node000003" class="edge">
<title>Node1&#45;&gt;Node3</title>
<g id="a_edge2_Node000001_Node000003"><a xlink:title=" ">
<path fill="none" stroke="#63b8ff" d="M78.99,-55.59C84.06,-48.39 91.21,-38.23 97.4,-29.43"/>
<polygon fill="#63b8ff" stroke="#63b8ff" points="100.07,-31.73 102.96,-21.54 94.34,-27.7 100.07,-31.73"/>
</a>
</g>
</g>
</g>
</svg>
