<?xml version="1.0" encoding="UTF-8" standalone="no"?>
<!DOCTYPE svg PUBLIC "-//W3C//DTD SVG 1.1//EN"
 "http://www.w3.org/Graphics/SVG/1.1/DTD/svg11.dtd">
<!-- Generated by graphviz version 14.0.2 (20251019.1705)
 -->
<!-- Title: main.c Pages: 1 -->
<svg width="1365pt" height="208pt"
 viewBox="0.00 0.00 1365.00 208.00" xmlns="http://www.w3.org/2000/svg" xmlns:xlink="http://www.w3.org/1999/xlink">
<g id="graph0" class="graph" transform="scale(1 1) rotate(0) translate(4 204)">
<title>main.c</title>
<!-- Node1 -->
<g id="Node000001" class="node">
<title>Node1</title>
<g id="a_Node000001"><a xlink:title=": Main program body">
<polygon fill="#999999" stroke="#666666" points="603.25,-200 558,-200 558,-180 603.25,-180 603.25,-200"/>
<text xml:space="preserve" text-anchor="middle" x="580.62" y="-186.5" font-family="Helvetica,sans-Serif" font-size="10.00">main.c</text>
</a>
</g>
</g>
<!-- Node2 -->
<g id="Node000002" class="node">
<title>Node2</title>
<g id="a_Node000002"><a xlink:title=" ">
<polygon fill="#e0e0e0" stroke="#999999" points="45.25,-138 0,-138 0,-118 45.25,-118 45.25,-138"/>
<text xml:space="preserve" text-anchor="middle" x="22.62" y="-124.5" font-family="Helvetica,sans-Serif" font-size="10.00">main.h</text>
</a>
</g>
</g>
<!-- Node1&#45;&gt;Node2 -->
<g id="edge1_Node000001_Node000002" class="edge">
<title>Node1&#45;&gt;Node2</title>
<g id="a_edge1_Node000001_Node000002"><a xlink:title=" ">
<path fill="none" stroke="#63b8ff" d="M557.52,-188.1C469.03,-184.51 151.79,-170.04 54.62,-144 53.22,-143.62 51.81,-143.19 50.4,-142.71"/>
<polygon fill="#63b8ff" stroke="#63b8ff" points="51.79,-139.5 41.21,-138.98 49.16,-145.99 51.79,-139.5"/>
</a>
</g>
</g>
<!-- Node3 -->
<g id="Node000003" class="node">
<title>Node3</title>
<g id="a_Node000003"><a xlink:href="bdma_8h.html" target="_top" xlink:title="This file contains all the function prototypes for the bdma.c file.">
<polygon fill="white" stroke="#666666" points="188.75,-138 140.5,-138 140.5,-118 188.75,-118 188.75,-138"/>
<text xml:space="preserve" text-anchor="middle" x="164.62" y="-124.5" font-family="Helvetica,sans-Serif" font-size="10.00">bdma.h</text>
</a>
</g>
</g>
<!-- Node1&#45;&gt;Node3 -->
<g id="edge2_Node000001_Node000003" class="edge">
<title>Node1&#45;&gt;Node3</title>
<g id="a_edge2_Node000001_Node000003"><a xlink:title=" ">
<path fill="none" stroke="#63b8ff" d="M557.71,-188.76C497.52,-187.6 330.48,-181.03 197.62,-144 196.23,-143.61 194.81,-143.17 193.4,-142.69"/>
<polygon fill="#63b8ff" stroke="#63b8ff" points="194.74,-139.46 184.15,-139.01 192.15,-145.96 194.74,-139.46"/>
</a>
</g>
</g>
<!-- Node7 -->
<g id="Node000007" class="node">
<title>Node7</title>
<g id="a_Node000007"><a xlink:title=" ">
<polygon fill="#e0e0e0" stroke="#999999" points="450.12,-138 407.12,-138 407.12,-118 450.12,-118 450.12,-138"/>
<text xml:space="preserve" text-anchor="middle" x="428.62" y="-124.5" font-family="Helvetica,sans-Serif" font-size="10.00">dma.h</text>
</a>
</g>
</g>
<!-- Node1&#45;&gt;Node7 -->
<g id="edge6_Node000001_Node000007" class="edge">
<title>Node1&#45;&gt;Node7</title>
<g id="a_edge6_Node000001_Node000007"><a xlink:title=" ">
<path fill="none" stroke="#63b8ff" d="M557.62,-181.18C533.09,-172.66 493.23,-158.34 459.62,-144 459.01,-143.74 458.38,-143.47 457.75,-143.19"/>
<polygon fill="#63b8ff" stroke="#63b8ff" points="459.44,-140.11 448.89,-139.12 456.51,-146.47 459.44,-140.11"/>
</a>
</g>
</g>
<!-- Node8 -->
<g id="Node000008" class="node">
<title>Node8</title>
<g id="a_Node000008"><a xlink:href="i2c_8h.html" target="_top" xlink:title="This file contains all the function prototypes for the i2c.c file.">
<polygon fill="white" stroke="#666666" points="244.12,-138 207.12,-138 207.12,-118 244.12,-118 244.12,-138"/>
<text xml:space="preserve" text-anchor="middle" x="225.62" y="-124.5" font-family="Helvetica,sans-Serif" font-size="10.00">i2c.h</text>
</a>
</g>
</g>
<!-- Node1&#45;&gt;Node8 -->
<g id="edge7_Node000001_Node000008" class="edge">
<title>Node1&#45;&gt;Node8</title>
<g id="a_edge7_Node000001_Node000008"><a xlink:title=" ">
<path fill="none" stroke="#63b8ff" d="M557.81,-188.61C503.66,-187.11 363.71,-179.78 253.62,-144 252.82,-143.74 252.01,-143.45 251.2,-143.15"/>
<polygon fill="#63b8ff" stroke="#63b8ff" points="252.81,-140.04 242.26,-139.06 249.9,-146.41 252.81,-140.04"/>
</a>
</g>
</g>
<!-- Node9 -->
<g id="Node000009" class="node">
<title>Node9</title>
<g id="a_Node000009"><a xlink:title=" ">
<polygon fill="#e0e0e0" stroke="#999999" points="514.62,-138 468.62,-138 468.62,-118 514.62,-118 514.62,-138"/>
<text xml:space="preserve" text-anchor="middle" x="491.62" y="-124.5" font-family="Helvetica,sans-Serif" font-size="10.00">usart.h</text>
</a>
</g>
</g>
<!-- Node1&#45;&gt;Node9 -->
<g id="edge9_Node000001_Node000009" class="edge">
<title>Node1&#45;&gt;Node9</title>
<g id="a_edge9_Node000001_Node000009"><a xlink:title=" ">
<path fill="none" stroke="#63b8ff" d="M566.72,-179.62C552.87,-170.29 531.37,-155.79 514.91,-144.7"/>
<polygon fill="#63b8ff" stroke="#63b8ff" points="516.94,-141.84 506.69,-139.16 513.02,-147.65 516.94,-141.84"/>
</a>
</g>
</g>
<!-- Node10 -->
<g id="Node000010" class="node">
<title>Node10</title>
<g id="a_Node000010"><a xlink:title=" ">
<polygon fill="#e0e0e0" stroke="#999999" points="570.12,-138 533.12,-138 533.12,-118 570.12,-118 570.12,-138"/>
<text xml:space="preserve" text-anchor="middle" x="551.62" y="-124.5" font-family="Helvetica,sans-Serif" font-size="10.00">spi.h</text>
</a>
</g>
</g>
<!-- Node1&#45;&gt;Node10 -->
<g id="edge10_Node000001_Node000010" class="edge">
<title>Node1&#45;&gt;Node10</title>
<g id="a_edge10_Node000001_Node000010"><a xlink:title=" ">
<path fill="none" stroke="#63b8ff" d="M576.09,-179.62C572.07,-171.3 566.06,-158.86 561,-148.4"/>
<polygon fill="#63b8ff" stroke="#63b8ff" points="564.19,-146.96 556.69,-139.48 557.89,-150 564.19,-146.96"/>
</a>
</g>
</g>
<!-- Node11 -->
<g id="Node000011" class="node">
<title>Node11</title>
<g id="a_Node000011"><a xlink:href="usb__otg_8h.html" target="_top" xlink:title="This file contains all the function prototypes for the usb_otg.c file.">
<polygon fill="white" stroke="#666666" points="122,-138 63.25,-138 63.25,-118 122,-118 122,-138"/>
<text xml:space="preserve" text-anchor="middle" x="92.62" y="-124.5" font-family="Helvetica,sans-Serif" font-size="10.00">usb_otg.h</text>
</a>
</g>
</g>
<!-- Node1&#45;&gt;Node11 -->
<g id="edge11_Node000001_Node000011" class="edge">
<title>Node1&#45;&gt;Node11</title>
<g id="a_edge11_Node000001_Node000011"><a xlink:title=" ">
<path fill="none" stroke="#63b8ff" d="M557.85,-188.85C491.28,-187.96 291.68,-182.07 131.62,-144 129.45,-143.48 127.24,-142.88 125.03,-142.2"/>
<polygon fill="#63b8ff" stroke="#63b8ff" points="126.19,-138.9 115.59,-138.95 123.91,-145.52 126.19,-138.9"/>
</a>
</g>
</g>
<!-- Node12 -->
<g id="Node000012" class="node">
<title>Node12</title>
<g id="a_Node000012"><a xlink:title=" ">
<polygon fill="#e0e0e0" stroke="#999999" points="630.75,-138 588.5,-138 588.5,-118 630.75,-118 630.75,-138"/>
<text xml:space="preserve" text-anchor="middle" x="609.62" y="-124.5" font-family="Helvetica,sans-Serif" font-size="10.00">gpio.h</text>
</a>
</g>
</g>
<!-- Node1&#45;&gt;Node12 -->
<g id="edge13_Node000001_Node000012" class="edge">
<title>Node1&#45;&gt;Node12</title>
<g id="a_edge13_Node000001_Node000012"><a xlink:title=" ">
<path fill="none" stroke="#63b8ff" d="M585.16,-179.62C589.18,-171.3 595.19,-158.86 600.25,-148.4"/>
<polygon fill="#63b8ff" stroke="#63b8ff" points="603.36,-150 604.56,-139.48 597.06,-146.96 603.36,-150"/>
</a>
</g>
</g>
<!-- Node13 -->
<g id="Node000013" class="node">
<title>Node13</title>
<g id="a_Node000013"><a xlink:title=" ">
<polygon fill="#e0e0e0" stroke="#999999" points="315.25,-76 270,-76 270,-56 315.25,-56 315.25,-76"/>
<text xml:space="preserve" text-anchor="middle" x="292.62" y="-62.5" font-family="Helvetica,sans-Serif" font-size="10.00">stdio.h</text>
</a>
</g>
</g>
<!-- Node1&#45;&gt;Node13 -->
<g id="edge14_Node000001_Node000013" class="edge">
<title>Node1&#45;&gt;Node13</title>
<g id="a_edge14_Node000001_Node000013"><a xlink:title=" ">
<path fill="none" stroke="#63b8ff" d="M557.63,-187.95C518.08,-185.3 435.53,-176.06 374.62,-144 346.92,-129.42 321.76,-102.9 306.82,-85.12"/>
<polygon fill="#63b8ff" stroke="#63b8ff" points="309.6,-82.99 300.57,-77.44 304.17,-87.41 309.6,-82.99"/>
</a>
</g>
</g>
<!-- Node14 -->
<g id="Node000014" class="node">
<title>Node14</title>
<g id="a_Node000014"><a xlink:title=" ">
<polygon fill="#e0e0e0" stroke="#999999" points="760.75,-76 712.5,-76 712.5,-56 760.75,-56 760.75,-76"/>
<text xml:space="preserve" text-anchor="middle" x="736.62" y="-62.5" font-family="Helvetica,sans-Serif" font-size="10.00">stdint.h</text>
</a>
</g>
</g>
<!-- Node1&#45;&gt;Node14 -->
<g id="edge15_Node000001_Node000014" class="edge">
<title>Node1&#45;&gt;Node14</title>
<g id="a_edge15_Node000001_Node000014"><a xlink:title=" ">
<path fill="none" stroke="#63b8ff" d="M593.42,-179.52C605.47,-170.53 623.94,-156.57 639.62,-144 656.85,-130.19 660.4,-125.81 677.62,-112 689.75,-102.28 703.55,-91.72 714.76,-83.28"/>
<polygon fill="#63b8ff" stroke="#63b8ff" points="716.72,-86.19 722.62,-77.39 712.52,-80.59 716.72,-86.19"/>
</a>
</g>
</g>
<!-- Node15 -->
<g id="Node000015" class="node">
<title>Node15</title>
<g id="a_Node000015"><a xlink:title=" ">
<polygon fill="#e0e0e0" stroke="#999999" points="924.5,-76 868.75,-76 868.75,-56 924.5,-56 924.5,-76"/>
<text xml:space="preserve" text-anchor="middle" x="896.62" y="-62.5" font-family="Helvetica,sans-Serif" font-size="10.00">stdbool.h</text>
</a>
</g>
</g>
<!-- Node1&#45;&gt;Node15 -->
<g id="edge16_Node000001_Node000015" class="edge">
<title>Node1&#45;&gt;Node15</title>
<g id="a_edge16_Node000001_Node000015"><a xlink:title=" ">
<path fill="none" stroke="#63b8ff" d="M603.36,-188.71C665.71,-187.45 837.46,-180.64 877.62,-144 893.09,-129.89 896.89,-105.37 897.42,-87.78"/>
<polygon fill="#63b8ff" stroke="#63b8ff" points="900.92,-87.95 897.36,-77.97 893.92,-87.99 900.92,-87.95"/>
</a>
</g>
</g>
<!-- Node16 -->
<g id="Node000016" class="node">
<title>Node16</title>
<g id="a_Node000016"><a xlink:title=" ">
<polygon fill="#e0e0e0" stroke="#999999" points="983,-138 924.25,-138 924.25,-118 983,-118 983,-138"/>
<text xml:space="preserve" text-anchor="middle" x="953.62" y="-124.5" font-family="Helvetica,sans-Serif" font-size="10.00">inttypes.h</text>
</a>
</g>
</g>
<!-- Node1&#45;&gt;Node16 -->
<g id="edge17_Node000001_Node000016" class="edge">
<title>Node1&#45;&gt;Node16</title>
<g id="a_edge17_Node000001_Node000016"><a xlink:title=" ">
<path fill="none" stroke="#63b8ff" d="M603.72,-187.45C657.94,-183.46 797.33,-171.19 910.62,-144 913.22,-143.38 915.88,-142.66 918.54,-141.88"/>
<polygon fill="#63b8ff" stroke="#63b8ff" points="919.42,-145.27 927.88,-138.89 917.29,-138.6 919.42,-145.27"/>
</a>
</g>
</g>
<!-- Node17 -->
<g id="Node000017" class="node">
<title>Node17</title>
<g id="a_Node000017"><a xlink:href="ringbuffer_8h.html" target="_top" xlink:title=" ">
<polygon fill="white" stroke="#666666" points="868.62,-138 804.62,-138 804.62,-118 868.62,-118 868.62,-138"/>
<text xml:space="preserve" text-anchor="middle" x="836.62" y="-124.5" font-family="Helvetica,sans-Serif" font-size="10.00">ringbuffer.h</text>
</a>
</g>
</g>
<!-- Node1&#45;&gt;Node17 -->
<g id="edge18_Node000001_Node000017" class="edge">
<title>Node1&#45;&gt;Node17</title>
<g id="a_edge18_Node000001_Node000017"><a xlink:title=" ">
<path fill="none" stroke="#63b8ff" d="M603.48,-185.33C643.05,-178.74 726.69,-163.71 795.62,-144 797.62,-143.43 799.65,-142.81 801.69,-142.16"/>
<polygon fill="#63b8ff" stroke="#63b8ff" points="802.76,-145.49 811.1,-138.96 800.51,-138.87 802.76,-145.49"/>
</a>
</g>
</g>
<!-- Node19 -->
<g id="Node000019" class="node">
<title>Node19</title>
<g id="a_Node000019"><a xlink:href="command__parser_8h.html" target="_top" xlink:title=" ">
<polygon fill="white" stroke="#666666" points="786.25,-138 687,-138 687,-118 786.25,-118 786.25,-138"/>
<text xml:space="preserve" text-anchor="middle" x="736.62" y="-124.5" font-family="Helvetica,sans-Serif" font-size="10.00">command_parser.h</text>
</a>
</g>
</g>
<!-- Node1&#45;&gt;Node19 -->
<g id="edge22_Node000001_Node000019" class="edge">
<title>Node1&#45;&gt;Node19</title>
<g id="a_edge22_Node000001_Node000019"><a xlink:title=" ">
<path fill="none" stroke="#63b8ff" d="M603.64,-180.15C629.46,-170.22 671.62,-154 701.55,-142.49"/>
<polygon fill="#63b8ff" stroke="#63b8ff" points="702.48,-145.88 710.55,-139.03 699.96,-139.35 702.48,-145.88"/>
</a>
</g>
</g>
<!-- Node20 -->
<g id="Node000020" class="node">
<title>Node20</title>
<g id="a_Node000020"><a xlink:title=" ">
<polygon fill="#e0e0e0" stroke="#999999" points="1046.25,-138 1001,-138 1001,-118 1046.25,-118 1046.25,-138"/>
<text xml:space="preserve" text-anchor="middle" x="1023.62" y="-124.5" font-family="Helvetica,sans-Serif" font-size="10.00">abcc.h</text>
</a>
</g>
</g>
<!-- Node1&#45;&gt;Node20 -->
<g id="edge24_Node000001_Node000020" class="edge">
<title>Node1&#45;&gt;Node20</title>
<g id="a_edge24_Node000001_Node000020"><a xlink:title=" ">
<path fill="none" stroke="#63b8ff" d="M603.39,-189.1C666.4,-188.84 847.88,-184.36 991.62,-144 992.99,-143.62 994.36,-143.18 995.74,-142.71"/>
<polygon fill="#63b8ff" stroke="#63b8ff" points="996.75,-146.08 1004.68,-139.06 994.1,-139.6 996.75,-146.08"/>
</a>
</g>
</g>
<!-- Node21 -->
<g id="Node000021" class="node">
<title>Node21</title>
<g id="a_Node000021"><a xlink:href="abcc__hardware__abstraction__aux_8h.html" target="_top" xlink:title=" ">
<polygon fill="white" stroke="#666666" points="1199.25,-144 1064,-144 1064,-112 1199.25,-112 1199.25,-144"/>
<text xml:space="preserve" text-anchor="start" x="1072" y="-130.5" font-family="Helvetica,sans-Serif" font-size="10.00">abcc_hardware_abstraction</text>
<text xml:space="preserve" text-anchor="middle" x="1131.62" y="-118.5" font-family="Helvetica,sans-Serif" font-size="10.00">_aux.h</text>
</a>
</g>
</g>
<!-- Node1&#45;&gt;Node21 -->
<g id="edge25_Node000001_Node000021" class="edge">
<title>Node1&#45;&gt;Node21</title>
<g id="a_edge25_Node000001_Node000021"><a xlink:title=" ">
<path fill="none" stroke="#63b8ff" d="M603.46,-187.65C670.73,-183.51 874.09,-169.78 1052.56,-144.36"/>
<polygon fill="#63b8ff" stroke="#63b8ff" points="1052.83,-147.86 1062.23,-142.97 1051.84,-140.93 1052.83,-147.86"/>
</a>
</g>
</g>
<!-- Node22 -->
<g id="Node000022" class="node">
<title>Node22</title>
<g id="a_Node000022"><a xlink:title=" ">
<polygon fill="#e0e0e0" stroke="#999999" points="1280.25,-138 1217,-138 1217,-118 1280.25,-118 1280.25,-138"/>
<text xml:space="preserve" text-anchor="middle" x="1248.62" y="-124.5" font-family="Helvetica,sans-Serif" font-size="10.00">abcc_api.h</text>
</a>
</g>
</g>
<!-- Node1&#45;&gt;Node22 -->
<g id="edge26_Node000001_Node000022" class="edge">
<title>Node1&#45;&gt;Node22</title>
<g id="a_edge26_Node000001_Node000022"><a xlink:title=" ">
<path fill="none" stroke="#63b8ff" d="M603.64,-188.24C702.27,-184.82 1089.69,-169.99 1208.62,-144 1211.1,-143.46 1213.62,-142.8 1216.14,-142.05"/>
<polygon fill="#63b8ff" stroke="#63b8ff" points="1217.16,-145.4 1225.53,-138.9 1214.93,-138.77 1217.16,-145.4"/>
</a>
</g>
</g>
<!-- Node23 -->
<g id="Node000023" class="node">
<title>Node23</title>
<g id="a_Node000023"><a xlink:href="slave__link_8h.html" target="_top" xlink:title=" ">
<polygon fill="white" stroke="#666666" points="405.5,-76 337.75,-76 337.75,-56 405.5,-56 405.5,-76"/>
<text xml:space="preserve" text-anchor="middle" x="371.62" y="-62.5" font-family="Helvetica,sans-Serif" font-size="10.00">slave_link.h</text>
</a>
</g>
</g>
<!-- Node1&#45;&gt;Node23 -->
<g id="edge27_Node000001_Node000023" class="edge">
<title>Node1&#45;&gt;Node23</title>
<g id="a_edge27_Node000001_Node000023"><a xlink:title=" ">
<path fill="none" stroke="#63b8ff" d="M557.73,-189.98C519.56,-190.33 442.68,-185.4 397.62,-144 381.82,-129.48 375.62,-105.04 373.19,-87.58"/>
<polygon fill="#63b8ff" stroke="#63b8ff" points="376.69,-87.44 372.16,-77.86 369.73,-88.17 376.69,-87.44"/>
</a>
</g>
</g>
<!-- Node24 -->
<g id="Node000024" class="node">
<title>Node24</title>
<g id="a_Node000024"><a xlink:href="debug_8h.html" target="_top" xlink:title=" ">
<polygon fill="white" stroke="#666666" points="312.88,-138 262.38,-138 262.38,-118 312.88,-118 312.88,-138"/>
<text xml:space="preserve" text-anchor="middle" x="287.62" y="-124.5" font-family="Helvetica,sans-Serif" font-size="10.00">debug.h</text>
</a>
</g>
</g>
<!-- Node1&#45;&gt;Node24 -->
<g id="edge29_Node000001_Node000024" class="edge">
<title>Node1&#45;&gt;Node24</title>
<g id="a_edge29_Node000001_Node000024"><a xlink:title=" ">
<path fill="none" stroke="#63b8ff" d="M557.53,-186.41C512.51,-181.05 410.11,-167.22 326.62,-144 324.75,-143.48 322.84,-142.9 320.93,-142.29"/>
<polygon fill="#63b8ff" stroke="#63b8ff" points="322.09,-138.99 311.49,-138.97 319.77,-145.59 322.09,-138.99"/>
</a>
</g>
</g>
<!-- Node25 -->
<g id="Node000025" class="node">
<title>Node25</title>
<g id="a_Node000025"><a xlink:title=" ">
<polygon fill="#e0e0e0" stroke="#999999" points="1357,-138 1298.25,-138 1298.25,-118 1357,-118 1357,-138"/>
<text xml:space="preserve" text-anchor="middle" x="1327.62" y="-124.5" font-family="Helvetica,sans-Serif" font-size="10.00">protocol.h</text>
</a>
</g>
</g>
<!-- Node1&#45;&gt;Node25 -->
<g id="edge32_Node000001_Node000025" class="edge">
<title>Node1&#45;&gt;Node25</title>
<g id="a_edge32_Node000001_Node000025"><a xlink:title=" ">
<path fill="none" stroke="#63b8ff" d="M603.69,-188.5C710.13,-186.06 1154.35,-174.2 1289.62,-144 1291.81,-143.51 1294.02,-142.92 1296.24,-142.25"/>
<polygon fill="#63b8ff" stroke="#63b8ff" points="1297.38,-145.56 1305.66,-138.96 1295.06,-138.95 1297.38,-145.56"/>
</a>
</g>
</g>
<!-- Node4 -->
<g id="Node000004" class="node">
<title>Node4</title>
<g id="a_Node000004"><a xlink:href="_i_p_o_s___m40___v1__00__101125_2_core_2_inc_2main_8h.html" target="_top" xlink:title=": Header for main.c file. This file contains the common defines of the application.">
<polygon fill="white" stroke="#666666" points="248.25,-76 203,-76 203,-56 248.25,-56 248.25,-76"/>
<text xml:space="preserve" text-anchor="middle" x="225.62" y="-62.5" font-family="Helvetica,sans-Serif" font-size="10.00">main.h</text>
</a>
</g>
</g>
<!-- Node3&#45;&gt;Node4 -->
<g id="edge3_Node000003_Node000004" class="edge">
<title>Node3&#45;&gt;Node4</title>
<g id="a_edge3_Node000003_Node000004"><a xlink:title=" ">
<path fill="none" stroke="#63b8ff" d="M174.16,-117.62C183.25,-108.68 197.17,-94.99 208.24,-84.1"/>
<polygon fill="#63b8ff" stroke="#63b8ff" points="210.61,-86.68 215.28,-77.17 205.7,-81.69 210.61,-86.68"/>
</a>
</g>
</g>
<!-- Node5 -->
<g id="Node000005" class="node">
<title>Node5</title>
<g id="a_Node000005"><a xlink:title=" ">
<polygon fill="#e0e0e0" stroke="#999999" points="404.75,-20 314.5,-20 314.5,0 404.75,0 404.75,-20"/>
<text xml:space="preserve" text-anchor="middle" x="359.62" y="-6.5" font-family="Helvetica,sans-Serif" font-size="10.00">stm32h7xx_hal.h</text>
</a>
</g>
</g>
<!-- Node4&#45;&gt;Node5 -->
<g id="edge4_Node000004_Node000005" class="edge">
<title>Node4&#45;&gt;Node5</title>
<g id="a_edge4_Node000004_Node000005"><a xlink:title=" ">
<path fill="none" stroke="#63b8ff" d="M248.66,-55.72C269.94,-47.14 301.83,-34.29 325.96,-24.57"/>
<polygon fill="#63b8ff" stroke="#63b8ff" points="327.07,-27.89 335.04,-20.91 324.45,-21.4 327.07,-27.89"/>
</a>
</g>
</g>
<!-- Node6 -->
<g id="Node000006" class="node">
<title>Node6</title>
<g id="a_Node000006"><a xlink:title=" ">
<polygon fill="#e0e0e0" stroke="#999999" points="278.62,-20 172.62,-20 172.62,0 278.62,0 278.62,-20"/>
<text xml:space="preserve" text-anchor="middle" x="225.62" y="-6.5" font-family="Helvetica,sans-Serif" font-size="10.00">stm32h7xx_nucleo.h</text>
</a>
</g>
</g>
<!-- Node4&#45;&gt;Node6 -->
<g id="edge5_Node000004_Node000006" class="edge">
<title>Node4&#45;&gt;Node6</title>
<g id="a_edge5_Node000004_Node000006"><a xlink:title=" ">
<path fill="none" stroke="#63b8ff" d="M225.62,-55.59C225.62,-49.01 225.62,-39.96 225.62,-31.73"/>
<polygon fill="#63b8ff" stroke="#63b8ff" points="229.13,-31.81 225.63,-21.81 222.13,-31.81 229.13,-31.81"/>
</a>
</g>
</g>
<!-- Node8&#45;&gt;Node4 -->
<g id="edge8_Node000008_Node000004" class="edge">
<title>Node8&#45;&gt;Node4</title>
<g id="a_edge8_Node000008_Node000004"><a xlink:title=" ">
<path fill="none" stroke="#63b8ff" d="M225.62,-117.62C225.62,-109.56 225.62,-97.65 225.62,-87.41"/>
<polygon fill="#63b8ff" stroke="#63b8ff" points="229.13,-87.63 225.63,-77.63 222.13,-87.63 229.13,-87.63"/>
</a>
</g>
</g>
<!-- Node11&#45;&gt;Node4 -->
<g id="edge12_Node000011_Node000004" class="edge">
<title>Node11&#45;&gt;Node4</title>
<g id="a_edge12_Node000011_Node000004"><a xlink:title=" ">
<path fill="none" stroke="#63b8ff" d="M113.41,-117.62C135.17,-107.81 169.6,-92.27 194.59,-81"/>
<polygon fill="#63b8ff" stroke="#63b8ff" points="195.93,-84.23 203.61,-76.93 193.06,-77.85 195.93,-84.23"/>
</a>
</g>
</g>
<!-- Node17&#45;&gt;Node14 -->
<g id="edge19_Node000017_Node000014" class="edge">
<title>Node17&#45;&gt;Node14</title>
<g id="a_edge19_Node000017_Node000014"><a xlink:title=" ">
<path fill="none" stroke="#63b8ff" d="M821,-117.62C805.22,-108.16 780.59,-93.38 762.01,-82.23"/>
<polygon fill="#63b8ff" stroke="#63b8ff" points="763.81,-79.23 753.44,-77.09 760.21,-85.23 763.81,-79.23"/>
</a>
</g>
</g>
<!-- Node17&#45;&gt;Node15 -->
<g id="edge20_Node000017_Node000015" class="edge">
<title>Node17&#45;&gt;Node15</title>
<g id="a_edge20_Node000017_Node000015"><a xlink:title=" ">
<path fill="none" stroke="#63b8ff" d="M846,-117.62C854.95,-108.68 868.64,-94.99 879.52,-84.1"/>
<polygon fill="#63b8ff" stroke="#63b8ff" points="881.85,-86.73 886.44,-77.18 876.9,-81.78 881.85,-86.73"/>
</a>
</g>
</g>
<!-- Node18 -->
<g id="Node000018" class="node">
<title>Node18</title>
<g id="a_Node000018"><a xlink:title=" ">
<polygon fill="#e0e0e0" stroke="#999999" points="850.25,-76 799,-76 799,-56 850.25,-56 850.25,-76"/>
<text xml:space="preserve" text-anchor="middle" x="824.62" y="-62.5" font-family="Helvetica,sans-Serif" font-size="10.00">stddef.h</text>
</a>
</g>
</g>
<!-- Node17&#45;&gt;Node18 -->
<g id="edge21_Node000017_Node000018" class="edge">
<title>Node17&#45;&gt;Node18</title>
<g id="a_edge21_Node000017_Node000018"><a xlink:title=" ">
<path fill="none" stroke="#63b8ff" d="M834.75,-117.62C833.12,-109.48 830.7,-97.39 828.64,-87.07"/>
<polygon fill="#63b8ff" stroke="#63b8ff" points="832.14,-86.72 826.74,-77.6 825.27,-88.09 832.14,-86.72"/>
</a>
</g>
</g>
<!-- Node19&#45;&gt;Node14 -->
<g id="edge23_Node000019_Node000014" class="edge">
<title>Node19&#45;&gt;Node14</title>
<g id="a_edge23_Node000019_Node000014"><a xlink:title=" ">
<path fill="none" stroke="#63b8ff" d="M736.62,-117.62C736.62,-109.56 736.62,-97.65 736.62,-87.41"/>
<polygon fill="#63b8ff" stroke="#63b8ff" points="740.13,-87.63 736.63,-77.63 733.13,-87.63 740.13,-87.63"/>
</a>
</g>
</g>
<!-- Node23&#45;&gt;Node5 -->
<g id="edge28_Node000023_Node000005" class="edge">
<title>Node23&#45;&gt;Node5</title>
<g id="a_edge28_Node000023_Node000005"><a xlink:title=" ">
<path fill="none" stroke="#63b8ff" d="M369.53,-55.59C368.05,-48.93 366.01,-39.75 364.17,-31.44"/>
<polygon fill="#63b8ff" stroke="#63b8ff" points="367.61,-30.78 362.02,-21.78 360.77,-32.3 367.61,-30.78"/>
</a>
</g>
</g>
<!-- Node24&#45;&gt;Node4 -->
<g id="edge30_Node000024_Node000004" class="edge">
<title>Node24&#45;&gt;Node4</title>
<g id="a_edge30_Node000024_Node000004"><a xlink:title=" ">
<path fill="none" stroke="#63b8ff" d="M277.94,-117.62C268.69,-108.68 254.55,-94.99 243.3,-84.1"/>
<polygon fill="#63b8ff" stroke="#63b8ff" points="245.75,-81.6 236.13,-77.17 240.88,-86.63 245.75,-81.6"/>
</a>
</g>
</g>
<!-- Node24&#45;&gt;Node13 -->
<g id="edge31_Node000024_Node000013" class="edge">
<title>Node24&#45;&gt;Node13</title>
<g id="a_edge31_Node000024_Node000013"><a xlink:title=" ">
<path fill="none" stroke="#63b8ff" d="M288.41,-117.62C289.08,-109.56 290.07,-97.65 290.92,-87.41"/>
<polygon fill="#63b8ff" stroke="#63b8ff" points="294.4,-87.88 291.74,-77.62 287.42,-87.3 294.4,-87.88"/>
</a>
</g>
</g>
</g>
</svg>
