<?xml version="1.0" encoding="UTF-8" standalone="no"?>
<!DOCTYPE svg PUBLIC "-//W3C//DTD SVG 1.1//EN"
 "http://www.w3.org/Graphics/SVG/1.1/DTD/svg11.dtd">
<!-- Generated by graphviz version 14.0.2 (20251019.1705)
 -->
<!-- Title: protocol.c Pages: 1 -->
<svg width="450pt" height="84pt"
 viewBox="0.00 0.00 450.00 84.00" xmlns="http://www.w3.org/2000/svg" xmlns:xlink="http://www.w3.org/1999/xlink">
<g id="graph0" class="graph" transform="scale(1 1) rotate(0) translate(4 80)">
<title>protocol.c</title>
<!-- Node1 -->
<g id="Node000001" class="node">
<title>Node1</title>
<g id="a_Node000001"><a xlink:title=" ">
<polygon fill="#999999" stroke="#666666" points="275.75,-76 217,-76 217,-56 275.75,-56 275.75,-76"/>
<text xml:space="preserve" text-anchor="middle" x="246.38" y="-62.5" font-family="Helvetica,sans-Serif" font-size="10.00">protocol.c</text>
</a>
</g>
</g>
<!-- Node2 -->
<g id="Node000002" class="node">
<title>Node2</title>
<g id="a_Node000002"><a xlink:title=" ">
<polygon fill="#e0e0e0" stroke="#999999" points="58.75,-20 0,-20 0,0 58.75,0 58.75,-20"/>
<text xml:space="preserve" text-anchor="middle" x="29.38" y="-6.5" font-family="Helvetica,sans-Serif" font-size="10.00">protocol.h</text>
</a>
</g>
</g>
<!-- Node1&#45;&gt;Node2 -->
<g id="edge1_Node000001_Node000002" class="edge">
<title>Node1&#45;&gt;Node2</title>
<g id="a_edge1_Node000001_Node000002"><a xlink:title=" ">
<path fill="none" stroke="#63b8ff" d="M216.66,-57.6C178.7,-48.16 112.83,-31.77 70.19,-21.16"/>
<polygon fill="#63b8ff" stroke="#63b8ff" points="71.1,-17.78 60.55,-18.76 69.41,-24.57 71.1,-17.78"/>
</a>
</g>
</g>
<!-- Node3 -->
<g id="Node000003" class="node">
<title>Node3</title>
<g id="a_Node000003"><a xlink:title=" ">
<polygon fill="#e0e0e0" stroke="#999999" points="153.75,-20 77,-20 77,0 153.75,0 153.75,-20"/>
<text xml:space="preserve" text-anchor="middle" x="115.38" y="-6.5" font-family="Helvetica,sans-Serif" font-size="10.00">usbd_cdc_if.h</text>
</a>
</g>
</g>
<!-- Node1&#45;&gt;Node3 -->
<g id="edge2_Node000001_Node000003" class="edge">
<title>Node1&#45;&gt;Node3</title>
<g id="a_edge2_Node000001_Node000003"><a xlink:title=" ">
<path fill="none" stroke="#63b8ff" d="M223.56,-55.59C202.93,-47.09 172.29,-34.46 148.88,-24.81"/>
<polygon fill="#63b8ff" stroke="#63b8ff" points="150.35,-21.63 139.77,-21.06 147.68,-28.1 150.35,-21.63"/>
</a>
</g>
</g>
<!-- Node4 -->
<g id="Node000004" class="node">
<title>Node4</title>
<g id="a_Node000004"><a xlink:title=" ">
<polygon fill="#e0e0e0" stroke="#999999" points="243.12,-20 171.62,-20 171.62,0 243.12,0 243.12,-20"/>
<text xml:space="preserve" text-anchor="middle" x="207.38" y="-6.5" font-family="Helvetica,sans-Serif" font-size="10.00">cmsis_os2.h</text>
</a>
</g>
</g>
<!-- Node1&#45;&gt;Node4 -->
<g id="edge3_Node000001_Node000004" class="edge">
<title>Node1&#45;&gt;Node4</title>
<g id="a_edge3_Node000001_Node000004"><a xlink:title=" ">
<path fill="none" stroke="#63b8ff" d="M239.58,-55.59C234.38,-48.39 227.04,-38.23 220.69,-29.43"/>
<polygon fill="#63b8ff" stroke="#63b8ff" points="223.67,-27.58 214.98,-21.53 217.99,-31.68 223.67,-27.58"/>
</a>
</g>
</g>
<!-- Node5 -->
<g id="Node000005" class="node">
<title>Node5</title>
<g id="a_Node000005"><a xlink:title=" ">
<polygon fill="#e0e0e0" stroke="#999999" points="312,-20 260.75,-20 260.75,0 312,0 312,-20"/>
<text xml:space="preserve" text-anchor="middle" x="286.38" y="-6.5" font-family="Helvetica,sans-Serif" font-size="10.00">stdarg.h</text>
</a>
</g>
</g>
<!-- Node1&#45;&gt;Node5 -->
<g id="edge4_Node000001_Node000005" class="edge">
<title>Node1&#45;&gt;Node5</title>
<g id="a_edge4_Node000001_Node000005"><a xlink:title=" ">
<path fill="none" stroke="#63b8ff" d="M253.34,-55.59C258.68,-48.39 266.2,-38.23 272.72,-29.43"/>
<polygon fill="#63b8ff" stroke="#63b8ff" points="275.45,-31.63 278.59,-21.51 269.82,-27.47 275.45,-31.63"/>
</a>
</g>
</g>
<!-- Node6 -->
<g id="Node000006" class="node">
<title>Node6</title>
<g id="a_Node000006"><a xlink:title=" ">
<polygon fill="#e0e0e0" stroke="#999999" points="375,-20 329.75,-20 329.75,0 375,0 375,-20"/>
<text xml:space="preserve" text-anchor="middle" x="352.38" y="-6.5" font-family="Helvetica,sans-Serif" font-size="10.00">stdio.h</text>
</a>
</g>
</g>
<!-- Node1&#45;&gt;Node6 -->
<g id="edge5_Node000001_Node000006" class="edge">
<title>Node1&#45;&gt;Node6</title>
<g id="a_edge5_Node000001_Node000006"><a xlink:title=" ">
<path fill="none" stroke="#63b8ff" d="M264.84,-55.59C281.08,-47.32 304.98,-35.14 323.71,-25.6"/>
<polygon fill="#63b8ff" stroke="#63b8ff" points="325.1,-28.82 332.42,-21.17 321.92,-22.59 325.1,-28.82"/>
</a>
</g>
</g>
<!-- Node7 -->
<g id="Node000007" class="node">
<title>Node7</title>
<g id="a_Node000007"><a xlink:title=" ">
<polygon fill="#e0e0e0" stroke="#999999" points="441.5,-20 393.25,-20 393.25,0 441.5,0 441.5,-20"/>
<text xml:space="preserve" text-anchor="middle" x="417.38" y="-6.5" font-family="Helvetica,sans-Serif" font-size="10.00">string.h</text>
</a>
</g>
</g>
<!-- Node1&#45;&gt;Node7 -->
<g id="edge6_Node000001_Node000007" class="edge">
<title>Node1&#45;&gt;Node7</title>
<g id="a_edge6_Node000001_Node000007"><a xlink:title=" ">
<path fill="none" stroke="#63b8ff" d="M276.16,-55.59C305.65,-46.28 350.79,-32.03 382.07,-22.15"/>
<polygon fill="#63b8ff" stroke="#63b8ff" points="382.98,-25.53 391.47,-19.18 380.88,-18.86 382.98,-25.53"/>
</a>
</g>
</g>
</g>
</svg>
