<?xml version="1.0" encoding="UTF-8" standalone="no"?>
<!DOCTYPE svg PUBLIC "-//W3C//DTD SVG 1.1//EN"
 "http://www.w3.org/Graphics/SVG/1.1/DTD/svg11.dtd">
<!-- Generated by graphviz version 14.0.2 (20251019.1705)
 -->
<!-- Title: abcc_network_data_parameters.c Pages: 1 -->
<svg width="297pt" height="140pt"
 viewBox="0.00 0.00 297.00 140.00" xmlns="http://www.w3.org/2000/svg" xmlns:xlink="http://www.w3.org/1999/xlink">
<g id="graph0" class="graph" transform="scale(1 1) rotate(0) translate(4 136)">
<title>abcc_network_data_parameters.c</title>
<!-- Node1 -->
<g id="Node000001" class="node">
<title>Node1</title>
<g id="a_Node000001"><a xlink:title=" ">
<polygon fill="#999999" stroke="#666666" points="222.12,-132 59.12,-132 59.12,-112 222.12,-112 222.12,-132"/>
<text xml:space="preserve" text-anchor="middle" x="140.62" y="-118.5" font-family="Helvetica,sans-Serif" font-size="10.00">abcc_network_data_parameters.c</text>
</a>
</g>
</g>
<!-- Node2 -->
<g id="Node000002" class="node">
<title>Node2</title>
<g id="a_Node000002"><a xlink:title=" ">
<polygon fill="#e0e0e0" stroke="#999999" points="63.25,-76 0,-76 0,-56 63.25,-56 63.25,-76"/>
<text xml:space="preserve" text-anchor="middle" x="31.62" y="-62.5" font-family="Helvetica,sans-Serif" font-size="10.00">abcc_api.h</text>
</a>
</g>
</g>
<!-- Node1&#45;&gt;Node2 -->
<g id="edge1_Node000001_Node000002" class="edge">
<title>Node1&#45;&gt;Node2</title>
<g id="a_edge1_Node000001_Node000002"><a xlink:title=" ">
<path fill="none" stroke="#63b8ff" d="M121.64,-111.59C104.86,-103.28 80.13,-91.03 60.84,-81.47"/>
<polygon fill="#63b8ff" stroke="#63b8ff" points="62.63,-78.45 52.12,-77.15 59.52,-84.73 62.63,-78.45"/>
</a>
</g>
</g>
<!-- Node3 -->
<g id="Node000003" class="node">
<title>Node3</title>
<g id="a_Node000003"><a xlink:title=" ">
<polygon fill="#e0e0e0" stroke="#999999" points="126.25,-76 81,-76 81,-56 126.25,-56 126.25,-76"/>
<text xml:space="preserve" text-anchor="middle" x="103.62" y="-62.5" font-family="Helvetica,sans-Serif" font-size="10.00">main.h</text>
</a>
</g>
</g>
<!-- Node1&#45;&gt;Node3 -->
<g id="edge2_Node000001_Node000003" class="edge">
<title>Node1&#45;&gt;Node3</title>
<g id="a_edge2_Node000001_Node000003"><a xlink:title=" ">
<path fill="none" stroke="#63b8ff" d="M134.18,-111.59C129.3,-104.47 122.43,-94.45 116.45,-85.72"/>
<polygon fill="#63b8ff" stroke="#63b8ff" points="119.39,-83.82 110.85,-77.55 113.62,-87.77 119.39,-83.82"/>
</a>
</g>
</g>
<!-- Node4 -->
<g id="Node000004" class="node">
<title>Node4</title>
<g id="a_Node000004"><a xlink:href="slave__link_8h.html" target="_top" xlink:title=" ">
<polygon fill="white" stroke="#666666" points="212.5,-76 144.75,-76 144.75,-56 212.5,-56 212.5,-76"/>
<text xml:space="preserve" text-anchor="middle" x="178.62" y="-62.5" font-family="Helvetica,sans-Serif" font-size="10.00">slave_link.h</text>
</a>
</g>
</g>
<!-- Node1&#45;&gt;Node4 -->
<g id="edge3_Node000001_Node000004" class="edge">
<title>Node1&#45;&gt;Node4</title>
<g id="a_edge3_Node000001_Node000004"><a xlink:title=" ">
<path fill="none" stroke="#63b8ff" d="M147.24,-111.59C152.31,-104.39 159.46,-94.23 165.65,-85.43"/>
<polygon fill="#63b8ff" stroke="#63b8ff" points="168.32,-87.73 171.21,-77.54 162.59,-83.7 168.32,-87.73"/>
</a>
</g>
</g>
<!-- Node6 -->
<g id="Node000006" class="node">
<title>Node6</title>
<g id="a_Node000006"><a xlink:title=" ">
<polygon fill="#e0e0e0" stroke="#999999" points="289,-76 230.25,-76 230.25,-56 289,-56 289,-76"/>
<text xml:space="preserve" text-anchor="middle" x="259.62" y="-62.5" font-family="Helvetica,sans-Serif" font-size="10.00">protocol.h</text>
</a>
</g>
</g>
<!-- Node1&#45;&gt;Node6 -->
<g id="edge5_Node000001_Node000006" class="edge">
<title>Node1&#45;&gt;Node6</title>
<g id="a_edge5_Node000001_Node000006"><a xlink:title=" ">
<path fill="none" stroke="#63b8ff" d="M161.35,-111.59C179.84,-103.21 207.17,-90.8 228.32,-81.21"/>
<polygon fill="#63b8ff" stroke="#63b8ff" points="229.7,-84.42 237.36,-77.1 226.8,-78.05 229.7,-84.42"/>
</a>
</g>
</g>
<!-- Node5 -->
<g id="Node000005" class="node">
<title>Node5</title>
<g id="a_Node000005"><a xlink:title=" ">
<polygon fill="#e0e0e0" stroke="#999999" points="223.75,-20 133.5,-20 133.5,0 223.75,0 223.75,-20"/>
<text xml:space="preserve" text-anchor="middle" x="178.62" y="-6.5" font-family="Helvetica,sans-Serif" font-size="10.00">stm32h7xx_hal.h</text>
</a>
</g>
</g>
<!-- Node4&#45;&gt;Node5 -->
<g id="edge4_Node000004_Node000005" class="edge">
<title>Node4&#45;&gt;Node5</title>
<g id="a_edge4_Node000004_Node000005"><a xlink:title=" ">
<path fill="none" stroke="#63b8ff" d="M178.62,-55.59C178.62,-49.01 178.62,-39.96 178.62,-31.73"/>
<polygon fill="#63b8ff" stroke="#63b8ff" points="182.13,-31.81 178.63,-21.81 175.13,-31.81 182.13,-31.81"/>
</a>
</g>
</g>
</g>
</svg>
