<?xml version="1.0" encoding="UTF-8" standalone="no"?>
<!DOCTYPE svg PUBLIC "-//W3C//DTD SVG 1.1//EN"
 "http://www.w3.org/Graphics/SVG/1.1/DTD/svg11.dtd">
<!-- Generated by graphviz version 14.0.2 (20251019.1705)
 -->
<!-- Title: abcc_types.h Pages: 1 -->
<svg width="372pt" height="96pt"
 viewBox="0.00 0.00 372.00 96.00" xmlns="http://www.w3.org/2000/svg" xmlns:xlink="http://www.w3.org/1999/xlink">
<g id="graph0" class="graph" transform="scale(1 1) rotate(0) translate(4 92)">
<title>abcc_types.h</title>
<!-- Node1 -->
<g id="Node000001" class="node">
<title>Node1</title>
<g id="a_Node000001"><a xlink:title=" ">
<polygon fill="#999999" stroke="#666666" points="216.25,-88 141.75,-88 141.75,-68 216.25,-68 216.25,-88"/>
<text xml:space="preserve" text-anchor="middle" x="179" y="-74.5" font-family="Helvetica,sans-Serif" font-size="10.00">abcc_types.h</text>
</a>
</g>
</g>
<!-- Node2 -->
<g id="Node000002" class="node">
<title>Node2</title>
<g id="a_Node000002"><a xlink:href="abcc__driver__config_8h.html" target="_top" xlink:title=" ">
<polygon fill="white" stroke="#666666" points="106,-26 0,-26 0,-6 106,-6 106,-26"/>
<text xml:space="preserve" text-anchor="middle" x="53" y="-12.5" font-family="Helvetica,sans-Serif" font-size="10.00">abcc_driver_config.h</text>
</a>
</g>
</g>
<!-- Node1&#45;&gt;Node2 -->
<g id="edge1_Node000001_Node000002" class="edge">
<title>Node1&#45;&gt;Node2</title>
<g id="a_edge1_Node000001_Node000002"><a xlink:title=" ">
<path fill="none" stroke="#63b8ff" d="M149.12,-62.77C125.43,-51.49 93.02,-36.06 72.55,-26.31"/>
<polygon fill="#63b8ff" stroke="#63b8ff" points="147.41,-65.83 157.95,-66.97 150.42,-59.51 147.41,-65.83"/>
</a>
</g>
</g>
<!-- Node3 -->
<g id="Node000003" class="node">
<title>Node3</title>
<g id="a_Node000003"><a xlink:href="abcc__software__port_8h.html" target="_top" xlink:title=" ">
<polygon fill="white" stroke="#666666" points="233.88,-26 124.12,-26 124.12,-6 233.88,-6 233.88,-26"/>
<text xml:space="preserve" text-anchor="middle" x="179" y="-12.5" font-family="Helvetica,sans-Serif" font-size="10.00">abcc_software_port.h</text>
</a>
</g>
</g>
<!-- Node1&#45;&gt;Node3 -->
<g id="edge2_Node000001_Node000003" class="edge">
<title>Node1&#45;&gt;Node3</title>
<g id="a_edge2_Node000001_Node000003"><a xlink:title=" ">
<path fill="none" stroke="#63b8ff" d="M179,-56.25C179,-45.97 179,-34.09 179,-26.11"/>
<polygon fill="#63b8ff" stroke="#63b8ff" points="175.5,-56.11 179,-66.11 182.5,-56.11 175.5,-56.11"/>
</a>
</g>
</g>
<!-- Node4 -->
<g id="Node000004" class="node">
<title>Node4</title>
<g id="a_Node000004"><a xlink:href="implemented__callback__functions_8c.html" target="_top" xlink:title=" ">
<polygon fill="white" stroke="#666666" points="364.38,-32 251.62,-32 251.62,0 364.38,0 364.38,-32"/>
<text xml:space="preserve" text-anchor="start" x="259.62" y="-18.5" font-family="Helvetica,sans-Serif" font-size="10.00">implemented_callback</text>
<text xml:space="preserve" text-anchor="middle" x="308" y="-6.5" font-family="Helvetica,sans-Serif" font-size="10.00">_functions.c</text>
</a>
</g>
</g>
<!-- Node1&#45;&gt;Node4 -->
<g id="edge3_Node000001_Node000004" class="edge">
<title>Node1&#45;&gt;Node4</title>
<g id="a_edge3_Node000001_Node000004"><a xlink:title=" ">
<path fill="none" stroke="#63b8ff" d="M209.37,-62.87C228.99,-53.75 254.52,-41.87 274.7,-32.49"/>
<polygon fill="#63b8ff" stroke="#63b8ff" points="208.12,-59.6 200.53,-66.99 211.07,-65.94 208.12,-59.6"/>
</a>
</g>
</g>
</g>
</svg>
