<?xml version="1.0" encoding="UTF-8" standalone="no"?>
<!DOCTYPE svg PUBLIC "-//W3C//DTD SVG 1.1//EN"
 "http://www.w3.org/Graphics/SVG/1.1/DTD/svg11.dtd">
<!-- Generated by graphviz version 14.0.2 (20251019.1705)
 -->
<!-- Title: abcc_software_port.h Pages: 1 -->
<svg width="310pt" height="140pt"
 viewBox="0.00 0.00 310.00 140.00" xmlns="http://www.w3.org/2000/svg" xmlns:xlink="http://www.w3.org/1999/xlink">
<g id="graph0" class="graph" transform="scale(1 1) rotate(0) translate(4 136)">
<title>abcc_software_port.h</title>
<!-- Node1 -->
<g id="Node000001" class="node">
<title>Node1</title>
<g id="a_Node000001"><a xlink:title=" ">
<polygon fill="#999999" stroke="#666666" points="183.5,-132 73.75,-132 73.75,-112 183.5,-112 183.5,-132"/>
<text xml:space="preserve" text-anchor="middle" x="128.62" y="-118.5" font-family="Helvetica,sans-Serif" font-size="10.00">abcc_software_port.h</text>
</a>
</g>
</g>
<!-- Node2 -->
<g id="Node000002" class="node">
<title>Node2</title>
<g id="a_Node000002"><a xlink:title=" ">
<polygon fill="#e0e0e0" stroke="#999999" points="45.25,-76 0,-76 0,-56 45.25,-56 45.25,-76"/>
<text xml:space="preserve" text-anchor="middle" x="22.62" y="-62.5" font-family="Helvetica,sans-Serif" font-size="10.00">stdio.h</text>
</a>
</g>
</g>
<!-- Node1&#45;&gt;Node2 -->
<g id="edge1_Node000001_Node000002" class="edge">
<title>Node1&#45;&gt;Node2</title>
<g id="a_edge1_Node000001_Node000002"><a xlink:title=" ">
<path fill="none" stroke="#63b8ff" d="M110.16,-111.59C93.92,-103.32 70.02,-91.14 51.29,-81.6"/>
<polygon fill="#63b8ff" stroke="#63b8ff" points="53.08,-78.59 42.58,-77.17 49.9,-84.82 53.08,-78.59"/>
</a>
</g>
</g>
<!-- Node3 -->
<g id="Node000003" class="node">
<title>Node3</title>
<g id="a_Node000003"><a xlink:title=" ">
<polygon fill="#e0e0e0" stroke="#999999" points="114.25,-76 63,-76 63,-56 114.25,-56 114.25,-76"/>
<text xml:space="preserve" text-anchor="middle" x="88.62" y="-62.5" font-family="Helvetica,sans-Serif" font-size="10.00">stdarg.h</text>
</a>
</g>
</g>
<!-- Node1&#45;&gt;Node3 -->
<g id="edge2_Node000001_Node000003" class="edge">
<title>Node1&#45;&gt;Node3</title>
<g id="a_edge2_Node000001_Node000003"><a xlink:title=" ">
<path fill="none" stroke="#63b8ff" d="M121.66,-111.59C116.32,-104.39 108.8,-94.23 102.28,-85.43"/>
<polygon fill="#63b8ff" stroke="#63b8ff" points="105.18,-83.47 96.41,-77.51 99.55,-87.63 105.18,-83.47"/>
</a>
</g>
</g>
<!-- Node4 -->
<g id="Node000004" class="node">
<title>Node4</title>
<g id="a_Node000004"><a xlink:href="abcc__types_8h.html" target="_top" xlink:title=" ">
<polygon fill="white" stroke="#666666" points="206.88,-76 132.38,-76 132.38,-56 206.88,-56 206.88,-76"/>
<text xml:space="preserve" text-anchor="middle" x="169.62" y="-62.5" font-family="Helvetica,sans-Serif" font-size="10.00">abcc_types.h</text>
</a>
</g>
</g>
<!-- Node1&#45;&gt;Node4 -->
<g id="edge3_Node000001_Node000004" class="edge">
<title>Node1&#45;&gt;Node4</title>
<g id="a_edge3_Node000001_Node000004"><a xlink:title=" ">
<path fill="none" stroke="#63b8ff" d="M135.77,-111.59C141.23,-104.39 148.95,-94.23 155.63,-85.43"/>
<polygon fill="#63b8ff" stroke="#63b8ff" points="158.39,-87.58 161.65,-77.5 152.82,-83.35 158.39,-87.58"/>
</a>
</g>
</g>
<!-- Node7 -->
<g id="Node000007" class="node">
<title>Node7</title>
<g id="a_Node000007"><a xlink:title=" ">
<polygon fill="#e0e0e0" stroke="#999999" points="302,-76 225.25,-76 225.25,-56 302,-56 302,-76"/>
<text xml:space="preserve" text-anchor="middle" x="263.62" y="-62.5" font-family="Helvetica,sans-Serif" font-size="10.00">abcc_config.h</text>
</a>
</g>
</g>
<!-- Node1&#45;&gt;Node7 -->
<g id="edge6_Node000001_Node000007" class="edge">
<title>Node1&#45;&gt;Node7</title>
<g id="a_edge6_Node000001_Node000007"><a xlink:title=" ">
<path fill="none" stroke="#63b8ff" d="M152.14,-111.59C173.5,-103.05 205.26,-90.35 229.42,-80.68"/>
<polygon fill="#63b8ff" stroke="#63b8ff" points="230.54,-84.01 238.52,-77.04 227.94,-77.51 230.54,-84.01"/>
</a>
</g>
</g>
<!-- Node5 -->
<g id="Node000005" class="node">
<title>Node5</title>
<g id="a_Node000005"><a xlink:title=" ">
<polygon fill="#e0e0e0" stroke="#999999" points="157.75,-20 109.5,-20 109.5,0 157.75,0 157.75,-20"/>
<text xml:space="preserve" text-anchor="middle" x="133.62" y="-6.5" font-family="Helvetica,sans-Serif" font-size="10.00">stdint.h</text>
</a>
</g>
</g>
<!-- Node4&#45;&gt;Node5 -->
<g id="edge4_Node000004_Node000005" class="edge">
<title>Node4&#45;&gt;Node5</title>
<g id="a_edge4_Node000004_Node000005"><a xlink:title=" ">
<path fill="none" stroke="#63b8ff" d="M163.35,-55.59C158.61,-48.47 151.93,-38.45 146.1,-29.72"/>
<polygon fill="#63b8ff" stroke="#63b8ff" points="149.12,-27.94 140.66,-21.56 143.3,-31.82 149.12,-27.94"/>
</a>
</g>
</g>
<!-- Node6 -->
<g id="Node000006" class="node">
<title>Node6</title>
<g id="a_Node000006"><a xlink:title=" ">
<polygon fill="#e0e0e0" stroke="#999999" points="235,-20 176.25,-20 176.25,0 235,0 235,-20"/>
<text xml:space="preserve" text-anchor="middle" x="205.62" y="-6.5" font-family="Helvetica,sans-Serif" font-size="10.00">inttypes.h</text>
</a>
</g>
</g>
<!-- Node4&#45;&gt;Node6 -->
<g id="edge5_Node000004_Node000006" class="edge">
<title>Node4&#45;&gt;Node6</title>
<g id="a_edge5_Node000004_Node000006"><a xlink:title=" ">
<path fill="none" stroke="#63b8ff" d="M175.9,-55.59C180.64,-48.47 187.32,-38.45 193.15,-29.72"/>
<polygon fill="#63b8ff" stroke="#63b8ff" points="195.95,-31.82 198.59,-21.56 190.13,-27.94 195.95,-31.82"/>
</a>
</g>
</g>
</g>
</svg>
