<?xml version="1.0" encoding="UTF-8" standalone="no"?>
<!DOCTYPE svg PUBLIC "-//W3C//DTD SVG 1.1//EN"
 "http://www.w3.org/Graphics/SVG/1.1/DTD/svg11.dtd">
<!-- Generated by graphviz version 14.0.2 (20251019.1705)
 -->
<!-- Title: abcc_driver_config.h Pages: 1 -->
<svg width="163pt" height="140pt"
 viewBox="0.00 0.00 163.00 140.00" xmlns="http://www.w3.org/2000/svg" xmlns:xlink="http://www.w3.org/1999/xlink">
<g id="graph0" class="graph" transform="scale(1 1) rotate(0) translate(4 136)">
<title>abcc_driver_config.h</title>
<!-- Node1 -->
<g id="Node000001" class="node">
<title>Node1</title>
<g id="a_Node000001"><a xlink:title=" ">
<polygon fill="#999999" stroke="#666666" points="150.12,-132 44.12,-132 44.12,-112 150.12,-112 150.12,-132"/>
<text xml:space="preserve" text-anchor="middle" x="97.12" y="-118.5" font-family="Helvetica,sans-Serif" font-size="10.00">abcc_driver_config.h</text>
</a>
</g>
</g>
<!-- Node2 -->
<g id="Node000002" class="node">
<title>Node2</title>
<g id="a_Node000002"><a xlink:href="abcc__types_8h.html" target="_top" xlink:title=" ">
<polygon fill="white" stroke="#666666" points="97.38,-76 22.88,-76 22.88,-56 97.38,-56 97.38,-76"/>
<text xml:space="preserve" text-anchor="middle" x="60.12" y="-62.5" font-family="Helvetica,sans-Serif" font-size="10.00">abcc_types.h</text>
</a>
</g>
</g>
<!-- Node1&#45;&gt;Node2 -->
<g id="edge1_Node000001_Node000002" class="edge">
<title>Node1&#45;&gt;Node2</title>
<g id="a_edge1_Node000001_Node000002"><a xlink:title=" ">
<path fill="none" stroke="#63b8ff" d="M90.68,-111.59C85.8,-104.47 78.93,-94.45 72.95,-85.72"/>
<polygon fill="#63b8ff" stroke="#63b8ff" points="75.89,-83.82 67.35,-77.55 70.12,-87.77 75.89,-83.82"/>
</a>
</g>
</g>
<!-- Node5 -->
<g id="Node000005" class="node">
<title>Node5</title>
<g id="a_Node000005"><a xlink:title=" ">
<polygon fill="#e0e0e0" stroke="#999999" points="155.12,-76 115.12,-76 115.12,-56 155.12,-56 155.12,-76"/>
<text xml:space="preserve" text-anchor="middle" x="135.12" y="-62.5" font-family="Helvetica,sans-Serif" font-size="10.00">abp.h</text>
</a>
</g>
</g>
<!-- Node1&#45;&gt;Node5 -->
<g id="edge4_Node000001_Node000005" class="edge">
<title>Node1&#45;&gt;Node5</title>
<g id="a_edge4_Node000001_Node000005"><a xlink:title=" ">
<path fill="none" stroke="#63b8ff" d="M103.74,-111.59C108.81,-104.39 115.96,-94.23 122.15,-85.43"/>
<polygon fill="#63b8ff" stroke="#63b8ff" points="124.82,-87.73 127.71,-77.54 119.09,-83.7 124.82,-87.73"/>
</a>
</g>
</g>
<!-- Node3 -->
<g id="Node000003" class="node">
<title>Node3</title>
<g id="a_Node000003"><a xlink:title=" ">
<polygon fill="#e0e0e0" stroke="#999999" points="48.25,-20 0,-20 0,0 48.25,0 48.25,-20"/>
<text xml:space="preserve" text-anchor="middle" x="24.12" y="-6.5" font-family="Helvetica,sans-Serif" font-size="10.00">stdint.h</text>
</a>
</g>
</g>
<!-- Node2&#45;&gt;Node3 -->
<g id="edge2_Node000002_Node000003" class="edge">
<title>Node2&#45;&gt;Node3</title>
<g id="a_edge2_Node000002_Node000003"><a xlink:title=" ">
<path fill="none" stroke="#63b8ff" d="M53.85,-55.59C49.11,-48.47 42.43,-38.45 36.6,-29.72"/>
<polygon fill="#63b8ff" stroke="#63b8ff" points="39.62,-27.94 31.16,-21.56 33.8,-31.82 39.62,-27.94"/>
</a>
</g>
</g>
<!-- Node4 -->
<g id="Node000004" class="node">
<title>Node4</title>
<g id="a_Node000004"><a xlink:title=" ">
<polygon fill="#e0e0e0" stroke="#999999" points="125.5,-20 66.75,-20 66.75,0 125.5,0 125.5,-20"/>
<text xml:space="preserve" text-anchor="middle" x="96.12" y="-6.5" font-family="Helvetica,sans-Serif" font-size="10.00">inttypes.h</text>
</a>
</g>
</g>
<!-- Node2&#45;&gt;Node4 -->
<g id="edge3_Node000002_Node000004" class="edge">
<title>Node2&#45;&gt;Node4</title>
<g id="a_edge3_Node000002_Node000004"><a xlink:title=" ">
<path fill="none" stroke="#63b8ff" d="M66.4,-55.59C71.14,-48.47 77.82,-38.45 83.65,-29.72"/>
<polygon fill="#63b8ff" stroke="#63b8ff" points="86.45,-31.82 89.09,-21.56 80.63,-27.94 86.45,-31.82"/>
</a>
</g>
</g>
</g>
</svg>
