<?xml version="1.0" encoding="UTF-8" standalone="no"?>
<!DOCTYPE svg PUBLIC "-//W3C//DTD SVG 1.1//EN"
 "http://www.w3.org/Graphics/SVG/1.1/DTD/svg11.dtd">
<!-- Generated by graphviz version 14.0.2 (20251019.1705)
 -->
<!-- Title: abcc_hardware_abstraction.c Pages: 1 -->
<svg width="759pt" height="96pt"
 viewBox="0.00 0.00 759.00 96.00" xmlns="http://www.w3.org/2000/svg" xmlns:xlink="http://www.w3.org/1999/xlink">
<g id="graph0" class="graph" transform="scale(1 1) rotate(0) translate(4 92)">
<title>abcc_hardware_abstraction.c</title>
<!-- Node1 -->
<g id="Node000001" class="node">
<title>Node1</title>
<g id="a_Node000001"><a xlink:title=" ">
<polygon fill="#999999" stroke="#666666" points="486.38,-88 342.88,-88 342.88,-68 486.38,-68 486.38,-88"/>
<text xml:space="preserve" text-anchor="middle" x="414.62" y="-74.5" font-family="Helvetica,sans-Serif" font-size="10.00">abcc_hardware_abstraction.c</text>
</a>
</g>
</g>
<!-- Node2 -->
<g id="Node000002" class="node">
<title>Node2</title>
<g id="a_Node000002"><a xlink:title=" ">
<polygon fill="#e0e0e0" stroke="#999999" points="45.25,-26 0,-26 0,-6 45.25,-6 45.25,-26"/>
<text xml:space="preserve" text-anchor="middle" x="22.62" y="-12.5" font-family="Helvetica,sans-Serif" font-size="10.00">abcc.h</text>
</a>
</g>
</g>
<!-- Node1&#45;&gt;Node2 -->
<g id="edge1_Node000001_Node000002" class="edge">
<title>Node1&#45;&gt;Node2</title>
<g id="a_edge1_Node000001_Node000002"><a xlink:title=" ">
<path fill="none" stroke="#63b8ff" d="M342.67,-74.91C268.78,-71.19 151.14,-60.82 53.62,-32 52.45,-31.65 51.26,-31.26 50.08,-30.84"/>
<polygon fill="#63b8ff" stroke="#63b8ff" points="51.57,-27.68 41,-27.03 48.86,-34.13 51.57,-27.68"/>
</a>
</g>
</g>
<!-- Node3 -->
<g id="Node000003" class="node">
<title>Node3</title>
<g id="a_Node000003"><a xlink:title=" ">
<polygon fill="#e0e0e0" stroke="#999999" points="198.25,-32 63,-32 63,0 198.25,0 198.25,-32"/>
<text xml:space="preserve" text-anchor="start" x="71" y="-18.5" font-family="Helvetica,sans-Serif" font-size="10.00">abcc_hardware_abstraction</text>
<text xml:space="preserve" text-anchor="middle" x="130.62" y="-6.5" font-family="Helvetica,sans-Serif" font-size="10.00">_spi.h</text>
</a>
</g>
</g>
<!-- Node1&#45;&gt;Node3 -->
<g id="edge2_Node000001_Node000003" class="edge">
<title>Node1&#45;&gt;Node3</title>
<g id="a_edge2_Node000001_Node000003"><a xlink:title=" ">
<path fill="none" stroke="#63b8ff" d="M369.94,-67.56C327.08,-58.5 261.43,-44.64 209.73,-33.71"/>
<polygon fill="#63b8ff" stroke="#63b8ff" points="210.58,-30.31 200.07,-31.67 209.13,-37.16 210.58,-30.31"/>
</a>
</g>
</g>
<!-- Node4 -->
<g id="Node000004" class="node">
<title>Node4</title>
<g id="a_Node000004"><a xlink:title=" ">
<polygon fill="#e0e0e0" stroke="#999999" points="351.25,-32 216,-32 216,0 351.25,0 351.25,-32"/>
<text xml:space="preserve" text-anchor="start" x="224" y="-18.5" font-family="Helvetica,sans-Serif" font-size="10.00">abcc_hardware_abstraction</text>
<text xml:space="preserve" text-anchor="middle" x="283.62" y="-6.5" font-family="Helvetica,sans-Serif" font-size="10.00">_serial.h</text>
</a>
</g>
</g>
<!-- Node1&#45;&gt;Node4 -->
<g id="edge3_Node000001_Node000004" class="edge">
<title>Node1&#45;&gt;Node4</title>
<g id="a_edge3_Node000001_Node000004"><a xlink:title=" ">
<path fill="none" stroke="#63b8ff" d="M394.16,-67.62C376.45,-59.52 350.24,-47.51 327.78,-37.23"/>
<polygon fill="#63b8ff" stroke="#63b8ff" points="329.37,-34.1 318.82,-33.12 326.46,-40.47 329.37,-34.1"/>
</a>
</g>
</g>
<!-- Node5 -->
<g id="Node000005" class="node">
<title>Node5</title>
<g id="a_Node000005"><a xlink:title=" ">
<polygon fill="#e0e0e0" stroke="#999999" points="459.75,-26 369.5,-26 369.5,-6 459.75,-6 459.75,-26"/>
<text xml:space="preserve" text-anchor="middle" x="414.62" y="-12.5" font-family="Helvetica,sans-Serif" font-size="10.00">stm32h7xx_hal.h</text>
</a>
</g>
</g>
<!-- Node1&#45;&gt;Node5 -->
<g id="edge4_Node000001_Node000005" class="edge">
<title>Node1&#45;&gt;Node5</title>
<g id="a_edge4_Node000001_Node000005"><a xlink:title=" ">
<path fill="none" stroke="#63b8ff" d="M414.62,-67.62C414.62,-59.56 414.62,-47.65 414.62,-37.41"/>
<polygon fill="#63b8ff" stroke="#63b8ff" points="418.13,-37.63 414.63,-27.63 411.13,-37.63 418.13,-37.63"/>
</a>
</g>
</g>
<!-- Node6 -->
<g id="Node000006" class="node">
<title>Node6</title>
<g id="a_Node000006"><a xlink:href="abcc__hardware__abstraction__aux_8h.html" target="_top" xlink:title=" ">
<polygon fill="white" stroke="#666666" points="613.25,-32 478,-32 478,0 613.25,0 613.25,-32"/>
<text xml:space="preserve" text-anchor="start" x="486" y="-18.5" font-family="Helvetica,sans-Serif" font-size="10.00">abcc_hardware_abstraction</text>
<text xml:space="preserve" text-anchor="middle" x="545.62" y="-6.5" font-family="Helvetica,sans-Serif" font-size="10.00">_aux.h</text>
</a>
</g>
</g>
<!-- Node1&#45;&gt;Node6 -->
<g id="edge5_Node000001_Node000006" class="edge">
<title>Node1&#45;&gt;Node6</title>
<g id="a_edge5_Node000001_Node000006"><a xlink:title=" ">
<path fill="none" stroke="#63b8ff" d="M435.09,-67.62C452.8,-59.52 479.01,-47.51 501.47,-37.23"/>
<polygon fill="#63b8ff" stroke="#63b8ff" points="502.79,-40.47 510.43,-33.12 499.88,-34.1 502.79,-40.47"/>
</a>
</g>
</g>
<!-- Node7 -->
<g id="Node000007" class="node">
<title>Node7</title>
<g id="a_Node000007"><a xlink:title=" ">
<polygon fill="#e0e0e0" stroke="#999999" points="676.25,-26 631,-26 631,-6 676.25,-6 676.25,-26"/>
<text xml:space="preserve" text-anchor="middle" x="653.62" y="-12.5" font-family="Helvetica,sans-Serif" font-size="10.00">main.h</text>
</a>
</g>
</g>
<!-- Node1&#45;&gt;Node7 -->
<g id="edge6_Node000001_Node000007" class="edge">
<title>Node1&#45;&gt;Node7</title>
<g id="a_edge6_Node000001_Node000007"><a xlink:title=" ">
<path fill="none" stroke="#63b8ff" d="M476.65,-67.56C518.57,-60.22 574.77,-48.49 622.62,-32 623.59,-31.67 624.56,-31.31 625.54,-30.94"/>
<polygon fill="#63b8ff" stroke="#63b8ff" points="626.72,-34.24 634.51,-27.07 623.94,-27.82 626.72,-34.24"/>
</a>
</g>
</g>
<!-- Node8 -->
<g id="Node000008" class="node">
<title>Node8</title>
<g id="a_Node000008"><a xlink:title=" ">
<polygon fill="#e0e0e0" stroke="#999999" points="750.5,-26 694.75,-26 694.75,-6 750.5,-6 750.5,-26"/>
<text xml:space="preserve" text-anchor="middle" x="722.62" y="-12.5" font-family="Helvetica,sans-Serif" font-size="10.00">stdbool.h</text>
</a>
</g>
</g>
<!-- Node1&#45;&gt;Node8 -->
<g id="edge7_Node000001_Node000008" class="edge">
<title>Node1&#45;&gt;Node8</title>
<g id="a_edge7_Node000001_Node000008"><a xlink:title=" ">
<path fill="none" stroke="#63b8ff" d="M486.61,-69.44C541.77,-62.59 619.41,-50.67 685.62,-32 687.46,-31.48 689.33,-30.9 691.2,-30.28"/>
<polygon fill="#63b8ff" stroke="#63b8ff" points="692.18,-33.65 700.35,-26.91 689.76,-27.08 692.18,-33.65"/>
</a>
</g>
</g>
</g>
</svg>
