<?xml version="1.0" encoding="UTF-8" standalone="no"?>
<!DOCTYPE svg PUBLIC "-//W3C//DTD SVG 1.1//EN"
 "http://www.w3.org/Graphics/SVG/1.1/DTD/svg11.dtd">
<!-- Generated by graphviz version 14.0.2 (20251019.1705)
 -->
<!-- Title: abcc_hardware_abstraction_aux.h Pages: 1 -->
<svg width="214pt" height="96pt"
 viewBox="0.00 0.00 214.00 96.00" xmlns="http://www.w3.org/2000/svg" xmlns:xlink="http://www.w3.org/1999/xlink">
<g id="graph0" class="graph" transform="scale(1 1) rotate(0) translate(4 92)">
<title>abcc_hardware_abstraction_aux.h</title>
<!-- Node1 -->
<g id="Node000001" class="node">
<title>Node1</title>
<g id="a_Node000001"><a xlink:title=" ">
<polygon fill="#999999" stroke="#666666" points="195.38,-88 60.12,-88 60.12,-56 195.38,-56 195.38,-88"/>
<text xml:space="preserve" text-anchor="start" x="68.12" y="-74.5" font-family="Helvetica,sans-Serif" font-size="10.00">abcc_hardware_abstraction</text>
<text xml:space="preserve" text-anchor="middle" x="127.75" y="-62.5" font-family="Helvetica,sans-Serif" font-size="10.00">_aux.h</text>
</a>
</g>
</g>
<!-- Node2 -->
<g id="Node000002" class="node">
<title>Node2</title>
<g id="a_Node000002"><a xlink:href="abcc__hardware__abstraction_8c.html" target="_top" xlink:title=" ">
<polygon fill="white" stroke="#666666" points="143.5,-20 0,-20 0,0 143.5,0 143.5,-20"/>
<text xml:space="preserve" text-anchor="middle" x="71.75" y="-6.5" font-family="Helvetica,sans-Serif" font-size="10.00">abcc_hardware_abstraction.c</text>
</a>
</g>
</g>
<!-- Node1&#45;&gt;Node2 -->
<g id="edge1_Node000001_Node000002" class="edge">
<title>Node1&#45;&gt;Node2</title>
<g id="a_edge1_Node000001_Node000002"><a xlink:title=" ">
<path fill="none" stroke="#63b8ff" d="M105.6,-47.27C96.83,-37.87 87.25,-27.61 80.53,-20.41"/>
<polygon fill="#63b8ff" stroke="#63b8ff" points="102.91,-49.52 112.3,-54.44 108.03,-44.74 102.91,-49.52"/>
</a>
</g>
</g>
<!-- Node3 -->
<g id="Node000003" class="node">
<title>Node3</title>
<g id="a_Node000003"><a xlink:href="_i_p_o_s___m40___v1__00__101125_2_core_2_src_2main_8c.html" target="_top" xlink:title=": Main program body">
<polygon fill="white" stroke="#666666" points="206.38,-20 161.12,-20 161.12,0 206.38,0 206.38,-20"/>
<text xml:space="preserve" text-anchor="middle" x="183.75" y="-6.5" font-family="Helvetica,sans-Serif" font-size="10.00">main.c</text>
</a>
</g>
</g>
<!-- Node1&#45;&gt;Node3 -->
<g id="edge2_Node000001_Node000003" class="edge">
<title>Node1&#45;&gt;Node3</title>
<g id="a_edge2_Node000001_Node000003"><a xlink:title=" ">
<path fill="none" stroke="#63b8ff" d="M149.9,-47.27C158.67,-37.87 168.25,-27.61 174.97,-20.41"/>
<polygon fill="#63b8ff" stroke="#63b8ff" points="147.47,-44.74 143.2,-54.44 152.59,-49.52 147.47,-44.74"/>
</a>
</g>
</g>
</g>
</svg>
