<?xml version="1.0" encoding="UTF-8" standalone="no"?>
<!DOCTYPE svg PUBLIC "-//W3C//DTD SVG 1.1//EN"
 "http://www.w3.org/Graphics/SVG/1.1/DTD/svg11.dtd">
<!-- Generated by graphviz version 14.0.2 (20251019.1705)
 -->
<!-- Title: app_main.c Pages: 1 -->
<svg width="1144pt" height="252pt"
 viewBox="0.00 0.00 1144.00 252.00" xmlns="http://www.w3.org/2000/svg" xmlns:xlink="http://www.w3.org/1999/xlink">
<g id="graph0" class="graph" transform="scale(1 1) rotate(0) translate(4 248)">
<title>app_main.c</title>
<!-- Node1 -->
<g id="Node000001" class="node">
<title>Node1</title>
<g id="a_Node000001"><a xlink:title=" ">
<polygon fill="#999999" stroke="#666666" points="605.75,-244 539.5,-244 539.5,-224 605.75,-224 605.75,-244"/>
<text xml:space="preserve" text-anchor="middle" x="572.62" y="-230.5" font-family="Helvetica,sans-Serif" font-size="10.00">app_main.c</text>
</a>
</g>
</g>
<!-- Node2 -->
<g id="Node000002" class="node">
<title>Node2</title>
<g id="a_Node000002"><a xlink:href="inputs_8h.html" target="_top" xlink:title="Input handling, safety interlock logic, and laser control API.">
<polygon fill="white" stroke="#666666" points="160.88,-188 110.38,-188 110.38,-168 160.88,-168 160.88,-188"/>
<text xml:space="preserve" text-anchor="middle" x="135.62" y="-174.5" font-family="Helvetica,sans-Serif" font-size="10.00">inputs.h</text>
</a>
</g>
</g>
<!-- Node1&#45;&gt;Node2 -->
<g id="edge1_Node000001_Node000002" class="edge">
<title>Node1&#45;&gt;Node2</title>
<g id="a_edge1_Node000001_Node000002"><a xlink:title=" ">
<path fill="none" stroke="#63b8ff" d="M539.01,-230.22C470.8,-224.34 311.33,-209.42 178.62,-188 176.48,-187.65 174.28,-187.27 172.06,-186.87"/>
<polygon fill="#63b8ff" stroke="#63b8ff" points="172.99,-183.48 162.5,-185.01 171.65,-190.36 172.99,-183.48"/>
</a>
</g>
</g>
<!-- Node4 -->
<g id="Node000004" class="node">
<title>Node4</title>
<g id="a_Node000004"><a xlink:title=" ">
<polygon fill="#e0e0e0" stroke="#999999" points="273.38,-132 201.88,-132 201.88,-112 273.38,-112 273.38,-132"/>
<text xml:space="preserve" text-anchor="middle" x="237.62" y="-118.5" font-family="Helvetica,sans-Serif" font-size="10.00">cmsis_os2.h</text>
</a>
</g>
</g>
<!-- Node1&#45;&gt;Node4 -->
<g id="edge10_Node000001_Node000004" class="edge">
<title>Node1&#45;&gt;Node4</title>
<g id="a_edge10_Node000001_Node000004"><a xlink:title=" ">
<path fill="none" stroke="#63b8ff" d="M539.25,-228.12C498.46,-221.59 427.69,-208.4 369.62,-188 331.07,-174.46 289.16,-152.46 263.14,-137.86"/>
<polygon fill="#63b8ff" stroke="#63b8ff" points="265.08,-134.94 254.66,-133.04 261.62,-141.02 265.08,-134.94"/>
</a>
</g>
</g>
<!-- Node7 -->
<g id="Node000007" class="node">
<title>Node7</title>
<g id="a_Node000007"><a xlink:href="max31855_8h.html" target="_top" xlink:title=" ">
<polygon fill="white" stroke="#666666" points="69.25,-132 0,-132 0,-112 69.25,-112 69.25,-132"/>
<text xml:space="preserve" text-anchor="middle" x="34.62" y="-118.5" font-family="Helvetica,sans-Serif" font-size="10.00">max31855.h</text>
</a>
</g>
</g>
<!-- Node1&#45;&gt;Node7 -->
<g id="edge28_Node000001_Node000007" class="edge">
<title>Node1&#45;&gt;Node7</title>
<g id="a_edge28_Node000001_Node000007"><a xlink:title=" ">
<path fill="none" stroke="#63b8ff" d="M539.05,-232.65C444.8,-231.23 179.64,-224.04 101.62,-188 79.18,-177.63 59.69,-156.53 47.6,-141.18"/>
<polygon fill="#63b8ff" stroke="#63b8ff" points="50.49,-139.19 41.68,-133.3 44.89,-143.39 50.49,-139.19"/>
</a>
</g>
</g>
<!-- Node9 -->
<g id="Node000009" class="node">
<title>Node9</title>
<g id="a_Node000009"><a xlink:title=" ">
<polygon fill="#e0e0e0" stroke="#999999" points="560.62,-188 514.62,-188 514.62,-168 560.62,-168 560.62,-188"/>
<text xml:space="preserve" text-anchor="middle" x="537.62" y="-174.5" font-family="Helvetica,sans-Serif" font-size="10.00">usart.h</text>
</a>
</g>
</g>
<!-- Node1&#45;&gt;Node9 -->
<g id="edge11_Node000001_Node000009" class="edge">
<title>Node1&#45;&gt;Node9</title>
<g id="a_edge11_Node000001_Node000009"><a xlink:title=" ">
<path fill="none" stroke="#63b8ff" d="M566.53,-223.59C561.91,-216.47 555.42,-206.45 549.76,-197.72"/>
<polygon fill="#63b8ff" stroke="#63b8ff" points="552.85,-196.06 544.47,-189.57 546.98,-199.86 552.85,-196.06"/>
</a>
</g>
</g>
<!-- Node10 -->
<g id="Node000010" class="node">
<title>Node10</title>
<g id="a_Node000010"><a xlink:href="uart__master__task_8h.html" target="_top" xlink:title=" ">
<polygon fill="white" stroke="#666666" points="287.62,-188 187.62,-188 187.62,-168 287.62,-168 287.62,-188"/>
<text xml:space="preserve" text-anchor="middle" x="237.62" y="-174.5" font-family="Helvetica,sans-Serif" font-size="10.00">uart_master_task.h</text>
</a>
</g>
</g>
<!-- Node1&#45;&gt;Node10 -->
<g id="edge12_Node000001_Node000010" class="edge">
<title>Node1&#45;&gt;Node10</title>
<g id="a_edge12_Node000001_Node000010"><a xlink:title=" ">
<path fill="none" stroke="#63b8ff" d="M539.28,-227.62C483.28,-218.6 369.53,-200.26 298.83,-188.87"/>
<polygon fill="#63b8ff" stroke="#63b8ff" points="299.8,-185.48 289.37,-187.34 298.68,-192.39 299.8,-185.48"/>
</a>
</g>
</g>
<!-- Node11 -->
<g id="Node000011" class="node">
<title>Node11</title>
<g id="a_Node000011"><a xlink:href="master__link_8h.html" target="_top" xlink:title=" ">
<polygon fill="white" stroke="#666666" points="403.88,-132 329.38,-132 329.38,-112 403.88,-112 403.88,-132"/>
<text xml:space="preserve" text-anchor="middle" x="366.62" y="-118.5" font-family="Helvetica,sans-Serif" font-size="10.00">master_link.h</text>
</a>
</g>
</g>
<!-- Node1&#45;&gt;Node11 -->
<g id="edge15_Node000001_Node000011" class="edge">
<title>Node1&#45;&gt;Node11</title>
<g id="a_edge15_Node000001_Node000011"><a xlink:title=" ">
<path fill="none" stroke="#63b8ff" d="M539.12,-228.99C491.46,-222.63 407.44,-208.79 385.62,-188 373.64,-176.58 369.09,-158.07 367.43,-143.71"/>
<polygon fill="#63b8ff" stroke="#63b8ff" points="370.93,-143.68 366.7,-133.96 363.95,-144.2 370.93,-143.68"/>
</a>
</g>
</g>
<!-- Node12 -->
<g id="Node000012" class="node">
<title>Node12</title>
<g id="a_Node000012"><a xlink:title=" ">
<polygon fill="#e0e0e0" stroke="#999999" points="637,-188 578.25,-188 578.25,-168 637,-168 637,-188"/>
<text xml:space="preserve" text-anchor="middle" x="607.62" y="-174.5" font-family="Helvetica,sans-Serif" font-size="10.00">protocol.h</text>
</a>
</g>
</g>
<!-- Node1&#45;&gt;Node12 -->
<g id="edge18_Node000001_Node000012" class="edge">
<title>Node1&#45;&gt;Node12</title>
<g id="a_edge18_Node000001_Node000012"><a xlink:title=" ">
<path fill="none" stroke="#63b8ff" d="M578.72,-223.59C583.34,-216.47 589.83,-206.45 595.49,-197.72"/>
<polygon fill="#63b8ff" stroke="#63b8ff" points="598.27,-199.86 600.78,-189.57 592.4,-196.06 598.27,-199.86"/>
</a>
</g>
</g>
<!-- Node13 -->
<g id="Node000013" class="node">
<title>Node13</title>
<g id="a_Node000013"><a xlink:title=" ">
<polygon fill="#e0e0e0" stroke="#999999" points="700.25,-188 655,-188 655,-168 700.25,-168 700.25,-188"/>
<text xml:space="preserve" text-anchor="middle" x="677.62" y="-174.5" font-family="Helvetica,sans-Serif" font-size="10.00">main.h</text>
</a>
</g>
</g>
<!-- Node1&#45;&gt;Node13 -->
<g id="edge19_Node000001_Node000013" class="edge">
<title>Node1&#45;&gt;Node13</title>
<g id="a_edge19_Node000001_Node000013"><a xlink:title=" ">
<path fill="none" stroke="#63b8ff" d="M590.91,-223.59C606.93,-215.36 630.46,-203.26 648.97,-193.74"/>
<polygon fill="#63b8ff" stroke="#63b8ff" points="650.55,-196.86 657.85,-189.17 647.35,-190.63 650.55,-196.86"/>
</a>
</g>
</g>
<!-- Node14 -->
<g id="Node000014" class="node">
<title>Node14</title>
<g id="a_Node000014"><a xlink:title=" ">
<polygon fill="#e0e0e0" stroke="#999999" points="763.25,-188 718,-188 718,-168 763.25,-168 763.25,-188"/>
<text xml:space="preserve" text-anchor="middle" x="740.62" y="-174.5" font-family="Helvetica,sans-Serif" font-size="10.00">stdio.h</text>
</a>
</g>
</g>
<!-- Node1&#45;&gt;Node14 -->
<g id="edge20_Node000001_Node000014" class="edge">
<title>Node1&#45;&gt;Node14</title>
<g id="a_edge20_Node000001_Node000014"><a xlink:title=" ">
<path fill="none" stroke="#63b8ff" d="M601.89,-223.59C631.19,-214.17 676.24,-199.7 707,-189.81"/>
<polygon fill="#63b8ff" stroke="#63b8ff" points="707.74,-193.25 716.19,-186.85 705.6,-186.58 707.74,-193.25"/>
</a>
</g>
</g>
<!-- Node15 -->
<g id="Node000015" class="node">
<title>Node15</title>
<g id="a_Node000015"><a xlink:title=" ">
<polygon fill="#e0e0e0" stroke="#999999" points="829.75,-188 781.5,-188 781.5,-168 829.75,-168 829.75,-188"/>
<text xml:space="preserve" text-anchor="middle" x="805.62" y="-174.5" font-family="Helvetica,sans-Serif" font-size="10.00">string.h</text>
</a>
</g>
</g>
<!-- Node1&#45;&gt;Node15 -->
<g id="edge21_Node000001_Node000015" class="edge">
<title>Node1&#45;&gt;Node15</title>
<g id="a_edge21_Node000001_Node000015"><a xlink:title=" ">
<path fill="none" stroke="#63b8ff" d="M606,-225.97C643.61,-217.94 706.85,-204.14 770.16,-188.53"/>
<polygon fill="#63b8ff" stroke="#63b8ff" points="770.82,-191.98 779.68,-186.17 769.13,-185.18 770.82,-191.98"/>
</a>
</g>
</g>
<!-- Node16 -->
<g id="Node000016" class="node">
<title>Node16</title>
<g id="a_Node000016"><a xlink:title=" ">
<polygon fill="#e0e0e0" stroke="#999999" points="925,-188 848.25,-188 848.25,-168 925,-168 925,-188"/>
<text xml:space="preserve" text-anchor="middle" x="886.62" y="-174.5" font-family="Helvetica,sans-Serif" font-size="10.00">usbd_cdc_if.h</text>
</a>
</g>
</g>
<!-- Node1&#45;&gt;Node16 -->
<g id="edge22_Node000001_Node000016" class="edge">
<title>Node1&#45;&gt;Node16</title>
<g id="a_edge22_Node000001_Node000016"><a xlink:title=" ">
<path fill="none" stroke="#63b8ff" d="M605.83,-227.58C654.19,-219.64 747.11,-204.22 836.68,-188.32"/>
<polygon fill="#63b8ff" stroke="#63b8ff" points="837.14,-191.79 846.37,-186.59 835.91,-184.9 837.14,-191.79"/>
</a>
</g>
</g>
<!-- Node17 -->
<g id="Node000017" class="node">
<title>Node17</title>
<g id="a_Node000017"><a xlink:title=" ">
<polygon fill="#e0e0e0" stroke="#999999" points="985.75,-188 943.5,-188 943.5,-168 985.75,-168 985.75,-188"/>
<text xml:space="preserve" text-anchor="middle" x="964.62" y="-174.5" font-family="Helvetica,sans-Serif" font-size="10.00">gpio.h</text>
</a>
</g>
</g>
<!-- Node1&#45;&gt;Node17 -->
<g id="edge23_Node000001_Node000017" class="edge">
<title>Node1&#45;&gt;Node17</title>
<g id="a_edge23_Node000001_Node000017"><a xlink:title=" ">
<path fill="none" stroke="#63b8ff" d="M605.76,-230.64C667.87,-225.83 806.12,-213.34 932.07,-187.99"/>
<polygon fill="#63b8ff" stroke="#63b8ff" points="932.48,-191.48 941.57,-186.04 931.07,-184.62 932.48,-191.48"/>
</a>
</g>
</g>
<!-- Node18 -->
<g id="Node000018" class="node">
<title>Node18</title>
<g id="a_Node000018"><a xlink:href="ports__hw_8h.html" target="_top" xlink:title=" ">
<polygon fill="white" stroke="#666666" points="514.25,-76 451,-76 451,-56 514.25,-56 514.25,-76"/>
<text xml:space="preserve" text-anchor="middle" x="482.62" y="-62.5" font-family="Helvetica,sans-Serif" font-size="10.00">ports_hw.h</text>
</a>
</g>
</g>
<!-- Node1&#45;&gt;Node18 -->
<g id="edge24_Node000001_Node000018" class="edge">
<title>Node1&#45;&gt;Node18</title>
<g id="a_edge24_Node000001_Node000018"><a xlink:title=" ">
<path fill="none" stroke="#63b8ff" d="M549,-223.57C533.92,-216.24 515.42,-204.51 505.62,-188 488.31,-158.83 505.92,-145.13 498.62,-112 496.78,-103.61 493.81,-94.64 490.92,-86.94"/>
<polygon fill="#63b8ff" stroke="#63b8ff" points="494.26,-85.87 487.33,-77.86 487.75,-88.45 494.26,-85.87"/>
</a>
</g>
</g>
<!-- Node19 -->
<g id="Node000019" class="node">
<title>Node19</title>
<g id="a_Node000019"><a xlink:title=" ">
<polygon fill="#e0e0e0" stroke="#999999" points="1075,-188 1004.25,-188 1004.25,-168 1075,-168 1075,-188"/>
<text xml:space="preserve" text-anchor="middle" x="1039.62" y="-174.5" font-family="Helvetica,sans-Serif" font-size="10.00">FreeRTOS.h</text>
</a>
</g>
</g>
<!-- Node1&#45;&gt;Node19 -->
<g id="edge26_Node000001_Node000019" class="edge">
<title>Node1&#45;&gt;Node19</title>
<g id="a_edge26_Node000001_Node000019"><a xlink:title=" ">
<path fill="none" stroke="#63b8ff" d="M606.13,-230.47C675.97,-224.98 842.39,-210.73 992.57,-188.18"/>
<polygon fill="#63b8ff" stroke="#63b8ff" points="992.96,-191.66 1002.32,-186.7 991.91,-184.74 992.96,-191.66"/>
</a>
</g>
</g>
<!-- Node20 -->
<g id="Node000020" class="node">
<title>Node20</title>
<g id="a_Node000020"><a xlink:title=" ">
<polygon fill="#e0e0e0" stroke="#999999" points="1136.12,-188 1093.12,-188 1093.12,-168 1136.12,-168 1136.12,-188"/>
<text xml:space="preserve" text-anchor="middle" x="1114.62" y="-174.5" font-family="Helvetica,sans-Serif" font-size="10.00">task.h</text>
</a>
</g>
</g>
<!-- Node1&#45;&gt;Node20 -->
<g id="edge27_Node000001_Node000020" class="edge">
<title>Node1&#45;&gt;Node20</title>
<g id="a_edge27_Node000001_Node000020"><a xlink:title=" ">
<path fill="none" stroke="#63b8ff" d="M606.11,-232.3C686.55,-230.15 897.05,-221.68 1081.47,-188.02"/>
<polygon fill="#63b8ff" stroke="#63b8ff" points="1082.06,-191.47 1091.25,-186.2 1080.78,-184.59 1082.06,-191.47"/>
</a>
</g>
</g>
<!-- Node21 -->
<g id="Node000021" class="node">
<title>Node21</title>
<g id="a_Node000021"><a xlink:href="log__flash_8h.html" target="_top" xlink:title="Public API for flash&#45;based logging of system events and errors.">
<polygon fill="white" stroke="#666666" points="458.25,-188 395,-188 395,-168 458.25,-168 458.25,-188"/>
<text xml:space="preserve" text-anchor="middle" x="426.62" y="-174.5" font-family="Helvetica,sans-Serif" font-size="10.00">log_flash.h</text>
</a>
</g>
</g>
<!-- Node1&#45;&gt;Node21 -->
<g id="edge29_Node000001_Node000021" class="edge">
<title>Node1&#45;&gt;Node21</title>
<g id="a_edge29_Node000001_Node000021"><a xlink:title=" ">
<path fill="none" stroke="#63b8ff" d="M547.19,-223.59C523.89,-214.97 489.13,-202.12 462.91,-192.42"/>
<polygon fill="#63b8ff" stroke="#63b8ff" points="464.27,-189.19 453.67,-189 461.84,-195.76 464.27,-189.19"/>
</a>
</g>
</g>
<!-- Node3 -->
<g id="Node000003" class="node">
<title>Node3</title>
<g id="a_Node000003"><a xlink:title=" ">
<polygon fill="#e0e0e0" stroke="#999999" points="197.75,-76 149.5,-76 149.5,-56 197.75,-56 197.75,-76"/>
<text xml:space="preserve" text-anchor="middle" x="173.62" y="-62.5" font-family="Helvetica,sans-Serif" font-size="10.00">stdint.h</text>
</a>
</g>
</g>
<!-- Node2&#45;&gt;Node3 -->
<g id="edge2_Node000002_Node000003" class="edge">
<title>Node2&#45;&gt;Node3</title>
<g id="a_edge2_Node000002_Node000003"><a xlink:title=" ">
<path fill="none" stroke="#63b8ff" d="M138.86,-167.62C145.01,-149.84 158.47,-110.88 166.72,-87"/>
<polygon fill="#63b8ff" stroke="#63b8ff" points="169.94,-88.38 169.9,-77.79 163.33,-86.09 169.94,-88.38"/>
</a>
</g>
</g>
<!-- Node2&#45;&gt;Node4 -->
<g id="edge3_Node000002_Node000004" class="edge">
<title>Node2&#45;&gt;Node4</title>
<g id="a_edge3_Node000002_Node000004"><a xlink:title=" ">
<path fill="none" stroke="#63b8ff" d="M153.39,-167.59C168.95,-159.36 191.81,-147.26 209.79,-137.74"/>
<polygon fill="#63b8ff" stroke="#63b8ff" points="211.18,-140.96 218.38,-133.19 207.91,-134.77 211.18,-140.96"/>
</a>
</g>
</g>
<!-- Node5 -->
<g id="Node000005" class="node">
<title>Node5</title>
<g id="a_Node000005"><a xlink:href="_i_p_o_s__071125_2_core_2_inc_2main_8h.html" target="_top" xlink:title=": Header for main.c file. This file contains the common defines of the application.">
<polygon fill="white" stroke="#666666" points="131.25,-76 86,-76 86,-56 131.25,-56 131.25,-76"/>
<text xml:space="preserve" text-anchor="middle" x="108.62" y="-62.5" font-family="Helvetica,sans-Serif" font-size="10.00">main.h</text>
</a>
</g>
</g>
<!-- Node2&#45;&gt;Node5 -->
<g id="edge4_Node000002_Node000005" class="edge">
<title>Node2&#45;&gt;Node5</title>
<g id="a_edge4_Node000002_Node000005"><a xlink:title=" ">
<path fill="none" stroke="#63b8ff" d="M132.44,-167.77C129.4,-158.73 124.82,-144.53 121.62,-132 117.87,-117.28 114.53,-100.46 112.18,-87.62"/>
<polygon fill="#63b8ff" stroke="#63b8ff" points="115.63,-87.05 110.44,-77.82 108.74,-88.27 115.63,-87.05"/>
</a>
</g>
</g>
<!-- Node2&#45;&gt;Node7 -->
<g id="edge6_Node000002_Node000007" class="edge">
<title>Node2&#45;&gt;Node7</title>
<g id="a_edge6_Node000002_Node000007"><a xlink:title=" ">
<path fill="none" stroke="#63b8ff" d="M118.03,-167.59C102.7,-159.4 80.21,-147.37 62.44,-137.87"/>
<polygon fill="#63b8ff" stroke="#63b8ff" points="64.16,-134.82 53.69,-133.19 60.86,-140.99 64.16,-134.82"/>
</a>
</g>
</g>
<!-- Node6 -->
<g id="Node000006" class="node">
<title>Node6</title>
<g id="a_Node000006"><a xlink:title=" ">
<polygon fill="#e0e0e0" stroke="#999999" points="410.62,-20 322.62,-20 322.62,0 410.62,0 410.62,-20"/>
<text xml:space="preserve" text-anchor="middle" x="366.62" y="-6.5" font-family="Helvetica,sans-Serif" font-size="10.00">stm32f4xx_hal.h</text>
</a>
</g>
</g>
<!-- Node5&#45;&gt;Node6 -->
<g id="edge5_Node000005_Node000006" class="edge">
<title>Node5&#45;&gt;Node6</title>
<g id="a_edge5_Node000005_Node000006"><a xlink:title=" ">
<path fill="none" stroke="#63b8ff" d="M131.64,-58.3C134.65,-57.49 137.71,-56.7 140.62,-56 198.37,-42.15 265.12,-29.24 311.03,-20.83"/>
<polygon fill="#63b8ff" stroke="#63b8ff" points="311.53,-24.29 320.74,-19.06 310.28,-17.4 311.53,-24.29"/>
</a>
</g>
</g>
<!-- Node7&#45;&gt;Node3 -->
<g id="edge9_Node000007_Node000003" class="edge">
<title>Node7&#45;&gt;Node3</title>
<g id="a_edge9_Node000007_Node000003"><a xlink:title=" ">
<path fill="none" stroke="#63b8ff" d="M58.84,-111.59C80.93,-103.01 113.82,-90.23 138.75,-80.55"/>
<polygon fill="#63b8ff" stroke="#63b8ff" points="139.76,-83.91 147.81,-77.03 137.22,-77.39 139.76,-83.91"/>
</a>
</g>
</g>
<!-- Node7&#45;&gt;Node5 -->
<g id="edge7_Node000007_Node000005" class="edge">
<title>Node7&#45;&gt;Node5</title>
<g id="a_edge7_Node000007_Node000005"><a xlink:title=" ">
<path fill="none" stroke="#63b8ff" d="M47.51,-111.59C58.34,-103.7 74.04,-92.24 86.81,-82.92"/>
<polygon fill="#63b8ff" stroke="#63b8ff" points="88.65,-85.91 94.66,-77.19 84.52,-80.26 88.65,-85.91"/>
</a>
</g>
</g>
<!-- Node8 -->
<g id="Node000008" class="node">
<title>Node8</title>
<g id="a_Node000008"><a xlink:title=" ">
<polygon fill="#e0e0e0" stroke="#999999" points="67.75,-76 1.5,-76 1.5,-56 67.75,-56 67.75,-76"/>
<text xml:space="preserve" text-anchor="middle" x="34.62" y="-62.5" font-family="Helvetica,sans-Serif" font-size="10.00">cmsis_os.h</text>
</a>
</g>
</g>
<!-- Node7&#45;&gt;Node8 -->
<g id="edge8_Node000007_Node000008" class="edge">
<title>Node7&#45;&gt;Node8</title>
<g id="a_edge8_Node000007_Node000008"><a xlink:title=" ">
<path fill="none" stroke="#63b8ff" d="M34.62,-111.59C34.62,-105.01 34.62,-95.96 34.62,-87.73"/>
<polygon fill="#63b8ff" stroke="#63b8ff" points="38.13,-87.81 34.63,-77.81 31.13,-87.81 38.13,-87.81"/>
</a>
</g>
</g>
<!-- Node10&#45;&gt;Node3 -->
<g id="edge14_Node000010_Node000003" class="edge">
<title>Node10&#45;&gt;Node3</title>
<g id="a_edge14_Node000010_Node000003"><a xlink:title=" ">
<path fill="none" stroke="#63b8ff" d="M225.21,-167.58C215.07,-159.26 201.07,-146.26 192.62,-132 184.54,-118.36 179.7,-101.04 176.93,-87.72"/>
<polygon fill="#63b8ff" stroke="#63b8ff" points="180.38,-87.11 175.14,-77.9 173.49,-88.37 180.38,-87.11"/>
</a>
</g>
</g>
<!-- Node10&#45;&gt;Node4 -->
<g id="edge13_Node000010_Node000004" class="edge">
<title>Node10&#45;&gt;Node4</title>
<g id="a_edge13_Node000010_Node000004"><a xlink:title=" ">
<path fill="none" stroke="#63b8ff" d="M237.62,-167.59C237.62,-161.01 237.62,-151.96 237.62,-143.73"/>
<polygon fill="#63b8ff" stroke="#63b8ff" points="241.13,-143.81 237.63,-133.81 234.13,-143.81 241.13,-143.81"/>
</a>
</g>
</g>
<!-- Node11&#45;&gt;Node3 -->
<g id="edge16_Node000011_Node000003" class="edge">
<title>Node11&#45;&gt;Node3</title>
<g id="a_edge16_Node000011_Node000003"><a xlink:title=" ">
<path fill="none" stroke="#63b8ff" d="M333.01,-111.59C298.22,-101.86 244.11,-86.72 208.77,-76.83"/>
<polygon fill="#63b8ff" stroke="#63b8ff" points="210.03,-73.55 199.46,-74.23 208.15,-80.29 210.03,-73.55"/>
</a>
</g>
</g>
<!-- Node11&#45;&gt;Node6 -->
<g id="edge17_Node000011_Node000006" class="edge">
<title>Node11&#45;&gt;Node6</title>
<g id="a_edge17_Node000011_Node000006"><a xlink:title=" ">
<path fill="none" stroke="#63b8ff" d="M366.62,-111.62C366.62,-94.01 366.62,-55.59 366.62,-31.65"/>
<polygon fill="#63b8ff" stroke="#63b8ff" points="370.13,-31.87 366.63,-21.87 363.13,-31.87 370.13,-31.87"/>
</a>
</g>
</g>
<!-- Node18&#45;&gt;Node6 -->
<g id="edge25_Node000018_Node000006" class="edge">
<title>Node18&#45;&gt;Node6</title>
<g id="a_edge25_Node000018_Node000006"><a xlink:title=" ">
<path fill="none" stroke="#63b8ff" d="M462.42,-55.59C444.4,-47.21 417.76,-34.8 397.14,-25.21"/>
<polygon fill="#63b8ff" stroke="#63b8ff" points="398.9,-22.17 388.36,-21.12 395.95,-28.51 398.9,-22.17"/>
</a>
</g>
</g>
<!-- Node21&#45;&gt;Node3 -->
<g id="edge30_Node000021_Node000003" class="edge">
<title>Node21&#45;&gt;Node3</title>
<g id="a_edge30_Node000021_Node000003"><a xlink:title=" ">
<path fill="none" stroke="#63b8ff" d="M445.02,-167.52C467.25,-154.85 499.68,-131.72 482.62,-112 447.6,-71.51 282.7,-66.71 209.17,-66.63"/>
<polygon fill="#63b8ff" stroke="#63b8ff" points="209.28,-63.13 199.29,-66.65 209.29,-70.13 209.28,-63.13"/>
</a>
</g>
</g>
<!-- Node21&#45;&gt;Node4 -->
<g id="edge33_Node000021_Node000004" class="edge">
<title>Node21&#45;&gt;Node4</title>
<g id="a_edge33_Node000021_Node000004"><a xlink:title=" ">
<path fill="none" stroke="#63b8ff" d="M394.56,-167.84C363.49,-158.96 316.11,-145.42 281.54,-135.55"/>
<polygon fill="#63b8ff" stroke="#63b8ff" points="282.83,-132.28 272.25,-132.89 280.91,-139.01 282.83,-132.28"/>
</a>
</g>
</g>
<!-- Node21&#45;&gt;Node5 -->
<g id="edge32_Node000021_Node000005" class="edge">
<title>Node21&#45;&gt;Node5</title>
<g id="a_edge32_Node000021_Node000005"><a xlink:title=" ">
<path fill="none" stroke="#63b8ff" d="M402.8,-167.55C381.15,-158.8 348.44,-145.2 320.62,-132 303.38,-123.82 300.44,-118.84 282.62,-112 225.04,-89.91 205.57,-92.46 142.61,-76.42"/>
<polygon fill="#63b8ff" stroke="#63b8ff" points="143.7,-73.09 133.14,-73.94 141.93,-79.86 143.7,-73.09"/>
</a>
</g>
</g>
<!-- Node22 -->
<g id="Node000022" class="node">
<title>Node22</title>
<g id="a_Node000022"><a xlink:title=" ">
<polygon fill="#e0e0e0" stroke="#999999" points="473.25,-132 422,-132 422,-112 473.25,-112 473.25,-132"/>
<text xml:space="preserve" text-anchor="middle" x="447.62" y="-118.5" font-family="Helvetica,sans-Serif" font-size="10.00">stddef.h</text>
</a>
</g>
</g>
<!-- Node21&#45;&gt;Node22 -->
<g id="edge31_Node000021_Node000022" class="edge">
<title>Node21&#45;&gt;Node22</title>
<g id="a_edge31_Node000021_Node000022"><a xlink:title=" ">
<path fill="none" stroke="#63b8ff" d="M430.28,-167.59C432.93,-160.78 436.61,-151.32 439.9,-142.86"/>
<polygon fill="#63b8ff" stroke="#63b8ff" points="443.1,-144.3 443.46,-133.71 436.57,-141.76 443.1,-144.3"/>
</a>
</g>
</g>
</g>
</svg>
