<?xml version="1.0" encoding="UTF-8" standalone="no"?>
<!DOCTYPE svg PUBLIC "-//W3C//DTD SVG 1.1//EN"
 "http://www.w3.org/Graphics/SVG/1.1/DTD/svg11.dtd">
<!-- Generated by graphviz version 14.0.2 (20251019.1705)
 -->
<!-- Title: bdma.h Pages: 1 -->
<svg width="120pt" height="84pt"
 viewBox="0.00 0.00 120.00 84.00" xmlns="http://www.w3.org/2000/svg" xmlns:xlink="http://www.w3.org/1999/xlink">
<g id="graph0" class="graph" transform="scale(1 1) rotate(0) translate(4 80)">
<title>bdma.h</title>
<!-- Node1 -->
<g id="Node000001" class="node">
<title>Node1</title>
<g id="a_Node000001"><a xlink:title="This file contains all the function prototypes for the bdma.c file.">
<polygon fill="#999999" stroke="#666666" points="80.25,-76 32,-76 32,-56 80.25,-56 80.25,-76"/>
<text xml:space="preserve" text-anchor="middle" x="56.12" y="-62.5" font-family="Helvetica,sans-Serif" font-size="10.00">bdma.h</text>
</a>
</g>
</g>
<!-- Node2 -->
<g id="Node000002" class="node">
<title>Node2</title>
<g id="a_Node000002"><a xlink:href="bdma_8c.html" target="_top" xlink:title="This file provides code for the configuration of all the requested memory to memory DMA transfers.">
<polygon fill="white" stroke="#666666" points="48.25,-20 0,-20 0,0 48.25,0 48.25,-20"/>
<text xml:space="preserve" text-anchor="middle" x="24.12" y="-6.5" font-family="Helvetica,sans-Serif" font-size="10.00">bdma.c</text>
</a>
</g>
</g>
<!-- Node1&#45;&gt;Node2 -->
<g id="edge1_Node000001_Node000002" class="edge">
<title>Node1&#45;&gt;Node2</title>
<g id="a_edge1_Node000001_Node000002"><a xlink:title=" ">
<path fill="none" stroke="#63b8ff" d="M44.79,-45.87C39.64,-37.19 33.79,-27.32 29.64,-20.3"/>
<polygon fill="#63b8ff" stroke="#63b8ff" points="41.67,-47.47 49.78,-54.29 47.69,-43.9 41.67,-47.47"/>
</a>
</g>
</g>
<!-- Node3 -->
<g id="Node000003" class="node">
<title>Node3</title>
<g id="a_Node000003"><a xlink:href="_i_p_o_s___m40___v1__00__101125_2_core_2_src_2main_8c.html" target="_top" xlink:title=": Main program body">
<polygon fill="white" stroke="#666666" points="111.75,-20 66.5,-20 66.5,0 111.75,0 111.75,-20"/>
<text xml:space="preserve" text-anchor="middle" x="89.12" y="-6.5" font-family="Helvetica,sans-Serif" font-size="10.00">main.c</text>
</a>
</g>
</g>
<!-- Node1&#45;&gt;Node3 -->
<g id="edge2_Node000001_Node000003" class="edge">
<title>Node1&#45;&gt;Node3</title>
<g id="a_edge2_Node000001_Node000003"><a xlink:title=" ">
<path fill="none" stroke="#63b8ff" d="M67.82,-45.87C73.12,-37.19 79.15,-27.32 83.44,-20.3"/>
<polygon fill="#63b8ff" stroke="#63b8ff" points="64.89,-43.94 62.66,-54.3 70.86,-47.59 64.89,-43.94"/>
</a>
</g>
</g>
</g>
</svg>
