<?xml version="1.0" encoding="UTF-8" standalone="no"?>
<!DOCTYPE svg PUBLIC "-//W3C//DTD SVG 1.1//EN"
 "http://www.w3.org/Graphics/SVG/1.1/DTD/svg11.dtd">
<!-- Generated by graphviz version 14.0.2 (20251019.1705)
 -->
<!-- Title: TimingFlow Pages: 1 -->
<svg width="2772pt" height="48pt"
 viewBox="0.00 0.00 2772.00 48.00" xmlns="http://www.w3.org/2000/svg" xmlns:xlink="http://www.w3.org/1999/xlink">
<g id="graph0" class="graph" transform="scale(1 1) rotate(0) translate(4 43.5)">
<title>TimingFlow</title>
<polygon fill="white" stroke="none" points="-4,4 -4,-43.5 2767.7,-43.5 2767.7,4 -4,4"/>
<!-- PLC1 -->
<g id="node1" class="node">
<title>PLC1</title>
<path fill="#cfe3ff" stroke="black" d="M160.8,-37.75C160.8,-37.75 12,-37.75 12,-37.75 6,-37.75 0,-31.75 0,-25.75 0,-25.75 0,-13.75 0,-13.75 0,-7.75 6,-1.75 12,-1.75 12,-1.75 160.8,-1.75 160.8,-1.75 166.8,-1.75 172.8,-7.75 172.8,-13.75 172.8,-13.75 172.8,-25.75 172.8,-25.75 172.8,-31.75 166.8,-37.75 160.8,-37.75"/>
<text xml:space="preserve" text-anchor="middle" x="86.4" y="-21.7" font-family="Helvetica,sans-Serif" font-size="9.00">PLC:</text>
<text xml:space="preserve" text-anchor="middle" x="86.4" y="-11.2" font-family="Helvetica,sans-Serif" font-size="9.00">PD&#45;Write (Output Data)</text>
</g>
<!-- M40w -->
<g id="node2" class="node">
<title>M40w</title>
<path fill="#e5f9e5" stroke="black" d="M477.35,-37.75C477.35,-37.75 328.55,-37.75 328.55,-37.75 322.55,-37.75 316.55,-31.75 316.55,-25.75 316.55,-25.75 316.55,-13.75 316.55,-13.75 316.55,-7.75 322.55,-1.75 328.55,-1.75 328.55,-1.75 477.35,-1.75 477.35,-1.75 483.35,-1.75 489.35,-7.75 489.35,-13.75 489.35,-13.75 489.35,-25.75 489.35,-25.75 489.35,-31.75 483.35,-37.75 477.35,-37.75"/>
<text xml:space="preserve" text-anchor="middle" x="402.95" y="-21.7" font-family="Helvetica,sans-Serif" font-size="9.00">M40:</text>
<text xml:space="preserve" text-anchor="middle" x="402.95" y="-11.2" font-family="Helvetica,sans-Serif" font-size="9.00">Receive PD&#45;Write</text>
</g>
<!-- PLC1&#45;&gt;M40w -->
<g id="edge1" class="edge">
<title>PLC1&#45;&gt;M40w</title>
<path fill="none" stroke="#003399" stroke-width="2" d="M172.9,-19.75C172.9,-19.75 303.25,-19.75 303.25,-19.75"/>
<polygon fill="#003399" stroke="#003399" stroke-width="2" points="303.25,-23.25 313.25,-19.75 303.25,-16.25 303.25,-23.25"/>
<text xml:space="preserve" text-anchor="middle" x="244.68" y="-22.95" font-family="Times New Roman,serif" font-size="14.00" fill="#003399">Profinet PD&#45;Write</text>
</g>
<!-- M40u -->
<g id="node3" class="node">
<title>M40u</title>
<path fill="#e5f9e5" stroke="black" d="M795.4,-37.75C795.4,-37.75 646.6,-37.75 646.6,-37.75 640.6,-37.75 634.6,-31.75 634.6,-25.75 634.6,-25.75 634.6,-13.75 634.6,-13.75 634.6,-7.75 640.6,-1.75 646.6,-1.75 646.6,-1.75 795.4,-1.75 795.4,-1.75 801.4,-1.75 807.4,-7.75 807.4,-13.75 807.4,-13.75 807.4,-25.75 807.4,-25.75 807.4,-31.75 801.4,-37.75 795.4,-37.75"/>
<text xml:space="preserve" text-anchor="middle" x="721" y="-21.7" font-family="Helvetica,sans-Serif" font-size="9.00">M40:</text>
<text xml:space="preserve" text-anchor="middle" x="721" y="-11.2" font-family="Helvetica,sans-Serif" font-size="9.00">UART3 TX → STM32</text>
</g>
<!-- M40w&#45;&gt;M40u -->
<g id="edge2" class="edge">
<title>M40w&#45;&gt;M40u</title>
<path fill="none" stroke="#cc5500" d="M489.44,-19.75C489.44,-19.75 622.74,-19.75 622.74,-19.75"/>
<polygon fill="#cc5500" stroke="#cc5500" points="622.74,-23.25 632.74,-19.75 622.74,-16.25 622.74,-23.25"/>
<text xml:space="preserve" text-anchor="middle" x="561.98" y="-22.95" font-family="Times New Roman,serif" font-size="14.00" fill="#cc5500">Trigger UART TX</text>
</g>
<!-- STMrx -->
<g id="node4" class="node">
<title>STMrx</title>
<path fill="#fff1d6" stroke="black" d="M1116.45,-39.5C1116.45,-39.5 967.65,-39.5 967.65,-39.5 961.65,-39.5 955.65,-33.5 955.65,-27.5 955.65,-27.5 955.65,-12 955.65,-12 955.65,-6 961.65,0 967.65,0 967.65,0 1116.45,0 1116.45,0 1122.45,0 1128.45,-6 1128.45,-12 1128.45,-12 1128.45,-27.5 1128.45,-27.5 1128.45,-33.5 1122.45,-39.5 1116.45,-39.5"/>
<text xml:space="preserve" text-anchor="middle" x="1042.05" y="-26.95" font-family="Helvetica,sans-Serif" font-size="9.00">STM32:</text>
<text xml:space="preserve" text-anchor="middle" x="1042.05" y="-16.45" font-family="Helvetica,sans-Serif" font-size="9.00">UART RX</text>
<text xml:space="preserve" text-anchor="middle" x="1042.05" y="-5.95" font-family="Helvetica,sans-Serif" font-size="9.00">(Update VARs)</text>
</g>
<!-- M40u&#45;&gt;STMrx -->
<g id="edge3" class="edge">
<title>M40u&#45;&gt;STMrx</title>
<path fill="none" stroke="#cc5500" d="M807.88,-19.75C807.88,-19.75 943.86,-19.75 943.86,-19.75"/>
<polygon fill="#cc5500" stroke="#cc5500" points="943.86,-23.25 953.86,-19.75 943.86,-16.25 943.86,-23.25"/>
<text xml:space="preserve" text-anchor="middle" x="881.53" y="-22.95" font-family="Times New Roman,serif" font-size="14.00" fill="#cc5500">UART3 TX → RX</text>
</g>
<!-- STMpr -->
<g id="node5" class="node">
<title>STMpr</title>
<path fill="#fff1d6" stroke="black" d="M1460,-37.75C1460,-37.75 1311.2,-37.75 1311.2,-37.75 1305.2,-37.75 1299.2,-31.75 1299.2,-25.75 1299.2,-25.75 1299.2,-13.75 1299.2,-13.75 1299.2,-7.75 1305.2,-1.75 1311.2,-1.75 1311.2,-1.75 1460,-1.75 1460,-1.75 1466,-1.75 1472,-7.75 1472,-13.75 1472,-13.75 1472,-25.75 1472,-25.75 1472,-31.75 1466,-37.75 1460,-37.75"/>
<text xml:space="preserve" text-anchor="middle" x="1385.6" y="-21.7" font-family="Helvetica,sans-Serif" font-size="9.00">STM32:</text>
<text xml:space="preserve" text-anchor="middle" x="1385.6" y="-11.2" font-family="Helvetica,sans-Serif" font-size="9.00">Process / Update I/O</text>
</g>
<!-- STMrx&#45;&gt;STMpr -->
<g id="edge4" class="edge">
<title>STMrx&#45;&gt;STMpr</title>
<path fill="none" stroke="#555555" d="M1128.74,-19.75C1128.74,-19.75 1287.42,-19.75 1287.42,-19.75"/>
<polygon fill="#555555" stroke="#555555" points="1287.42,-23.25 1297.42,-19.75 1287.42,-16.25 1287.42,-23.25"/>
<text xml:space="preserve" text-anchor="middle" x="1213.83" y="-22.95" font-family="Times New Roman,serif" font-size="14.00">Process / Update Logic</text>
</g>
<!-- STMtx -->
<g id="node6" class="node">
<title>STMtx</title>
<path fill="#fff1d6" stroke="black" d="M1773.55,-39.5C1773.55,-39.5 1624.75,-39.5 1624.75,-39.5 1618.75,-39.5 1612.75,-33.5 1612.75,-27.5 1612.75,-27.5 1612.75,-12 1612.75,-12 1612.75,-6 1618.75,0 1624.75,0 1624.75,0 1773.55,0 1773.55,0 1779.55,0 1785.55,-6 1785.55,-12 1785.55,-12 1785.55,-27.5 1785.55,-27.5 1785.55,-33.5 1779.55,-39.5 1773.55,-39.5"/>
<text xml:space="preserve" text-anchor="middle" x="1699.15" y="-26.95" font-family="Helvetica,sans-Serif" font-size="9.00">STM32:</text>
<text xml:space="preserve" text-anchor="middle" x="1699.15" y="-16.45" font-family="Helvetica,sans-Serif" font-size="9.00">UART TX</text>
<text xml:space="preserve" text-anchor="middle" x="1699.15" y="-5.95" font-family="Helvetica,sans-Serif" font-size="9.00">(Status Data)</text>
</g>
<!-- STMpr&#45;&gt;STMtx -->
<g id="edge5" class="edge">
<title>STMpr&#45;&gt;STMtx</title>
<path fill="none" stroke="#555555" d="M1472.11,-19.75C1472.11,-19.75 1600.87,-19.75 1600.87,-19.75"/>
<polygon fill="#555555" stroke="#555555" points="1600.87,-23.25 1610.87,-19.75 1600.87,-16.25 1600.87,-23.25"/>
<text xml:space="preserve" text-anchor="middle" x="1542.38" y="-22.95" font-family="Times New Roman,serif" font-size="14.00">Prepare Response</text>
</g>
<!-- M40r -->
<g id="node7" class="node">
<title>M40r</title>
<path fill="#e5f9e5" stroke="black" d="M2094.6,-37.75C2094.6,-37.75 1945.8,-37.75 1945.8,-37.75 1939.8,-37.75 1933.8,-31.75 1933.8,-25.75 1933.8,-25.75 1933.8,-13.75 1933.8,-13.75 1933.8,-7.75 1939.8,-1.75 1945.8,-1.75 1945.8,-1.75 2094.6,-1.75 2094.6,-1.75 2100.6,-1.75 2106.6,-7.75 2106.6,-13.75 2106.6,-13.75 2106.6,-25.75 2106.6,-25.75 2106.6,-31.75 2100.6,-37.75 2094.6,-37.75"/>
<text xml:space="preserve" text-anchor="middle" x="2020.2" y="-21.7" font-family="Helvetica,sans-Serif" font-size="9.00">M40:</text>
<text xml:space="preserve" text-anchor="middle" x="2020.2" y="-11.2" font-family="Helvetica,sans-Serif" font-size="9.00">UART RX ← STM32</text>
</g>
<!-- STMtx&#45;&gt;M40r -->
<g id="edge6" class="edge">
<title>STMtx&#45;&gt;M40r</title>
<path fill="none" stroke="#cc5500" stroke-dasharray="5,2" d="M1786.03,-19.75C1786.03,-19.75 1922.01,-19.75 1922.01,-19.75"/>
<polygon fill="#cc5500" stroke="#cc5500" points="1922.01,-23.25 1932.01,-19.75 1922.01,-16.25 1922.01,-23.25"/>
<text xml:space="preserve" text-anchor="middle" x="1859.68" y="-22.95" font-family="Times New Roman,serif" font-size="14.00" fill="#cc5500">UART3 RX ← TX</text>
</g>
<!-- M40p -->
<g id="node8" class="node">
<title>M40p</title>
<path fill="#e5f9e5" stroke="black" d="M2438.15,-37.75C2438.15,-37.75 2289.35,-37.75 2289.35,-37.75 2283.35,-37.75 2277.35,-31.75 2277.35,-25.75 2277.35,-25.75 2277.35,-13.75 2277.35,-13.75 2277.35,-7.75 2283.35,-1.75 2289.35,-1.75 2289.35,-1.75 2438.15,-1.75 2438.15,-1.75 2444.15,-1.75 2450.15,-7.75 2450.15,-13.75 2450.15,-13.75 2450.15,-25.75 2450.15,-25.75 2450.15,-31.75 2444.15,-37.75 2438.15,-37.75"/>
<text xml:space="preserve" text-anchor="middle" x="2363.75" y="-21.7" font-family="Helvetica,sans-Serif" font-size="9.00">M40:</text>
<text xml:space="preserve" text-anchor="middle" x="2363.75" y="-11.2" font-family="Helvetica,sans-Serif" font-size="9.00">Send PD&#45;Read (Input Data)</text>
</g>
<!-- M40r&#45;&gt;M40p -->
<g id="edge7" class="edge">
<title>M40r&#45;&gt;M40p</title>
<path fill="none" stroke="#003399" d="M2106.89,-19.75C2106.89,-19.75 2265.57,-19.75 2265.57,-19.75"/>
<polygon fill="#003399" stroke="#003399" points="2265.57,-23.25 2275.57,-19.75 2265.57,-16.25 2265.57,-23.25"/>
<text xml:space="preserve" text-anchor="middle" x="2191.98" y="-22.95" font-family="Times New Roman,serif" font-size="14.00" fill="#003399">Ready PD&#45;Read Buffer</text>
</g>
<!-- PLC2 -->
<g id="node9" class="node">
<title>PLC2</title>
<path fill="#cfe3ff" stroke="black" d="M2751.7,-37.75C2751.7,-37.75 2602.9,-37.75 2602.9,-37.75 2596.9,-37.75 2590.9,-31.75 2590.9,-25.75 2590.9,-25.75 2590.9,-13.75 2590.9,-13.75 2590.9,-7.75 2596.9,-1.75 2602.9,-1.75 2602.9,-1.75 2751.7,-1.75 2751.7,-1.75 2757.7,-1.75 2763.7,-7.75 2763.7,-13.75 2763.7,-13.75 2763.7,-25.75 2763.7,-25.75 2763.7,-31.75 2757.7,-37.75 2751.7,-37.75"/>
<text xml:space="preserve" text-anchor="middle" x="2677.3" y="-21.7" font-family="Helvetica,sans-Serif" font-size="9.00">PLC:</text>
<text xml:space="preserve" text-anchor="middle" x="2677.3" y="-11.2" font-family="Helvetica,sans-Serif" font-size="9.00">PD&#45;Read (Feedback Data)</text>
</g>
<!-- M40p&#45;&gt;PLC2 -->
<g id="edge8" class="edge">
<title>M40p&#45;&gt;PLC2</title>
<path fill="none" stroke="#003399" stroke-width="2" d="M2450.26,-19.75C2450.26,-19.75 2577.5,-19.75 2577.5,-19.75"/>
<polygon fill="#003399" stroke="#003399" stroke-width="2" points="2577.5,-23.25 2587.5,-19.75 2577.5,-16.25 2577.5,-23.25"/>
<text xml:space="preserve" text-anchor="middle" x="2520.53" y="-22.95" font-family="Times New Roman,serif" font-size="14.00" fill="#003399">Profinet PD&#45;Read</text>
</g>
</g>
</svg>
