<?xml version="1.0" encoding="UTF-8" standalone="no"?>
<!DOCTYPE svg PUBLIC "-//W3C//DTD SVG 1.1//EN"
 "http://www.w3.org/Graphics/SVG/1.1/DTD/svg11.dtd">
<!-- Generated by graphviz version 14.0.2 (20251019.1705)
 -->
<!-- Title: PD_Cycle Pages: 1 -->
<svg width="1682pt" height="64pt"
 viewBox="0.00 0.00 1682.00 64.00" xmlns="http://www.w3.org/2000/svg" xmlns:xlink="http://www.w3.org/1999/xlink">
<g id="graph0" class="graph" transform="scale(1 1) rotate(0) translate(4 60)">
<title>PD_Cycle</title>
<polygon fill="white" stroke="none" points="-4,4 -4,-60 1677.55,-60 1677.55,4 -4,4"/>
<text xml:space="preserve" text-anchor="middle" x="836.78" y="-42.5" font-family="Helvetica,sans-Serif" font-size="10.00">Profinet Data Exchange Cycle</text>
<!-- PLCw -->
<g id="node1" class="node">
<title>PLCw</title>
<path fill="#dbe8ff" stroke="black" d="M146.4,-36C146.4,-36 12,-36 12,-36 6,-36 0,-30 0,-24 0,-24 0,-12 0,-12 0,-6 6,0 12,0 12,0 146.4,0 146.4,0 152.4,0 158.4,-6 158.4,-12 158.4,-12 158.4,-24 158.4,-24 158.4,-30 152.4,-36 146.4,-36"/>
<text xml:space="preserve" text-anchor="middle" x="79.2" y="-19.95" font-family="Helvetica,sans-Serif" font-size="9.00">PLC:</text>
<text xml:space="preserve" text-anchor="middle" x="79.2" y="-9.45" font-family="Helvetica,sans-Serif" font-size="9.00">PD&#45;Write (Output Data)</text>
</g>
<!-- M40w -->
<g id="node2" class="node">
<title>M40w</title>
<path fill="#eaf9ea" stroke="black" d="M419.3,-36C419.3,-36 284.9,-36 284.9,-36 278.9,-36 272.9,-30 272.9,-24 272.9,-24 272.9,-12 272.9,-12 272.9,-6 278.9,0 284.9,0 284.9,0 419.3,0 419.3,0 425.3,0 431.3,-6 431.3,-12 431.3,-12 431.3,-24 431.3,-24 431.3,-30 425.3,-36 419.3,-36"/>
<text xml:space="preserve" text-anchor="middle" x="352.1" y="-19.95" font-family="Helvetica,sans-Serif" font-size="9.00">M40:</text>
<text xml:space="preserve" text-anchor="middle" x="352.1" y="-9.45" font-family="Helvetica,sans-Serif" font-size="9.00">Receive PD&#45;Write</text>
</g>
<!-- PLCw&#45;&gt;M40w -->
<g id="edge1" class="edge">
<title>PLCw&#45;&gt;M40w</title>
<path fill="none" stroke="#1f57c6" stroke-width="1.6" d="M158.56,-18C190.99,-18 228.76,-18 262.22,-18"/>
<polygon fill="#1f57c6" stroke="#1f57c6" stroke-width="1.6" points="262.03,-20.8 270.03,-18 262.03,-15.2 262.03,-20.8"/>
<text xml:space="preserve" text-anchor="middle" x="215.65" y="-19.95" font-family="Helvetica,sans-Serif" font-size="9.00" fill="#1f57c6">Profinet PD&#45;Write</text>
</g>
<!-- TX1 -->
<g id="node3" class="node">
<title>TX1</title>
<path fill="#fff1d9" stroke="black" d="M647.95,-36C647.95,-36 513.55,-36 513.55,-36 507.55,-36 501.55,-30 501.55,-24 501.55,-24 501.55,-12 501.55,-12 501.55,-6 507.55,0 513.55,0 513.55,0 647.95,0 647.95,0 653.95,0 659.95,-6 659.95,-12 659.95,-12 659.95,-24 659.95,-24 659.95,-30 653.95,-36 647.95,-36"/>
<text xml:space="preserve" text-anchor="middle" x="580.75" y="-19.95" font-family="Helvetica,sans-Serif" font-size="9.00">M40 → STM32</text>
<text xml:space="preserve" text-anchor="middle" x="580.75" y="-9.45" font-family="Helvetica,sans-Serif" font-size="9.00">UART3 TX → RX</text>
</g>
<!-- M40w&#45;&gt;TX1 -->
<g id="edge2" class="edge">
<title>M40w&#45;&gt;TX1</title>
<path fill="none" stroke="#cc6a00" d="M431.74,-18C451.16,-18 472.09,-18 491.92,-18"/>
<polygon fill="#cc6a00" stroke="#cc6a00" points="491.74,-20.8 499.74,-18 491.74,-15.2 491.74,-20.8"/>
<text xml:space="preserve" text-anchor="middle" x="466.43" y="-19.95" font-family="Helvetica,sans-Serif" font-size="9.00" fill="#cc6a00">trigger</text>
</g>
<!-- STMp -->
<g id="node4" class="node">
<title>STMp</title>
<path fill="#fff1d9" stroke="black" d="M892.35,-36C892.35,-36 757.95,-36 757.95,-36 751.95,-36 745.95,-30 745.95,-24 745.95,-24 745.95,-12 745.95,-12 745.95,-6 751.95,0 757.95,0 757.95,0 892.35,0 892.35,0 898.35,0 904.35,-6 904.35,-12 904.35,-12 904.35,-24 904.35,-24 904.35,-30 898.35,-36 892.35,-36"/>
<text xml:space="preserve" text-anchor="middle" x="825.15" y="-19.95" font-family="Helvetica,sans-Serif" font-size="9.00">STM32:</text>
<text xml:space="preserve" text-anchor="middle" x="825.15" y="-9.45" font-family="Helvetica,sans-Serif" font-size="9.00">Process / Update I/O</text>
</g>
<!-- TX1&#45;&gt;STMp -->
<g id="edge3" class="edge">
<title>TX1&#45;&gt;STMp</title>
<path fill="none" stroke="#666666" d="M660.12,-18C684.4,-18 711.32,-18 736.21,-18"/>
<polygon fill="#666666" stroke="#666666" points="736.13,-20.8 744.13,-18 736.13,-15.2 736.13,-20.8"/>
<text xml:space="preserve" text-anchor="middle" x="702.95" y="-19.95" font-family="Helvetica,sans-Serif" font-size="9.00">apply vars</text>
</g>
<!-- TX2 -->
<g id="node5" class="node">
<title>TX2</title>
<path fill="#fff1d9" stroke="black" d="M1141.25,-36C1141.25,-36 1006.85,-36 1006.85,-36 1000.85,-36 994.85,-30 994.85,-24 994.85,-24 994.85,-12 994.85,-12 994.85,-6 1000.85,0 1006.85,0 1006.85,0 1141.25,0 1141.25,0 1147.25,0 1153.25,-6 1153.25,-12 1153.25,-12 1153.25,-24 1153.25,-24 1153.25,-30 1147.25,-36 1141.25,-36"/>
<text xml:space="preserve" text-anchor="middle" x="1074.05" y="-19.95" font-family="Helvetica,sans-Serif" font-size="9.00">STM32 → M40</text>
<text xml:space="preserve" text-anchor="middle" x="1074.05" y="-9.45" font-family="Helvetica,sans-Serif" font-size="9.00">UART3 TX → RX</text>
</g>
<!-- STMp&#45;&gt;TX2 -->
<g id="edge4" class="edge">
<title>STMp&#45;&gt;TX2</title>
<path fill="none" stroke="#666666" d="M904.61,-18C930.25,-18 958.89,-18 985.18,-18"/>
<polygon fill="#666666" stroke="#666666" points="984.86,-20.8 992.86,-18 984.86,-15.2 984.86,-20.8"/>
<text xml:space="preserve" text-anchor="middle" x="949.6" y="-19.95" font-family="Helvetica,sans-Serif" font-size="9.00">build status</text>
</g>
<!-- M40r -->
<g id="node6" class="node">
<title>M40r</title>
<path fill="#eaf9ea" stroke="black" d="M1387.15,-36C1387.15,-36 1252.75,-36 1252.75,-36 1246.75,-36 1240.75,-30 1240.75,-24 1240.75,-24 1240.75,-12 1240.75,-12 1240.75,-6 1246.75,0 1252.75,0 1252.75,0 1387.15,0 1387.15,0 1393.15,0 1399.15,-6 1399.15,-12 1399.15,-12 1399.15,-24 1399.15,-24 1399.15,-30 1393.15,-36 1387.15,-36"/>
<text xml:space="preserve" text-anchor="middle" x="1319.95" y="-19.95" font-family="Helvetica,sans-Serif" font-size="9.00">M40:</text>
<text xml:space="preserve" text-anchor="middle" x="1319.95" y="-9.45" font-family="Helvetica,sans-Serif" font-size="9.00">Prepare PD&#45;Read</text>
</g>
<!-- TX2&#45;&gt;M40r -->
<g id="edge5" class="edge">
<title>TX2&#45;&gt;M40r</title>
<path fill="none" stroke="#cc6a00" stroke-dasharray="5,2" d="M1153.56,-18C1178.37,-18 1205.93,-18 1231.33,-18"/>
<polygon fill="#cc6a00" stroke="#cc6a00" points="1231.07,-20.8 1239.07,-18 1231.07,-15.2 1231.07,-20.8"/>
<text xml:space="preserve" text-anchor="middle" x="1197" y="-19.95" font-family="Helvetica,sans-Serif" font-size="9.00" fill="#cc6a00">return vars</text>
</g>
<!-- PLCr -->
<g id="node7" class="node">
<title>PLCr</title>
<path fill="#dbe8ff" stroke="black" d="M1661.55,-36C1661.55,-36 1527.15,-36 1527.15,-36 1521.15,-36 1515.15,-30 1515.15,-24 1515.15,-24 1515.15,-12 1515.15,-12 1515.15,-6 1521.15,0 1527.15,0 1527.15,0 1661.55,0 1661.55,0 1667.55,0 1673.55,-6 1673.55,-12 1673.55,-12 1673.55,-24 1673.55,-24 1673.55,-30 1667.55,-36 1661.55,-36"/>
<text xml:space="preserve" text-anchor="middle" x="1594.35" y="-19.95" font-family="Helvetica,sans-Serif" font-size="9.00">PLC:</text>
<text xml:space="preserve" text-anchor="middle" x="1594.35" y="-9.45" font-family="Helvetica,sans-Serif" font-size="9.00">PD&#45;Read (Feedback)</text>
</g>
<!-- M40r&#45;&gt;PLCr -->
<g id="edge6" class="edge">
<title>M40r&#45;&gt;PLCr</title>
<path fill="none" stroke="#1a8b2a" stroke-width="1.6" d="M1399.37,-18C1432.28,-18 1470.7,-18 1504.63,-18"/>
<polygon fill="#1a8b2a" stroke="#1a8b2a" stroke-width="1.6" points="1504.59,-20.8 1512.59,-18 1504.59,-15.2 1504.59,-20.8"/>
<text xml:space="preserve" text-anchor="middle" x="1457.15" y="-19.95" font-family="Helvetica,sans-Serif" font-size="9.00" fill="#1a8b2a">Profinet PD&#45;Read</text>
</g>
</g>
</svg>
