<?xml version="1.0" encoding="UTF-8" standalone="no"?>
<!DOCTYPE svg PUBLIC "-//W3C//DTD SVG 1.1//EN"
 "http://www.w3.org/Graphics/SVG/1.1/DTD/svg11.dtd">
<!-- Generated by graphviz version 14.0.2 (20251019.1705)
 -->
<!-- Title: pdcycle Pages: 1 -->
<svg width="776pt" height="69pt"
 viewBox="0.00 0.00 776.00 69.00" xmlns="http://www.w3.org/2000/svg" xmlns:xlink="http://www.w3.org/1999/xlink">
<g id="graph0" class="graph" transform="scale(1 1) rotate(0) translate(4 64.59)">
<title>pdcycle</title>
<polygon fill="white" stroke="none" points="-4,4 -4,-64.59 771.5,-64.59 771.5,4 -4,4"/>
<!-- PLC -->
<g id="node1" class="node">
<title>PLC</title>
<path fill="lightgrey" stroke="black" d="M42,-60.59C42,-60.59 12,-60.59 12,-60.59 6,-60.59 0,-54.59 0,-48.59 0,-48.59 0,-36.59 0,-36.59 0,-30.59 6,-24.59 12,-24.59 12,-24.59 42,-24.59 42,-24.59 48,-24.59 54,-30.59 54,-36.59 54,-36.59 54,-48.59 54,-48.59 54,-54.59 48,-60.59 42,-60.59"/>
<text xml:space="preserve" text-anchor="middle" x="27" y="-39.29" font-family="Helvetica,sans-Serif" font-size="9.00">PLC</text>
</g>
<!-- M40 -->
<g id="node2" class="node">
<title>M40</title>
<path fill="lightgrey" stroke="black" d="M466.75,-60.59C466.75,-60.59 423.75,-60.59 423.75,-60.59 417.75,-60.59 411.75,-54.59 411.75,-48.59 411.75,-48.59 411.75,-36.59 411.75,-36.59 411.75,-30.59 417.75,-24.59 423.75,-24.59 423.75,-24.59 466.75,-24.59 466.75,-24.59 472.75,-24.59 478.75,-30.59 478.75,-36.59 478.75,-36.59 478.75,-48.59 478.75,-48.59 478.75,-54.59 472.75,-60.59 466.75,-60.59"/>
<text xml:space="preserve" text-anchor="middle" x="445.25" y="-39.29" font-family="Helvetica,sans-Serif" font-size="9.00">M40 Module</text>
</g>
<!-- PLC&#45;&gt;M40 -->
<g id="edge1" class="edge">
<title>PLC&#45;&gt;M40</title>
<path fill="none" stroke="#3366cc" d="M54.35,-42.59C123.98,-42.59 313.4,-42.59 399.99,-42.59"/>
<polygon fill="#3366cc" stroke="#3366cc" points="399.74,-46.09 409.74,-42.59 399.74,-39.09 399.74,-46.09"/>
<text xml:space="preserve" text-anchor="middle" x="232.88" y="-45.79" font-family="Times New Roman,serif" font-size="14.00">PD&#45;Write: PORTB, PORTC, STATUS_PLC</text>
</g>
<!-- M40&#45;&gt;PLC -->
<g id="edge4" class="edge">
<title>M40&#45;&gt;PLC</title>
<path fill="none" stroke="#009900" d="M411.4,-27.16C405.63,-25.06 399.6,-23.24 393.75,-22.09 253.4,5.31 211.62,8.83 72,-22.09 69.69,-22.61 67.35,-23.25 65.02,-24"/>
<polygon fill="#009900" stroke="#009900" points="63.84,-20.7 55.75,-27.54 66.34,-27.24 63.84,-20.7"/>
<text xml:space="preserve" text-anchor="middle" x="232.88" y="-25.29" font-family="Times New Roman,serif" font-size="14.00">PD&#45;Read: PORTA, STATUS_DEBUG, STATUS_ACTIVE</text>
</g>
<!-- STM -->
<g id="node3" class="node">
<title>STM</title>
<path fill="lightgrey" stroke="black" d="M755.5,-60.59C755.5,-60.59 725.5,-60.59 725.5,-60.59 719.5,-60.59 713.5,-54.59 713.5,-48.59 713.5,-48.59 713.5,-36.59 713.5,-36.59 713.5,-30.59 719.5,-24.59 725.5,-24.59 725.5,-24.59 755.5,-24.59 755.5,-24.59 761.5,-24.59 767.5,-30.59 767.5,-36.59 767.5,-36.59 767.5,-48.59 767.5,-48.59 767.5,-54.59 761.5,-60.59 755.5,-60.59"/>
<text xml:space="preserve" text-anchor="middle" x="740.5" y="-39.29" font-family="Helvetica,sans-Serif" font-size="9.00">STM32</text>
</g>
<!-- M40&#45;&gt;STM -->
<g id="edge2" class="edge">
<title>M40&#45;&gt;STM</title>
<path fill="none" stroke="#cc6600" d="M479.04,-42.59C533.99,-42.59 644.33,-42.59 702.18,-42.59"/>
<polygon fill="#cc6600" stroke="#cc6600" points="701.84,-46.09 711.84,-42.59 701.84,-39.09 701.84,-46.09"/>
<text xml:space="preserve" text-anchor="middle" x="596.12" y="-45.79" font-family="Times New Roman,serif" font-size="14.00">UART3 TX: slave_set_reg() updates</text>
</g>
<!-- STM&#45;&gt;M40 -->
<g id="edge3" class="edge">
<title>STM&#45;&gt;M40</title>
<path fill="none" stroke="#cc6600" d="M713.16,-28.08C707.5,-25.6 701.42,-23.41 695.5,-22.09 609.26,-2.99 583.45,-5.17 496.75,-22.09 494.46,-22.54 492.15,-23.09 489.84,-23.72"/>
<polygon fill="#cc6600" stroke="#cc6600" points="489,-20.31 480.55,-26.69 491.14,-26.98 489,-20.31"/>
<text xml:space="preserve" text-anchor="middle" x="596.12" y="-25.29" font-family="Times New Roman,serif" font-size="14.00">UART3 RX: status values</text>
</g>
</g>
</svg>
