<?xml version="1.0" encoding="UTF-8" standalone="no"?>
<!DOCTYPE svg PUBLIC "-//W3C//DTD SVG 1.1//EN"
 "http://www.w3.org/Graphics/SVG/1.1/DTD/svg11.dtd">
<!-- Generated by graphviz version 14.0.2 (20251019.1705)
 -->
<!-- Title: M40_Comm Pages: 1 -->
<svg width="973pt" height="137pt"
 viewBox="0.00 0.00 973.00 137.00" xmlns="http://www.w3.org/2000/svg" xmlns:xlink="http://www.w3.org/1999/xlink">
<g id="graph0" class="graph" transform="scale(1 1) rotate(0) translate(4 133)">
<title>M40_Comm</title>
<polygon fill="white" stroke="none" points="-4,4 -4,-133 968.55,-133 968.55,4 -4,4"/>
<!-- PLC -->
<g id="node1" class="node">
<title>PLC</title>
<path fill="#dde7ff" stroke="black" d="M189.6,-66C189.6,-66 12,-66 12,-66 6,-66 0,-60 0,-54 0,-54 0,-42 0,-42 0,-36 6,-30 12,-30 12,-30 189.6,-30 189.6,-30 195.6,-30 201.6,-36 201.6,-42 201.6,-42 201.6,-54 201.6,-54 201.6,-60 195.6,-66 189.6,-66"/>
<text xml:space="preserve" text-anchor="middle" x="100.8" y="-49.95" font-family="Helvetica,sans-Serif" font-size="9.00">PLC</text>
<text xml:space="preserve" text-anchor="middle" x="100.8" y="-39.45" font-family="Helvetica,sans-Serif" font-size="9.00">(Profinet Controller)</text>
</g>
<!-- M40 -->
<g id="node2" class="node">
<title>M40</title>
<path fill="#e5f9e5" stroke="black" d="M524.95,-66C524.95,-66 347.35,-66 347.35,-66 341.35,-66 335.35,-60 335.35,-54 335.35,-54 335.35,-42 335.35,-42 335.35,-36 341.35,-30 347.35,-30 347.35,-30 524.95,-30 524.95,-30 530.95,-30 536.95,-36 536.95,-42 536.95,-42 536.95,-54 536.95,-54 536.95,-60 530.95,-66 524.95,-66"/>
<text xml:space="preserve" text-anchor="middle" x="436.15" y="-49.95" font-family="Helvetica,sans-Serif" font-size="9.00">Anybus M40</text>
<text xml:space="preserve" text-anchor="middle" x="436.15" y="-39.45" font-family="Helvetica,sans-Serif" font-size="9.00">(Profinet ↔ UART Bridge)</text>
</g>
<!-- PLC&#45;&gt;M40 -->
<g id="edge1" class="edge">
<title>PLC&#45;&gt;M40</title>
<path fill="none" stroke="#003399" stroke-width="2" d="M201.87,-54C201.87,-54 321.97,-54 321.97,-54"/>
<polygon fill="#003399" stroke="#003399" stroke-width="2" points="321.97,-57.5 331.97,-54 321.97,-50.5 321.97,-57.5"/>
<text xml:space="preserve" text-anchor="middle" x="268.47" y="-115.7" font-family="Times New Roman,serif" font-size="14.00" fill="#003399">PD&#45;Write</text>
<text xml:space="preserve" text-anchor="middle" x="268.47" y="-99.2" font-family="Times New Roman,serif" font-size="14.00" fill="#003399">(Output Data)</text>
</g>
<!-- M40&#45;&gt;PLC -->
<g id="edge4" class="edge">
<title>M40&#45;&gt;PLC</title>
<path fill="none" stroke="#009933" stroke-width="2" d="M335.08,-42C335.08,-42 214.98,-42 214.98,-42"/>
<polygon fill="#009933" stroke="#009933" stroke-width="2" points="214.98,-38.5 204.98,-42 214.98,-45.5 214.98,-38.5"/>
<text xml:space="preserve" text-anchor="middle" x="268.47" y="-19.7" font-family="Times New Roman,serif" font-size="14.00" fill="#009933">PD&#45;Read</text>
<text xml:space="preserve" text-anchor="middle" x="268.47" y="-3.2" font-family="Times New Roman,serif" font-size="14.00" fill="#009933">(Input Data)</text>
</g>
<!-- STM -->
<g id="node3" class="node">
<title>STM</title>
<path fill="#fff4d6" stroke="black" d="M952.55,-66C952.55,-66 774.95,-66 774.95,-66 768.95,-66 762.95,-60 762.95,-54 762.95,-54 762.95,-42 762.95,-42 762.95,-36 768.95,-30 774.95,-30 774.95,-30 952.55,-30 952.55,-30 958.55,-30 964.55,-36 964.55,-42 964.55,-42 964.55,-54 964.55,-54 964.55,-60 958.55,-66 952.55,-66"/>
<text xml:space="preserve" text-anchor="middle" x="863.75" y="-49.95" font-family="Helvetica,sans-Serif" font-size="9.00">STM32F4</text>
<text xml:space="preserve" text-anchor="middle" x="863.75" y="-39.45" font-family="Helvetica,sans-Serif" font-size="9.00">(Housekeeping MCU)</text>
</g>
<!-- M40&#45;&gt;STM -->
<g id="edge2" class="edge">
<title>M40&#45;&gt;STM</title>
<path fill="none" stroke="#cc5500" stroke-width="2" d="M537.21,-54C537.21,-54 749.62,-54 749.62,-54"/>
<polygon fill="#cc5500" stroke="#cc5500" stroke-width="2" points="749.62,-57.5 759.62,-54 749.62,-50.5 749.62,-57.5"/>
<text xml:space="preserve" text-anchor="middle" x="649.95" y="-91.2" font-family="Times New Roman,serif" font-size="14.00" fill="#cc5500">UART3 TX → slave_set_reg()</text>
</g>
<!-- STM&#45;&gt;M40 -->
<g id="edge3" class="edge">
<title>STM&#45;&gt;M40</title>
<path fill="none" stroke="#cc5500" stroke-dasharray="5,2" d="M762.69,-42C762.69,-42 548.77,-42 548.77,-42"/>
<polygon fill="#cc5500" stroke="#cc5500" points="548.77,-38.5 538.77,-42 548.77,-45.5 548.77,-38.5"/>
<text xml:space="preserve" text-anchor="middle" x="649.95" y="-11.2" font-family="Times New Roman,serif" font-size="14.00" fill="#cc5500">UART3 RX ← VAR updates</text>
</g>
</g>
</svg>
