<?xml version="1.0" encoding="UTF-8" standalone="no"?>
<!DOCTYPE svg PUBLIC "-//W3C//DTD SVG 1.1//EN"
 "http://www.w3.org/Graphics/SVG/1.1/DTD/svg11.dtd">
<!-- Generated by graphviz version 14.0.2 (20251019.1705)
 -->
<!-- Title: SystemFlow Pages: 1 -->
<svg width="754pt" height="267pt"
 viewBox="0.00 0.00 754.00 267.00" xmlns="http://www.w3.org/2000/svg" xmlns:xlink="http://www.w3.org/1999/xlink">
<g id="graph0" class="graph" transform="scale(1 1) rotate(0) translate(4 262.55)">
<title>SystemFlow</title>
<polygon fill="white" stroke="none" points="-4,4 -4,-262.55 749.5,-262.55 749.5,4 -4,4"/>
<!-- PLC -->
<g id="node1" class="node">
<title>PLC</title>
<path fill="#ddeeff" stroke="black" d="M103,-258.55C103,-258.55 26.25,-258.55 26.25,-258.55 20.25,-258.55 14.25,-252.55 14.25,-246.55 14.25,-246.55 14.25,-234.55 14.25,-234.55 14.25,-228.55 20.25,-222.55 26.25,-222.55 26.25,-222.55 103,-222.55 103,-222.55 109,-222.55 115,-228.55 115,-234.55 115,-234.55 115,-246.55 115,-246.55 115,-252.55 109,-258.55 103,-258.55"/>
<text xml:space="preserve" text-anchor="middle" x="64.62" y="-243.05" font-family="Helvetica,sans-Serif" font-size="10.00">PLC</text>
<text xml:space="preserve" text-anchor="middle" x="64.62" y="-231.05" font-family="Helvetica,sans-Serif" font-size="10.00">(Profinet Controller)</text>
</g>
<!-- M40 -->
<g id="node3" class="node">
<title>M40</title>
<path fill="#eef9ee" stroke="black" d="M117.25,-78.55C117.25,-78.55 12,-78.55 12,-78.55 6,-78.55 0,-72.55 0,-66.55 0,-66.55 0,-54.55 0,-54.55 0,-48.55 6,-42.55 12,-42.55 12,-42.55 117.25,-42.55 117.25,-42.55 123.25,-42.55 129.25,-48.55 129.25,-54.55 129.25,-54.55 129.25,-66.55 129.25,-66.55 129.25,-72.55 123.25,-78.55 117.25,-78.55"/>
<text xml:space="preserve" text-anchor="middle" x="64.62" y="-63.05" font-family="Helvetica,sans-Serif" font-size="10.00">Anybus M40</text>
<text xml:space="preserve" text-anchor="middle" x="64.62" y="-51.05" font-family="Helvetica,sans-Serif" font-size="10.00">(Profinet ↔ UART Bridge)</text>
</g>
<!-- PLC&#45;&gt;M40 -->
<g id="edge1" class="edge">
<title>PLC&#45;&gt;M40</title>
<path fill="none" stroke="#3366cc" stroke-width="1.3" d="M64.62,-222.26C64.62,-191.23 64.62,-128.01 64.62,-90.47"/>
<polygon fill="#3366cc" stroke="#3366cc" stroke-width="1.3" points="68.13,-90.77 64.63,-80.77 61.13,-90.77 68.13,-90.77"/>
<text xml:space="preserve" text-anchor="middle" x="45.12" y="-153.75" font-family="Times New Roman,serif" font-size="14.00" fill="#3366cc">Profinet PD Data</text>
<text xml:space="preserve" text-anchor="middle" x="45.12" y="-137.25" font-family="Times New Roman,serif" font-size="14.00" fill="#3366cc">(PORTB, PORTC, STATUS_PLC)</text>
</g>
<!-- STM -->
<g id="node2" class="node">
<title>STM</title>
<path fill="#fff6eb" stroke="black" d="M471.5,-78.55C471.5,-78.55 340.75,-78.55 340.75,-78.55 334.75,-78.55 328.75,-72.55 328.75,-66.55 328.75,-66.55 328.75,-54.55 328.75,-54.55 328.75,-48.55 334.75,-42.55 340.75,-42.55 340.75,-42.55 471.5,-42.55 471.5,-42.55 477.5,-42.55 483.5,-48.55 483.5,-54.55 483.5,-54.55 483.5,-66.55 483.5,-66.55 483.5,-72.55 477.5,-78.55 471.5,-78.55"/>
<text xml:space="preserve" text-anchor="middle" x="406.12" y="-63.05" font-family="Helvetica,sans-Serif" font-size="10.00">STM32F4</text>
<text xml:space="preserve" text-anchor="middle" x="406.12" y="-51.05" font-family="Helvetica,sans-Serif" font-size="10.00">(IPOS Housekeeping Firmware)</text>
</g>
<!-- STM&#45;&gt;M40 -->
<g id="edge3" class="edge">
<title>STM&#45;&gt;M40</title>
<path fill="none" stroke="#cc6600" stroke-width="1.2" stroke-dasharray="5,2" d="M374.4,-42.28C352.49,-30.34 321.86,-15.85 292.75,-9.55 237.36,2.43 220.34,3.73 165.25,-9.55 143.3,-14.85 120.75,-25.84 102.67,-36.27"/>
<polygon fill="#cc6600" stroke="#cc6600" stroke-width="1.2" points="100.93,-33.24 94.14,-41.37 104.52,-39.24 100.93,-33.24"/>
<text xml:space="preserve" text-anchor="middle" x="229" y="-29.25" font-family="Times New Roman,serif" font-size="14.00" fill="#cc6600">← UART3 RX</text>
<text xml:space="preserve" text-anchor="middle" x="229" y="-12.75" font-family="Times New Roman,serif" font-size="14.00" fill="#cc6600">(slave_set_reg updates)</text>
</g>
<!-- SPICE -->
<g id="node4" class="node">
<title>SPICE</title>
<path fill="#ffebeb" stroke="black" d="M733.5,-78.55C733.5,-78.55 656,-78.55 656,-78.55 650,-78.55 644,-72.55 644,-66.55 644,-66.55 644,-54.55 644,-54.55 644,-48.55 650,-42.55 656,-42.55 656,-42.55 733.5,-42.55 733.5,-42.55 739.5,-42.55 745.5,-48.55 745.5,-54.55 745.5,-54.55 745.5,-66.55 745.5,-66.55 745.5,-72.55 739.5,-78.55 733.5,-78.55"/>
<text xml:space="preserve" text-anchor="middle" x="694.75" y="-63.05" font-family="Helvetica,sans-Serif" font-size="10.00">Raylase SP&#45;ICE&#45;3</text>
<text xml:space="preserve" text-anchor="middle" x="694.75" y="-51.05" font-family="Helvetica,sans-Serif" font-size="10.00">Laser Controller I/O</text>
</g>
<!-- STM&#45;&gt;SPICE -->
<g id="edge4" class="edge">
<title>STM&#45;&gt;SPICE</title>
<path fill="none" stroke="#666666" d="M483.94,-60.55C530.51,-60.55 589.14,-60.55 632.57,-60.55"/>
<polygon fill="#666666" stroke="#666666" points="632.32,-64.05 642.32,-60.55 632.32,-57.05 632.32,-64.05"/>
<text xml:space="preserve" text-anchor="middle" x="563.75" y="-80.25" font-family="Times New Roman,serif" font-size="14.00">Parallel I/O Bus</text>
<text xml:space="preserve" text-anchor="middle" x="563.75" y="-63.75" font-family="Times New Roman,serif" font-size="14.00">(PORTA/B/C)</text>
</g>
<!-- M40&#45;&gt;STM -->
<g id="edge2" class="edge">
<title>M40&#45;&gt;STM</title>
<path fill="none" stroke="#cc6600" stroke-width="1.3" d="M129.48,-60.55C182.31,-60.55 257.93,-60.55 316.61,-60.55"/>
<polygon fill="#cc6600" stroke="#cc6600" stroke-width="1.3" points="316.51,-64.05 326.51,-60.55 316.51,-57.05 316.51,-64.05"/>
<text xml:space="preserve" text-anchor="middle" x="229" y="-63.75" font-family="Times New Roman,serif" font-size="14.00" fill="#cc6600">UART3 TX →</text>
</g>
<!-- SPICE&#45;&gt;STM -->
<g id="edge5" class="edge">
<title>SPICE&#45;&gt;STM</title>
<path fill="none" stroke="#999999" stroke-dasharray="5,2" d="M657.13,-42.23C642.27,-35.76 624.7,-29.29 608,-26.05 569.38,-18.58 558.4,-20.22 519.5,-26.05 502.03,-28.67 483.53,-33.47 466.7,-38.66"/>
<polygon fill="#999999" stroke="#999999" points="465.8,-35.27 457.34,-41.65 467.93,-41.94 465.8,-35.27"/>
<text xml:space="preserve" text-anchor="middle" x="563.75" y="-29.25" font-family="Times New Roman,serif" font-size="14.00" fill="#999999">Status Feedback</text>
</g>
</g>
</svg>
