<?xml version="1.0" encoding="UTF-8" standalone="no"?>
<!DOCTYPE svg PUBLIC "-//W3C//DTD SVG 1.1//EN"
 "http://www.w3.org/Graphics/SVG/1.1/DTD/svg11.dtd">
<!-- Generated by graphviz version 14.0.2 (20251019.1705)
 -->
<!-- Title: pdmap Pages: 1 -->
<svg width="226pt" height="463pt"
 viewBox="0.00 0.00 226.00 463.00" xmlns="http://www.w3.org/2000/svg" xmlns:xlink="http://www.w3.org/1999/xlink">
<g id="graph0" class="graph" transform="scale(1 1) rotate(0) translate(4 459)">
<title>pdmap</title>
<polygon fill="white" stroke="none" points="-4,4 -4,-459 221.75,-459 221.75,4 -4,4"/>
<g id="clust1" class="cluster">
<title>cluster_write</title>
<polygon fill="none" stroke="#003366" points="0,-8 0,-196 217.75,-196 217.75,-8 0,-8"/>
<text xml:space="preserve" text-anchor="middle" x="108.88" y="-178.7" font-family="Times New Roman,serif" font-size="14.00">PD&#45;Write (PLC → M40 → STM32)</text>
</g>
<g id="clust2" class="cluster">
<title>cluster_read</title>
<polygon fill="none" stroke="#336633" points="1.5,-204 1.5,-447 216.25,-447 216.25,-204 1.5,-204"/>
<text xml:space="preserve" text-anchor="middle" x="108.88" y="-429.7" font-family="Times New Roman,serif" font-size="14.00">PD&#45;Read (STM32 → M40 → PLC)</text>
</g>
<!-- PORTB -->
<g id="node1" class="node">
<title>PORTB</title>
<path fill="#f9f9ff" stroke="black" d="M93.38,-17C93.38,-17 123.38,-17 123.38,-17 129.38,-17 135.38,-23 135.38,-29 135.38,-29 135.38,-41 135.38,-41 135.38,-47 129.38,-53 123.38,-53 123.38,-53 93.38,-53 93.38,-53 87.38,-53 81.38,-47 81.38,-41 81.38,-41 81.38,-29 81.38,-29 81.38,-23 87.38,-17 93.38,-17"/>
<text xml:space="preserve" text-anchor="middle" x="108.38" y="-36.95" font-family="Helvetica,sans-Serif" font-size="9.00">PORTB</text>
<text xml:space="preserve" text-anchor="middle" x="108.38" y="-26.45" font-family="Helvetica,sans-Serif" font-size="9.00">0x02</text>
</g>
<!-- PORTC -->
<g id="node2" class="node">
<title>PORTC</title>
<path fill="#f9f9ff" stroke="black" d="M93.38,-72C93.38,-72 123.38,-72 123.38,-72 129.38,-72 135.38,-78 135.38,-84 135.38,-84 135.38,-96 135.38,-96 135.38,-102 129.38,-108 123.38,-108 123.38,-108 93.38,-108 93.38,-108 87.38,-108 81.38,-102 81.38,-96 81.38,-96 81.38,-84 81.38,-84 81.38,-78 87.38,-72 93.38,-72"/>
<text xml:space="preserve" text-anchor="middle" x="108.38" y="-91.95" font-family="Helvetica,sans-Serif" font-size="9.00">PORTC</text>
<text xml:space="preserve" text-anchor="middle" x="108.38" y="-81.45" font-family="Helvetica,sans-Serif" font-size="9.00">0x03</text>
</g>
<!-- STATUS_PLC -->
<g id="node3" class="node">
<title>STATUS_PLC</title>
<path fill="#f9f9ff" stroke="black" d="M83.88,-127C83.88,-127 132.88,-127 132.88,-127 138.88,-127 144.88,-133 144.88,-139 144.88,-139 144.88,-151 144.88,-151 144.88,-157 138.88,-163 132.88,-163 132.88,-163 83.88,-163 83.88,-163 77.88,-163 71.88,-157 71.88,-151 71.88,-151 71.88,-139 71.88,-139 71.88,-133 77.88,-127 83.88,-127"/>
<text xml:space="preserve" text-anchor="middle" x="108.38" y="-146.95" font-family="Helvetica,sans-Serif" font-size="9.00">STATUS_PLC</text>
<text xml:space="preserve" text-anchor="middle" x="108.38" y="-136.45" font-family="Helvetica,sans-Serif" font-size="9.00">0x05</text>
</g>
<!-- PORTA -->
<g id="node4" class="node">
<title>PORTA</title>
<path fill="#f9f9ff" stroke="black" d="M93.38,-213C93.38,-213 123.38,-213 123.38,-213 129.38,-213 135.38,-219 135.38,-225 135.38,-225 135.38,-237 135.38,-237 135.38,-243 129.38,-249 123.38,-249 123.38,-249 93.38,-249 93.38,-249 87.38,-249 81.38,-243 81.38,-237 81.38,-237 81.38,-225 81.38,-225 81.38,-219 87.38,-213 93.38,-213"/>
<text xml:space="preserve" text-anchor="middle" x="108.38" y="-232.95" font-family="Helvetica,sans-Serif" font-size="9.00">PORTA</text>
<text xml:space="preserve" text-anchor="middle" x="108.38" y="-222.45" font-family="Helvetica,sans-Serif" font-size="9.00">0x01</text>
</g>
<!-- STATUS_DEBUG -->
<g id="node5" class="node">
<title>STATUS_DEBUG</title>
<path fill="#f9f9ff" stroke="black" d="M76.75,-268C76.75,-268 140,-268 140,-268 146,-268 152,-274 152,-280 152,-280 152,-292 152,-292 152,-298 146,-304 140,-304 140,-304 76.75,-304 76.75,-304 70.75,-304 64.75,-298 64.75,-292 64.75,-292 64.75,-280 64.75,-280 64.75,-274 70.75,-268 76.75,-268"/>
<text xml:space="preserve" text-anchor="middle" x="108.38" y="-287.95" font-family="Helvetica,sans-Serif" font-size="9.00">STATUS_DEBUG</text>
<text xml:space="preserve" text-anchor="middle" x="108.38" y="-277.45" font-family="Helvetica,sans-Serif" font-size="9.00">0x04</text>
</g>
<!-- STATUS_ACTIVE -->
<g id="node6" class="node">
<title>STATUS_ACTIVE</title>
<path fill="#f9f9ff" stroke="black" d="M76.75,-323C76.75,-323 140,-323 140,-323 146,-323 152,-329 152,-335 152,-335 152,-347 152,-347 152,-353 146,-359 140,-359 140,-359 76.75,-359 76.75,-359 70.75,-359 64.75,-353 64.75,-347 64.75,-347 64.75,-335 64.75,-335 64.75,-329 70.75,-323 76.75,-323"/>
<text xml:space="preserve" text-anchor="middle" x="108.38" y="-342.95" font-family="Helvetica,sans-Serif" font-size="9.00">STATUS_ACTIVE</text>
<text xml:space="preserve" text-anchor="middle" x="108.38" y="-332.45" font-family="Helvetica,sans-Serif" font-size="9.00">0x06</text>
</g>
<!-- STATUS_DEBUG_TRU -->
<g id="node7" class="node">
<title>STATUS_DEBUG_TRU</title>
<path fill="#f9f9ff" stroke="black" d="M64.75,-378C64.75,-378 152,-378 152,-378 158,-378 164,-384 164,-390 164,-390 164,-402 164,-402 164,-408 158,-414 152,-414 152,-414 64.75,-414 64.75,-414 58.75,-414 52.75,-408 52.75,-402 52.75,-402 52.75,-390 52.75,-390 52.75,-384 58.75,-378 64.75,-378"/>
<text xml:space="preserve" text-anchor="middle" x="108.38" y="-397.95" font-family="Helvetica,sans-Serif" font-size="9.00">STATUS_DEBUG_TRU</text>
<text xml:space="preserve" text-anchor="middle" x="108.38" y="-387.45" font-family="Helvetica,sans-Serif" font-size="9.00">0x07</text>
</g>
</g>
</svg>
