<?xml version="1.0" encoding="UTF-8" standalone="no"?>
<!DOCTYPE svg PUBLIC "-//W3C//DTD SVG 1.1//EN"
 "http://www.w3.org/Graphics/SVG/1.1/DTD/svg11.dtd">
<!-- Generated by graphviz version 14.0.2 (20251019.1705)
 -->
<!-- Title: IPOS_System Pages: 1 -->
<svg width="1221pt" height="91pt"
 viewBox="0.00 0.00 1221.00 91.00" xmlns="http://www.w3.org/2000/svg" xmlns:xlink="http://www.w3.org/1999/xlink">
<g id="graph0" class="graph" transform="scale(1 1) rotate(0) translate(4 86.84)">
<title>IPOS_System</title>
<polygon fill="white" stroke="none" points="-4,4 -4,-86.84 1217.2,-86.84 1217.2,4 -4,4"/>
<text xml:space="preserve" text-anchor="middle" x="606.6" y="-69.34" font-family="Helvetica,sans-Serif" font-size="10.00">IPOS System Communication Architecture</text>
<!-- PLC -->
<g id="node1" class="node">
<title>PLC</title>
<path fill="#dbe8ff" stroke="black" d="M160.8,-59.84C160.8,-59.84 12,-59.84 12,-59.84 6,-59.84 0,-53.84 0,-47.84 0,-47.84 0,-35.84 0,-35.84 0,-29.84 6,-23.84 12,-23.84 12,-23.84 160.8,-23.84 160.8,-23.84 166.8,-23.84 172.8,-29.84 172.8,-35.84 172.8,-35.84 172.8,-47.84 172.8,-47.84 172.8,-53.84 166.8,-59.84 160.8,-59.84"/>
<text xml:space="preserve" text-anchor="middle" x="86.4" y="-44.34" font-family="Helvetica,sans-Serif" font-size="10.00">PLC</text>
<text xml:space="preserve" text-anchor="middle" x="86.4" y="-32.34" font-family="Helvetica,sans-Serif" font-size="10.00">(Profinet Controller)</text>
</g>
<!-- M40 -->
<g id="node2" class="node">
<title>M40</title>
<path fill="#eaf9ea" stroke="black" d="M593.6,-59.84C593.6,-59.84 444.8,-59.84 444.8,-59.84 438.8,-59.84 432.8,-53.84 432.8,-47.84 432.8,-47.84 432.8,-35.84 432.8,-35.84 432.8,-29.84 438.8,-23.84 444.8,-23.84 444.8,-23.84 593.6,-23.84 593.6,-23.84 599.6,-23.84 605.6,-29.84 605.6,-35.84 605.6,-35.84 605.6,-47.84 605.6,-47.84 605.6,-53.84 599.6,-59.84 593.6,-59.84"/>
<text xml:space="preserve" text-anchor="middle" x="519.2" y="-44.34" font-family="Helvetica,sans-Serif" font-size="10.00">Anybus M40</text>
<text xml:space="preserve" text-anchor="middle" x="519.2" y="-32.34" font-family="Helvetica,sans-Serif" font-size="10.00">(Profinet ↔ UART Bridge)</text>
</g>
<!-- PLC&#45;&gt;M40 -->
<g id="edge1" class="edge">
<title>PLC&#45;&gt;M40</title>
<path fill="none" stroke="#1f57c6" stroke-width="1.6" d="M173.29,-41.84C245.14,-41.84 347.58,-41.84 422.14,-41.84"/>
<polygon fill="#1f57c6" stroke="#1f57c6" stroke-width="1.6" points="422.05,-44.64 430.05,-41.84 422.05,-39.04 422.05,-44.64"/>
<text xml:space="preserve" text-anchor="middle" x="302.8" y="-54.29" font-family="Helvetica,sans-Serif" font-size="9.00" fill="#1f57c6">PD&#45;Write</text>
<text xml:space="preserve" text-anchor="middle" x="302.8" y="-43.79" font-family="Helvetica,sans-Serif" font-size="9.00" fill="#1f57c6">(PORTB, PORTC, STATUS_PLC)</text>
</g>
<!-- M40&#45;&gt;PLC -->
<g id="edge4" class="edge">
<title>M40&#45;&gt;PLC</title>
<path fill="none" stroke="#1a8b2a" stroke-width="1.6" d="M465.8,-23.38C447.67,-17.87 427.06,-12.58 407.8,-9.84 315.39,3.28 290.21,3.28 197.8,-9.84 182,-12.09 165.29,-16.05 149.79,-20.44"/>
<polygon fill="#1a8b2a" stroke="#1a8b2a" stroke-width="1.6" points="149.01,-17.75 142.13,-22.69 150.59,-23.13 149.01,-17.75"/>
<text xml:space="preserve" text-anchor="middle" x="302.8" y="-22.29" font-family="Helvetica,sans-Serif" font-size="9.00" fill="#1a8b2a">PD&#45;Read</text>
<text xml:space="preserve" text-anchor="middle" x="302.8" y="-11.79" font-family="Helvetica,sans-Serif" font-size="9.00" fill="#1a8b2a">(PORTA, STATUS_DEBUG, STATUS_ACTIVE, TRU)</text>
</g>
<!-- STM -->
<g id="node3" class="node">
<title>STM</title>
<path fill="#fff1d9" stroke="black" d="M915.4,-59.84C915.4,-59.84 766.6,-59.84 766.6,-59.84 760.6,-59.84 754.6,-53.84 754.6,-47.84 754.6,-47.84 754.6,-35.84 754.6,-35.84 754.6,-29.84 760.6,-23.84 766.6,-23.84 766.6,-23.84 915.4,-23.84 915.4,-23.84 921.4,-23.84 927.4,-29.84 927.4,-35.84 927.4,-35.84 927.4,-47.84 927.4,-47.84 927.4,-53.84 921.4,-59.84 915.4,-59.84"/>
<text xml:space="preserve" text-anchor="middle" x="841" y="-44.34" font-family="Helvetica,sans-Serif" font-size="10.00">STM32F4</text>
<text xml:space="preserve" text-anchor="middle" x="841" y="-32.34" font-family="Helvetica,sans-Serif" font-size="10.00">(IPOS Housekeeping)</text>
</g>
<!-- M40&#45;&gt;STM -->
<g id="edge2" class="edge">
<title>M40&#45;&gt;STM</title>
<path fill="none" stroke="#cc6a00" d="M605.9,-41.84C648.82,-41.84 700.91,-41.84 745.05,-41.84"/>
<polygon fill="#cc6a00" stroke="#cc6a00" points="744.83,-44.64 752.83,-41.84 744.83,-39.04 744.83,-44.64"/>
<text xml:space="preserve" text-anchor="middle" x="680.1" y="-54.29" font-family="Helvetica,sans-Serif" font-size="9.00" fill="#cc6a00">UART3 TX → RX</text>
<text xml:space="preserve" text-anchor="middle" x="680.1" y="-43.79" font-family="Helvetica,sans-Serif" font-size="9.00" fill="#cc6a00">(slave_set_reg updates)</text>
</g>
<!-- STM&#45;&gt;M40 -->
<g id="edge3" class="edge">
<title>STM&#45;&gt;M40</title>
<path fill="none" stroke="#cc6a00" stroke-dasharray="5,2" d="M787.6,-23.38C769.47,-17.87 748.86,-12.58 729.6,-9.84 686.04,-3.66 674.16,-3.66 630.6,-9.84 614.5,-12.13 597.46,-16.2 581.71,-20.69"/>
<polygon fill="#cc6a00" stroke="#cc6a00" points="580.94,-18 574.06,-22.95 582.52,-23.37 580.94,-18"/>
<text xml:space="preserve" text-anchor="middle" x="680.1" y="-22.29" font-family="Helvetica,sans-Serif" font-size="9.00" fill="#cc6a00">UART3 RX ← TX</text>
<text xml:space="preserve" text-anchor="middle" x="680.1" y="-11.79" font-family="Helvetica,sans-Serif" font-size="9.00" fill="#cc6a00">(status / debug / active)</text>
</g>
<!-- IOHW -->
<g id="node4" class="node">
<title>IOHW</title>
<path fill="#ffe7e7" stroke="black" d="M1201.2,-59.84C1201.2,-59.84 1052.4,-59.84 1052.4,-59.84 1046.4,-59.84 1040.4,-53.84 1040.4,-47.84 1040.4,-47.84 1040.4,-35.84 1040.4,-35.84 1040.4,-29.84 1046.4,-23.84 1052.4,-23.84 1052.4,-23.84 1201.2,-23.84 1201.2,-23.84 1207.2,-23.84 1213.2,-29.84 1213.2,-35.84 1213.2,-35.84 1213.2,-47.84 1213.2,-47.84 1213.2,-53.84 1207.2,-59.84 1201.2,-59.84"/>
<text xml:space="preserve" text-anchor="middle" x="1126.8" y="-44.34" font-family="Helvetica,sans-Serif" font-size="10.00">Raylase SP&#45;ICE&#45;3</text>
<text xml:space="preserve" text-anchor="middle" x="1126.8" y="-32.34" font-family="Helvetica,sans-Serif" font-size="10.00">(Laser I/O)</text>
</g>
<!-- STM&#45;&gt;IOHW -->
<g id="edge5" class="edge">
<title>STM&#45;&gt;IOHW</title>
<path fill="none" stroke="#666666" d="M927.53,-41.84C960.06,-41.84 997.29,-41.84 1030.65,-41.84"/>
<polygon fill="#666666" stroke="#666666" points="1030.44,-44.64 1038.44,-41.84 1030.44,-39.04 1030.44,-44.64"/>
<text xml:space="preserve" text-anchor="middle" x="983.9" y="-54.29" font-family="Helvetica,sans-Serif" font-size="9.00" fill="#666666">Parallel I/O Bus</text>
<text xml:space="preserve" text-anchor="middle" x="983.9" y="-43.79" font-family="Helvetica,sans-Serif" font-size="9.00" fill="#666666">(PORTA / B / C)</text>
</g>
</g>
</svg>
