<?xml version="1.0" encoding="UTF-8" standalone="no"?>
<!DOCTYPE svg PUBLIC "-//W3C//DTD SVG 1.1//EN"
 "http://www.w3.org/Graphics/SVG/1.1/DTD/svg11.dtd">
<!-- Generated by graphviz version 14.0.2 (20251019.1705)
 -->
<!-- Title: M40_Tasks Pages: 1 -->
<svg width="210pt" height="260pt"
 viewBox="0.00 0.00 210.00 260.00" xmlns="http://www.w3.org/2000/svg" xmlns:xlink="http://www.w3.org/1999/xlink">
<g id="graph0" class="graph" transform="scale(1 1) rotate(0) translate(4 256)">
<title>M40_Tasks</title>
<polygon fill="white" stroke="none" points="-4,4 -4,-256 205.6,-256 205.6,4 -4,4"/>
<!-- Init -->
<g id="node1" class="node">
<title>Init</title>
<path fill="#e5f9e5" stroke="black" d="M189.6,-252C189.6,-252 12,-252 12,-252 6,-252 0,-246 0,-240 0,-240 0,-228 0,-228 0,-222 6,-216 12,-216 12,-216 189.6,-216 189.6,-216 195.6,-216 201.6,-222 201.6,-228 201.6,-228 201.6,-240 201.6,-240 201.6,-246 195.6,-252 189.6,-252"/>
<text xml:space="preserve" text-anchor="middle" x="100.8" y="-235.95" font-family="Helvetica,sans-Serif" font-size="9.00">ABCC_Init()</text>
<text xml:space="preserve" text-anchor="middle" x="100.8" y="-225.45" font-family="Helvetica,sans-Serif" font-size="9.00">Driver Initialization</text>
</g>
<!-- Cyclic -->
<g id="node2" class="node">
<title>Cyclic</title>
<path fill="#e5f9e5" stroke="black" d="M189.6,-180C189.6,-180 12,-180 12,-180 6,-180 0,-174 0,-168 0,-168 0,-156 0,-156 0,-150 6,-144 12,-144 12,-144 189.6,-144 189.6,-144 195.6,-144 201.6,-150 201.6,-156 201.6,-156 201.6,-168 201.6,-168 201.6,-174 195.6,-180 189.6,-180"/>
<text xml:space="preserve" text-anchor="middle" x="100.8" y="-163.95" font-family="Helvetica,sans-Serif" font-size="9.00">ABCC_Run()</text>
<text xml:space="preserve" text-anchor="middle" x="100.8" y="-153.45" font-family="Helvetica,sans-Serif" font-size="9.00">Cyclic Communication Handler</text>
</g>
<!-- Init&#45;&gt;Cyclic -->
<g id="edge1" class="edge">
<title>Init&#45;&gt;Cyclic</title>
<path fill="none" stroke="black" d="M100.8,-215.7C100.8,-208.41 100.8,-199.73 100.8,-191.54"/>
<polygon fill="black" stroke="black" points="104.3,-191.62 100.8,-181.62 97.3,-191.62 104.3,-191.62"/>
</g>
<!-- Callback -->
<g id="node3" class="node">
<title>Callback</title>
<path fill="#e5f9e5" stroke="black" d="M189.6,-108C189.6,-108 12,-108 12,-108 6,-108 0,-102 0,-96 0,-96 0,-84 0,-84 0,-78 6,-72 12,-72 12,-72 189.6,-72 189.6,-72 195.6,-72 201.6,-78 201.6,-84 201.6,-84 201.6,-96 201.6,-96 201.6,-102 195.6,-108 189.6,-108"/>
<text xml:space="preserve" text-anchor="middle" x="100.8" y="-91.95" font-family="Helvetica,sans-Serif" font-size="9.00">implementation_callback_functions.c</text>
<text xml:space="preserve" text-anchor="middle" x="100.8" y="-81.45" font-family="Helvetica,sans-Serif" font-size="9.00">(Profinet &amp; ADI handlers)</text>
</g>
<!-- Cyclic&#45;&gt;Callback -->
<g id="edge2" class="edge">
<title>Cyclic&#45;&gt;Callback</title>
<path fill="none" stroke="black" d="M100.8,-143.7C100.8,-136.41 100.8,-127.73 100.8,-119.54"/>
<polygon fill="black" stroke="black" points="104.3,-119.62 100.8,-109.62 97.3,-119.62 104.3,-119.62"/>
</g>
<!-- UART -->
<g id="node4" class="node">
<title>UART</title>
<path fill="#fff1d6" stroke="black" d="M189.6,-36C189.6,-36 12,-36 12,-36 6,-36 0,-30 0,-24 0,-24 0,-12 0,-12 0,-6 6,0 12,0 12,0 189.6,0 189.6,0 195.6,0 201.6,-6 201.6,-12 201.6,-12 201.6,-24 201.6,-24 201.6,-30 195.6,-36 189.6,-36"/>
<text xml:space="preserve" text-anchor="middle" x="100.8" y="-19.95" font-family="Helvetica,sans-Serif" font-size="9.00">UART Link</text>
<text xml:space="preserve" text-anchor="middle" x="100.8" y="-9.45" font-family="Helvetica,sans-Serif" font-size="9.00">(slave_set_reg / var updates)</text>
</g>
<!-- Callback&#45;&gt;UART -->
<g id="edge3" class="edge">
<title>Callback&#45;&gt;UART</title>
<path fill="none" stroke="black" d="M100.8,-71.7C100.8,-64.41 100.8,-55.73 100.8,-47.54"/>
<polygon fill="black" stroke="black" points="104.3,-47.62 100.8,-37.62 97.3,-47.62 104.3,-47.62"/>
</g>
</g>
</svg>
