<?xml version="1.0" encoding="UTF-8" standalone="no"?>
<!DOCTYPE svg PUBLIC "-//W3C//DTD SVG 1.1//EN"
 "http://www.w3.org/Graphics/SVG/1.1/DTD/svg11.dtd">
<!-- Generated by graphviz version 14.0.2 (20251019.1705)
 -->
<!-- Title: PDCycleSync Pages: 1 -->
<svg width="2870pt" height="44pt"
 viewBox="0.00 0.00 2870.00 44.00" xmlns="http://www.w3.org/2000/svg" xmlns:xlink="http://www.w3.org/1999/xlink">
<g id="graph0" class="graph" transform="scale(1 1) rotate(0) translate(4 40)">
<title>PDCycleSync</title>
<polygon fill="white" stroke="none" points="-4,4 -4,-40 2865.65,-40 2865.65,4 -4,4"/>
<!-- CLK -->
<g id="node1" class="node">
<title>CLK</title>
<path fill="#dde7ff" stroke="black" d="M189.6,-36C189.6,-36 12,-36 12,-36 6,-36 0,-30 0,-24 0,-24 0,-12 0,-12 0,-6 6,0 12,0 12,0 189.6,0 189.6,0 195.6,0 201.6,-6 201.6,-12 201.6,-12 201.6,-24 201.6,-24 201.6,-30 195.6,-36 189.6,-36"/>
<text xml:space="preserve" text-anchor="middle" x="100.8" y="-19.95" font-family="Helvetica,sans-Serif" font-size="9.00">Profinet PD Cycle Clock</text>
<text xml:space="preserve" text-anchor="middle" x="100.8" y="-9.45" font-family="Helvetica,sans-Serif" font-size="9.00">(PLC → M40 Sync)</text>
</g>
<!-- M40w -->
<g id="node2" class="node">
<title>M40w</title>
<path fill="#dbf9db" stroke="black" d="M495.95,-36C495.95,-36 318.35,-36 318.35,-36 312.35,-36 306.35,-30 306.35,-24 306.35,-24 306.35,-12 306.35,-12 306.35,-6 312.35,0 318.35,0 318.35,0 495.95,0 495.95,0 501.95,0 507.95,-6 507.95,-12 507.95,-12 507.95,-24 507.95,-24 507.95,-30 501.95,-36 495.95,-36"/>
<text xml:space="preserve" text-anchor="middle" x="407.15" y="-19.95" font-family="Helvetica,sans-Serif" font-size="9.00">M40:</text>
<text xml:space="preserve" text-anchor="middle" x="407.15" y="-9.45" font-family="Helvetica,sans-Serif" font-size="9.00">Receive PD&#45;Write</text>
</g>
<!-- CLK&#45;&gt;M40w -->
<g id="edge1" class="edge">
<title>CLK&#45;&gt;M40w</title>
<path fill="none" stroke="#003399" stroke-width="2" d="M201.96,-18C201.96,-18 293.07,-18 293.07,-18"/>
<polygon fill="#003399" stroke="#003399" stroke-width="2" points="293.07,-21.5 303.07,-18 293.07,-14.5 293.07,-21.5"/>
<text xml:space="preserve" text-anchor="middle" x="253.98" y="-21.2" font-family="Times New Roman,serif" font-size="14.00" fill="#003399">Cycle Start</text>
</g>
<!-- M40tx -->
<g id="node3" class="node">
<title>M40tx</title>
<path fill="#dbf9db" stroke="black" d="M848.05,-36C848.05,-36 670.45,-36 670.45,-36 664.45,-36 658.45,-30 658.45,-24 658.45,-24 658.45,-12 658.45,-12 658.45,-6 664.45,0 670.45,0 670.45,0 848.05,0 848.05,0 854.05,0 860.05,-6 860.05,-12 860.05,-12 860.05,-24 860.05,-24 860.05,-30 854.05,-36 848.05,-36"/>
<text xml:space="preserve" text-anchor="middle" x="759.25" y="-14.7" font-family="Helvetica,sans-Serif" font-size="9.00">UART3 TX → STM32</text>
</g>
<!-- M40w&#45;&gt;M40tx -->
<g id="edge2" class="edge">
<title>M40w&#45;&gt;M40tx</title>
<path fill="none" stroke="#003399" d="M508.05,-18C508.05,-18 646.52,-18 646.52,-18"/>
<polygon fill="#003399" stroke="#003399" points="646.52,-21.5 656.52,-18 646.52,-14.5 646.52,-21.5"/>
<text xml:space="preserve" text-anchor="middle" x="583.2" y="-21.2" font-family="Times New Roman,serif" font-size="14.00">PD&#45;Write Received</text>
</g>
<!-- STMrx -->
<g id="node4" class="node">
<title>STMrx</title>
<path fill="#fff4d6" stroke="black" d="M1191.15,-36C1191.15,-36 1013.55,-36 1013.55,-36 1007.55,-36 1001.55,-30 1001.55,-24 1001.55,-24 1001.55,-12 1001.55,-12 1001.55,-6 1007.55,0 1013.55,0 1013.55,0 1191.15,0 1191.15,0 1197.15,0 1203.15,-6 1203.15,-12 1203.15,-12 1203.15,-24 1203.15,-24 1203.15,-30 1197.15,-36 1191.15,-36"/>
<text xml:space="preserve" text-anchor="middle" x="1102.35" y="-19.95" font-family="Helvetica,sans-Serif" font-size="9.00">STM32:</text>
<text xml:space="preserve" text-anchor="middle" x="1102.35" y="-9.45" font-family="Helvetica,sans-Serif" font-size="9.00">UART RX</text>
</g>
<!-- M40tx&#45;&gt;STMrx -->
<g id="edge3" class="edge">
<title>M40tx&#45;&gt;STMrx</title>
<path fill="none" stroke="#cc5500" d="M860.34,-18C860.34,-18 989.58,-18 989.58,-18"/>
<polygon fill="#cc5500" stroke="#cc5500" points="989.58,-21.5 999.58,-18 989.58,-14.5 989.58,-21.5"/>
<text xml:space="preserve" text-anchor="middle" x="930.8" y="-21.2" font-family="Times New Roman,serif" font-size="14.00" fill="#cc5500">UART TX → RX</text>
</g>
<!-- STMproc -->
<g id="node5" class="node">
<title>STMproc</title>
<path fill="#fff4d6" stroke="black" d="M1528.25,-36C1528.25,-36 1350.65,-36 1350.65,-36 1344.65,-36 1338.65,-30 1338.65,-24 1338.65,-24 1338.65,-12 1338.65,-12 1338.65,-6 1344.65,0 1350.65,0 1350.65,0 1528.25,0 1528.25,0 1534.25,0 1540.25,-6 1540.25,-12 1540.25,-12 1540.25,-24 1540.25,-24 1540.25,-30 1534.25,-36 1528.25,-36"/>
<text xml:space="preserve" text-anchor="middle" x="1439.45" y="-19.95" font-family="Helvetica,sans-Serif" font-size="9.00">STM32:</text>
<text xml:space="preserve" text-anchor="middle" x="1439.45" y="-9.45" font-family="Helvetica,sans-Serif" font-size="9.00">Process + Update I/O</text>
</g>
<!-- STMrx&#45;&gt;STMproc -->
<g id="edge4" class="edge">
<title>STMrx&#45;&gt;STMproc</title>
<path fill="none" stroke="#555555" d="M1203.49,-18C1203.49,-18 1326.87,-18 1326.87,-18"/>
<polygon fill="#555555" stroke="#555555" points="1326.87,-21.5 1336.87,-18 1326.87,-14.5 1326.87,-21.5"/>
<text xml:space="preserve" text-anchor="middle" x="1270.9" y="-21.2" font-family="Times New Roman,serif" font-size="14.00">Process / Update</text>
</g>
<!-- STMtx -->
<g id="node6" class="node">
<title>STMtx</title>
<path fill="#fff4d6" stroke="black" d="M1870.6,-36C1870.6,-36 1693,-36 1693,-36 1687,-36 1681,-30 1681,-24 1681,-24 1681,-12 1681,-12 1681,-6 1687,0 1693,0 1693,0 1870.6,0 1870.6,0 1876.6,0 1882.6,-6 1882.6,-12 1882.6,-12 1882.6,-24 1882.6,-24 1882.6,-30 1876.6,-36 1870.6,-36"/>
<text xml:space="preserve" text-anchor="middle" x="1781.8" y="-19.95" font-family="Helvetica,sans-Serif" font-size="9.00">STM32:</text>
<text xml:space="preserve" text-anchor="middle" x="1781.8" y="-9.45" font-family="Helvetica,sans-Serif" font-size="9.00">UART TX</text>
</g>
<!-- STMproc&#45;&gt;STMtx -->
<g id="edge5" class="edge">
<title>STMproc&#45;&gt;STMtx</title>
<path fill="none" stroke="#555555" d="M1540.31,-18C1540.31,-18 1669.26,-18 1669.26,-18"/>
<polygon fill="#555555" stroke="#555555" points="1669.26,-21.5 1679.26,-18 1669.26,-14.5 1669.26,-21.5"/>
<text xml:space="preserve" text-anchor="middle" x="1610.63" y="-21.2" font-family="Times New Roman,serif" font-size="14.00">Prepare Response</text>
</g>
<!-- M40rx -->
<g id="node7" class="node">
<title>M40rx</title>
<path fill="#dbf9db" stroke="black" d="M2213.7,-36C2213.7,-36 2036.1,-36 2036.1,-36 2030.1,-36 2024.1,-30 2024.1,-24 2024.1,-24 2024.1,-12 2024.1,-12 2024.1,-6 2030.1,0 2036.1,0 2036.1,0 2213.7,0 2213.7,0 2219.7,0 2225.7,-6 2225.7,-12 2225.7,-12 2225.7,-24 2225.7,-24 2225.7,-30 2219.7,-36 2213.7,-36"/>
<text xml:space="preserve" text-anchor="middle" x="2124.9" y="-19.95" font-family="Helvetica,sans-Serif" font-size="9.00">M40:</text>
<text xml:space="preserve" text-anchor="middle" x="2124.9" y="-9.45" font-family="Helvetica,sans-Serif" font-size="9.00">UART RX ← STM32</text>
</g>
<!-- STMtx&#45;&gt;M40rx -->
<g id="edge6" class="edge">
<title>STMtx&#45;&gt;M40rx</title>
<path fill="none" stroke="#cc5500" stroke-dasharray="5,2" d="M1882.89,-18C1882.89,-18 2012.13,-18 2012.13,-18"/>
<polygon fill="#cc5500" stroke="#cc5500" points="2012.13,-21.5 2022.13,-18 2012.13,-14.5 2012.13,-21.5"/>
<text xml:space="preserve" text-anchor="middle" x="1953.35" y="-21.2" font-family="Times New Roman,serif" font-size="14.00">UART RX ← TX</text>
</g>
<!-- M40p -->
<g id="node8" class="node">
<title>M40p</title>
<path fill="#dbf9db" stroke="black" d="M2547.05,-36C2547.05,-36 2369.45,-36 2369.45,-36 2363.45,-36 2357.45,-30 2357.45,-24 2357.45,-24 2357.45,-12 2357.45,-12 2357.45,-6 2363.45,0 2369.45,0 2369.45,0 2547.05,0 2547.05,0 2553.05,0 2559.05,-6 2559.05,-12 2559.05,-12 2559.05,-24 2559.05,-24 2559.05,-30 2553.05,-36 2547.05,-36"/>
<text xml:space="preserve" text-anchor="middle" x="2458.25" y="-19.95" font-family="Helvetica,sans-Serif" font-size="9.00">M40:</text>
<text xml:space="preserve" text-anchor="middle" x="2458.25" y="-9.45" font-family="Helvetica,sans-Serif" font-size="9.00">Send PD&#45;Read</text>
</g>
<!-- M40rx&#45;&gt;M40p -->
<g id="edge7" class="edge">
<title>M40rx&#45;&gt;M40p</title>
<path fill="none" stroke="#003399" d="M2225.82,-18C2225.82,-18 2345.58,-18 2345.58,-18"/>
<polygon fill="#003399" stroke="#003399" points="2345.58,-21.5 2355.58,-18 2345.58,-14.5 2345.58,-21.5"/>
<text xml:space="preserve" text-anchor="middle" x="2291.58" y="-21.2" font-family="Times New Roman,serif" font-size="14.00">Ready PD&#45;Read</text>
</g>
<!-- NEXT -->
<g id="node9" class="node">
<title>NEXT</title>
<path fill="lightgrey" stroke="none" d="M2849.65,-36C2849.65,-36 2672.05,-36 2672.05,-36 2666.05,-36 2660.05,-30 2660.05,-24 2660.05,-24 2660.05,-12 2660.05,-12 2660.05,-6 2666.05,0 2672.05,0 2672.05,0 2849.65,0 2849.65,0 2855.65,0 2861.65,-6 2861.65,-12 2861.65,-12 2861.65,-24 2861.65,-24 2861.65,-30 2855.65,-36 2849.65,-36"/>
<text xml:space="preserve" text-anchor="middle" x="2760.85" y="-14.5" font-family="Helvetica,sans-Serif" font-size="10.00">Next PD Cycle →</text>
</g>
<!-- M40p&#45;&gt;NEXT -->
<g id="edge8" class="edge">
<title>M40p&#45;&gt;NEXT</title>
<path fill="none" stroke="#444444" d="M2559.43,-18C2559.43,-18 2648.76,-18 2648.76,-18"/>
<polygon fill="#444444" stroke="#444444" points="2648.76,-21.5 2658.76,-18 2648.76,-14.5 2648.76,-21.5"/>
<text xml:space="preserve" text-anchor="middle" x="2609.55" y="-21.2" font-family="Times New Roman,serif" font-size="14.00">Cycle End</text>
</g>
</g>
</svg>
