<?xml version="1.0" encoding="UTF-8" standalone="no"?>
<!DOCTYPE svg PUBLIC "-//W3C//DTD SVG 1.1//EN"
 "http://www.w3.org/Graphics/SVG/1.1/DTD/svg11.dtd">
<!-- Generated by graphviz version 14.0.2 (20251019.1705)
 -->
<!-- Title: STM32_Overview Pages: 1 -->
<svg width="870pt" height="116pt"
 viewBox="0.00 0.00 870.00 116.00" xmlns="http://www.w3.org/2000/svg" xmlns:xlink="http://www.w3.org/1999/xlink">
<g id="graph0" class="graph" transform="scale(1 1) rotate(0) translate(4 112)">
<title>STM32_Overview</title>
<polygon fill="white" stroke="none" points="-4,4 -4,-112 865.6,-112 865.6,4 -4,4"/>
<!-- TaskMain -->
<g id="node1" class="node">
<title>TaskMain</title>
<path fill="#fff4d6" stroke="black" d="M519.6,-108C519.6,-108 342,-108 342,-108 336,-108 330,-102 330,-96 330,-96 330,-84 330,-84 330,-78 336,-72 342,-72 342,-72 519.6,-72 519.6,-72 525.6,-72 531.6,-78 531.6,-84 531.6,-84 531.6,-96 531.6,-96 531.6,-102 525.6,-108 519.6,-108"/>
<text xml:space="preserve" text-anchor="middle" x="430.8" y="-91.95" font-family="Helvetica,sans-Serif" font-size="9.00">App_Main Task</text>
<text xml:space="preserve" text-anchor="middle" x="430.8" y="-81.45" font-family="Helvetica,sans-Serif" font-size="9.00">(System Startup + Scheduler)</text>
</g>
<!-- TaskInput -->
<g id="node2" class="node">
<title>TaskInput</title>
<path fill="#fff4d6" stroke="black" d="M189.6,-36C189.6,-36 12,-36 12,-36 6,-36 0,-30 0,-24 0,-24 0,-12 0,-12 0,-6 6,0 12,0 12,0 189.6,0 189.6,0 195.6,0 201.6,-6 201.6,-12 201.6,-12 201.6,-24 201.6,-24 201.6,-30 195.6,-36 189.6,-36"/>
<text xml:space="preserve" text-anchor="middle" x="100.8" y="-19.95" font-family="Helvetica,sans-Serif" font-size="9.00">Input Handler</text>
<text xml:space="preserve" text-anchor="middle" x="100.8" y="-9.45" font-family="Helvetica,sans-Serif" font-size="9.00">(Debounce + Events)</text>
</g>
<!-- TaskMain&#45;&gt;TaskInput -->
<g id="edge1" class="edge">
<title>TaskMain&#45;&gt;TaskInput</title>
<path fill="none" stroke="black" d="M348.38,-71.52C301.53,-61.58 242.72,-49.1 194.18,-38.81"/>
<polygon fill="black" stroke="black" points="195.02,-35.41 184.51,-36.76 193.57,-42.26 195.02,-35.41"/>
</g>
<!-- TaskUART -->
<g id="node3" class="node">
<title>TaskUART</title>
<path fill="#fff4d6" stroke="black" d="M409.6,-36C409.6,-36 232,-36 232,-36 226,-36 220,-30 220,-24 220,-24 220,-12 220,-12 220,-6 226,0 232,0 232,0 409.6,0 409.6,0 415.6,0 421.6,-6 421.6,-12 421.6,-12 421.6,-24 421.6,-24 421.6,-30 415.6,-36 409.6,-36"/>
<text xml:space="preserve" text-anchor="middle" x="320.8" y="-19.95" font-family="Helvetica,sans-Serif" font-size="9.00">UART Master Task</text>
<text xml:space="preserve" text-anchor="middle" x="320.8" y="-9.45" font-family="Helvetica,sans-Serif" font-size="9.00">(M40 Link)</text>
</g>
<!-- TaskMain&#45;&gt;TaskUART -->
<g id="edge2" class="edge">
<title>TaskMain&#45;&gt;TaskUART</title>
<path fill="none" stroke="black" d="M403.33,-71.52C389.44,-62.68 372.4,-51.84 357.42,-42.3"/>
<polygon fill="black" stroke="black" points="359.52,-39.49 349.2,-37.07 355.76,-45.39 359.52,-39.49"/>
</g>
<!-- TaskUSB -->
<g id="node4" class="node">
<title>TaskUSB</title>
<path fill="#fff4d6" stroke="black" d="M629.6,-36C629.6,-36 452,-36 452,-36 446,-36 440,-30 440,-24 440,-24 440,-12 440,-12 440,-6 446,0 452,0 452,0 629.6,0 629.6,0 635.6,0 641.6,-6 641.6,-12 641.6,-12 641.6,-24 641.6,-24 641.6,-30 635.6,-36 629.6,-36"/>
<text xml:space="preserve" text-anchor="middle" x="540.8" y="-14.7" font-family="Helvetica,sans-Serif" font-size="9.00">USB Command Interface</text>
</g>
<!-- TaskMain&#45;&gt;TaskUSB -->
<g id="edge3" class="edge">
<title>TaskMain&#45;&gt;TaskUSB</title>
<path fill="none" stroke="black" d="M458.27,-71.52C472.16,-62.68 489.2,-51.84 504.18,-42.3"/>
<polygon fill="black" stroke="black" points="505.84,-45.39 512.4,-37.07 502.08,-39.49 505.84,-45.39"/>
</g>
<!-- TaskMonitor -->
<g id="node5" class="node">
<title>TaskMonitor</title>
<path fill="#fff4d6" stroke="black" d="M849.6,-36C849.6,-36 672,-36 672,-36 666,-36 660,-30 660,-24 660,-24 660,-12 660,-12 660,-6 666,0 672,0 672,0 849.6,0 849.6,0 855.6,0 861.6,-6 861.6,-12 861.6,-12 861.6,-24 861.6,-24 861.6,-30 855.6,-36 849.6,-36"/>
<text xml:space="preserve" text-anchor="middle" x="760.8" y="-19.95" font-family="Helvetica,sans-Serif" font-size="9.00">Monitor Task</text>
<text xml:space="preserve" text-anchor="middle" x="760.8" y="-9.45" font-family="Helvetica,sans-Serif" font-size="9.00">(Thermo + Safety)</text>
</g>
<!-- TaskMain&#45;&gt;TaskMonitor -->
<g id="edge4" class="edge">
<title>TaskMain&#45;&gt;TaskMonitor</title>
<path fill="none" stroke="black" d="M513.22,-71.52C560.07,-61.58 618.88,-49.1 667.42,-38.81"/>
<polygon fill="black" stroke="black" points="668.03,-42.26 677.09,-36.76 666.58,-35.41 668.03,-42.26"/>
</g>
</g>
</svg>
