<?xml version="1.0" encoding="UTF-8" standalone="no"?>
<!DOCTYPE svg PUBLIC "-//W3C//DTD SVG 1.1//EN"
 "http://www.w3.org/Graphics/SVG/1.1/DTD/svg11.dtd">
<!-- Generated by graphviz version 14.0.2 (20251019.1705)
 -->
<!-- Title: system Pages: 1 -->
<svg width="867pt" height="59pt"
 viewBox="0.00 0.00 867.00 59.00" xmlns="http://www.w3.org/2000/svg" xmlns:xlink="http://www.w3.org/1999/xlink">
<g id="graph0" class="graph" transform="scale(1 1) rotate(0) translate(4 55)">
<title>system</title>
<polygon fill="white" stroke="none" points="-4,4 -4,-55 863,-55 863,4 -4,4"/>
<!-- PLC -->
<g id="node1" class="node">
<title>PLC</title>
<path fill="none" stroke="black" d="M60.25,-36C60.25,-36 12,-36 12,-36 6,-36 0,-30 0,-24 0,-24 0,-12 0,-12 0,-6 6,0 12,0 12,0 60.25,0 60.25,0 66.25,0 72.25,-6 72.25,-12 72.25,-12 72.25,-24 72.25,-24 72.25,-30 66.25,-36 60.25,-36"/>
<text xml:space="preserve" text-anchor="middle" x="36.12" y="-14.5" font-family="Helvetica,sans-Serif" font-size="10.00">Profinet PLC</text>
</g>
<!-- M40 -->
<g id="node2" class="node">
<title>M40</title>
<path fill="none" stroke="black" d="M305,-36C305,-36 233.5,-36 233.5,-36 227.5,-36 221.5,-30 221.5,-24 221.5,-24 221.5,-12 221.5,-12 221.5,-6 227.5,0 233.5,0 233.5,0 305,0 305,0 311,0 317,-6 317,-12 317,-12 317,-24 317,-24 317,-30 311,-36 305,-36"/>
<text xml:space="preserve" text-anchor="middle" x="269.25" y="-20.5" font-family="Helvetica,sans-Serif" font-size="10.00">Anybus M40</text>
<text xml:space="preserve" text-anchor="middle" x="269.25" y="-8.5" font-family="Helvetica,sans-Serif" font-size="10.00">(abcc_app_ipos.c)</text>
</g>
<!-- PLC&#45;&gt;M40 -->
<g id="edge1" class="edge">
<title>PLC&#45;&gt;M40</title>
<path fill="none" stroke="black" d="M72.73,-18C109.27,-18 166.72,-18 209.91,-18"/>
<polygon fill="black" stroke="black" points="209.89,-21.5 219.89,-18 209.89,-14.5 209.89,-21.5"/>
<text xml:space="preserve" text-anchor="middle" x="146.88" y="-37.7" font-family="Times New Roman,serif" font-size="14.00">PD&#45;Write / PD&#45;Read</text>
<text xml:space="preserve" text-anchor="middle" x="146.88" y="-21.2" font-family="Times New Roman,serif" font-size="14.00">Cyclic I/O exchange</text>
</g>
<!-- STM -->
<g id="node3" class="node">
<title>STM</title>
<path fill="none" stroke="black" d="M568.5,-36C568.5,-36 503,-36 503,-36 497,-36 491,-30 491,-24 491,-24 491,-12 491,-12 491,-6 497,0 503,0 503,0 568.5,0 568.5,0 574.5,0 580.5,-6 580.5,-12 580.5,-12 580.5,-24 580.5,-24 580.5,-30 574.5,-36 568.5,-36"/>
<text xml:space="preserve" text-anchor="middle" x="535.75" y="-20.5" font-family="Helvetica,sans-Serif" font-size="10.00">STM32F4</text>
<text xml:space="preserve" text-anchor="middle" x="535.75" y="-8.5" font-family="Helvetica,sans-Serif" font-size="10.00">(IPOS Firmware)</text>
</g>
<!-- M40&#45;&gt;STM -->
<g id="edge2" class="edge">
<title>M40&#45;&gt;STM</title>
<path fill="none" stroke="black" d="M317.23,-18C362.63,-18 431.39,-18 479.41,-18"/>
<polygon fill="black" stroke="black" points="479.33,-21.5 489.33,-18 479.33,-14.5 479.33,-21.5"/>
<text xml:space="preserve" text-anchor="middle" x="404" y="-37.7" font-family="Times New Roman,serif" font-size="14.00">UART3</text>
<text xml:space="preserve" text-anchor="middle" x="404" y="-21.2" font-family="Times New Roman,serif" font-size="14.00">slave_set_reg() messages</text>
</g>
<!-- ICE -->
<g id="node4" class="node">
<title>ICE</title>
<path fill="none" stroke="black" d="M847,-36C847,-36 774,-36 774,-36 768,-36 762,-30 762,-24 762,-24 762,-12 762,-12 762,-6 768,0 774,0 774,0 847,0 847,0 853,0 859,-6 859,-12 859,-12 859,-24 859,-24 859,-30 853,-36 847,-36"/>
<text xml:space="preserve" text-anchor="middle" x="810.5" y="-20.5" font-family="Helvetica,sans-Serif" font-size="10.00">Raylase SP&#45;ICE&#45;3</text>
<text xml:space="preserve" text-anchor="middle" x="810.5" y="-8.5" font-family="Helvetica,sans-Serif" font-size="10.00">Laser Controller</text>
</g>
<!-- STM&#45;&gt;ICE -->
<g id="edge3" class="edge">
<title>STM&#45;&gt;ICE</title>
<path fill="none" stroke="black" d="M580.88,-18C626.89,-18 699.3,-18 750.27,-18"/>
<polygon fill="black" stroke="black" points="750.25,-21.5 760.25,-18 750.25,-14.5 750.25,-21.5"/>
<text xml:space="preserve" text-anchor="middle" x="671.25" y="-37.7" font-family="Times New Roman,serif" font-size="14.00">Parallel I/O</text>
<text xml:space="preserve" text-anchor="middle" x="671.25" y="-21.2" font-family="Times New Roman,serif" font-size="14.00">Laser enable, safety inputs</text>
</g>
</g>
</svg>
