<?xml version="1.0" encoding="UTF-8" standalone="no"?>
<!DOCTYPE svg PUBLIC "-//W3C//DTD SVG 1.1//EN"
 "http://www.w3.org/Graphics/SVG/1.1/DTD/svg11.dtd">
<!-- Generated by graphviz version 14.0.2 (20251019.1705)
 -->
<!-- Title: freertos.c Pages: 1 -->
<svg width="795pt" height="252pt"
 viewBox="0.00 0.00 795.00 252.00" xmlns="http://www.w3.org/2000/svg" xmlns:xlink="http://www.w3.org/1999/xlink">
<g id="graph0" class="graph" transform="scale(1 1) rotate(0) translate(4 248)">
<title>freertos.c</title>
<!-- Node1 -->
<g id="Node000001" class="node">
<title>Node1</title>
<g id="a_Node000001"><a xlink:title=" ">
<polygon fill="#999999" stroke="#666666" points="391,-244 333.75,-244 333.75,-224 391,-224 391,-244"/>
<text xml:space="preserve" text-anchor="middle" x="362.38" y="-230.5" font-family="Helvetica,sans-Serif" font-size="10.00">freertos.c</text>
</a>
</g>
</g>
<!-- Node2 -->
<g id="Node000002" class="node">
<title>Node2</title>
<g id="a_Node000002"><a xlink:title=" ">
<polygon fill="#e0e0e0" stroke="#999999" points="70.75,-188 0,-188 0,-168 70.75,-168 70.75,-188"/>
<text xml:space="preserve" text-anchor="middle" x="35.38" y="-174.5" font-family="Helvetica,sans-Serif" font-size="10.00">FreeRTOS.h</text>
</a>
</g>
</g>
<!-- Node1&#45;&gt;Node2 -->
<g id="edge1_Node000001_Node000002" class="edge">
<title>Node1&#45;&gt;Node2</title>
<g id="a_edge1_Node000001_Node000002"><a xlink:title=" ">
<path fill="none" stroke="#63b8ff" d="M333.38,-228.82C283.96,-221.6 179.98,-206.02 82.17,-188.45"/>
<polygon fill="#63b8ff" stroke="#63b8ff" points="82.84,-185.01 72.38,-186.67 81.6,-191.9 82.84,-185.01"/>
</a>
</g>
</g>
<!-- Node3 -->
<g id="Node000003" class="node">
<title>Node3</title>
<g id="a_Node000003"><a xlink:title=" ">
<polygon fill="#e0e0e0" stroke="#999999" points="131.88,-188 88.88,-188 88.88,-168 131.88,-168 131.88,-188"/>
<text xml:space="preserve" text-anchor="middle" x="110.38" y="-174.5" font-family="Helvetica,sans-Serif" font-size="10.00">task.h</text>
</a>
</g>
</g>
<!-- Node1&#45;&gt;Node3 -->
<g id="edge2_Node000001_Node000003" class="edge">
<title>Node1&#45;&gt;Node3</title>
<g id="a_edge2_Node000001_Node000003"><a xlink:title=" ">
<path fill="none" stroke="#63b8ff" d="M333.45,-228.01C292.89,-220.82 216.62,-206.63 143.09,-188.52"/>
<polygon fill="#63b8ff" stroke="#63b8ff" points="144.28,-185.21 133.73,-186.19 142.59,-192 144.28,-185.21"/>
</a>
</g>
</g>
<!-- Node4 -->
<g id="Node000004" class="node">
<title>Node4</title>
<g id="a_Node000004"><a xlink:title=" ">
<polygon fill="#e0e0e0" stroke="#999999" points="195,-188 149.75,-188 149.75,-168 195,-168 195,-188"/>
<text xml:space="preserve" text-anchor="middle" x="172.38" y="-174.5" font-family="Helvetica,sans-Serif" font-size="10.00">main.h</text>
</a>
</g>
</g>
<!-- Node1&#45;&gt;Node4 -->
<g id="edge3_Node000001_Node000004" class="edge">
<title>Node1&#45;&gt;Node4</title>
<g id="a_edge3_Node000001_Node000004"><a xlink:title=" ">
<path fill="none" stroke="#63b8ff" d="M333.52,-224.8C299.33,-215.08 242.44,-198.91 206.21,-188.62"/>
<polygon fill="#63b8ff" stroke="#63b8ff" points="207.26,-185.28 196.68,-185.91 205.35,-192.01 207.26,-185.28"/>
</a>
</g>
</g>
<!-- Node5 -->
<g id="Node000005" class="node">
<title>Node5</title>
<g id="a_Node000005"><a xlink:title=" ">
<polygon fill="#e0e0e0" stroke="#999999" points="357.5,-76 291.25,-76 291.25,-56 357.5,-56 357.5,-76"/>
<text xml:space="preserve" text-anchor="middle" x="324.38" y="-62.5" font-family="Helvetica,sans-Serif" font-size="10.00">cmsis_os.h</text>
</a>
</g>
</g>
<!-- Node1&#45;&gt;Node5 -->
<g id="edge4_Node000001_Node000005" class="edge">
<title>Node1&#45;&gt;Node5</title>
<g id="a_edge4_Node000001_Node000005"><a xlink:title=" ">
<path fill="none" stroke="#63b8ff" d="M338.74,-223.61C306.46,-209.33 249.9,-178.77 226.38,-132 212.69,-104.8 248.21,-87.23 280.25,-77.3"/>
<polygon fill="#63b8ff" stroke="#63b8ff" points="280.82,-80.78 289.45,-74.65 278.88,-74.06 280.82,-80.78"/>
</a>
</g>
</g>
<!-- Node6 -->
<g id="Node000006" class="node">
<title>Node6</title>
<g id="a_Node000006"><a xlink:href="uart__master__task_8h.html" target="_top" xlink:title=" ">
<polygon fill="white" stroke="#666666" points="505.38,-188 405.38,-188 405.38,-168 505.38,-168 505.38,-188"/>
<text xml:space="preserve" text-anchor="middle" x="455.38" y="-174.5" font-family="Helvetica,sans-Serif" font-size="10.00">uart_master_task.h</text>
</a>
</g>
</g>
<!-- Node1&#45;&gt;Node6 -->
<g id="edge5_Node000001_Node000006" class="edge">
<title>Node1&#45;&gt;Node6</title>
<g id="a_edge5_Node000001_Node000006"><a xlink:title=" ">
<path fill="none" stroke="#63b8ff" d="M378.57,-223.59C392.62,-215.44 413.21,-203.48 429.53,-194"/>
<polygon fill="#63b8ff" stroke="#63b8ff" points="430.85,-197.29 437.74,-189.24 427.33,-191.23 430.85,-197.29"/>
</a>
</g>
</g>
<!-- Node9 -->
<g id="Node000009" class="node">
<title>Node9</title>
<g id="a_Node000009"><a xlink:href="master__link_8h.html" target="_top" xlink:title=" ">
<polygon fill="white" stroke="#666666" points="309.62,-132 235.12,-132 235.12,-112 309.62,-112 309.62,-132"/>
<text xml:space="preserve" text-anchor="middle" x="272.38" y="-118.5" font-family="Helvetica,sans-Serif" font-size="10.00">master_link.h</text>
</a>
</g>
</g>
<!-- Node1&#45;&gt;Node9 -->
<g id="edge8_Node000001_Node000009" class="edge">
<title>Node1&#45;&gt;Node9</title>
<g id="a_edge8_Node000001_Node000009"><a xlink:title=" ">
<path fill="none" stroke="#63b8ff" d="M354.7,-223.62C339.76,-205.36 306.52,-164.73 287.16,-141.07"/>
<polygon fill="#63b8ff" stroke="#63b8ff" points="290.03,-139.05 280.99,-133.53 284.61,-143.48 290.03,-139.05"/>
</a>
</g>
</g>
<!-- Node11 -->
<g id="Node000011" class="node">
<title>Node11</title>
<g id="a_Node000011"><a xlink:title=" ">
<polygon fill="#e0e0e0" stroke="#999999" points="569,-188 523.75,-188 523.75,-168 569,-168 569,-188"/>
<text xml:space="preserve" text-anchor="middle" x="546.38" y="-174.5" font-family="Helvetica,sans-Serif" font-size="10.00">stdio.h</text>
</a>
</g>
</g>
<!-- Node1&#45;&gt;Node11 -->
<g id="edge11_Node000001_Node000011" class="edge">
<title>Node1&#45;&gt;Node11</title>
<g id="a_edge11_Node000001_Node000011"><a xlink:title=" ">
<path fill="none" stroke="#63b8ff" d="M391.12,-224.56C423.91,-214.94 477.46,-199.23 512.31,-189"/>
<polygon fill="#63b8ff" stroke="#63b8ff" points="513.29,-192.36 521.9,-186.18 511.32,-185.64 513.29,-192.36"/>
</a>
</g>
</g>
<!-- Node12 -->
<g id="Node000012" class="node">
<title>Node12</title>
<g id="a_Node000012"><a xlink:title=" ">
<polygon fill="#e0e0e0" stroke="#999999" points="643.25,-188 587.5,-188 587.5,-168 643.25,-168 643.25,-188"/>
<text xml:space="preserve" text-anchor="middle" x="615.38" y="-174.5" font-family="Helvetica,sans-Serif" font-size="10.00">stdbool.h</text>
</a>
</g>
</g>
<!-- Node1&#45;&gt;Node12 -->
<g id="edge12_Node000001_Node000012" class="edge">
<title>Node1&#45;&gt;Node12</title>
<g id="a_edge12_Node000001_Node000012"><a xlink:title=" ">
<path fill="none" stroke="#63b8ff" d="M391.44,-227.26C430.95,-219.4 504.08,-204.59 576.05,-188.47"/>
<polygon fill="#63b8ff" stroke="#63b8ff" points="576.65,-191.92 585.64,-186.31 575.11,-185.09 576.65,-191.92"/>
</a>
</g>
</g>
<!-- Node13 -->
<g id="Node000013" class="node">
<title>Node13</title>
<g id="a_Node000013"><a xlink:title=" ">
<polygon fill="#e0e0e0" stroke="#999999" points="709.5,-188 661.25,-188 661.25,-168 709.5,-168 709.5,-188"/>
<text xml:space="preserve" text-anchor="middle" x="685.38" y="-174.5" font-family="Helvetica,sans-Serif" font-size="10.00">string.h</text>
</a>
</g>
</g>
<!-- Node1&#45;&gt;Node13 -->
<g id="edge13_Node000001_Node000013" class="edge">
<title>Node1&#45;&gt;Node13</title>
<g id="a_edge13_Node000001_Node000013"><a xlink:title=" ">
<path fill="none" stroke="#63b8ff" d="M391.38,-229.59C441.92,-223.43 549.55,-209.26 649.71,-188.37"/>
<polygon fill="#63b8ff" stroke="#63b8ff" points="650.4,-191.8 659.46,-186.31 648.95,-184.95 650.4,-191.8"/>
</a>
</g>
</g>
<!-- Node14 -->
<g id="Node000014" class="node">
<title>Node14</title>
<g id="a_Node000014"><a xlink:title=" ">
<polygon fill="#e0e0e0" stroke="#999999" points="786.75,-188 728,-188 728,-168 786.75,-168 786.75,-188"/>
<text xml:space="preserve" text-anchor="middle" x="757.38" y="-174.5" font-family="Helvetica,sans-Serif" font-size="10.00">protocol.h</text>
</a>
</g>
</g>
<!-- Node1&#45;&gt;Node14 -->
<g id="edge14_Node000001_Node000014" class="edge">
<title>Node1&#45;&gt;Node14</title>
<g id="a_edge14_Node000001_Node000014"><a xlink:title=" ">
<path fill="none" stroke="#63b8ff" d="M391.13,-230.36C450.15,-224.73 589.37,-210.37 716.54,-188.15"/>
<polygon fill="#63b8ff" stroke="#63b8ff" points="716.9,-191.64 726.14,-186.45 715.68,-184.75 716.9,-191.64"/>
</a>
</g>
</g>
<!-- Node15 -->
<g id="Node000015" class="node">
<title>Node15</title>
<g id="a_Node000015"><a xlink:href="inputs_8h.html" target="_top" xlink:title="Input handling, safety interlock logic, and laser control API.">
<polygon fill="white" stroke="#666666" points="387.62,-188 337.12,-188 337.12,-168 387.62,-168 387.62,-188"/>
<text xml:space="preserve" text-anchor="middle" x="362.38" y="-174.5" font-family="Helvetica,sans-Serif" font-size="10.00">inputs.h</text>
</a>
</g>
</g>
<!-- Node1&#45;&gt;Node15 -->
<g id="edge15_Node000001_Node000015" class="edge">
<title>Node1&#45;&gt;Node15</title>
<g id="a_edge15_Node000001_Node000015"><a xlink:title=" ">
<path fill="none" stroke="#63b8ff" d="M362.38,-223.59C362.38,-217.01 362.38,-207.96 362.38,-199.73"/>
<polygon fill="#63b8ff" stroke="#63b8ff" points="365.88,-199.81 362.38,-189.81 358.88,-199.81 365.88,-199.81"/>
</a>
</g>
</g>
<!-- Node7 -->
<g id="Node000007" class="node">
<title>Node7</title>
<g id="a_Node000007"><a xlink:title=" ">
<polygon fill="#e0e0e0" stroke="#999999" points="563.12,-132 491.62,-132 491.62,-112 563.12,-112 563.12,-132"/>
<text xml:space="preserve" text-anchor="middle" x="527.38" y="-118.5" font-family="Helvetica,sans-Serif" font-size="10.00">cmsis_os2.h</text>
</a>
</g>
</g>
<!-- Node6&#45;&gt;Node7 -->
<g id="edge6_Node000006_Node000007" class="edge">
<title>Node6&#45;&gt;Node7</title>
<g id="a_edge6_Node000006_Node000007"><a xlink:title=" ">
<path fill="none" stroke="#63b8ff" d="M467.92,-167.59C478.34,-159.77 493.42,-148.46 505.79,-139.19"/>
<polygon fill="#63b8ff" stroke="#63b8ff" points="507.87,-142.01 513.77,-133.21 503.67,-136.41 507.87,-142.01"/>
</a>
</g>
</g>
<!-- Node8 -->
<g id="Node000008" class="node">
<title>Node8</title>
<g id="a_Node000008"><a xlink:title=" ">
<polygon fill="#e0e0e0" stroke="#999999" points="487.5,-76 439.25,-76 439.25,-56 487.5,-56 487.5,-76"/>
<text xml:space="preserve" text-anchor="middle" x="463.38" y="-62.5" font-family="Helvetica,sans-Serif" font-size="10.00">stdint.h</text>
</a>
</g>
</g>
<!-- Node6&#45;&gt;Node8 -->
<g id="edge7_Node000006_Node000008" class="edge">
<title>Node6&#45;&gt;Node8</title>
<g id="a_edge7_Node000006_Node000008"><a xlink:title=" ">
<path fill="none" stroke="#63b8ff" d="M492.98,-167.5C523.52,-158.94 563.01,-145.63 572.38,-132 593.61,-101.09 538.43,-82.55 499.05,-73.59"/>
<polygon fill="#63b8ff" stroke="#63b8ff" points="499.94,-70.2 489.43,-71.54 498.47,-77.05 499.94,-70.2"/>
</a>
</g>
</g>
<!-- Node9&#45;&gt;Node8 -->
<g id="edge9_Node000009_Node000008" class="edge">
<title>Node9&#45;&gt;Node8</title>
<g id="a_edge9_Node000009_Node000008"><a xlink:title=" ">
<path fill="none" stroke="#63b8ff" d="M305.64,-111.59C339.98,-101.89 393.32,-86.81 428.3,-76.92"/>
<polygon fill="#63b8ff" stroke="#63b8ff" points="428.84,-80.4 437.51,-74.31 426.93,-73.67 428.84,-80.4"/>
</a>
</g>
</g>
<!-- Node10 -->
<g id="Node000010" class="node">
<title>Node10</title>
<g id="a_Node000010"><a xlink:title=" ">
<polygon fill="#e0e0e0" stroke="#999999" points="374.38,-20 286.38,-20 286.38,0 374.38,0 374.38,-20"/>
<text xml:space="preserve" text-anchor="middle" x="330.38" y="-6.5" font-family="Helvetica,sans-Serif" font-size="10.00">stm32f4xx_hal.h</text>
</a>
</g>
</g>
<!-- Node9&#45;&gt;Node10 -->
<g id="edge10_Node000009_Node000010" class="edge">
<title>Node9&#45;&gt;Node10</title>
<g id="a_edge10_Node000009_Node000010"><a xlink:title=" ">
<path fill="none" stroke="#63b8ff" d="M271.95,-111.58C271.77,-98.38 272.9,-73.98 282.38,-56 288.29,-44.78 298.1,-34.83 307.31,-27.16"/>
<polygon fill="#63b8ff" stroke="#63b8ff" points="309.22,-30.11 314.97,-21.21 304.92,-24.58 309.22,-30.11"/>
</a>
</g>
</g>
<!-- Node15&#45;&gt;Node7 -->
<g id="edge17_Node000015_Node000007" class="edge">
<title>Node15&#45;&gt;Node7</title>
<g id="a_edge17_Node000015_Node000007"><a xlink:title=" ">
<path fill="none" stroke="#63b8ff" d="M387.79,-168.68C414.44,-159.96 456.68,-146.14 487.72,-135.98"/>
<polygon fill="#63b8ff" stroke="#63b8ff" points="488.74,-139.33 497.16,-132.89 486.56,-132.67 488.74,-139.33"/>
</a>
</g>
</g>
<!-- Node15&#45;&gt;Node8 -->
<g id="edge16_Node000015_Node000008" class="edge">
<title>Node15&#45;&gt;Node8</title>
<g id="a_edge16_Node000015_Node000008"><a xlink:title=" ">
<path fill="none" stroke="#63b8ff" d="M377.91,-167.63C390.81,-159.34 409.13,-146.36 422.38,-132 435.1,-118.21 446.21,-99.95 453.65,-86.3"/>
<polygon fill="#63b8ff" stroke="#63b8ff" points="456.74,-87.94 458.28,-77.46 450.54,-84.69 456.74,-87.94"/>
</a>
</g>
</g>
<!-- Node16 -->
<g id="Node000016" class="node">
<title>Node16</title>
<g id="a_Node000016"><a xlink:href="_i_p_o_s__071125_2_core_2_inc_2main_8h.html" target="_top" xlink:title=": Header for main.c file. This file contains the common defines of the application.">
<polygon fill="white" stroke="#666666" points="421,-76 375.75,-76 375.75,-56 421,-56 421,-76"/>
<text xml:space="preserve" text-anchor="middle" x="398.38" y="-62.5" font-family="Helvetica,sans-Serif" font-size="10.00">main.h</text>
</a>
</g>
</g>
<!-- Node15&#45;&gt;Node16 -->
<g id="edge18_Node000015_Node000016" class="edge">
<title>Node15&#45;&gt;Node16</title>
<g id="a_edge18_Node000015_Node000016"><a xlink:title=" ">
<path fill="none" stroke="#63b8ff" d="M376,-167.73C386.52,-159.68 400.27,-146.97 406.38,-132 412.22,-117.65 409.58,-100.16 405.82,-86.94"/>
<polygon fill="#63b8ff" stroke="#63b8ff" points="409.21,-86.04 402.75,-77.64 402.57,-88.24 409.21,-86.04"/>
</a>
</g>
</g>
<!-- Node17 -->
<g id="Node000017" class="node">
<title>Node17</title>
<g id="a_Node000017"><a xlink:href="max31855_8h.html" target="_top" xlink:title=" ">
<polygon fill="white" stroke="#666666" points="397,-132 327.75,-132 327.75,-112 397,-112 397,-132"/>
<text xml:space="preserve" text-anchor="middle" x="362.38" y="-118.5" font-family="Helvetica,sans-Serif" font-size="10.00">max31855.h</text>
</a>
</g>
</g>
<!-- Node15&#45;&gt;Node17 -->
<g id="edge20_Node000015_Node000017" class="edge">
<title>Node15&#45;&gt;Node17</title>
<g id="a_edge20_Node000015_Node000017"><a xlink:title=" ">
<path fill="none" stroke="#63b8ff" d="M362.38,-167.59C362.38,-161.01 362.38,-151.96 362.38,-143.73"/>
<polygon fill="#63b8ff" stroke="#63b8ff" points="365.88,-143.81 362.38,-133.81 358.88,-143.81 365.88,-143.81"/>
</a>
</g>
</g>
<!-- Node16&#45;&gt;Node10 -->
<g id="edge19_Node000016_Node000010" class="edge">
<title>Node16&#45;&gt;Node10</title>
<g id="a_edge19_Node000016_Node000010"><a xlink:title=" ">
<path fill="none" stroke="#63b8ff" d="M386.53,-55.59C376.68,-47.77 362.44,-36.46 350.77,-27.19"/>
<polygon fill="#63b8ff" stroke="#63b8ff" points="353.28,-24.72 343.27,-21.24 348.92,-30.2 353.28,-24.72"/>
</a>
</g>
</g>
<!-- Node17&#45;&gt;Node5 -->
<g id="edge22_Node000017_Node000005" class="edge">
<title>Node17&#45;&gt;Node5</title>
<g id="a_edge22_Node000017_Node000005"><a xlink:title=" ">
<path fill="none" stroke="#63b8ff" d="M355.76,-111.59C350.69,-104.39 343.54,-94.23 337.35,-85.43"/>
<polygon fill="#63b8ff" stroke="#63b8ff" points="340.41,-83.7 331.79,-77.54 334.68,-87.73 340.41,-83.7"/>
</a>
</g>
</g>
<!-- Node17&#45;&gt;Node8 -->
<g id="edge23_Node000017_Node000008" class="edge">
<title>Node17&#45;&gt;Node8</title>
<g id="a_edge23_Node000017_Node000008"><a xlink:title=" ">
<path fill="none" stroke="#63b8ff" d="M379.97,-111.59C395.3,-103.4 417.79,-91.37 435.56,-81.87"/>
<polygon fill="#63b8ff" stroke="#63b8ff" points="437.14,-84.99 444.31,-77.19 433.84,-78.82 437.14,-84.99"/>
</a>
</g>
</g>
<!-- Node17&#45;&gt;Node16 -->
<g id="edge21_Node000017_Node000016" class="edge">
<title>Node17&#45;&gt;Node16</title>
<g id="a_edge21_Node000017_Node000016"><a xlink:title=" ">
<path fill="none" stroke="#63b8ff" d="M368.65,-111.59C373.39,-104.47 380.07,-94.45 385.9,-85.72"/>
<polygon fill="#63b8ff" stroke="#63b8ff" points="388.7,-87.82 391.34,-77.56 382.88,-83.94 388.7,-87.82"/>
</a>
</g>
</g>
</g>
</svg>
