<?xml version="1.0" encoding="UTF-8" standalone="no"?>
<!DOCTYPE svg PUBLIC "-//W3C//DTD SVG 1.1//EN"
 "http://www.w3.org/Graphics/SVG/1.1/DTD/svg11.dtd">
<!-- Generated by graphviz version 14.0.2 (20251019.1705)
 -->
<!-- Title: Stm32f4xx_system Pages: 1 -->
<svg width="373pt" height="340pt"
 viewBox="0.00 0.00 373.00 340.00" xmlns="http://www.w3.org/2000/svg" xmlns:xlink="http://www.w3.org/1999/xlink">
<g id="graph0" class="graph" transform="scale(1 1) rotate(0) translate(4 336)">
<title>Stm32f4xx_system</title>
<!-- Node2 -->
<g id="Node000002" class="node">
<title>Node2</title>
<g id="a_Node000002"><a xlink:href="group___c_m_s_i_s.html" target="_top" xlink:title=" ">
<polygon fill="white" stroke="#666666" points="48.25,-176 0,-176 0,-156 48.25,-156 48.25,-176"/>
<text xml:space="preserve" text-anchor="middle" x="24.12" y="-162.5" font-family="Helvetica,sans-Serif" font-size="10.00">CMSIS</text>
</a>
</g>
</g>
<!-- Node1 -->
<g id="Node000001" class="node">
<title>Node1</title>
<g id="a_Node000001"><a xlink:title=" ">
<polygon fill="#999999" stroke="#666666" points="185,-176 84.25,-176 84.25,-156 185,-156 185,-176"/>
<text xml:space="preserve" text-anchor="middle" x="134.62" y="-162.5" font-family="Helvetica,sans-Serif" font-size="10.00">Stm32f4xx_system</text>
</a>
</g>
</g>
<!-- Node2&#45;&gt;Node1 -->
<g id="edge1" class="edge">
<title>Node2&#45;&gt;Node1</title>
<path fill="none" stroke="black" d="M60.02,-166C67.62,-166 75.8,-166 83.84,-166"/>
<polygon fill="black" stroke="black" points="60.18,-162.5 50.18,-166 60.18,-169.5 60.18,-162.5"/>
</g>
<!-- Node5 -->
<g id="Node000005" class="node">
<title>Node5</title>
<g id="a_Node000005"><a xlink:href="group___s_t_m32_f4xx___system___private___defines.html" target="_top" xlink:title=" ">
<polygon fill="white" stroke="#666666" points="365.25,-332 221,-332 221,-300 365.25,-300 365.25,-332"/>
<text xml:space="preserve" text-anchor="start" x="229" y="-318.5" font-family="Helvetica,sans-Serif" font-size="10.00">STM32F4xx_System_Private</text>
<text xml:space="preserve" text-anchor="middle" x="293.12" y="-306.5" font-family="Helvetica,sans-Serif" font-size="10.00">_Defines</text>
</a>
</g>
</g>
<!-- Node8 -->
<g id="Node000008" class="node">
<title>Node8</title>
<g id="a_Node000008"><a xlink:href="group___s_t_m32_f4xx___system___private___function_prototypes.html" target="_top" xlink:title=" ">
<polygon fill="white" stroke="#666666" points="365.25,-282 221,-282 221,-250 365.25,-250 365.25,-282"/>
<text xml:space="preserve" text-anchor="start" x="229" y="-268.5" font-family="Helvetica,sans-Serif" font-size="10.00">STM32F4xx_System_Private</text>
<text xml:space="preserve" text-anchor="middle" x="293.12" y="-256.5" font-family="Helvetica,sans-Serif" font-size="10.00">_FunctionPrototypes</text>
</a>
</g>
</g>
<!-- Node9 -->
<g id="Node000009" class="node">
<title>Node9</title>
<g id="a_Node000009"><a xlink:href="group___s_t_m32_f4xx___system___private___functions.html" target="_top" xlink:title=" ">
<polygon fill="white" stroke="#666666" points="365.25,-232 221,-232 221,-200 365.25,-200 365.25,-232"/>
<text xml:space="preserve" text-anchor="start" x="229" y="-218.5" font-family="Helvetica,sans-Serif" font-size="10.00">STM32F4xx_System_Private</text>
<text xml:space="preserve" text-anchor="middle" x="293.12" y="-206.5" font-family="Helvetica,sans-Serif" font-size="10.00">_Functions</text>
</a>
</g>
</g>
<!-- Node3 -->
<g id="Node000003" class="node">
<title>Node3</title>
<g id="a_Node000003"><a xlink:href="group___s_t_m32_f4xx___system___private___includes.html" target="_top" xlink:title=" ">
<polygon fill="white" stroke="#666666" points="365.25,-182 221,-182 221,-150 365.25,-150 365.25,-182"/>
<text xml:space="preserve" text-anchor="start" x="229" y="-168.5" font-family="Helvetica,sans-Serif" font-size="10.00">STM32F4xx_System_Private</text>
<text xml:space="preserve" text-anchor="middle" x="293.12" y="-156.5" font-family="Helvetica,sans-Serif" font-size="10.00">_Includes</text>
</a>
</g>
</g>
<!-- Node6 -->
<g id="Node000006" class="node">
<title>Node6</title>
<g id="a_Node000006"><a xlink:href="group___s_t_m32_f4xx___system___private___macros.html" target="_top" xlink:title=" ">
<polygon fill="white" stroke="#666666" points="365.25,-132 221,-132 221,-100 365.25,-100 365.25,-132"/>
<text xml:space="preserve" text-anchor="start" x="229" y="-118.5" font-family="Helvetica,sans-Serif" font-size="10.00">STM32F4xx_System_Private</text>
<text xml:space="preserve" text-anchor="middle" x="293.12" y="-106.5" font-family="Helvetica,sans-Serif" font-size="10.00">_Macros</text>
</a>
</g>
</g>
<!-- Node4 -->
<g id="Node000004" class="node">
<title>Node4</title>
<g id="a_Node000004"><a xlink:href="group___s_t_m32_f4xx___system___private___types_definitions.html" target="_top" xlink:title=" ">
<polygon fill="white" stroke="#666666" points="365.25,-82 221,-82 221,-50 365.25,-50 365.25,-82"/>
<text xml:space="preserve" text-anchor="start" x="229" y="-68.5" font-family="Helvetica,sans-Serif" font-size="10.00">STM32F4xx_System_Private</text>
<text xml:space="preserve" text-anchor="middle" x="293.12" y="-56.5" font-family="Helvetica,sans-Serif" font-size="10.00">_TypesDefinitions</text>
</a>
</g>
</g>
<!-- Node7 -->
<g id="Node000007" class="node">
<title>Node7</title>
<g id="a_Node000007"><a xlink:href="group___s_t_m32_f4xx___system___private___variables.html" target="_top" xlink:title=" ">
<polygon fill="white" stroke="#666666" points="365.25,-32 221,-32 221,0 365.25,0 365.25,-32"/>
<text xml:space="preserve" text-anchor="start" x="229" y="-18.5" font-family="Helvetica,sans-Serif" font-size="10.00">STM32F4xx_System_Private</text>
<text xml:space="preserve" text-anchor="middle" x="293.12" y="-6.5" font-family="Helvetica,sans-Serif" font-size="10.00">_Variables</text>
</a>
</g>
</g>
<!-- Node1&#45;&gt;Node5 -->
<g id="edge4" class="edge">
<title>Node1&#45;&gt;Node5</title>
<path fill="none" stroke="black" d="M144.71,-186.8C157.76,-214.38 184.34,-262.85 221,-291 225.26,-294.27 229.97,-297.13 234.9,-299.63"/>
<polygon fill="black" stroke="black" points="147.91,-185.4 140.58,-177.75 141.55,-188.3 147.91,-185.4"/>
</g>
<!-- Node1&#45;&gt;Node8 -->
<g id="edge7" class="edge">
<title>Node1&#45;&gt;Node8</title>
<path fill="none" stroke="black" d="M152.42,-184.33C168.6,-201.06 194.46,-225.47 221,-241 226.42,-244.17 232.31,-247.03 238.3,-249.59"/>
<polygon fill="black" stroke="black" points="155.35,-182.33 145.93,-177.47 150.26,-187.14 155.35,-182.33"/>
</g>
<!-- Node1&#45;&gt;Node9 -->
<g id="edge8" class="edge">
<title>Node1&#45;&gt;Node9</title>
<path fill="none" stroke="black" d="M179.2,-179.92C198.24,-186 220.71,-193.18 240.57,-199.53"/>
<polygon fill="black" stroke="black" points="180.47,-176.65 169.87,-176.94 178.33,-183.32 180.47,-176.65"/>
</g>
<!-- Node1&#45;&gt;Node3 -->
<g id="edge2" class="edge">
<title>Node1&#45;&gt;Node3</title>
<path fill="none" stroke="black" d="M196.51,-166C204.41,-166 212.57,-166 220.63,-166"/>
<polygon fill="black" stroke="black" points="196.66,-162.5 186.66,-166 196.66,-169.5 196.66,-162.5"/>
</g>
<!-- Node1&#45;&gt;Node6 -->
<g id="edge5" class="edge">
<title>Node1&#45;&gt;Node6</title>
<path fill="none" stroke="black" d="M179.2,-152.08C198.24,-146 220.71,-138.82 240.57,-132.47"/>
<polygon fill="black" stroke="black" points="178.33,-148.68 169.87,-155.06 180.47,-155.35 178.33,-148.68"/>
</g>
<!-- Node1&#45;&gt;Node4 -->
<g id="edge3" class="edge">
<title>Node1&#45;&gt;Node4</title>
<path fill="none" stroke="black" d="M152.42,-147.67C168.6,-130.94 194.46,-106.53 221,-91 226.42,-87.83 232.31,-84.97 238.3,-82.41"/>
<polygon fill="black" stroke="black" points="150.26,-144.86 145.93,-154.53 155.35,-149.67 150.26,-144.86"/>
</g>
<!-- Node1&#45;&gt;Node7 -->
<g id="edge6" class="edge">
<title>Node1&#45;&gt;Node7</title>
<path fill="none" stroke="black" d="M144.71,-145.2C157.76,-117.62 184.34,-69.15 221,-41 225.26,-37.73 229.97,-34.87 234.9,-32.37"/>
<polygon fill="black" stroke="black" points="141.55,-143.7 140.58,-154.25 147.91,-146.6 141.55,-143.7"/>
</g>
</g>
</svg>
