<?xml version="1.0" encoding="UTF-8" standalone="no"?>
<!DOCTYPE svg PUBLIC "-//W3C//DTD SVG 1.1//EN"
 "http://www.w3.org/Graphics/SVG/1.1/DTD/svg11.dtd">
<!-- Generated by graphviz version 14.0.2 (20251019.1705)
 -->
<!-- Title: STM32H7XX_NUCLEO Pages: 1 -->
<svg width="282pt" height="28pt"
 viewBox="0.00 0.00 282.00 28.00" xmlns="http://www.w3.org/2000/svg" xmlns:xlink="http://www.w3.org/1999/xlink">
<g id="graph0" class="graph" transform="scale(1 1) rotate(0) translate(4 24)">
<title>STM32H7XX_NUCLEO</title>
<!-- Node2 -->
<g id="Node000002" class="node">
<title>Node2</title>
<g id="a_Node000002"><a xlink:href="group___b_s_p.html" target="_top" xlink:title=" ">
<polygon fill="white" stroke="#666666" points="36.25,-20 0,-20 0,0 36.25,0 36.25,-20"/>
<text xml:space="preserve" text-anchor="middle" x="18.12" y="-6.5" font-family="Helvetica,sans-Serif" font-size="10.00">BSP</text>
</a>
</g>
</g>
<!-- Node1 -->
<g id="Node000001" class="node">
<title>Node1</title>
<g id="a_Node000001"><a xlink:title=" ">
<polygon fill="#999999" stroke="#666666" points="193.25,-20 72.25,-20 72.25,0 193.25,0 193.25,-20"/>
<text xml:space="preserve" text-anchor="middle" x="132.75" y="-6.5" font-family="Helvetica,sans-Serif" font-size="10.00">STM32H7XX_NUCLEO</text>
</a>
</g>
</g>
<!-- Node2&#45;&gt;Node1 -->
<g id="edge1" class="edge">
<title>Node2&#45;&gt;Node1</title>
<path fill="none" stroke="black" d="M48.14,-10C55.46,-10 63.58,-10 71.81,-10"/>
<polygon fill="black" stroke="black" points="48.24,-6.5 38.24,-10 48.24,-13.5 48.24,-6.5"/>
</g>
<!-- Node3 -->
<g id="Node000003" class="node">
<title>Node3</title>
<g id="a_Node000003"><a xlink:href="group___s_t_m32_h7_x_x___n_u_c_l_e_o___c_o_n_f_i_g.html" target="_top" xlink:title=" ">
<polygon fill="white" stroke="#666666" points="273.75,-20 229.25,-20 229.25,0 273.75,0 273.75,-20"/>
<text xml:space="preserve" text-anchor="middle" x="251.5" y="-6.5" font-family="Helvetica,sans-Serif" font-size="10.00">Config</text>
</a>
</g>
</g>
<!-- Node1&#45;&gt;Node3 -->
<g id="edge2" class="edge">
<title>Node1&#45;&gt;Node3</title>
<path fill="none" stroke="black" d="M204.99,-10C213.62,-10 221.85,-10 228.88,-10"/>
<polygon fill="black" stroke="black" points="205.01,-6.5 195.01,-10 205.01,-13.5 205.01,-6.5"/>
</g>
</g>
</svg>
