<?xml version="1.0" encoding="UTF-8" standalone="no"?>
<!DOCTYPE svg PUBLIC "-//W3C//DTD SVG 1.1//EN"
 "http://www.w3.org/Graphics/SVG/1.1/DTD/svg11.dtd">
<!-- Generated by graphviz version 14.0.2 (20251019.1705)
 -->
<!-- Title: Config Pages: 1 -->
<svg width="349pt" height="28pt"
 viewBox="0.00 0.00 349.00 28.00" xmlns="http://www.w3.org/2000/svg" xmlns:xlink="http://www.w3.org/1999/xlink">
<g id="graph0" class="graph" transform="scale(1 1) rotate(0) translate(4 24)">
<title>Config</title>
<!-- Node3 -->
<g id="Node000003" class="node">
<title>Node3</title>
<g id="a_Node000003"><a xlink:href="group___s_t_m32_c0_x_x___n_u_c_l_e_o___c_o_n_f_i_g___exported___constants.html" target="_top" xlink:title=" ">
<polygon fill="white" stroke="#666666" points="340.5,-20 237.5,-20 237.5,0 340.5,0 340.5,-20"/>
<text xml:space="preserve" text-anchor="middle" x="289" y="-6.5" font-family="Helvetica,sans-Serif" font-size="10.00">Exported Constants</text>
</a>
</g>
</g>
<!-- Node2 -->
<g id="Node000002" class="node">
<title>Node2</title>
<g id="a_Node000002"><a xlink:href="group___s_t_m32_h7_x_x___n_u_c_l_e_o.html" target="_top" xlink:title=" ">
<polygon fill="white" stroke="#666666" points="121,-20 0,-20 0,0 121,0 121,-20"/>
<text xml:space="preserve" text-anchor="middle" x="60.5" y="-6.5" font-family="Helvetica,sans-Serif" font-size="10.00">STM32H7XX_NUCLEO</text>
</a>
</g>
</g>
<!-- Node1 -->
<g id="Node000001" class="node">
<title>Node1</title>
<g id="a_Node000001"><a xlink:title=" ">
<polygon fill="#999999" stroke="#666666" points="201.5,-20 157,-20 157,0 201.5,0 201.5,-20"/>
<text xml:space="preserve" text-anchor="middle" x="179.25" y="-6.5" font-family="Helvetica,sans-Serif" font-size="10.00">Config</text>
</a>
</g>
</g>
<!-- Node2&#45;&gt;Node1 -->
<g id="edge1" class="edge">
<title>Node2&#45;&gt;Node1</title>
<path fill="none" stroke="black" d="M132.74,-10C141.37,-10 149.6,-10 156.63,-10"/>
<polygon fill="black" stroke="black" points="132.76,-6.5 122.76,-10 132.76,-13.5 132.76,-6.5"/>
</g>
<!-- Node1&#45;&gt;Node3 -->
<g id="edge2" class="edge">
<title>Node1&#45;&gt;Node3</title>
<path fill="none" stroke="black" d="M213.07,-10C220.66,-10 228.91,-10 237.07,-10"/>
<polygon fill="black" stroke="black" points="213.31,-6.5 203.31,-10 213.31,-13.5 213.31,-6.5"/>
</g>
</g>
</svg>
