<?xml version="1.0" encoding="UTF-8" standalone="no"?>
<!DOCTYPE svg PUBLIC "-//W3C//DTD SVG 1.1//EN"
 "http://www.w3.org/Graphics/SVG/1.1/DTD/svg11.dtd">
<!-- Generated by graphviz version 14.0.2 (20251019.1705)
 -->
<!-- Title: CMSIS Pages: 1 -->
<svg width="195pt" height="66pt"
 viewBox="0.00 0.00 195.00 66.00" xmlns="http://www.w3.org/2000/svg" xmlns:xlink="http://www.w3.org/1999/xlink">
<g id="graph0" class="graph" transform="scale(1 1) rotate(0) translate(4 62)">
<title>CMSIS</title>
<!-- Node1 -->
<g id="Node000001" class="node">
<title>Node1</title>
<g id="a_Node000001"><a xlink:title=" ">
<polygon fill="#999999" stroke="#666666" points="48.25,-39 0,-39 0,-19 48.25,-19 48.25,-39"/>
<text xml:space="preserve" text-anchor="middle" x="24.12" y="-25.5" font-family="Helvetica,sans-Serif" font-size="10.00">CMSIS</text>
</a>
</g>
</g>
<!-- Node2 -->
<g id="Node000002" class="node">
<title>Node2</title>
<g id="a_Node000002"><a xlink:href="group__stm32f4xx__system.html" target="_top" xlink:title=" ">
<polygon fill="white" stroke="#666666" points="186.12,-58 85.38,-58 85.38,-38 186.12,-38 186.12,-58"/>
<text xml:space="preserve" text-anchor="middle" x="135.75" y="-44.5" font-family="Helvetica,sans-Serif" font-size="10.00">Stm32f4xx_system</text>
</a>
</g>
</g>
<!-- Node1&#45;&gt;Node2 -->
<g id="edge1" class="edge">
<title>Node1&#45;&gt;Node2</title>
<path fill="none" stroke="black" d="M59.84,-35.02C67.88,-36.41 76.59,-37.92 85.13,-39.4"/>
<polygon fill="black" stroke="black" points="60.58,-31.59 50.13,-33.33 59.39,-38.49 60.58,-31.59"/>
</g>
<!-- Node3 -->
<g id="Node000003" class="node">
<title>Node3</title>
<g id="a_Node000003"><a xlink:href="group__stm32h7xx__system.html" target="_top" xlink:title=" ">
<polygon fill="white" stroke="#666666" points="187.25,-20 84.25,-20 84.25,0 187.25,0 187.25,-20"/>
<text xml:space="preserve" text-anchor="middle" x="135.75" y="-6.5" font-family="Helvetica,sans-Serif" font-size="10.00">Stm32h7xx_system</text>
</a>
</g>
</g>
<!-- Node1&#45;&gt;Node3 -->
<g id="edge2" class="edge">
<title>Node1&#45;&gt;Node3</title>
<path fill="none" stroke="black" d="M59.97,-22.96C67.55,-21.65 75.73,-20.23 83.79,-18.83"/>
<polygon fill="black" stroke="black" points="59.39,-19.51 50.13,-24.67 60.58,-26.41 59.39,-19.51"/>
</g>
</g>
</svg>
