<?xml version="1.0" encoding="UTF-8" standalone="no"?>
<!DOCTYPE svg PUBLIC "-//W3C//DTD SVG 1.1//EN"
 "http://www.w3.org/Graphics/SVG/1.1/DTD/svg11.dtd">
<!-- Generated by graphviz version 14.0.2 (20251019.1705)
 -->
<!-- Title: i2c.h Pages: 1 -->
<svg width="108pt" height="84pt"
 viewBox="0.00 0.00 108.00 84.00" xmlns="http://www.w3.org/2000/svg" xmlns:xlink="http://www.w3.org/1999/xlink">
<g id="graph0" class="graph" transform="scale(1 1) rotate(0) translate(4 80)">
<title>i2c.h</title>
<!-- Node1 -->
<g id="Node000001" class="node">
<title>Node1</title>
<g id="a_Node000001"><a xlink:title="This file contains all the function prototypes for the i2c.c file.">
<polygon fill="#999999" stroke="#666666" points="66,-76 29,-76 29,-56 66,-56 66,-76"/>
<text xml:space="preserve" text-anchor="middle" x="47.5" y="-62.5" font-family="Helvetica,sans-Serif" font-size="10.00">i2c.h</text>
</a>
</g>
</g>
<!-- Node2 -->
<g id="Node000002" class="node">
<title>Node2</title>
<g id="a_Node000002"><a xlink:href="i2c_8c.html" target="_top" xlink:title="This file provides code for the configuration of the I2C instances.">
<polygon fill="white" stroke="#666666" points="37,-20 0,-20 0,0 37,0 37,-20"/>
<text xml:space="preserve" text-anchor="middle" x="18.5" y="-6.5" font-family="Helvetica,sans-Serif" font-size="10.00">i2c.c</text>
</a>
</g>
</g>
<!-- Node1&#45;&gt;Node2 -->
<g id="edge1_Node000001_Node000002" class="edge">
<title>Node1&#45;&gt;Node2</title>
<g id="a_edge1_Node000001_Node000002"><a xlink:title=" ">
<path fill="none" stroke="#63b8ff" d="M37.07,-45.58C32.45,-36.97 27.22,-27.24 23.49,-20.3"/>
<polygon fill="#63b8ff" stroke="#63b8ff" points="33.92,-47.11 41.73,-54.26 40.08,-43.79 33.92,-47.11"/>
</a>
</g>
</g>
<!-- Node3 -->
<g id="Node000003" class="node">
<title>Node3</title>
<g id="a_Node000003"><a xlink:href="_i_p_o_s___m40___v1__00__101125_2_core_2_src_2main_8c.html" target="_top" xlink:title=": Main program body">
<polygon fill="white" stroke="#666666" points="100.12,-20 54.88,-20 54.88,0 100.12,0 100.12,-20"/>
<text xml:space="preserve" text-anchor="middle" x="77.5" y="-6.5" font-family="Helvetica,sans-Serif" font-size="10.00">main.c</text>
</a>
</g>
</g>
<!-- Node1&#45;&gt;Node3 -->
<g id="edge2_Node000001_Node000003" class="edge">
<title>Node1&#45;&gt;Node3</title>
<g id="a_edge2_Node000001_Node000003"><a xlink:title=" ">
<path fill="none" stroke="#63b8ff" d="M58.29,-45.58C63.07,-36.97 68.48,-27.24 72.33,-20.3"/>
<polygon fill="#63b8ff" stroke="#63b8ff" points="55.26,-43.83 53.46,-54.27 61.38,-47.23 55.26,-43.83"/>
</a>
</g>
</g>
</g>
</svg>
