<?xml version="1.0" encoding="UTF-8" standalone="no"?>
<!DOCTYPE svg PUBLIC "-//W3C//DTD SVG 1.1//EN"
 "http://www.w3.org/Graphics/SVG/1.1/DTD/svg11.dtd">
<!-- Generated by graphviz version 14.0.2 (20251019.1705)
 -->
<!-- Title: i2c.c Pages: 1 -->
<svg width="222pt" height="196pt"
 viewBox="0.00 0.00 222.00 196.00" xmlns="http://www.w3.org/2000/svg" xmlns:xlink="http://www.w3.org/1999/xlink">
<g id="graph0" class="graph" transform="scale(1 1) rotate(0) translate(4 192)">
<title>i2c.c</title>
<!-- Node1 -->
<g id="Node000001" class="node">
<title>Node1</title>
<g id="a_Node000001"><a xlink:title="This file provides code for the configuration of the I2C instances.">
<polygon fill="#999999" stroke="#666666" points="121.62,-188 84.62,-188 84.62,-168 121.62,-168 121.62,-188"/>
<text xml:space="preserve" text-anchor="middle" x="103.12" y="-174.5" font-family="Helvetica,sans-Serif" font-size="10.00">i2c.c</text>
</a>
</g>
</g>
<!-- Node2 -->
<g id="Node000002" class="node">
<title>Node2</title>
<g id="a_Node000002"><a xlink:href="i2c_8h.html" target="_top" xlink:title="This file contains all the function prototypes for the i2c.c file.">
<polygon fill="white" stroke="#666666" points="121.62,-132 84.62,-132 84.62,-112 121.62,-112 121.62,-132"/>
<text xml:space="preserve" text-anchor="middle" x="103.12" y="-118.5" font-family="Helvetica,sans-Serif" font-size="10.00">i2c.h</text>
</a>
</g>
</g>
<!-- Node1&#45;&gt;Node2 -->
<g id="edge1_Node000001_Node000002" class="edge">
<title>Node1&#45;&gt;Node2</title>
<g id="a_edge1_Node000001_Node000002"><a xlink:title=" ">
<path fill="none" stroke="#63b8ff" d="M103.12,-167.59C103.12,-161.01 103.12,-151.96 103.12,-143.73"/>
<polygon fill="#63b8ff" stroke="#63b8ff" points="106.63,-143.81 103.13,-133.81 99.63,-143.81 106.63,-143.81"/>
</a>
</g>
</g>
<!-- Node3 -->
<g id="Node000003" class="node">
<title>Node3</title>
<g id="a_Node000003"><a xlink:href="_i_p_o_s___m40___v1__00__101125_2_core_2_inc_2main_8h.html" target="_top" xlink:title=": Header for main.c file. This file contains the common defines of the application.">
<polygon fill="white" stroke="#666666" points="125.75,-76 80.5,-76 80.5,-56 125.75,-56 125.75,-76"/>
<text xml:space="preserve" text-anchor="middle" x="103.12" y="-62.5" font-family="Helvetica,sans-Serif" font-size="10.00">main.h</text>
</a>
</g>
</g>
<!-- Node2&#45;&gt;Node3 -->
<g id="edge2_Node000002_Node000003" class="edge">
<title>Node2&#45;&gt;Node3</title>
<g id="a_edge2_Node000002_Node000003"><a xlink:title=" ">
<path fill="none" stroke="#63b8ff" d="M103.12,-111.59C103.12,-105.01 103.12,-95.96 103.12,-87.73"/>
<polygon fill="#63b8ff" stroke="#63b8ff" points="106.63,-87.81 103.13,-77.81 99.63,-87.81 106.63,-87.81"/>
</a>
</g>
</g>
<!-- Node4 -->
<g id="Node000004" class="node">
<title>Node4</title>
<g id="a_Node000004"><a xlink:title=" ">
<polygon fill="#e0e0e0" stroke="#999999" points="90.25,-20 0,-20 0,0 90.25,0 90.25,-20"/>
<text xml:space="preserve" text-anchor="middle" x="45.12" y="-6.5" font-family="Helvetica,sans-Serif" font-size="10.00">stm32h7xx_hal.h</text>
</a>
</g>
</g>
<!-- Node3&#45;&gt;Node4 -->
<g id="edge3_Node000003_Node000004" class="edge">
<title>Node3&#45;&gt;Node4</title>
<g id="a_edge3_Node000003_Node000004"><a xlink:title=" ">
<path fill="none" stroke="#63b8ff" d="M93.02,-55.59C84.87,-48.01 73.19,-37.13 63.41,-28.02"/>
<polygon fill="#63b8ff" stroke="#63b8ff" points="65.92,-25.58 56.22,-21.33 61.15,-30.71 65.92,-25.58"/>
</a>
</g>
</g>
<!-- Node5 -->
<g id="Node000005" class="node">
<title>Node5</title>
<g id="a_Node000005"><a xlink:title=" ">
<polygon fill="#e0e0e0" stroke="#999999" points="214.12,-20 108.12,-20 108.12,0 214.12,0 214.12,-20"/>
<text xml:space="preserve" text-anchor="middle" x="161.12" y="-6.5" font-family="Helvetica,sans-Serif" font-size="10.00">stm32h7xx_nucleo.h</text>
</a>
</g>
</g>
<!-- Node3&#45;&gt;Node5 -->
<g id="edge4_Node000003_Node000005" class="edge">
<title>Node3&#45;&gt;Node5</title>
<g id="a_edge4_Node000003_Node000005"><a xlink:title=" ">
<path fill="none" stroke="#63b8ff" d="M113.23,-55.59C121.38,-48.01 133.06,-37.13 142.84,-28.02"/>
<polygon fill="#63b8ff" stroke="#63b8ff" points="145.1,-30.71 150.03,-21.33 140.33,-25.58 145.1,-30.71"/>
</a>
</g>
</g>
</g>
</svg>
