<?xml version="1.0" encoding="UTF-8" standalone="no"?>
<!DOCTYPE svg PUBLIC "-//W3C//DTD SVG 1.1//EN"
 "http://www.w3.org/Graphics/SVG/1.1/DTD/svg11.dtd">
<!-- Generated by graphviz version 14.0.2 (20251019.1705)
 -->
<!-- Title: implemented_callback_functions.c Pages: 1 -->
<svg width="426pt" height="164pt"
 viewBox="0.00 0.00 426.00 164.00" xmlns="http://www.w3.org/2000/svg" xmlns:xlink="http://www.w3.org/1999/xlink">
<g id="graph0" class="graph" transform="scale(1 1) rotate(0) translate(4 160)">
<title>implemented_callback_functions.c</title>
<!-- Node1 -->
<g id="Node000001" class="node">
<title>Node1</title>
<g id="a_Node000001"><a xlink:title=" ">
<polygon fill="#999999" stroke="#666666" points="301.5,-156 188.75,-156 188.75,-124 301.5,-124 301.5,-156"/>
<text xml:space="preserve" text-anchor="start" x="196.75" y="-142.5" font-family="Helvetica,sans-Serif" font-size="10.00">implemented_callback</text>
<text xml:space="preserve" text-anchor="middle" x="245.12" y="-130.5" font-family="Helvetica,sans-Serif" font-size="10.00">_functions.c</text>
</a>
</g>
</g>
<!-- Node2 -->
<g id="Node000002" class="node">
<title>Node2</title>
<g id="a_Node000002"><a xlink:href="abcc__types_8h.html" target="_top" xlink:title=" ">
<polygon fill="white" stroke="#666666" points="97.38,-82 22.88,-82 22.88,-62 97.38,-62 97.38,-82"/>
<text xml:space="preserve" text-anchor="middle" x="60.12" y="-68.5" font-family="Helvetica,sans-Serif" font-size="10.00">abcc_types.h</text>
</a>
</g>
</g>
<!-- Node1&#45;&gt;Node2 -->
<g id="edge1_Node000001_Node000002" class="edge">
<title>Node1&#45;&gt;Node2</title>
<g id="a_edge1_Node000001_Node000002"><a xlink:title=" ">
<path fill="none" stroke="#63b8ff" d="M201.75,-123.53C169.98,-112.19 127.32,-96.97 97.15,-86.21"/>
<polygon fill="#63b8ff" stroke="#63b8ff" points="98.66,-83.03 88.07,-82.97 96.31,-89.63 98.66,-83.03"/>
</a>
</g>
</g>
<!-- Node5 -->
<g id="Node000005" class="node">
<title>Node5</title>
<g id="a_Node000005"><a xlink:title=" ">
<polygon fill="#e0e0e0" stroke="#999999" points="255,-88 115.25,-88 115.25,-56 255,-56 255,-88"/>
<text xml:space="preserve" text-anchor="start" x="123.25" y="-74.5" font-family="Helvetica,sans-Serif" font-size="10.00">abcc_api_command_handler</text>
<text xml:space="preserve" text-anchor="middle" x="185.12" y="-62.5" font-family="Helvetica,sans-Serif" font-size="10.00">_lookup.h</text>
</a>
</g>
</g>
<!-- Node1&#45;&gt;Node5 -->
<g id="edge4_Node000001_Node000005" class="edge">
<title>Node1&#45;&gt;Node5</title>
<g id="a_edge4_Node000001_Node000005"><a xlink:title=" ">
<path fill="none" stroke="#63b8ff" d="M231.21,-123.69C223.86,-115.61 214.69,-105.52 206.47,-96.48"/>
<polygon fill="#63b8ff" stroke="#63b8ff" points="209.3,-94.39 199.98,-89.34 204.12,-99.1 209.3,-94.39"/>
</a>
</g>
</g>
<!-- Node6 -->
<g id="Node000006" class="node">
<title>Node6</title>
<g id="a_Node000006"><a xlink:title=" ">
<polygon fill="#e0e0e0" stroke="#999999" points="336.75,-82 273.5,-82 273.5,-62 336.75,-62 336.75,-82"/>
<text xml:space="preserve" text-anchor="middle" x="305.12" y="-68.5" font-family="Helvetica,sans-Serif" font-size="10.00">abcc_log.h</text>
</a>
</g>
</g>
<!-- Node1&#45;&gt;Node6 -->
<g id="edge5_Node000001_Node000006" class="edge">
<title>Node1&#45;&gt;Node6</title>
<g id="a_edge5_Node000001_Node000006"><a xlink:title=" ">
<path fill="none" stroke="#63b8ff" d="M259.04,-123.69C268.04,-113.8 279.77,-100.89 289.15,-90.57"/>
<polygon fill="#63b8ff" stroke="#63b8ff" points="291.5,-93.19 295.64,-83.44 286.32,-88.48 291.5,-93.19"/>
</a>
</g>
</g>
<!-- Node7 -->
<g id="Node000007" class="node">
<title>Node7</title>
<g id="a_Node000007"><a xlink:title=" ">
<polygon fill="#e0e0e0" stroke="#999999" points="417.75,-82 354.5,-82 354.5,-62 417.75,-62 417.75,-82"/>
<text xml:space="preserve" text-anchor="middle" x="386.12" y="-68.5" font-family="Helvetica,sans-Serif" font-size="10.00">abcc_api.h</text>
</a>
</g>
</g>
<!-- Node1&#45;&gt;Node7 -->
<g id="edge6_Node000001_Node000007" class="edge">
<title>Node1&#45;&gt;Node7</title>
<g id="a_edge6_Node000001_Node000007"><a xlink:title=" ">
<path fill="none" stroke="#63b8ff" d="M278.18,-123.53C301.65,-112.54 332.92,-97.9 355.76,-87.21"/>
<polygon fill="#63b8ff" stroke="#63b8ff" points="356.97,-90.51 364.54,-83.1 354,-84.17 356.97,-90.51"/>
</a>
</g>
</g>
<!-- Node3 -->
<g id="Node000003" class="node">
<title>Node3</title>
<g id="a_Node000003"><a xlink:title=" ">
<polygon fill="#e0e0e0" stroke="#999999" points="48.25,-20 0,-20 0,0 48.25,0 48.25,-20"/>
<text xml:space="preserve" text-anchor="middle" x="24.12" y="-6.5" font-family="Helvetica,sans-Serif" font-size="10.00">stdint.h</text>
</a>
</g>
</g>
<!-- Node2&#45;&gt;Node3 -->
<g id="edge2_Node000002_Node000003" class="edge">
<title>Node2&#45;&gt;Node3</title>
<g id="a_edge2_Node000002_Node000003"><a xlink:title=" ">
<path fill="none" stroke="#63b8ff" d="M54.5,-61.62C49.4,-53.12 41.72,-40.33 35.37,-29.74"/>
<polygon fill="#63b8ff" stroke="#63b8ff" points="38.52,-28.18 30.37,-21.41 32.52,-31.79 38.52,-28.18"/>
</a>
</g>
</g>
<!-- Node4 -->
<g id="Node000004" class="node">
<title>Node4</title>
<g id="a_Node000004"><a xlink:title=" ">
<polygon fill="#e0e0e0" stroke="#999999" points="125.5,-20 66.75,-20 66.75,0 125.5,0 125.5,-20"/>
<text xml:space="preserve" text-anchor="middle" x="96.12" y="-6.5" font-family="Helvetica,sans-Serif" font-size="10.00">inttypes.h</text>
</a>
</g>
</g>
<!-- Node2&#45;&gt;Node4 -->
<g id="edge3_Node000002_Node000004" class="edge">
<title>Node2&#45;&gt;Node4</title>
<g id="a_edge3_Node000002_Node000004"><a xlink:title=" ">
<path fill="none" stroke="#63b8ff" d="M65.75,-61.62C70.85,-53.12 78.53,-40.33 84.88,-29.74"/>
<polygon fill="#63b8ff" stroke="#63b8ff" points="87.73,-31.79 89.88,-21.41 81.73,-28.18 87.73,-31.79"/>
</a>
</g>
</g>
</g>
</svg>
