<?xml version="1.0" encoding="UTF-8" standalone="no"?>
<!DOCTYPE svg PUBLIC "-//W3C//DTD SVG 1.1//EN"
 "http://www.w3.org/Graphics/SVG/1.1/DTD/svg11.dtd">
<!-- Generated by graphviz version 14.0.2 (20251019.1705)
 -->
<!-- Title: inputs.c Pages: 1 -->
<svg width="715pt" height="308pt"
 viewBox="0.00 0.00 715.00 308.00" xmlns="http://www.w3.org/2000/svg" xmlns:xlink="http://www.w3.org/1999/xlink">
<g id="graph0" class="graph" transform="scale(1 1) rotate(0) translate(4 304)">
<title>inputs.c</title>
<!-- Node1 -->
<g id="Node000001" class="node">
<title>Node1</title>
<g id="a_Node000001"><a xlink:title=" ">
<polygon fill="#999999" stroke="#666666" points="370.38,-300 319.88,-300 319.88,-280 370.38,-280 370.38,-300"/>
<text xml:space="preserve" text-anchor="middle" x="345.12" y="-286.5" font-family="Helvetica,sans-Serif" font-size="10.00">inputs.c</text>
</a>
</g>
</g>
<!-- Node2 -->
<g id="Node000002" class="node">
<title>Node2</title>
<g id="a_Node000002"><a xlink:href="inputs_8h.html" target="_top" xlink:title="Input handling, safety interlock logic, and laser control API.">
<polygon fill="white" stroke="#666666" points="169.38,-188 118.88,-188 118.88,-168 169.38,-168 169.38,-188"/>
<text xml:space="preserve" text-anchor="middle" x="144.12" y="-174.5" font-family="Helvetica,sans-Serif" font-size="10.00">inputs.h</text>
</a>
</g>
</g>
<!-- Node1&#45;&gt;Node2 -->
<g id="edge1_Node000001_Node000002" class="edge">
<title>Node1&#45;&gt;Node2</title>
<g id="a_edge1_Node000001_Node000002"><a xlink:title=" ">
<path fill="none" stroke="#63b8ff" d="M319.62,-286.92C286.71,-283.12 228.96,-272.62 189.12,-244 172.96,-232.38 160.67,-213.07 153.05,-198.5"/>
<polygon fill="#63b8ff" stroke="#63b8ff" points="156.36,-197.3 148.81,-189.86 150.07,-200.38 156.36,-197.3"/>
</a>
</g>
</g>
<!-- Node4 -->
<g id="Node000004" class="node">
<title>Node4</title>
<g id="a_Node000004"><a xlink:title=" ">
<polygon fill="#e0e0e0" stroke="#999999" points="238.88,-132 167.38,-132 167.38,-112 238.88,-112 238.88,-132"/>
<text xml:space="preserve" text-anchor="middle" x="203.12" y="-118.5" font-family="Helvetica,sans-Serif" font-size="10.00">cmsis_os2.h</text>
</a>
</g>
</g>
<!-- Node1&#45;&gt;Node4 -->
<g id="edge11_Node000001_Node000004" class="edge">
<title>Node1&#45;&gt;Node4</title>
<g id="a_edge11_Node000001_Node000004"><a xlink:title=" ">
<path fill="none" stroke="#63b8ff" d="M319.65,-282.45C298.73,-275.88 269.64,-263.84 251.12,-244 224.36,-215.32 211.82,-169.9 206.52,-143.63"/>
<polygon fill="#63b8ff" stroke="#63b8ff" points="209.99,-143.12 204.75,-133.91 203.1,-144.38 209.99,-143.12"/>
</a>
</g>
</g>
<!-- Node7 -->
<g id="Node000007" class="node">
<title>Node7</title>
<g id="a_Node000007"><a xlink:href="max31855_8h.html" target="_top" xlink:title=" ">
<polygon fill="white" stroke="#666666" points="72.75,-132 3.5,-132 3.5,-112 72.75,-112 72.75,-132"/>
<text xml:space="preserve" text-anchor="middle" x="38.12" y="-118.5" font-family="Helvetica,sans-Serif" font-size="10.00">max31855.h</text>
</a>
</g>
</g>
<!-- Node1&#45;&gt;Node7 -->
<g id="edge15_Node000001_Node000007" class="edge">
<title>Node1&#45;&gt;Node7</title>
<g id="a_edge15_Node000001_Node000007"><a xlink:title=" ">
<path fill="none" stroke="#63b8ff" d="M319.47,-286.75C283.14,-282.66 215.5,-271.72 165.12,-244 116.86,-217.44 73.4,-168 52.04,-141.28"/>
<polygon fill="#63b8ff" stroke="#63b8ff" points="54.83,-139.16 45.91,-133.43 49.31,-143.47 54.83,-139.16"/>
</a>
</g>
</g>
<!-- Node9 -->
<g id="Node000009" class="node">
<title>Node9</title>
<g id="a_Node000009"><a xlink:title=" ">
<polygon fill="#e0e0e0" stroke="#999999" points="406.75,-244 361.5,-244 361.5,-224 406.75,-224 406.75,-244"/>
<text xml:space="preserve" text-anchor="middle" x="384.12" y="-230.5" font-family="Helvetica,sans-Serif" font-size="10.00">main.h</text>
</a>
</g>
</g>
<!-- Node1&#45;&gt;Node9 -->
<g id="edge10_Node000001_Node000009" class="edge">
<title>Node1&#45;&gt;Node9</title>
<g id="a_edge10_Node000001_Node000009"><a xlink:title=" ">
<path fill="none" stroke="#63b8ff" d="M351.92,-279.59C357.12,-272.39 364.46,-262.23 370.81,-253.43"/>
<polygon fill="#63b8ff" stroke="#63b8ff" points="373.51,-255.68 376.52,-245.53 367.83,-251.58 373.51,-255.68"/>
</a>
</g>
</g>
<!-- Node10 -->
<g id="Node000010" class="node">
<title>Node10</title>
<g id="a_Node000010"><a xlink:title=" ">
<polygon fill="#e0e0e0" stroke="#999999" points="483.5,-244 424.75,-244 424.75,-224 483.5,-224 483.5,-244"/>
<text xml:space="preserve" text-anchor="middle" x="454.12" y="-230.5" font-family="Helvetica,sans-Serif" font-size="10.00">protocol.h</text>
</a>
</g>
</g>
<!-- Node1&#45;&gt;Node10 -->
<g id="edge12_Node000001_Node000010" class="edge">
<title>Node1&#45;&gt;Node10</title>
<g id="a_edge12_Node000001_Node000010"><a xlink:title=" ">
<path fill="none" stroke="#63b8ff" d="M364.11,-279.59C380.89,-271.28 405.62,-259.03 424.91,-249.47"/>
<polygon fill="#63b8ff" stroke="#63b8ff" points="426.23,-252.73 433.63,-245.15 423.12,-246.45 426.23,-252.73"/>
</a>
</g>
</g>
<!-- Node11 -->
<g id="Node000011" class="node">
<title>Node11</title>
<g id="a_Node000011"><a xlink:title=" ">
<polygon fill="#e0e0e0" stroke="#999999" points="546.75,-244 501.5,-244 501.5,-224 546.75,-224 546.75,-244"/>
<text xml:space="preserve" text-anchor="middle" x="524.12" y="-230.5" font-family="Helvetica,sans-Serif" font-size="10.00">stdio.h</text>
</a>
</g>
</g>
<!-- Node1&#45;&gt;Node11 -->
<g id="edge13_Node000001_Node000011" class="edge">
<title>Node1&#45;&gt;Node11</title>
<g id="a_edge13_Node000001_Node000011"><a xlink:title=" ">
<path fill="none" stroke="#63b8ff" d="M370.77,-281.26C402.26,-271.76 455.76,-255.63 490.51,-245.14"/>
<polygon fill="#63b8ff" stroke="#63b8ff" points="491.07,-248.63 499.63,-242.39 489.05,-241.93 491.07,-248.63"/>
</a>
</g>
</g>
<!-- Node12 -->
<g id="Node000012" class="node">
<title>Node12</title>
<g id="a_Node000012"><a xlink:title=" ">
<polygon fill="#e0e0e0" stroke="#999999" points="613.25,-244 565,-244 565,-224 613.25,-224 613.25,-244"/>
<text xml:space="preserve" text-anchor="middle" x="589.12" y="-230.5" font-family="Helvetica,sans-Serif" font-size="10.00">string.h</text>
</a>
</g>
</g>
<!-- Node1&#45;&gt;Node12 -->
<g id="edge14_Node000001_Node000012" class="edge">
<title>Node1&#45;&gt;Node12</title>
<g id="a_edge14_Node000001_Node000012"><a xlink:title=" ">
<path fill="none" stroke="#63b8ff" d="M370.56,-284.05C408.37,-276.6 481.88,-261.72 553.63,-244.51"/>
<polygon fill="#63b8ff" stroke="#63b8ff" points="554.29,-247.95 563.19,-242.19 552.64,-241.14 554.29,-247.95"/>
</a>
</g>
</g>
<!-- Node13 -->
<g id="Node000013" class="node">
<title>Node13</title>
<g id="a_Node000013"><a xlink:href="log__flash_8h.html" target="_top" xlink:title="Public API for flash&#45;based logging of system events and errors.">
<polygon fill="white" stroke="#666666" points="302.75,-188 239.5,-188 239.5,-168 302.75,-168 302.75,-188"/>
<text xml:space="preserve" text-anchor="middle" x="271.12" y="-174.5" font-family="Helvetica,sans-Serif" font-size="10.00">log_flash.h</text>
</a>
</g>
</g>
<!-- Node1&#45;&gt;Node13 -->
<g id="edge16_Node000001_Node000013" class="edge">
<title>Node1&#45;&gt;Node13</title>
<g id="a_edge16_Node000001_Node000013"><a xlink:title=" ">
<path fill="none" stroke="#63b8ff" d="M319.72,-283.16C299.65,-277.06 272.96,-265.31 260.12,-244 251.82,-230.21 255.96,-211.96 261.38,-198.31"/>
<polygon fill="#63b8ff" stroke="#63b8ff" points="264.43,-200.05 265.36,-189.5 258.05,-197.17 264.43,-200.05"/>
</a>
</g>
</g>
<!-- Node15 -->
<g id="Node000015" class="node">
<title>Node15</title>
<g id="a_Node000015"><a xlink:href="error__codes_8h.html" target="_top" xlink:title=" ">
<polygon fill="white" stroke="#666666" points="706.75,-244 631.5,-244 631.5,-224 706.75,-224 706.75,-244"/>
<text xml:space="preserve" text-anchor="middle" x="669.12" y="-230.5" font-family="Helvetica,sans-Serif" font-size="10.00">error_codes.h</text>
</a>
</g>
</g>
<!-- Node1&#45;&gt;Node15 -->
<g id="edge21_Node000001_Node000015" class="edge">
<title>Node1&#45;&gt;Node15</title>
<g id="a_edge21_Node000001_Node000015"><a xlink:title=" ">
<path fill="none" stroke="#63b8ff" d="M370.75,-285.08C417.87,-277.83 521.69,-261.6 619.86,-244.36"/>
<polygon fill="#63b8ff" stroke="#63b8ff" points="620.45,-247.81 629.69,-242.62 619.23,-240.92 620.45,-247.81"/>
</a>
</g>
</g>
<!-- Node16 -->
<g id="Node000016" class="node">
<title>Node16</title>
<g id="a_Node000016"><a xlink:href="safety__utils_8h.html" target="_top" xlink:title=" ">
<polygon fill="white" stroke="#666666" points="343.38,-244 268.88,-244 268.88,-224 343.38,-224 343.38,-244"/>
<text xml:space="preserve" text-anchor="middle" x="306.12" y="-230.5" font-family="Helvetica,sans-Serif" font-size="10.00">safety_utils.h</text>
</a>
</g>
</g>
<!-- Node1&#45;&gt;Node16 -->
<g id="edge22_Node000001_Node000016" class="edge">
<title>Node1&#45;&gt;Node16</title>
<g id="a_edge22_Node000001_Node000016"><a xlink:title=" ">
<path fill="none" stroke="#63b8ff" d="M338.33,-279.59C333.13,-272.39 325.79,-262.23 319.44,-253.43"/>
<polygon fill="#63b8ff" stroke="#63b8ff" points="322.42,-251.58 313.73,-245.53 316.74,-255.68 322.42,-251.58"/>
</a>
</g>
</g>
<!-- Node3 -->
<g id="Node000003" class="node">
<title>Node3</title>
<g id="a_Node000003"><a xlink:title=" ">
<polygon fill="#e0e0e0" stroke="#999999" points="297.25,-76 249,-76 249,-56 297.25,-56 297.25,-76"/>
<text xml:space="preserve" text-anchor="middle" x="273.12" y="-62.5" font-family="Helvetica,sans-Serif" font-size="10.00">stdint.h</text>
</a>
</g>
</g>
<!-- Node2&#45;&gt;Node3 -->
<g id="edge2_Node000002_Node000003" class="edge">
<title>Node2&#45;&gt;Node3</title>
<g id="a_edge2_Node000002_Node000003"><a xlink:title=" ">
<path fill="none" stroke="#63b8ff" d="M143.55,-167.86C143.18,-154.1 144.51,-128 158.12,-112 178,-88.64 211.59,-77.33 237.35,-71.9"/>
<polygon fill="#63b8ff" stroke="#63b8ff" points="237.88,-75.37 247.06,-70.08 236.59,-68.49 237.88,-75.37"/>
</a>
</g>
</g>
<!-- Node2&#45;&gt;Node4 -->
<g id="edge3_Node000002_Node000004" class="edge">
<title>Node2&#45;&gt;Node4</title>
<g id="a_edge3_Node000002_Node000004"><a xlink:title=" ">
<path fill="none" stroke="#63b8ff" d="M154.4,-167.59C162.69,-160.01 174.57,-149.13 184.53,-140.02"/>
<polygon fill="#63b8ff" stroke="#63b8ff" points="186.84,-142.65 191.85,-133.32 182.11,-137.49 186.84,-142.65"/>
</a>
</g>
</g>
<!-- Node5 -->
<g id="Node000005" class="node">
<title>Node5</title>
<g id="a_Node000005"><a xlink:href="_i_p_o_s__071125_2_core_2_inc_2main_8h.html" target="_top" xlink:title=": Header for main.c file. This file contains the common defines of the application.">
<polygon fill="white" stroke="#666666" points="129.75,-76 84.5,-76 84.5,-56 129.75,-56 129.75,-76"/>
<text xml:space="preserve" text-anchor="middle" x="107.12" y="-62.5" font-family="Helvetica,sans-Serif" font-size="10.00">main.h</text>
</a>
</g>
</g>
<!-- Node2&#45;&gt;Node5 -->
<g id="edge4_Node000002_Node000005" class="edge">
<title>Node2&#45;&gt;Node5</title>
<g id="a_edge4_Node000002_Node000005"><a xlink:title=" ">
<path fill="none" stroke="#63b8ff" d="M139.84,-167.83C135.73,-158.83 129.53,-144.65 125.12,-132 119.99,-117.25 115.32,-100.23 112.03,-87.3"/>
<polygon fill="#63b8ff" stroke="#63b8ff" points="115.48,-86.71 109.68,-77.84 108.69,-88.39 115.48,-86.71"/>
</a>
</g>
</g>
<!-- Node2&#45;&gt;Node7 -->
<g id="edge6_Node000002_Node000007" class="edge">
<title>Node2&#45;&gt;Node7</title>
<g id="a_edge6_Node000002_Node000007"><a xlink:title=" ">
<path fill="none" stroke="#63b8ff" d="M125.66,-167.59C109.42,-159.32 85.52,-147.14 66.79,-137.6"/>
<polygon fill="#63b8ff" stroke="#63b8ff" points="68.58,-134.59 58.08,-133.17 65.4,-140.82 68.58,-134.59"/>
</a>
</g>
</g>
<!-- Node6 -->
<g id="Node000006" class="node">
<title>Node6</title>
<g id="a_Node000006"><a xlink:title=" ">
<polygon fill="#e0e0e0" stroke="#999999" points="151.12,-20 63.12,-20 63.12,0 151.12,0 151.12,-20"/>
<text xml:space="preserve" text-anchor="middle" x="107.12" y="-6.5" font-family="Helvetica,sans-Serif" font-size="10.00">stm32f4xx_hal.h</text>
</a>
</g>
</g>
<!-- Node5&#45;&gt;Node6 -->
<g id="edge5_Node000005_Node000006" class="edge">
<title>Node5&#45;&gt;Node6</title>
<g id="a_edge5_Node000005_Node000006"><a xlink:title=" ">
<path fill="none" stroke="#63b8ff" d="M107.12,-55.59C107.12,-49.01 107.12,-39.96 107.12,-31.73"/>
<polygon fill="#63b8ff" stroke="#63b8ff" points="110.63,-31.81 107.13,-21.81 103.63,-31.81 110.63,-31.81"/>
</a>
</g>
</g>
<!-- Node7&#45;&gt;Node3 -->
<g id="edge9_Node000007_Node000003" class="edge">
<title>Node7&#45;&gt;Node3</title>
<g id="a_edge9_Node000007_Node000003"><a xlink:title=" ">
<path fill="none" stroke="#63b8ff" d="M73.05,-112.97C117.3,-102.81 193.14,-85.38 237.65,-75.15"/>
<polygon fill="#63b8ff" stroke="#63b8ff" points="238.35,-78.58 247.31,-72.93 236.78,-71.76 238.35,-78.58"/>
</a>
</g>
</g>
<!-- Node7&#45;&gt;Node5 -->
<g id="edge7_Node000007_Node000005" class="edge">
<title>Node7&#45;&gt;Node5</title>
<g id="a_edge7_Node000007_Node000005"><a xlink:title=" ">
<path fill="none" stroke="#63b8ff" d="M50.14,-111.59C60.14,-103.77 74.59,-92.46 86.43,-83.19"/>
<polygon fill="#63b8ff" stroke="#63b8ff" points="88.33,-86.15 94.05,-77.23 84.02,-80.64 88.33,-86.15"/>
</a>
</g>
</g>
<!-- Node8 -->
<g id="Node000008" class="node">
<title>Node8</title>
<g id="a_Node000008"><a xlink:title=" ">
<polygon fill="#e0e0e0" stroke="#999999" points="66.25,-76 0,-76 0,-56 66.25,-56 66.25,-76"/>
<text xml:space="preserve" text-anchor="middle" x="33.12" y="-62.5" font-family="Helvetica,sans-Serif" font-size="10.00">cmsis_os.h</text>
</a>
</g>
</g>
<!-- Node7&#45;&gt;Node8 -->
<g id="edge8_Node000007_Node000008" class="edge">
<title>Node7&#45;&gt;Node8</title>
<g id="a_edge8_Node000007_Node000008"><a xlink:title=" ">
<path fill="none" stroke="#63b8ff" d="M37.25,-111.59C36.64,-105.01 35.81,-95.96 35.04,-87.73"/>
<polygon fill="#63b8ff" stroke="#63b8ff" points="38.53,-87.44 34.13,-77.81 31.56,-88.09 38.53,-87.44"/>
</a>
</g>
</g>
<!-- Node13&#45;&gt;Node3 -->
<g id="edge17_Node000013_Node000003" class="edge">
<title>Node13&#45;&gt;Node3</title>
<g id="a_edge17_Node000013_Node000003"><a xlink:title=" ">
<path fill="none" stroke="#63b8ff" d="M303.01,-167.6C320.22,-160.72 339.97,-149.47 350.12,-132 363.41,-109.14 334.16,-90.61 307.97,-79.27"/>
<polygon fill="#63b8ff" stroke="#63b8ff" points="309.42,-76.08 298.84,-75.57 306.79,-82.57 309.42,-76.08"/>
</a>
</g>
</g>
<!-- Node13&#45;&gt;Node4 -->
<g id="edge20_Node000013_Node000004" class="edge">
<title>Node13&#45;&gt;Node4</title>
<g id="a_edge20_Node000013_Node000004"><a xlink:title=" ">
<path fill="none" stroke="#63b8ff" d="M259.28,-167.59C249.43,-159.77 235.19,-148.46 223.52,-139.19"/>
<polygon fill="#63b8ff" stroke="#63b8ff" points="226.03,-136.72 216.02,-133.24 221.67,-142.2 226.03,-136.72"/>
</a>
</g>
</g>
<!-- Node13&#45;&gt;Node5 -->
<g id="edge19_Node000013_Node000005" class="edge">
<title>Node13&#45;&gt;Node5</title>
<g id="a_edge19_Node000013_Node000005"><a xlink:title=" ">
<path fill="none" stroke="#63b8ff" d="M285.96,-167.69C304.63,-154.82 332.51,-131.03 317.12,-112 295.39,-85.11 194.92,-73.56 141.21,-69.24"/>
<polygon fill="#63b8ff" stroke="#63b8ff" points="141.63,-65.76 131.39,-68.5 141.1,-72.74 141.63,-65.76"/>
</a>
</g>
</g>
<!-- Node14 -->
<g id="Node000014" class="node">
<title>Node14</title>
<g id="a_Node000014"><a xlink:title=" ">
<polygon fill="#e0e0e0" stroke="#999999" points="307.75,-132 256.5,-132 256.5,-112 307.75,-112 307.75,-132"/>
<text xml:space="preserve" text-anchor="middle" x="282.12" y="-118.5" font-family="Helvetica,sans-Serif" font-size="10.00">stddef.h</text>
</a>
</g>
</g>
<!-- Node13&#45;&gt;Node14 -->
<g id="edge18_Node000013_Node000014" class="edge">
<title>Node13&#45;&gt;Node14</title>
<g id="a_edge18_Node000013_Node000014"><a xlink:title=" ">
<path fill="none" stroke="#63b8ff" d="M273.04,-167.59C274.4,-160.93 276.27,-151.75 277.96,-143.44"/>
<polygon fill="#63b8ff" stroke="#63b8ff" points="281.36,-144.28 279.93,-133.78 274.5,-142.88 281.36,-144.28"/>
</a>
</g>
</g>
<!-- Node16&#45;&gt;Node2 -->
<g id="edge25_Node000016_Node000002" class="edge">
<title>Node16&#45;&gt;Node2</title>
<g id="a_edge25_Node000016_Node000002"><a xlink:title=" ">
<path fill="none" stroke="#63b8ff" d="M277.91,-223.59C250.82,-214.56 209.78,-200.88 180.3,-191.06"/>
<polygon fill="#63b8ff" stroke="#63b8ff" points="181.65,-187.82 171.06,-187.98 179.44,-194.46 181.65,-187.82"/>
</a>
</g>
</g>
<!-- Node16&#45;&gt;Node3 -->
<g id="edge23_Node000016_Node000003" class="edge">
<title>Node16&#45;&gt;Node3</title>
<g id="a_edge23_Node000016_Node000003"><a xlink:title=" ">
<path fill="none" stroke="#63b8ff" d="M338.81,-223.54C356.14,-216.68 375.91,-205.47 386.12,-188 390.61,-180.33 387.64,-176.76 386.12,-168 381.61,-141.96 383.78,-131.67 366.12,-112 350.9,-95.04 327.88,-83.83 308.55,-76.84"/>
<polygon fill="#63b8ff" stroke="#63b8ff" points="309.71,-73.54 299.12,-73.68 307.49,-80.18 309.71,-73.54"/>
</a>
</g>
</g>
<!-- Node17 -->
<g id="Node000017" class="node">
<title>Node17</title>
<g id="a_Node000017"><a xlink:title=" ">
<polygon fill="#e0e0e0" stroke="#999999" points="377,-188 321.25,-188 321.25,-168 377,-168 377,-188"/>
<text xml:space="preserve" text-anchor="middle" x="349.12" y="-174.5" font-family="Helvetica,sans-Serif" font-size="10.00">stdbool.h</text>
</a>
</g>
</g>
<!-- Node16&#45;&gt;Node17 -->
<g id="edge24_Node000016_Node000017" class="edge">
<title>Node16&#45;&gt;Node17</title>
<g id="a_edge24_Node000016_Node000017"><a xlink:title=" ">
<path fill="none" stroke="#63b8ff" d="M313.62,-223.59C319.41,-216.32 327.61,-206.02 334.67,-197.15"/>
<polygon fill="#63b8ff" stroke="#63b8ff" points="337.29,-199.49 340.78,-189.48 331.81,-195.12 337.29,-199.49"/>
</a>
</g>
</g>
</g>
</svg>
