<?xml version="1.0" encoding="UTF-8" standalone="no"?>
<!DOCTYPE svg PUBLIC "-//W3C//DTD SVG 1.1//EN"
 "http://www.w3.org/Graphics/SVG/1.1/DTD/svg11.dtd">
<!-- Generated by graphviz version 14.0.2 (20251019.1705)
 -->
<!-- Title: inputs.h Pages: 1 -->
<svg width="543pt" height="140pt"
 viewBox="0.00 0.00 543.00 140.00" xmlns="http://www.w3.org/2000/svg" xmlns:xlink="http://www.w3.org/1999/xlink">
<g id="graph0" class="graph" transform="scale(1 1) rotate(0) translate(4 136)">
<title>inputs.h</title>
<!-- Node1 -->
<g id="Node000001" class="node">
<title>Node1</title>
<g id="a_Node000001"><a xlink:title="Input handling, safety interlock logic, and laser control API.">
<polygon fill="#999999" stroke="#666666" points="246.38,-132 195.88,-132 195.88,-112 246.38,-112 246.38,-132"/>
<text xml:space="preserve" text-anchor="middle" x="221.12" y="-118.5" font-family="Helvetica,sans-Serif" font-size="10.00">inputs.h</text>
</a>
</g>
</g>
<!-- Node2 -->
<g id="Node000002" class="node">
<title>Node2</title>
<g id="a_Node000002"><a xlink:href="app__main_8c.html" target="_top" xlink:title=" ">
<polygon fill="white" stroke="#666666" points="66.25,-76 0,-76 0,-56 66.25,-56 66.25,-76"/>
<text xml:space="preserve" text-anchor="middle" x="33.12" y="-62.5" font-family="Helvetica,sans-Serif" font-size="10.00">app_main.c</text>
</a>
</g>
</g>
<!-- Node1&#45;&gt;Node2 -->
<g id="edge1_Node000001_Node000002" class="edge">
<title>Node1&#45;&gt;Node2</title>
<g id="a_edge1_Node000001_Node000002"><a xlink:title=" ">
<path fill="none" stroke="#63b8ff" d="M184.41,-110.46C150.07,-100.59 99.24,-85.99 66.14,-76.48"/>
<polygon fill="#63b8ff" stroke="#63b8ff" points="183.35,-113.79 193.92,-113.19 185.28,-107.06 183.35,-113.79"/>
</a>
</g>
</g>
<!-- Node3 -->
<g id="Node000003" class="node">
<title>Node3</title>
<g id="a_Node000003"><a xlink:href="freertos_8c.html" target="_top" xlink:title=" ">
<polygon fill="white" stroke="#666666" points="141.75,-76 84.5,-76 84.5,-56 141.75,-56 141.75,-76"/>
<text xml:space="preserve" text-anchor="middle" x="113.12" y="-62.5" font-family="Helvetica,sans-Serif" font-size="10.00">freertos.c</text>
</a>
</g>
</g>
<!-- Node1&#45;&gt;Node3 -->
<g id="edge2_Node000001_Node000003" class="edge">
<title>Node1&#45;&gt;Node3</title>
<g id="a_edge2_Node000001_Node000003"><a xlink:title=" ">
<path fill="none" stroke="#63b8ff" d="M192.09,-106.48C173.04,-96.96 148.68,-84.78 132.08,-76.48"/>
<polygon fill="#63b8ff" stroke="#63b8ff" points="190.45,-109.58 200.96,-110.92 193.58,-103.31 190.45,-109.58"/>
</a>
</g>
</g>
<!-- Node4 -->
<g id="Node000004" class="node">
<title>Node4</title>
<g id="a_Node000004"><a xlink:href="inputs_8c.html" target="_top" xlink:title=" ">
<polygon fill="white" stroke="#666666" points="263.38,-20 212.88,-20 212.88,0 263.38,0 263.38,-20"/>
<text xml:space="preserve" text-anchor="middle" x="238.12" y="-6.5" font-family="Helvetica,sans-Serif" font-size="10.00">inputs.c</text>
</a>
</g>
</g>
<!-- Node1&#45;&gt;Node4 -->
<g id="edge3_Node000001_Node000004" class="edge">
<title>Node1&#45;&gt;Node4</title>
<g id="a_edge3_Node000001_Node000004"><a xlink:title=" ">
<path fill="none" stroke="#63b8ff" d="M203.38,-103.44C192.52,-90.47 181.96,-72.31 189.12,-56 195.91,-40.56 210.89,-28.1 222.52,-20.23"/>
<polygon fill="#63b8ff" stroke="#63b8ff" points="200.74,-105.73 210.07,-110.75 205.9,-101.01 200.74,-105.73"/>
</a>
</g>
</g>
<!-- Node5 -->
<g id="Node000005" class="node">
<title>Node5</title>
<g id="a_Node000005"><a xlink:href="_i_p_o_s__071125_2_core_2_src_2main_8c.html" target="_top" xlink:title=": Main program body">
<polygon fill="white" stroke="#666666" points="243.75,-76 198.5,-76 198.5,-56 243.75,-56 243.75,-76"/>
<text xml:space="preserve" text-anchor="middle" x="221.12" y="-62.5" font-family="Helvetica,sans-Serif" font-size="10.00">main.c</text>
</a>
</g>
</g>
<!-- Node1&#45;&gt;Node5 -->
<g id="edge4_Node000001_Node000005" class="edge">
<title>Node1&#45;&gt;Node5</title>
<g id="a_edge4_Node000001_Node000005"><a xlink:title=" ">
<path fill="none" stroke="#63b8ff" d="M221.12,-100.13C221.12,-91.9 221.12,-82.85 221.12,-76.3"/>
<polygon fill="#63b8ff" stroke="#63b8ff" points="217.63,-100.08 221.13,-110.08 224.63,-100.08 217.63,-100.08"/>
</a>
</g>
</g>
<!-- Node6 -->
<g id="Node000006" class="node">
<title>Node6</title>
<g id="a_Node000006"><a xlink:href="max31855_8c.html" target="_top" xlink:title=" ">
<polygon fill="white" stroke="#666666" points="330.75,-76 261.5,-76 261.5,-56 330.75,-56 330.75,-76"/>
<text xml:space="preserve" text-anchor="middle" x="296.12" y="-62.5" font-family="Helvetica,sans-Serif" font-size="10.00">max31855.c</text>
</a>
</g>
</g>
<!-- Node1&#45;&gt;Node6 -->
<g id="edge5_Node000001_Node000006" class="edge">
<title>Node1&#45;&gt;Node6</title>
<g id="a_edge5_Node000001_Node000006"><a xlink:title=" ">
<path fill="none" stroke="#63b8ff" d="M243.35,-105C256.24,-95.72 272.03,-84.35 282.96,-76.48"/>
<polygon fill="#63b8ff" stroke="#63b8ff" points="241.49,-102.03 235.42,-110.71 245.58,-107.71 241.49,-102.03"/>
</a>
</g>
</g>
<!-- Node7 -->
<g id="Node000007" class="node">
<title>Node7</title>
<g id="a_Node000007"><a xlink:href="safety__utils_8h.html" target="_top" xlink:title=" ">
<polygon fill="white" stroke="#666666" points="423.38,-76 348.88,-76 348.88,-56 423.38,-56 423.38,-76"/>
<text xml:space="preserve" text-anchor="middle" x="386.12" y="-62.5" font-family="Helvetica,sans-Serif" font-size="10.00">safety_utils.h</text>
</a>
</g>
</g>
<!-- Node1&#45;&gt;Node7 -->
<g id="edge6_Node000001_Node000007" class="edge">
<title>Node1&#45;&gt;Node7</title>
<g id="a_edge6_Node000001_Node000007"><a xlink:title=" ">
<path fill="none" stroke="#63b8ff" d="M257.41,-109.12C287.46,-99.29 329.58,-85.5 357.35,-76.42"/>
<polygon fill="#63b8ff" stroke="#63b8ff" points="256.4,-105.77 247.98,-112.21 258.58,-112.43 256.4,-105.77"/>
</a>
</g>
</g>
<!-- Node9 -->
<g id="Node000009" class="node">
<title>Node9</title>
<g id="a_Node000009"><a xlink:href="usb__commands_8c.html" target="_top" xlink:title="USB command interface for IPOS firmware.">
<polygon fill="white" stroke="#666666" points="534.75,-76 441.5,-76 441.5,-56 534.75,-56 534.75,-76"/>
<text xml:space="preserve" text-anchor="middle" x="488.12" y="-62.5" font-family="Helvetica,sans-Serif" font-size="10.00">usb_commands.c</text>
</a>
</g>
</g>
<!-- Node1&#45;&gt;Node9 -->
<g id="edge9_Node000001_Node000009" class="edge">
<title>Node1&#45;&gt;Node9</title>
<g id="a_edge9_Node000001_Node000009"><a xlink:title=" ">
<path fill="none" stroke="#63b8ff" d="M257.76,-113.59C305.47,-103.94 388.93,-87.06 441.22,-76.49"/>
<polygon fill="#63b8ff" stroke="#63b8ff" points="257.32,-110.11 248.21,-115.52 258.7,-116.97 257.32,-110.11"/>
</a>
</g>
</g>
<!-- Node7&#45;&gt;Node4 -->
<g id="edge7_Node000007_Node000004" class="edge">
<title>Node7&#45;&gt;Node4</title>
<g id="a_edge7_Node000007_Node000004"><a xlink:title=" ">
<path fill="none" stroke="#63b8ff" d="M349.86,-51.77C323.11,-42.01 287.39,-28.97 263.61,-20.3"/>
<polygon fill="#63b8ff" stroke="#63b8ff" points="348.33,-54.94 358.92,-55.08 350.73,-48.36 348.33,-54.94"/>
</a>
</g>
</g>
<!-- Node8 -->
<g id="Node000008" class="node">
<title>Node8</title>
<g id="a_Node000008"><a xlink:href="safety__utils_8c.html" target="_top" xlink:title=" ">
<polygon fill="white" stroke="#666666" points="423.38,-20 348.88,-20 348.88,0 423.38,0 423.38,-20"/>
<text xml:space="preserve" text-anchor="middle" x="386.12" y="-6.5" font-family="Helvetica,sans-Serif" font-size="10.00">safety_utils.c</text>
</a>
</g>
</g>
<!-- Node7&#45;&gt;Node8 -->
<g id="edge8_Node000007_Node000008" class="edge">
<title>Node7&#45;&gt;Node8</title>
<g id="a_edge8_Node000007_Node000008"><a xlink:title=" ">
<path fill="none" stroke="#63b8ff" d="M386.12,-44.13C386.12,-35.9 386.12,-26.85 386.12,-20.3"/>
<polygon fill="#63b8ff" stroke="#63b8ff" points="382.63,-44.08 386.13,-54.08 389.63,-44.08 382.63,-44.08"/>
</a>
</g>
</g>
</g>
</svg>
