<?xml version="1.0" encoding="UTF-8" standalone="no"?>
<!DOCTYPE svg PUBLIC "-//W3C//DTD SVG 1.1//EN"
 "http://www.w3.org/Graphics/SVG/1.1/DTD/svg11.dtd">
<!-- Generated by graphviz version 14.0.2 (20251019.1705)
 -->
<!-- Title: inputs.h Pages: 1 -->
<svg width="258pt" height="196pt"
 viewBox="0.00 0.00 258.00 196.00" xmlns="http://www.w3.org/2000/svg" xmlns:xlink="http://www.w3.org/1999/xlink">
<g id="graph0" class="graph" transform="scale(1 1) rotate(0) translate(4 192)">
<title>inputs.h</title>
<!-- Node1 -->
<g id="Node000001" class="node">
<title>Node1</title>
<g id="a_Node000001"><a xlink:title="Input handling, safety interlock logic, and laser control API.">
<polygon fill="#999999" stroke="#666666" points="124.38,-188 73.88,-188 73.88,-168 124.38,-168 124.38,-188"/>
<text xml:space="preserve" text-anchor="middle" x="99.12" y="-174.5" font-family="Helvetica,sans-Serif" font-size="10.00">inputs.h</text>
</a>
</g>
</g>
<!-- Node2 -->
<g id="Node000002" class="node">
<title>Node2</title>
<g id="a_Node000002"><a xlink:title=" ">
<polygon fill="#e0e0e0" stroke="#999999" points="48.25,-76 0,-76 0,-56 48.25,-56 48.25,-76"/>
<text xml:space="preserve" text-anchor="middle" x="24.12" y="-62.5" font-family="Helvetica,sans-Serif" font-size="10.00">stdint.h</text>
</a>
</g>
</g>
<!-- Node1&#45;&gt;Node2 -->
<g id="edge1_Node000001_Node000002" class="edge">
<title>Node1&#45;&gt;Node2</title>
<g id="a_edge1_Node000001_Node000002"><a xlink:title=" ">
<path fill="none" stroke="#63b8ff" d="M73.4,-171.74C52.32,-165.92 23.82,-154.27 10.12,-132 1.62,-118.17 6.68,-99.92 12.98,-86.28"/>
<polygon fill="#63b8ff" stroke="#63b8ff" points="16.06,-87.93 17.58,-77.45 9.85,-84.7 16.06,-87.93"/>
</a>
</g>
</g>
<!-- Node3 -->
<g id="Node000003" class="node">
<title>Node3</title>
<g id="a_Node000003"><a xlink:title=" ">
<polygon fill="#e0e0e0" stroke="#999999" points="90.88,-132 19.38,-132 19.38,-112 90.88,-112 90.88,-132"/>
<text xml:space="preserve" text-anchor="middle" x="55.12" y="-118.5" font-family="Helvetica,sans-Serif" font-size="10.00">cmsis_os2.h</text>
</a>
</g>
</g>
<!-- Node1&#45;&gt;Node3 -->
<g id="edge2_Node000001_Node000003" class="edge">
<title>Node1&#45;&gt;Node3</title>
<g id="a_edge2_Node000001_Node000003"><a xlink:title=" ">
<path fill="none" stroke="#63b8ff" d="M91.46,-167.59C85.53,-160.32 77.14,-150.02 69.91,-141.15"/>
<polygon fill="#63b8ff" stroke="#63b8ff" points="72.69,-139.01 63.66,-133.47 67.26,-143.43 72.69,-139.01"/>
</a>
</g>
</g>
<!-- Node4 -->
<g id="Node000004" class="node">
<title>Node4</title>
<g id="a_Node000004"><a xlink:href="_i_p_o_s__071125_2_core_2_inc_2main_8h.html" target="_top" xlink:title=": Header for main.c file. This file contains the common defines of the application.">
<polygon fill="white" stroke="#666666" points="228.75,-76 183.5,-76 183.5,-56 228.75,-56 228.75,-76"/>
<text xml:space="preserve" text-anchor="middle" x="206.12" y="-62.5" font-family="Helvetica,sans-Serif" font-size="10.00">main.h</text>
</a>
</g>
</g>
<!-- Node1&#45;&gt;Node4 -->
<g id="edge3_Node000001_Node000004" class="edge">
<title>Node1&#45;&gt;Node4</title>
<g id="a_edge3_Node000001_Node000004"><a xlink:title=" ">
<path fill="none" stroke="#63b8ff" d="M124.65,-170.04C144.42,-163.39 171.04,-151.43 187.12,-132 197.45,-119.52 202.17,-101.64 204.32,-87.79"/>
<polygon fill="#63b8ff" stroke="#63b8ff" points="207.78,-88.32 205.48,-77.98 200.83,-87.49 207.78,-88.32"/>
</a>
</g>
</g>
<!-- Node6 -->
<g id="Node000006" class="node">
<title>Node6</title>
<g id="a_Node000006"><a xlink:href="max31855_8h.html" target="_top" xlink:title=" ">
<polygon fill="white" stroke="#666666" points="177.75,-132 108.5,-132 108.5,-112 177.75,-112 177.75,-132"/>
<text xml:space="preserve" text-anchor="middle" x="143.12" y="-118.5" font-family="Helvetica,sans-Serif" font-size="10.00">max31855.h</text>
</a>
</g>
</g>
<!-- Node1&#45;&gt;Node6 -->
<g id="edge5_Node000001_Node000006" class="edge">
<title>Node1&#45;&gt;Node6</title>
<g id="a_edge5_Node000001_Node000006"><a xlink:title=" ">
<path fill="none" stroke="#63b8ff" d="M106.79,-167.59C112.72,-160.32 121.11,-150.02 128.34,-141.15"/>
<polygon fill="#63b8ff" stroke="#63b8ff" points="130.99,-143.43 134.59,-133.47 125.56,-139.01 130.99,-143.43"/>
</a>
</g>
</g>
<!-- Node5 -->
<g id="Node000005" class="node">
<title>Node5</title>
<g id="a_Node000005"><a xlink:title=" ">
<polygon fill="#e0e0e0" stroke="#999999" points="250.12,-20 162.12,-20 162.12,0 250.12,0 250.12,-20"/>
<text xml:space="preserve" text-anchor="middle" x="206.12" y="-6.5" font-family="Helvetica,sans-Serif" font-size="10.00">stm32f4xx_hal.h</text>
</a>
</g>
</g>
<!-- Node4&#45;&gt;Node5 -->
<g id="edge4_Node000004_Node000005" class="edge">
<title>Node4&#45;&gt;Node5</title>
<g id="a_edge4_Node000004_Node000005"><a xlink:title=" ">
<path fill="none" stroke="#63b8ff" d="M206.12,-55.59C206.12,-49.01 206.12,-39.96 206.12,-31.73"/>
<polygon fill="#63b8ff" stroke="#63b8ff" points="209.63,-31.81 206.13,-21.81 202.63,-31.81 209.63,-31.81"/>
</a>
</g>
</g>
<!-- Node6&#45;&gt;Node2 -->
<g id="edge8_Node000006_Node000002" class="edge">
<title>Node6&#45;&gt;Node2</title>
<g id="a_edge8_Node000006_Node000002"><a xlink:title=" ">
<path fill="none" stroke="#63b8ff" d="M122.4,-111.59C103.91,-103.21 76.58,-90.8 55.43,-81.21"/>
<polygon fill="#63b8ff" stroke="#63b8ff" points="56.95,-78.05 46.39,-77.1 54.05,-84.42 56.95,-78.05"/>
</a>
</g>
</g>
<!-- Node6&#45;&gt;Node4 -->
<g id="edge6_Node000006_Node000004" class="edge">
<title>Node6&#45;&gt;Node4</title>
<g id="a_edge6_Node000006_Node000004"><a xlink:title=" ">
<path fill="none" stroke="#63b8ff" d="M154.1,-111.59C163.04,-103.93 175.9,-92.91 186.59,-83.75"/>
<polygon fill="#63b8ff" stroke="#63b8ff" points="188.81,-86.45 194.13,-77.28 184.26,-81.13 188.81,-86.45"/>
</a>
</g>
</g>
<!-- Node7 -->
<g id="Node000007" class="node">
<title>Node7</title>
<g id="a_Node000007"><a xlink:title=" ">
<polygon fill="#e0e0e0" stroke="#999999" points="165.25,-76 99,-76 99,-56 165.25,-56 165.25,-76"/>
<text xml:space="preserve" text-anchor="middle" x="132.12" y="-62.5" font-family="Helvetica,sans-Serif" font-size="10.00">cmsis_os.h</text>
</a>
</g>
</g>
<!-- Node6&#45;&gt;Node7 -->
<g id="edge7_Node000006_Node000007" class="edge">
<title>Node6&#45;&gt;Node7</title>
<g id="a_edge7_Node000006_Node000007"><a xlink:title=" ">
<path fill="none" stroke="#63b8ff" d="M141.21,-111.59C139.85,-104.93 137.98,-95.75 136.29,-87.44"/>
<polygon fill="#63b8ff" stroke="#63b8ff" points="139.75,-86.88 134.32,-77.78 132.89,-88.28 139.75,-86.88"/>
</a>
</g>
</g>
</g>
</svg>
