<?xml version="1.0" encoding="UTF-8" standalone="no"?>
<!DOCTYPE svg PUBLIC "-//W3C//DTD SVG 1.1//EN"
 "http://www.w3.org/Graphics/SVG/1.1/DTD/svg11.dtd">
<!-- Generated by graphviz version 14.0.2 (20251019.1705)
 -->
<!-- Title: log_flash.c Pages: 1 -->
<svg width="295pt" height="196pt"
 viewBox="0.00 0.00 295.00 196.00" xmlns="http://www.w3.org/2000/svg" xmlns:xlink="http://www.w3.org/1999/xlink">
<g id="graph0" class="graph" transform="scale(1 1) rotate(0) translate(4 192)">
<title>log_flash.c</title>
<!-- Node1 -->
<g id="Node000001" class="node">
<title>Node1</title>
<g id="a_Node000001"><a xlink:title="Persistent flash&#45;based event and error logging.">
<polygon fill="#999999" stroke="#666666" points="230.75,-188 167.5,-188 167.5,-168 230.75,-168 230.75,-188"/>
<text xml:space="preserve" text-anchor="middle" x="199.12" y="-174.5" font-family="Helvetica,sans-Serif" font-size="10.00">log_flash.c</text>
</a>
</g>
</g>
<!-- Node2 -->
<g id="Node000002" class="node">
<title>Node2</title>
<g id="a_Node000002"><a xlink:href="log__flash_8h.html" target="_top" xlink:title="Public API for flash&#45;based logging of system events and errors.">
<polygon fill="white" stroke="#666666" points="156.75,-132 93.5,-132 93.5,-112 156.75,-112 156.75,-132"/>
<text xml:space="preserve" text-anchor="middle" x="125.12" y="-118.5" font-family="Helvetica,sans-Serif" font-size="10.00">log_flash.h</text>
</a>
</g>
</g>
<!-- Node1&#45;&gt;Node2 -->
<g id="edge1_Node000001_Node000002" class="edge">
<title>Node1&#45;&gt;Node2</title>
<g id="a_edge1_Node000001_Node000002"><a xlink:title=" ">
<path fill="none" stroke="#63b8ff" d="M186.24,-167.59C175.41,-159.7 159.71,-148.24 146.94,-138.92"/>
<polygon fill="#63b8ff" stroke="#63b8ff" points="149.23,-136.26 139.09,-133.19 145.1,-141.91 149.23,-136.26"/>
</a>
</g>
</g>
<!-- Node8 -->
<g id="Node000008" class="node">
<title>Node8</title>
<g id="a_Node000008"><a xlink:title=" ">
<polygon fill="#e0e0e0" stroke="#999999" points="223.25,-132 175,-132 175,-112 223.25,-112 223.25,-132"/>
<text xml:space="preserve" text-anchor="middle" x="199.12" y="-118.5" font-family="Helvetica,sans-Serif" font-size="10.00">string.h</text>
</a>
</g>
</g>
<!-- Node1&#45;&gt;Node8 -->
<g id="edge7_Node000001_Node000008" class="edge">
<title>Node1&#45;&gt;Node8</title>
<g id="a_edge7_Node000001_Node000008"><a xlink:title=" ">
<path fill="none" stroke="#63b8ff" d="M199.12,-167.59C199.12,-161.01 199.12,-151.96 199.12,-143.73"/>
<polygon fill="#63b8ff" stroke="#63b8ff" points="202.63,-143.81 199.13,-133.81 195.63,-143.81 202.63,-143.81"/>
</a>
</g>
</g>
<!-- Node9 -->
<g id="Node000009" class="node">
<title>Node9</title>
<g id="a_Node000009"><a xlink:title=" ">
<polygon fill="#e0e0e0" stroke="#999999" points="286.75,-132 241.5,-132 241.5,-112 286.75,-112 286.75,-132"/>
<text xml:space="preserve" text-anchor="middle" x="264.12" y="-118.5" font-family="Helvetica,sans-Serif" font-size="10.00">stdio.h</text>
</a>
</g>
</g>
<!-- Node1&#45;&gt;Node9 -->
<g id="edge8_Node000001_Node000009" class="edge">
<title>Node1&#45;&gt;Node9</title>
<g id="a_edge8_Node000001_Node000009"><a xlink:title=" ">
<path fill="none" stroke="#63b8ff" d="M210.45,-167.59C219.77,-159.85 233.2,-148.69 244.3,-139.47"/>
<polygon fill="#63b8ff" stroke="#63b8ff" points="246.31,-142.35 251.77,-133.27 241.84,-136.96 246.31,-142.35"/>
</a>
</g>
</g>
<!-- Node3 -->
<g id="Node000003" class="node">
<title>Node3</title>
<g id="a_Node000003"><a xlink:title=" ">
<polygon fill="#e0e0e0" stroke="#999999" points="48.25,-76 0,-76 0,-56 48.25,-56 48.25,-76"/>
<text xml:space="preserve" text-anchor="middle" x="24.12" y="-62.5" font-family="Helvetica,sans-Serif" font-size="10.00">stdint.h</text>
</a>
</g>
</g>
<!-- Node2&#45;&gt;Node3 -->
<g id="edge2_Node000002_Node000003" class="edge">
<title>Node2&#45;&gt;Node3</title>
<g id="a_edge2_Node000002_Node000003"><a xlink:title=" ">
<path fill="none" stroke="#63b8ff" d="M107.53,-111.59C92.2,-103.4 69.71,-91.37 51.94,-81.87"/>
<polygon fill="#63b8ff" stroke="#63b8ff" points="53.66,-78.82 43.19,-77.19 50.36,-84.99 53.66,-78.82"/>
</a>
</g>
</g>
<!-- Node4 -->
<g id="Node000004" class="node">
<title>Node4</title>
<g id="a_Node000004"><a xlink:title=" ">
<polygon fill="#e0e0e0" stroke="#999999" points="117.75,-76 66.5,-76 66.5,-56 117.75,-56 117.75,-76"/>
<text xml:space="preserve" text-anchor="middle" x="92.12" y="-62.5" font-family="Helvetica,sans-Serif" font-size="10.00">stddef.h</text>
</a>
</g>
</g>
<!-- Node2&#45;&gt;Node4 -->
<g id="edge3_Node000002_Node000004" class="edge">
<title>Node2&#45;&gt;Node4</title>
<g id="a_edge3_Node000002_Node000004"><a xlink:title=" ">
<path fill="none" stroke="#63b8ff" d="M119.38,-111.59C115.07,-104.55 109.03,-94.67 103.74,-86"/>
<polygon fill="#63b8ff" stroke="#63b8ff" points="106.8,-84.3 98.6,-77.59 100.82,-87.95 106.8,-84.3"/>
</a>
</g>
</g>
<!-- Node5 -->
<g id="Node000005" class="node">
<title>Node5</title>
<g id="a_Node000005"><a xlink:href="_i_p_o_s__071125_2_core_2_inc_2main_8h.html" target="_top" xlink:title=": Header for main.c file. This file contains the common defines of the application.">
<polygon fill="white" stroke="#666666" points="180.75,-76 135.5,-76 135.5,-56 180.75,-56 180.75,-76"/>
<text xml:space="preserve" text-anchor="middle" x="158.12" y="-62.5" font-family="Helvetica,sans-Serif" font-size="10.00">main.h</text>
</a>
</g>
</g>
<!-- Node2&#45;&gt;Node5 -->
<g id="edge4_Node000002_Node000005" class="edge">
<title>Node2&#45;&gt;Node5</title>
<g id="a_edge4_Node000002_Node000005"><a xlink:title=" ">
<path fill="none" stroke="#63b8ff" d="M130.87,-111.59C135.18,-104.55 141.22,-94.67 146.51,-86"/>
<polygon fill="#63b8ff" stroke="#63b8ff" points="149.43,-87.95 151.65,-77.59 143.45,-84.3 149.43,-87.95"/>
</a>
</g>
</g>
<!-- Node7 -->
<g id="Node000007" class="node">
<title>Node7</title>
<g id="a_Node000007"><a xlink:title=" ">
<polygon fill="#e0e0e0" stroke="#999999" points="269.88,-76 198.38,-76 198.38,-56 269.88,-56 269.88,-76"/>
<text xml:space="preserve" text-anchor="middle" x="234.12" y="-62.5" font-family="Helvetica,sans-Serif" font-size="10.00">cmsis_os2.h</text>
</a>
</g>
</g>
<!-- Node2&#45;&gt;Node7 -->
<g id="edge6_Node000002_Node000007" class="edge">
<title>Node2&#45;&gt;Node7</title>
<g id="a_edge6_Node000002_Node000007"><a xlink:title=" ">
<path fill="none" stroke="#63b8ff" d="M144.11,-111.59C160.89,-103.28 185.62,-91.03 204.91,-81.47"/>
<polygon fill="#63b8ff" stroke="#63b8ff" points="206.23,-84.73 213.63,-77.15 203.12,-78.45 206.23,-84.73"/>
</a>
</g>
</g>
<!-- Node6 -->
<g id="Node000006" class="node">
<title>Node6</title>
<g id="a_Node000006"><a xlink:title=" ">
<polygon fill="#e0e0e0" stroke="#999999" points="202.12,-20 114.12,-20 114.12,0 202.12,0 202.12,-20"/>
<text xml:space="preserve" text-anchor="middle" x="158.12" y="-6.5" font-family="Helvetica,sans-Serif" font-size="10.00">stm32f4xx_hal.h</text>
</a>
</g>
</g>
<!-- Node5&#45;&gt;Node6 -->
<g id="edge5_Node000005_Node000006" class="edge">
<title>Node5&#45;&gt;Node6</title>
<g id="a_edge5_Node000005_Node000006"><a xlink:title=" ">
<path fill="none" stroke="#63b8ff" d="M158.12,-55.59C158.12,-49.01 158.12,-39.96 158.12,-31.73"/>
<polygon fill="#63b8ff" stroke="#63b8ff" points="161.63,-31.81 158.13,-21.81 154.63,-31.81 161.63,-31.81"/>
</a>
</g>
</g>
</g>
</svg>
