<?xml version="1.0" encoding="UTF-8" standalone="no"?>
<!DOCTYPE svg PUBLIC "-//W3C//DTD SVG 1.1//EN"
 "http://www.w3.org/Graphics/SVG/1.1/DTD/svg11.dtd">
<!-- Generated by graphviz version 14.0.2 (20251019.1705)
 -->
<!-- Title: log_flash.h Pages: 1 -->
<svg width="335pt" height="84pt"
 viewBox="0.00 0.00 335.00 84.00" xmlns="http://www.w3.org/2000/svg" xmlns:xlink="http://www.w3.org/1999/xlink">
<g id="graph0" class="graph" transform="scale(1 1) rotate(0) translate(4 80)">
<title>log_flash.h</title>
<!-- Node1 -->
<g id="Node000001" class="node">
<title>Node1</title>
<g id="a_Node000001"><a xlink:title="Public API for flash&#45;based logging of system events and errors.">
<polygon fill="#999999" stroke="#666666" points="177.75,-76 114.5,-76 114.5,-56 177.75,-56 177.75,-76"/>
<text xml:space="preserve" text-anchor="middle" x="146.12" y="-62.5" font-family="Helvetica,sans-Serif" font-size="10.00">log_flash.h</text>
</a>
</g>
</g>
<!-- Node2 -->
<g id="Node000002" class="node">
<title>Node2</title>
<g id="a_Node000002"><a xlink:href="app__main_8c.html" target="_top" xlink:title=" ">
<polygon fill="white" stroke="#666666" points="66.25,-20 0,-20 0,0 66.25,0 66.25,-20"/>
<text xml:space="preserve" text-anchor="middle" x="33.12" y="-6.5" font-family="Helvetica,sans-Serif" font-size="10.00">app_main.c</text>
</a>
</g>
</g>
<!-- Node1&#45;&gt;Node2 -->
<g id="edge1_Node000001_Node000002" class="edge">
<title>Node1&#45;&gt;Node2</title>
<g id="a_edge1_Node000001_Node000002"><a xlink:title=" ">
<path fill="none" stroke="#63b8ff" d="M116.3,-50.75C96.29,-41.18 70.48,-28.85 52.96,-20.48"/>
<polygon fill="#63b8ff" stroke="#63b8ff" points="114.54,-53.79 125.08,-54.94 117.56,-47.47 114.54,-53.79"/>
</a>
</g>
</g>
<!-- Node3 -->
<g id="Node000003" class="node">
<title>Node3</title>
<g id="a_Node000003"><a xlink:href="inputs_8c.html" target="_top" xlink:title=" ">
<polygon fill="white" stroke="#666666" points="134.38,-20 83.88,-20 83.88,0 134.38,0 134.38,-20"/>
<text xml:space="preserve" text-anchor="middle" x="109.12" y="-6.5" font-family="Helvetica,sans-Serif" font-size="10.00">inputs.c</text>
</a>
</g>
</g>
<!-- Node1&#45;&gt;Node3 -->
<g id="edge2_Node000001_Node000003" class="edge">
<title>Node1&#45;&gt;Node3</title>
<g id="a_edge2_Node000001_Node000003"><a xlink:title=" ">
<path fill="none" stroke="#63b8ff" d="M133.21,-46.15C127.22,-37.4 120.36,-27.39 115.5,-20.3"/>
<polygon fill="#63b8ff" stroke="#63b8ff" points="130.28,-48.07 138.82,-54.35 136.06,-44.12 130.28,-48.07"/>
</a>
</g>
</g>
<!-- Node4 -->
<g id="Node000004" class="node">
<title>Node4</title>
<g id="a_Node000004"><a xlink:href="log__flash_8c.html" target="_top" xlink:title="Persistent flash&#45;based event and error logging.">
<polygon fill="white" stroke="#666666" points="215.75,-20 152.5,-20 152.5,0 215.75,0 215.75,-20"/>
<text xml:space="preserve" text-anchor="middle" x="184.12" y="-6.5" font-family="Helvetica,sans-Serif" font-size="10.00">log_flash.c</text>
</a>
</g>
</g>
<!-- Node1&#45;&gt;Node4 -->
<g id="edge3_Node000001_Node000004" class="edge">
<title>Node1&#45;&gt;Node4</title>
<g id="a_edge3_Node000001_Node000004"><a xlink:title=" ">
<path fill="none" stroke="#63b8ff" d="M159.19,-46.44C165.39,-37.62 172.54,-27.47 177.58,-20.3"/>
<polygon fill="#63b8ff" stroke="#63b8ff" points="156.51,-44.16 153.62,-54.36 162.23,-48.19 156.51,-44.16"/>
</a>
</g>
</g>
<!-- Node5 -->
<g id="Node000005" class="node">
<title>Node5</title>
<g id="a_Node000005"><a xlink:href="usb__commands_8c.html" target="_top" xlink:title="USB command interface for IPOS firmware.">
<polygon fill="white" stroke="#666666" points="326.75,-20 233.5,-20 233.5,0 326.75,0 326.75,-20"/>
<text xml:space="preserve" text-anchor="middle" x="280.12" y="-6.5" font-family="Helvetica,sans-Serif" font-size="10.00">usb_commands.c</text>
</a>
</g>
</g>
<!-- Node1&#45;&gt;Node5 -->
<g id="edge4_Node000001_Node000005" class="edge">
<title>Node1&#45;&gt;Node5</title>
<g id="a_edge4_Node000001_Node000005"><a xlink:title=" ">
<path fill="none" stroke="#63b8ff" d="M179.87,-51.4C203.81,-41.75 235.34,-29.05 256.6,-20.48"/>
<polygon fill="#63b8ff" stroke="#63b8ff" points="178.84,-48.04 170.87,-55.03 181.45,-54.54 178.84,-48.04"/>
</a>
</g>
</g>
</g>
</svg>
