<?xml version="1.0" encoding="UTF-8" standalone="no"?>
<!DOCTYPE svg PUBLIC "-//W3C//DTD SVG 1.1//EN"
 "http://www.w3.org/Graphics/SVG/1.1/DTD/svg11.dtd">
<!-- Generated by graphviz version 14.0.2 (20251019.1705)
 -->
<!-- Title: master_link.c Pages: 1 -->
<svg width="409pt" height="140pt"
 viewBox="0.00 0.00 409.00 140.00" xmlns="http://www.w3.org/2000/svg" xmlns:xlink="http://www.w3.org/1999/xlink">
<g id="graph0" class="graph" transform="scale(1 1) rotate(0) translate(4 136)">
<title>master_link.c</title>
<!-- Node1 -->
<g id="Node000001" class="node">
<title>Node1</title>
<g id="a_Node000001"><a xlink:title=" ">
<polygon fill="#999999" stroke="#666666" points="278.25,-132 203.75,-132 203.75,-112 278.25,-112 278.25,-132"/>
<text xml:space="preserve" text-anchor="middle" x="241" y="-118.5" font-family="Helvetica,sans-Serif" font-size="10.00">master_link.c</text>
</a>
</g>
</g>
<!-- Node2 -->
<g id="Node000002" class="node">
<title>Node2</title>
<g id="a_Node000002"><a xlink:href="master__link_8h.html" target="_top" xlink:title=" ">
<polygon fill="white" stroke="#666666" points="147.25,-76 72.75,-76 72.75,-56 147.25,-56 147.25,-76"/>
<text xml:space="preserve" text-anchor="middle" x="110" y="-62.5" font-family="Helvetica,sans-Serif" font-size="10.00">master_link.h</text>
</a>
</g>
</g>
<!-- Node1&#45;&gt;Node2 -->
<g id="edge1_Node000001_Node000002" class="edge">
<title>Node1&#45;&gt;Node2</title>
<g id="a_edge1_Node000001_Node000002"><a xlink:title=" ">
<path fill="none" stroke="#63b8ff" d="M218.18,-111.59C197.55,-103.09 166.92,-90.46 143.51,-80.81"/>
<polygon fill="#63b8ff" stroke="#63b8ff" points="144.98,-77.63 134.4,-77.06 142.31,-84.1 144.98,-77.63"/>
</a>
</g>
</g>
<!-- Node5 -->
<g id="Node000005" class="node">
<title>Node5</title>
<g id="a_Node000005"><a xlink:href="ring__buffer_8h.html" target="_top" xlink:title=" ">
<polygon fill="white" stroke="#666666" points="234.62,-76 165.38,-76 165.38,-56 234.62,-56 234.62,-76"/>
<text xml:space="preserve" text-anchor="middle" x="200" y="-62.5" font-family="Helvetica,sans-Serif" font-size="10.00">ring_buffer.h</text>
</a>
</g>
</g>
<!-- Node1&#45;&gt;Node5 -->
<g id="edge4_Node000001_Node000005" class="edge">
<title>Node1&#45;&gt;Node5</title>
<g id="a_edge4_Node000001_Node000005"><a xlink:title=" ">
<path fill="none" stroke="#63b8ff" d="M233.86,-111.59C228.39,-104.39 220.68,-94.23 213.99,-85.43"/>
<polygon fill="#63b8ff" stroke="#63b8ff" points="216.81,-83.35 207.98,-77.5 211.23,-87.58 216.81,-83.35"/>
</a>
</g>
</g>
<!-- Node8 -->
<g id="Node000008" class="node">
<title>Node8</title>
<g id="a_Node000008"><a xlink:title=" ">
<polygon fill="#e0e0e0" stroke="#999999" points="311.38,-76 252.62,-76 252.62,-56 311.38,-56 311.38,-76"/>
<text xml:space="preserve" text-anchor="middle" x="282" y="-62.5" font-family="Helvetica,sans-Serif" font-size="10.00">protocol.h</text>
</a>
</g>
</g>
<!-- Node1&#45;&gt;Node8 -->
<g id="edge8_Node000001_Node000008" class="edge">
<title>Node1&#45;&gt;Node8</title>
<g id="a_edge8_Node000001_Node000008"><a xlink:title=" ">
<path fill="none" stroke="#63b8ff" d="M248.14,-111.59C253.61,-104.39 261.32,-94.23 268.01,-85.43"/>
<polygon fill="#63b8ff" stroke="#63b8ff" points="270.77,-87.58 274.02,-77.5 265.19,-83.35 270.77,-87.58"/>
</a>
</g>
</g>
<!-- Node9 -->
<g id="Node000009" class="node">
<title>Node9</title>
<g id="a_Node000009"><a xlink:title=" ">
<polygon fill="#e0e0e0" stroke="#999999" points="400.75,-76 329.25,-76 329.25,-56 400.75,-56 400.75,-76"/>
<text xml:space="preserve" text-anchor="middle" x="365" y="-62.5" font-family="Helvetica,sans-Serif" font-size="10.00">cmsis_os2.h</text>
</a>
</g>
</g>
<!-- Node1&#45;&gt;Node9 -->
<g id="edge9_Node000001_Node000009" class="edge">
<title>Node1&#45;&gt;Node9</title>
<g id="a_edge9_Node000001_Node000009"><a xlink:title=" ">
<path fill="none" stroke="#63b8ff" d="M262.6,-111.59C281.95,-103.17 310.6,-90.69 332.68,-81.07"/>
<polygon fill="#63b8ff" stroke="#63b8ff" points="334.07,-84.29 341.84,-77.08 331.28,-77.87 334.07,-84.29"/>
</a>
</g>
</g>
<!-- Node3 -->
<g id="Node000003" class="node">
<title>Node3</title>
<g id="a_Node000003"><a xlink:title=" ">
<polygon fill="#e0e0e0" stroke="#999999" points="154.12,-20 105.88,-20 105.88,0 154.12,0 154.12,-20"/>
<text xml:space="preserve" text-anchor="middle" x="130" y="-6.5" font-family="Helvetica,sans-Serif" font-size="10.00">stdint.h</text>
</a>
</g>
</g>
<!-- Node2&#45;&gt;Node3 -->
<g id="edge2_Node000002_Node000003" class="edge">
<title>Node2&#45;&gt;Node3</title>
<g id="a_edge2_Node000002_Node000003"><a xlink:title=" ">
<path fill="none" stroke="#63b8ff" d="M113.48,-55.59C116.01,-48.78 119.51,-39.32 122.64,-30.86"/>
<polygon fill="#63b8ff" stroke="#63b8ff" points="125.84,-32.31 126.03,-21.72 119.28,-29.88 125.84,-32.31"/>
</a>
</g>
</g>
<!-- Node4 -->
<g id="Node000004" class="node">
<title>Node4</title>
<g id="a_Node000004"><a xlink:title=" ">
<polygon fill="#e0e0e0" stroke="#999999" points="88,-20 0,-20 0,0 88,0 88,-20"/>
<text xml:space="preserve" text-anchor="middle" x="44" y="-6.5" font-family="Helvetica,sans-Serif" font-size="10.00">stm32f4xx_hal.h</text>
</a>
</g>
</g>
<!-- Node2&#45;&gt;Node4 -->
<g id="edge3_Node000002_Node000004" class="edge">
<title>Node2&#45;&gt;Node4</title>
<g id="a_edge3_Node000002_Node000004"><a xlink:title=" ">
<path fill="none" stroke="#63b8ff" d="M98.5,-55.59C89.04,-47.85 75.4,-36.69 64.13,-27.47"/>
<polygon fill="#63b8ff" stroke="#63b8ff" points="66.49,-24.88 56.54,-21.26 62.06,-30.3 66.49,-24.88"/>
</a>
</g>
</g>
<!-- Node5&#45;&gt;Node3 -->
<g id="edge5_Node000005_Node000003" class="edge">
<title>Node5&#45;&gt;Node3</title>
<g id="a_edge5_Node000005_Node000003"><a xlink:title=" ">
<path fill="none" stroke="#63b8ff" d="M187.81,-55.59C177.67,-47.77 163.01,-36.46 150.99,-27.19"/>
<polygon fill="#63b8ff" stroke="#63b8ff" points="153.31,-24.56 143.25,-21.22 149.03,-30.1 153.31,-24.56"/>
</a>
</g>
</g>
<!-- Node6 -->
<g id="Node000006" class="node">
<title>Node6</title>
<g id="a_Node000006"><a xlink:title=" ">
<polygon fill="#e0e0e0" stroke="#999999" points="227.88,-20 172.12,-20 172.12,0 227.88,0 227.88,-20"/>
<text xml:space="preserve" text-anchor="middle" x="200" y="-6.5" font-family="Helvetica,sans-Serif" font-size="10.00">stdbool.h</text>
</a>
</g>
</g>
<!-- Node5&#45;&gt;Node6 -->
<g id="edge6_Node000005_Node000006" class="edge">
<title>Node5&#45;&gt;Node6</title>
<g id="a_edge6_Node000005_Node000006"><a xlink:title=" ">
<path fill="none" stroke="#63b8ff" d="M200,-55.59C200,-49.01 200,-39.96 200,-31.73"/>
<polygon fill="#63b8ff" stroke="#63b8ff" points="203.5,-31.81 200,-21.81 196.5,-31.81 203.5,-31.81"/>
</a>
</g>
</g>
<!-- Node7 -->
<g id="Node000007" class="node">
<title>Node7</title>
<g id="a_Node000007"><a xlink:title=" ">
<polygon fill="#e0e0e0" stroke="#999999" points="297.62,-20 246.38,-20 246.38,0 297.62,0 297.62,-20"/>
<text xml:space="preserve" text-anchor="middle" x="272" y="-6.5" font-family="Helvetica,sans-Serif" font-size="10.00">stddef.h</text>
</a>
</g>
</g>
<!-- Node5&#45;&gt;Node7 -->
<g id="edge7_Node000005_Node000007" class="edge">
<title>Node5&#45;&gt;Node7</title>
<g id="a_edge7_Node000005_Node000007"><a xlink:title=" ">
<path fill="none" stroke="#63b8ff" d="M212.54,-55.59C222.97,-47.77 238.05,-36.46 250.41,-27.19"/>
<polygon fill="#63b8ff" stroke="#63b8ff" points="252.49,-30.01 258.39,-21.21 248.29,-24.41 252.49,-30.01"/>
</a>
</g>
</g>
</g>
</svg>
