<?xml version="1.0" encoding="UTF-8" standalone="no"?>
<!DOCTYPE svg PUBLIC "-//W3C//DTD SVG 1.1//EN"
 "http://www.w3.org/Graphics/SVG/1.1/DTD/svg11.dtd">
<!-- Generated by graphviz version 14.0.2 (20251019.1705)
 -->
<!-- Title: master_link.h Pages: 1 -->
<svg width="360pt" height="84pt"
 viewBox="0.00 0.00 360.00 84.00" xmlns="http://www.w3.org/2000/svg" xmlns:xlink="http://www.w3.org/1999/xlink">
<g id="graph0" class="graph" transform="scale(1 1) rotate(0) translate(4 80)">
<title>master_link.h</title>
<!-- Node1 -->
<g id="Node000001" class="node">
<title>Node1</title>
<g id="a_Node000001"><a xlink:title=" ">
<polygon fill="#999999" stroke="#666666" points="192.38,-76 117.88,-76 117.88,-56 192.38,-56 192.38,-76"/>
<text xml:space="preserve" text-anchor="middle" x="155.12" y="-62.5" font-family="Helvetica,sans-Serif" font-size="10.00">master_link.h</text>
</a>
</g>
</g>
<!-- Node2 -->
<g id="Node000002" class="node">
<title>Node2</title>
<g id="a_Node000002"><a xlink:href="app__main_8c.html" target="_top" xlink:title=" ">
<polygon fill="white" stroke="#666666" points="66.25,-20 0,-20 0,0 66.25,0 66.25,-20"/>
<text xml:space="preserve" text-anchor="middle" x="33.12" y="-6.5" font-family="Helvetica,sans-Serif" font-size="10.00">app_main.c</text>
</a>
</g>
</g>
<!-- Node1&#45;&gt;Node2 -->
<g id="edge1_Node000001_Node000002" class="edge">
<title>Node1&#45;&gt;Node2</title>
<g id="a_edge1_Node000001_Node000002"><a xlink:title=" ">
<path fill="none" stroke="#63b8ff" d="M123.52,-51.01C101.83,-41.41 73.63,-28.93 54.54,-20.48"/>
<polygon fill="#63b8ff" stroke="#63b8ff" points="121.93,-54.13 132.49,-54.98 124.76,-47.73 121.93,-54.13"/>
</a>
</g>
</g>
<!-- Node3 -->
<g id="Node000003" class="node">
<title>Node3</title>
<g id="a_Node000003"><a xlink:href="freertos_8c.html" target="_top" xlink:title=" ">
<polygon fill="white" stroke="#666666" points="141.75,-20 84.5,-20 84.5,0 141.75,0 141.75,-20"/>
<text xml:space="preserve" text-anchor="middle" x="113.12" y="-6.5" font-family="Helvetica,sans-Serif" font-size="10.00">freertos.c</text>
</a>
</g>
</g>
<!-- Node1&#45;&gt;Node3 -->
<g id="edge2_Node000001_Node000003" class="edge">
<title>Node1&#45;&gt;Node3</title>
<g id="a_edge2_Node000001_Node000003"><a xlink:title=" ">
<path fill="none" stroke="#63b8ff" d="M140.91,-46.72C134,-37.84 125.99,-27.55 120.36,-20.3"/>
<polygon fill="#63b8ff" stroke="#63b8ff" points="137.98,-48.65 146.88,-54.4 143.5,-44.36 137.98,-48.65"/>
</a>
</g>
</g>
<!-- Node4 -->
<g id="Node000004" class="node">
<title>Node4</title>
<g id="a_Node000004"><a xlink:href="master__link_8c.html" target="_top" xlink:title=" ">
<polygon fill="white" stroke="#666666" points="234.38,-20 159.88,-20 159.88,0 234.38,0 234.38,-20"/>
<text xml:space="preserve" text-anchor="middle" x="197.12" y="-6.5" font-family="Helvetica,sans-Serif" font-size="10.00">master_link.c</text>
</a>
</g>
</g>
<!-- Node1&#45;&gt;Node4 -->
<g id="edge3_Node000001_Node000004" class="edge">
<title>Node1&#45;&gt;Node4</title>
<g id="a_edge3_Node000001_Node000004"><a xlink:title=" ">
<path fill="none" stroke="#63b8ff" d="M169.34,-46.72C176.25,-37.84 184.26,-27.55 189.89,-20.3"/>
<polygon fill="#63b8ff" stroke="#63b8ff" points="166.75,-44.36 163.37,-54.4 172.27,-48.65 166.75,-44.36"/>
</a>
</g>
</g>
<!-- Node5 -->
<g id="Node000005" class="node">
<title>Node5</title>
<g id="a_Node000005"><a xlink:href="uart__master__task_8c.html" target="_top" xlink:title=" ">
<polygon fill="white" stroke="#666666" points="352.12,-20 252.12,-20 252.12,0 352.12,0 352.12,-20"/>
<text xml:space="preserve" text-anchor="middle" x="302.12" y="-6.5" font-family="Helvetica,sans-Serif" font-size="10.00">uart_master_task.c</text>
</a>
</g>
</g>
<!-- Node1&#45;&gt;Node5 -->
<g id="edge4_Node000001_Node000005" class="edge">
<title>Node1&#45;&gt;Node5</title>
<g id="a_edge4_Node000001_Node000005"><a xlink:title=" ">
<path fill="none" stroke="#63b8ff" d="M191.43,-51.66C217.78,-41.98 252.79,-29.12 276.32,-20.48"/>
<polygon fill="#63b8ff" stroke="#63b8ff" points="190.33,-48.34 182.15,-55.07 192.74,-54.91 190.33,-48.34"/>
</a>
</g>
</g>
</g>
</svg>
