<?xml version="1.0" encoding="UTF-8" standalone="no"?>
<!DOCTYPE svg PUBLIC "-//W3C//DTD SVG 1.1//EN"
 "http://www.w3.org/Graphics/SVG/1.1/DTD/svg11.dtd">
<!-- Generated by graphviz version 14.0.2 (20251019.1705)
 -->
<!-- Title: max31855.h Pages: 1 -->
<svg width="554pt" height="196pt"
 viewBox="0.00 0.00 554.00 196.00" xmlns="http://www.w3.org/2000/svg" xmlns:xlink="http://www.w3.org/1999/xlink">
<g id="graph0" class="graph" transform="scale(1 1) rotate(0) translate(4 192)">
<title>max31855.h</title>
<!-- Node1 -->
<g id="Node000001" class="node">
<title>Node1</title>
<g id="a_Node000001"><a xlink:title=" ">
<polygon fill="#999999" stroke="#666666" points="290.94,-188 221.69,-188 221.69,-168 290.94,-168 290.94,-188"/>
<text xml:space="preserve" text-anchor="middle" x="256.32" y="-174.5" font-family="Helvetica,sans-Serif" font-size="10.00">max31855.h</text>
</a>
</g>
</g>
<!-- Node2 -->
<g id="Node000002" class="node">
<title>Node2</title>
<g id="a_Node000002"><a xlink:href="app__main_8c.html" target="_top" xlink:title=" ">
<polygon fill="white" stroke="#666666" points="79.44,-76 13.19,-76 13.19,-56 79.44,-56 79.44,-76"/>
<text xml:space="preserve" text-anchor="middle" x="46.32" y="-62.5" font-family="Helvetica,sans-Serif" font-size="10.00">app_main.c</text>
</a>
</g>
</g>
<!-- Node1&#45;&gt;Node2 -->
<g id="edge1_Node000001_Node000002" class="edge">
<title>Node1&#45;&gt;Node2</title>
<g id="a_edge1_Node000001_Node000002"><a xlink:title=" ">
<path fill="none" stroke="#63b8ff" d="M228.43,-162.39C184.6,-139.43 100.79,-95.53 64.18,-76.35"/>
<polygon fill="#63b8ff" stroke="#63b8ff" points="226.59,-165.38 237.07,-166.92 229.84,-159.18 226.59,-165.38"/>
</a>
</g>
</g>
<!-- Node3 -->
<g id="Node000003" class="node">
<title>Node3</title>
<g id="a_Node000003"><a xlink:href="inputs_8c.html" target="_top" xlink:title=" ">
<polygon fill="white" stroke="#666666" points="124.57,-20 74.07,-20 74.07,0 124.57,0 124.57,-20"/>
<text xml:space="preserve" text-anchor="middle" x="99.32" y="-6.5" font-family="Helvetica,sans-Serif" font-size="10.00">inputs.c</text>
</a>
</g>
</g>
<!-- Node1&#45;&gt;Node3 -->
<g id="edge2_Node000001_Node000003" class="edge">
<title>Node1&#45;&gt;Node3</title>
<g id="a_edge2_Node000001_Node000003"><a xlink:title=" ">
<path fill="none" stroke="#63b8ff" d="M209.87,-173.86C150.21,-167.01 49.02,-145.23 4.32,-76 -15.14,-45.86 39.39,-26.03 73.72,-16.87"/>
<polygon fill="#63b8ff" stroke="#63b8ff" points="209.41,-177.33 219.72,-174.88 210.13,-170.37 209.41,-177.33"/>
</a>
</g>
</g>
<!-- Node4 -->
<g id="Node000004" class="node">
<title>Node4</title>
<g id="a_Node000004"><a xlink:href="inputs_8h.html" target="_top" xlink:title="Input handling, safety interlock logic, and laser control API.">
<polygon fill="white" stroke="#666666" points="281.57,-132 231.07,-132 231.07,-112 281.57,-112 281.57,-132"/>
<text xml:space="preserve" text-anchor="middle" x="256.32" y="-118.5" font-family="Helvetica,sans-Serif" font-size="10.00">inputs.h</text>
</a>
</g>
</g>
<!-- Node1&#45;&gt;Node4 -->
<g id="edge3_Node000001_Node000004" class="edge">
<title>Node1&#45;&gt;Node4</title>
<g id="a_edge3_Node000001_Node000004"><a xlink:title=" ">
<path fill="none" stroke="#63b8ff" d="M256.32,-156.13C256.32,-147.9 256.32,-138.85 256.32,-132.3"/>
<polygon fill="#63b8ff" stroke="#63b8ff" points="252.82,-156.08 256.32,-166.08 259.82,-156.08 252.82,-156.08"/>
</a>
</g>
</g>
<!-- Node7 -->
<g id="Node000007" class="node">
<title>Node7</title>
<g id="a_Node000007"><a xlink:href="max31855_8c.html" target="_top" xlink:title=" ">
<polygon fill="white" stroke="#666666" points="434.94,-76 365.69,-76 365.69,-56 434.94,-56 434.94,-76"/>
<text xml:space="preserve" text-anchor="middle" x="400.32" y="-62.5" font-family="Helvetica,sans-Serif" font-size="10.00">max31855.c</text>
</a>
</g>
</g>
<!-- Node1&#45;&gt;Node7 -->
<g id="edge13_Node000001_Node000007" class="edge">
<title>Node1&#45;&gt;Node7</title>
<g id="a_edge13_Node000001_Node000007"><a xlink:title=" ">
<path fill="none" stroke="#63b8ff" d="M277.58,-160.76C308.15,-137.4 363.55,-95.09 388.07,-76.35"/>
<polygon fill="#63b8ff" stroke="#63b8ff" points="275.62,-157.85 269.8,-166.7 279.87,-163.41 275.62,-157.85"/>
</a>
</g>
</g>
<!-- Node10 -->
<g id="Node000010" class="node">
<title>Node10</title>
<g id="a_Node000010"><a xlink:href="usb__commands_8c.html" target="_top" xlink:title="USB command interface for IPOS firmware.">
<polygon fill="white" stroke="#666666" points="545.94,-76 452.69,-76 452.69,-56 545.94,-56 545.94,-76"/>
<text xml:space="preserve" text-anchor="middle" x="499.32" y="-62.5" font-family="Helvetica,sans-Serif" font-size="10.00">usb_commands.c</text>
</a>
</g>
</g>
<!-- Node1&#45;&gt;Node10 -->
<g id="edge14_Node000001_Node000010" class="edge">
<title>Node1&#45;&gt;Node10</title>
<g id="a_edge14_Node000001_Node000010"><a xlink:title=" ">
<path fill="none" stroke="#63b8ff" d="M287.3,-162.97C337.66,-140.18 435.92,-95.7 478.65,-76.35"/>
<polygon fill="#63b8ff" stroke="#63b8ff" points="286.08,-159.68 278.41,-167 288.97,-166.06 286.08,-159.68"/>
</a>
</g>
</g>
<!-- Node4&#45;&gt;Node2 -->
<g id="edge4_Node000004_Node000002" class="edge">
<title>Node4&#45;&gt;Node2</title>
<g id="a_edge4_Node000004_Node000002"><a xlink:title=" ">
<path fill="none" stroke="#63b8ff" d="M220.02,-111.67C180.54,-101.52 117.98,-85.43 79.7,-75.58"/>
<polygon fill="#63b8ff" stroke="#63b8ff" points="218.96,-115.01 229.52,-114.11 220.71,-108.23 218.96,-115.01"/>
</a>
</g>
</g>
<!-- Node4&#45;&gt;Node3 -->
<g id="edge6_Node000004_Node000003" class="edge">
<title>Node4&#45;&gt;Node3</title>
<g id="a_edge6_Node000004_Node000003"><a xlink:title=" ">
<path fill="none" stroke="#63b8ff" d="M219.46,-116.54C190.83,-111.3 151.84,-100.03 126.32,-76 110.12,-60.76 103.31,-34.33 100.72,-20.33"/>
<polygon fill="#63b8ff" stroke="#63b8ff" points="218.71,-119.96 229.14,-118.13 219.84,-113.05 218.71,-119.96"/>
</a>
</g>
</g>
<!-- Node5 -->
<g id="Node000005" class="node">
<title>Node5</title>
<g id="a_Node000005"><a xlink:href="freertos_8c.html" target="_top" xlink:title=" ">
<polygon fill="white" stroke="#666666" points="284.94,-76 227.69,-76 227.69,-56 284.94,-56 284.94,-76"/>
<text xml:space="preserve" text-anchor="middle" x="256.32" y="-62.5" font-family="Helvetica,sans-Serif" font-size="10.00">freertos.c</text>
</a>
</g>
</g>
<!-- Node4&#45;&gt;Node5 -->
<g id="edge5_Node000004_Node000005" class="edge">
<title>Node4&#45;&gt;Node5</title>
<g id="a_edge5_Node000004_Node000005"><a xlink:title=" ">
<path fill="none" stroke="#63b8ff" d="M256.32,-100.13C256.32,-91.9 256.32,-82.85 256.32,-76.3"/>
<polygon fill="#63b8ff" stroke="#63b8ff" points="252.82,-100.08 256.32,-110.08 259.82,-100.08 252.82,-100.08"/>
</a>
</g>
</g>
<!-- Node6 -->
<g id="Node000006" class="node">
<title>Node6</title>
<g id="a_Node000006"><a xlink:href="_i_p_o_s__071125_2_core_2_src_2main_8c.html" target="_top" xlink:title=": Main program body">
<polygon fill="white" stroke="#666666" points="347.94,-76 302.69,-76 302.69,-56 347.94,-56 347.94,-76"/>
<text xml:space="preserve" text-anchor="middle" x="325.32" y="-62.5" font-family="Helvetica,sans-Serif" font-size="10.00">main.c</text>
</a>
</g>
</g>
<!-- Node4&#45;&gt;Node6 -->
<g id="edge7_Node000004_Node000006" class="edge">
<title>Node4&#45;&gt;Node6</title>
<g id="a_edge7_Node000004_Node000006"><a xlink:title=" ">
<path fill="none" stroke="#63b8ff" d="M277.17,-104.68C289.04,-95.39 303.48,-84.09 313.43,-76.3"/>
<polygon fill="#63b8ff" stroke="#63b8ff" points="275.24,-101.74 269.53,-110.66 279.56,-107.25 275.24,-101.74"/>
</a>
</g>
</g>
<!-- Node4&#45;&gt;Node7 -->
<g id="edge8_Node000004_Node000007" class="edge">
<title>Node4&#45;&gt;Node7</title>
<g id="a_edge8_Node000004_Node000007"><a xlink:title=" ">
<path fill="none" stroke="#63b8ff" d="M291.88,-107.66C317.7,-97.98 351.99,-85.12 375.04,-76.48"/>
<polygon fill="#63b8ff" stroke="#63b8ff" points="290.95,-104.27 282.82,-111.06 293.41,-110.83 290.95,-104.27"/>
</a>
</g>
</g>
<!-- Node8 -->
<g id="Node000008" class="node">
<title>Node8</title>
<g id="a_Node000008"><a xlink:href="safety__utils_8h.html" target="_top" xlink:title=" ">
<polygon fill="white" stroke="#666666" points="209.57,-76 135.07,-76 135.07,-56 209.57,-56 209.57,-76"/>
<text xml:space="preserve" text-anchor="middle" x="172.32" y="-62.5" font-family="Helvetica,sans-Serif" font-size="10.00">safety_utils.h</text>
</a>
</g>
</g>
<!-- Node4&#45;&gt;Node8 -->
<g id="edge9_Node000004_Node000008" class="edge">
<title>Node4&#45;&gt;Node8</title>
<g id="a_edge9_Node000004_Node000008"><a xlink:title=" ">
<path fill="none" stroke="#63b8ff" d="M232.27,-105.54C217.69,-96.17 199.55,-84.51 187.06,-76.48"/>
<polygon fill="#63b8ff" stroke="#63b8ff" points="230.11,-108.31 240.41,-110.78 233.89,-102.42 230.11,-108.31"/>
</a>
</g>
</g>
<!-- Node4&#45;&gt;Node10 -->
<g id="edge12_Node000004_Node000010" class="edge">
<title>Node4&#45;&gt;Node10</title>
<g id="a_edge12_Node000004_Node000010"><a xlink:title=" ">
<path fill="none" stroke="#63b8ff" d="M292.88,-112.88C336.76,-103.12 410.22,-86.8 456.65,-76.48"/>
<polygon fill="#63b8ff" stroke="#63b8ff" points="292.34,-109.41 283.34,-114.99 293.86,-116.24 292.34,-109.41"/>
</a>
</g>
</g>
<!-- Node8&#45;&gt;Node3 -->
<g id="edge10_Node000008_Node000003" class="edge">
<title>Node8&#45;&gt;Node3</title>
<g id="a_edge10_Node000008_Node000003"><a xlink:title=" ">
<path fill="none" stroke="#63b8ff" d="M150.63,-48.95C138,-39.61 122.52,-28.16 111.89,-20.3"/>
<polygon fill="#63b8ff" stroke="#63b8ff" points="148.26,-51.56 158.38,-54.69 152.43,-45.93 148.26,-51.56"/>
</a>
</g>
</g>
<!-- Node9 -->
<g id="Node000009" class="node">
<title>Node9</title>
<g id="a_Node000009"><a xlink:href="safety__utils_8c.html" target="_top" xlink:title=" ">
<polygon fill="white" stroke="#666666" points="217.57,-20 143.07,-20 143.07,0 217.57,0 217.57,-20"/>
<text xml:space="preserve" text-anchor="middle" x="180.32" y="-6.5" font-family="Helvetica,sans-Serif" font-size="10.00">safety_utils.c</text>
</a>
</g>
</g>
<!-- Node8&#45;&gt;Node9 -->
<g id="edge11_Node000008_Node000009" class="edge">
<title>Node8&#45;&gt;Node9</title>
<g id="a_edge11_Node000008_Node000009"><a xlink:title=" ">
<path fill="none" stroke="#63b8ff" d="M175.36,-44.43C176.6,-36.11 177.96,-26.93 178.94,-20.3"/>
<polygon fill="#63b8ff" stroke="#63b8ff" points="171.93,-43.69 173.93,-54.1 178.86,-44.72 171.93,-43.69"/>
</a>
</g>
</g>
</g>
</svg>
