<?xml version="1.0" encoding="UTF-8" standalone="no"?>
<!DOCTYPE svg PUBLIC "-//W3C//DTD SVG 1.1//EN"
 "http://www.w3.org/Graphics/SVG/1.1/DTD/svg11.dtd">
<!-- Generated by graphviz version 14.0.2 (20251019.1705)
 -->
<!-- Title: max31855.h Pages: 1 -->
<svg width="225pt" height="140pt"
 viewBox="0.00 0.00 225.00 140.00" xmlns="http://www.w3.org/2000/svg" xmlns:xlink="http://www.w3.org/1999/xlink">
<g id="graph0" class="graph" transform="scale(1 1) rotate(0) translate(4 136)">
<title>max31855.h</title>
<!-- Node1 -->
<g id="Node000001" class="node">
<title>Node1</title>
<g id="a_Node000001"><a xlink:title=" ">
<polygon fill="#999999" stroke="#666666" points="152.62,-132 83.38,-132 83.38,-112 152.62,-112 152.62,-132"/>
<text xml:space="preserve" text-anchor="middle" x="118" y="-118.5" font-family="Helvetica,sans-Serif" font-size="10.00">max31855.h</text>
</a>
</g>
</g>
<!-- Node2 -->
<g id="Node000002" class="node">
<title>Node2</title>
<g id="a_Node000002"><a xlink:href="_i_p_o_s__071125_2_core_2_inc_2main_8h.html" target="_top" xlink:title=": Header for main.c file. This file contains the common defines of the application.">
<polygon fill="white" stroke="#666666" points="66.62,-76 21.38,-76 21.38,-56 66.62,-56 66.62,-76"/>
<text xml:space="preserve" text-anchor="middle" x="44" y="-62.5" font-family="Helvetica,sans-Serif" font-size="10.00">main.h</text>
</a>
</g>
</g>
<!-- Node1&#45;&gt;Node2 -->
<g id="edge1_Node000001_Node000002" class="edge">
<title>Node1&#45;&gt;Node2</title>
<g id="a_edge1_Node000001_Node000002"><a xlink:title=" ">
<path fill="none" stroke="#63b8ff" d="M105.11,-111.59C94.29,-103.7 78.59,-92.24 65.81,-82.92"/>
<polygon fill="#63b8ff" stroke="#63b8ff" points="68.11,-80.26 57.96,-77.19 63.98,-85.91 68.11,-80.26"/>
</a>
</g>
</g>
<!-- Node4 -->
<g id="Node000004" class="node">
<title>Node4</title>
<g id="a_Node000004"><a xlink:title=" ">
<polygon fill="#e0e0e0" stroke="#999999" points="151.12,-76 84.88,-76 84.88,-56 151.12,-56 151.12,-76"/>
<text xml:space="preserve" text-anchor="middle" x="118" y="-62.5" font-family="Helvetica,sans-Serif" font-size="10.00">cmsis_os.h</text>
</a>
</g>
</g>
<!-- Node1&#45;&gt;Node4 -->
<g id="edge3_Node000001_Node000004" class="edge">
<title>Node1&#45;&gt;Node4</title>
<g id="a_edge3_Node000001_Node000004"><a xlink:title=" ">
<path fill="none" stroke="#63b8ff" d="M118,-111.59C118,-105.01 118,-95.96 118,-87.73"/>
<polygon fill="#63b8ff" stroke="#63b8ff" points="121.5,-87.81 118,-77.81 114.5,-87.81 121.5,-87.81"/>
</a>
</g>
</g>
<!-- Node5 -->
<g id="Node000005" class="node">
<title>Node5</title>
<g id="a_Node000005"><a xlink:title=" ">
<polygon fill="#e0e0e0" stroke="#999999" points="217.12,-76 168.88,-76 168.88,-56 217.12,-56 217.12,-76"/>
<text xml:space="preserve" text-anchor="middle" x="193" y="-62.5" font-family="Helvetica,sans-Serif" font-size="10.00">stdint.h</text>
</a>
</g>
</g>
<!-- Node1&#45;&gt;Node5 -->
<g id="edge4_Node000001_Node000005" class="edge">
<title>Node1&#45;&gt;Node5</title>
<g id="a_edge4_Node000001_Node000005"><a xlink:title=" ">
<path fill="none" stroke="#63b8ff" d="M131.06,-111.59C141.97,-103.74 157.75,-92.38 170.66,-83.09"/>
<polygon fill="#63b8ff" stroke="#63b8ff" points="172.54,-86.05 178.61,-77.36 168.45,-80.37 172.54,-86.05"/>
</a>
</g>
</g>
<!-- Node3 -->
<g id="Node000003" class="node">
<title>Node3</title>
<g id="a_Node000003"><a xlink:title=" ">
<polygon fill="#e0e0e0" stroke="#999999" points="88,-20 0,-20 0,0 88,0 88,-20"/>
<text xml:space="preserve" text-anchor="middle" x="44" y="-6.5" font-family="Helvetica,sans-Serif" font-size="10.00">stm32f4xx_hal.h</text>
</a>
</g>
</g>
<!-- Node2&#45;&gt;Node3 -->
<g id="edge2_Node000002_Node000003" class="edge">
<title>Node2&#45;&gt;Node3</title>
<g id="a_edge2_Node000002_Node000003"><a xlink:title=" ">
<path fill="none" stroke="#63b8ff" d="M44,-55.59C44,-49.01 44,-39.96 44,-31.73"/>
<polygon fill="#63b8ff" stroke="#63b8ff" points="47.5,-31.81 44,-21.81 40.5,-31.81 47.5,-31.81"/>
</a>
</g>
</g>
</g>
</svg>
