<?xml version="1.0" encoding="UTF-8" standalone="no"?>
<!DOCTYPE svg PUBLIC "-//W3C//DTD SVG 1.1//EN"
 "http://www.w3.org/Graphics/SVG/1.1/DTD/svg11.dtd">
<!-- Generated by graphviz version 14.0.2 (20251019.1705)
 -->
<!-- Title: max31855.c Pages: 1 -->
<svg width="390pt" height="252pt"
 viewBox="0.00 0.00 390.00 252.00" xmlns="http://www.w3.org/2000/svg" xmlns:xlink="http://www.w3.org/1999/xlink">
<g id="graph0" class="graph" transform="scale(1 1) rotate(0) translate(4 248)">
<title>max31855.c</title>
<!-- Node1 -->
<g id="Node000001" class="node">
<title>Node1</title>
<g id="a_Node000001"><a xlink:title=" ">
<polygon fill="#999999" stroke="#666666" points="250.75,-244 181.5,-244 181.5,-224 250.75,-224 250.75,-244"/>
<text xml:space="preserve" text-anchor="middle" x="216.12" y="-230.5" font-family="Helvetica,sans-Serif" font-size="10.00">max31855.c</text>
</a>
</g>
</g>
<!-- Node2 -->
<g id="Node000002" class="node">
<title>Node2</title>
<g id="a_Node000002"><a xlink:href="max31855_8h.html" target="_top" xlink:title=" ">
<polygon fill="white" stroke="#666666" points="105.75,-132 36.5,-132 36.5,-112 105.75,-112 105.75,-132"/>
<text xml:space="preserve" text-anchor="middle" x="71.12" y="-118.5" font-family="Helvetica,sans-Serif" font-size="10.00">max31855.h</text>
</a>
</g>
</g>
<!-- Node1&#45;&gt;Node2 -->
<g id="edge1_Node000001_Node000002" class="edge">
<title>Node1&#45;&gt;Node2</title>
<g id="a_edge1_Node000001_Node000002"><a xlink:title=" ">
<path fill="none" stroke="#63b8ff" d="M181.09,-226.82C155.84,-220.76 122.42,-209.22 100.12,-188 87.52,-176.01 80.01,-157.55 75.8,-143.37"/>
<polygon fill="#63b8ff" stroke="#63b8ff" points="79.2,-142.53 73.29,-133.73 72.43,-144.29 79.2,-142.53"/>
</a>
</g>
</g>
<!-- Node7 -->
<g id="Node000007" class="node">
<title>Node7</title>
<g id="a_Node000007"><a xlink:title=" ">
<polygon fill="#e0e0e0" stroke="#999999" points="254.5,-188 177.75,-188 177.75,-168 254.5,-168 254.5,-188"/>
<text xml:space="preserve" text-anchor="middle" x="216.12" y="-174.5" font-family="Helvetica,sans-Serif" font-size="10.00">usbd_cdc_if.h</text>
</a>
</g>
</g>
<!-- Node1&#45;&gt;Node7 -->
<g id="edge6_Node000001_Node000007" class="edge">
<title>Node1&#45;&gt;Node7</title>
<g id="a_edge6_Node000001_Node000007"><a xlink:title=" ">
<path fill="none" stroke="#63b8ff" d="M216.12,-223.59C216.12,-217.01 216.12,-207.96 216.12,-199.73"/>
<polygon fill="#63b8ff" stroke="#63b8ff" points="219.63,-199.81 216.13,-189.81 212.63,-199.81 219.63,-199.81"/>
</a>
</g>
</g>
<!-- Node8 -->
<g id="Node000008" class="node">
<title>Node8</title>
<g id="a_Node000008"><a xlink:title=" ">
<polygon fill="#e0e0e0" stroke="#999999" points="318.12,-188 272.12,-188 272.12,-168 318.12,-168 318.12,-188"/>
<text xml:space="preserve" text-anchor="middle" x="295.12" y="-174.5" font-family="Helvetica,sans-Serif" font-size="10.00">math.h</text>
</a>
</g>
</g>
<!-- Node1&#45;&gt;Node8 -->
<g id="edge7_Node000001_Node000008" class="edge">
<title>Node1&#45;&gt;Node8</title>
<g id="a_edge7_Node000001_Node000008"><a xlink:title=" ">
<path fill="none" stroke="#63b8ff" d="M229.89,-223.59C241.48,-215.67 258.32,-204.16 271.99,-194.82"/>
<polygon fill="#63b8ff" stroke="#63b8ff" points="273.73,-197.87 280.01,-189.33 269.78,-192.09 273.73,-197.87"/>
</a>
</g>
</g>
<!-- Node9 -->
<g id="Node000009" class="node">
<title>Node9</title>
<g id="a_Node000009"><a xlink:title=" ">
<polygon fill="#e0e0e0" stroke="#999999" points="381.75,-188 336.5,-188 336.5,-168 381.75,-168 381.75,-188"/>
<text xml:space="preserve" text-anchor="middle" x="359.12" y="-174.5" font-family="Helvetica,sans-Serif" font-size="10.00">stdio.h</text>
</a>
</g>
</g>
<!-- Node1&#45;&gt;Node9 -->
<g id="edge8_Node000001_Node000009" class="edge">
<title>Node1&#45;&gt;Node9</title>
<g id="a_edge8_Node000001_Node000009"><a xlink:title=" ">
<path fill="none" stroke="#63b8ff" d="M241.03,-223.59C264.56,-214.71 300.01,-201.32 325.92,-191.54"/>
<polygon fill="#63b8ff" stroke="#63b8ff" points="326.85,-194.93 334.97,-188.12 324.38,-188.38 326.85,-194.93"/>
</a>
</g>
</g>
<!-- Node10 -->
<g id="Node000010" class="node">
<title>Node10</title>
<g id="a_Node000010"><a xlink:href="inputs_8h.html" target="_top" xlink:title="Input handling, safety interlock logic, and laser control API.">
<polygon fill="white" stroke="#666666" points="159.38,-188 108.88,-188 108.88,-168 159.38,-168 159.38,-188"/>
<text xml:space="preserve" text-anchor="middle" x="134.12" y="-174.5" font-family="Helvetica,sans-Serif" font-size="10.00">inputs.h</text>
</a>
</g>
</g>
<!-- Node1&#45;&gt;Node10 -->
<g id="edge9_Node000001_Node000010" class="edge">
<title>Node1&#45;&gt;Node10</title>
<g id="a_edge9_Node000001_Node000010"><a xlink:title=" ">
<path fill="none" stroke="#63b8ff" d="M201.84,-223.59C189.69,-215.59 171.99,-203.93 157.73,-194.54"/>
<polygon fill="#63b8ff" stroke="#63b8ff" points="160.06,-191.89 149.78,-189.31 156.21,-197.73 160.06,-191.89"/>
</a>
</g>
</g>
<!-- Node3 -->
<g id="Node000003" class="node">
<title>Node3</title>
<g id="a_Node000003"><a xlink:href="_i_p_o_s__071125_2_core_2_inc_2main_8h.html" target="_top" xlink:title=": Header for main.c file. This file contains the common defines of the application.">
<polygon fill="white" stroke="#666666" points="129.75,-76 84.5,-76 84.5,-56 129.75,-56 129.75,-76"/>
<text xml:space="preserve" text-anchor="middle" x="107.12" y="-62.5" font-family="Helvetica,sans-Serif" font-size="10.00">main.h</text>
</a>
</g>
</g>
<!-- Node2&#45;&gt;Node3 -->
<g id="edge2_Node000002_Node000003" class="edge">
<title>Node2&#45;&gt;Node3</title>
<g id="a_edge2_Node000002_Node000003"><a xlink:title=" ">
<path fill="none" stroke="#63b8ff" d="M77.4,-111.59C82.14,-104.47 88.82,-94.45 94.65,-85.72"/>
<polygon fill="#63b8ff" stroke="#63b8ff" points="97.45,-87.82 100.09,-77.56 91.63,-83.94 97.45,-87.82"/>
</a>
</g>
</g>
<!-- Node5 -->
<g id="Node000005" class="node">
<title>Node5</title>
<g id="a_Node000005"><a xlink:title=" ">
<polygon fill="#e0e0e0" stroke="#999999" points="66.25,-76 0,-76 0,-56 66.25,-56 66.25,-76"/>
<text xml:space="preserve" text-anchor="middle" x="33.12" y="-62.5" font-family="Helvetica,sans-Serif" font-size="10.00">cmsis_os.h</text>
</a>
</g>
</g>
<!-- Node2&#45;&gt;Node5 -->
<g id="edge4_Node000002_Node000005" class="edge">
<title>Node2&#45;&gt;Node5</title>
<g id="a_edge4_Node000002_Node000005"><a xlink:title=" ">
<path fill="none" stroke="#63b8ff" d="M64.51,-111.59C59.44,-104.39 52.29,-94.23 46.1,-85.43"/>
<polygon fill="#63b8ff" stroke="#63b8ff" points="49.16,-83.7 40.54,-77.54 43.43,-87.73 49.16,-83.7"/>
</a>
</g>
</g>
<!-- Node6 -->
<g id="Node000006" class="node">
<title>Node6</title>
<g id="a_Node000006"><a xlink:title=" ">
<polygon fill="#e0e0e0" stroke="#999999" points="196.25,-76 148,-76 148,-56 196.25,-56 196.25,-76"/>
<text xml:space="preserve" text-anchor="middle" x="172.12" y="-62.5" font-family="Helvetica,sans-Serif" font-size="10.00">stdint.h</text>
</a>
</g>
</g>
<!-- Node2&#45;&gt;Node6 -->
<g id="edge5_Node000002_Node000006" class="edge">
<title>Node2&#45;&gt;Node6</title>
<g id="a_edge5_Node000002_Node000006"><a xlink:title=" ">
<path fill="none" stroke="#63b8ff" d="M88.72,-111.59C104.05,-103.4 126.54,-91.37 144.31,-81.87"/>
<polygon fill="#63b8ff" stroke="#63b8ff" points="145.89,-84.99 153.06,-77.19 142.59,-78.82 145.89,-84.99"/>
</a>
</g>
</g>
<!-- Node4 -->
<g id="Node000004" class="node">
<title>Node4</title>
<g id="a_Node000004"><a xlink:title=" ">
<polygon fill="#e0e0e0" stroke="#999999" points="151.12,-20 63.12,-20 63.12,0 151.12,0 151.12,-20"/>
<text xml:space="preserve" text-anchor="middle" x="107.12" y="-6.5" font-family="Helvetica,sans-Serif" font-size="10.00">stm32f4xx_hal.h</text>
</a>
</g>
</g>
<!-- Node3&#45;&gt;Node4 -->
<g id="edge3_Node000003_Node000004" class="edge">
<title>Node3&#45;&gt;Node4</title>
<g id="a_edge3_Node000003_Node000004"><a xlink:title=" ">
<path fill="none" stroke="#63b8ff" d="M107.12,-55.59C107.12,-49.01 107.12,-39.96 107.12,-31.73"/>
<polygon fill="#63b8ff" stroke="#63b8ff" points="110.63,-31.81 107.13,-21.81 103.63,-31.81 110.63,-31.81"/>
</a>
</g>
</g>
<!-- Node10&#45;&gt;Node2 -->
<g id="edge13_Node000010_Node000002" class="edge">
<title>Node10&#45;&gt;Node2</title>
<g id="a_edge13_Node000010_Node000002"><a xlink:title=" ">
<path fill="none" stroke="#63b8ff" d="M123.15,-167.59C114.21,-159.93 101.35,-148.91 90.66,-139.75"/>
<polygon fill="#63b8ff" stroke="#63b8ff" points="92.99,-137.13 83.12,-133.28 88.44,-142.45 92.99,-137.13"/>
</a>
</g>
</g>
<!-- Node10&#45;&gt;Node3 -->
<g id="edge12_Node000010_Node000003" class="edge">
<title>Node10&#45;&gt;Node3</title>
<g id="a_edge12_Node000010_Node000003"><a xlink:title=" ">
<path fill="none" stroke="#63b8ff" d="M131.82,-167.62C127.48,-149.92 117.98,-111.24 112.11,-87.32"/>
<polygon fill="#63b8ff" stroke="#63b8ff" points="115.56,-86.7 109.78,-77.82 108.77,-88.37 115.56,-86.7"/>
</a>
</g>
</g>
<!-- Node10&#45;&gt;Node6 -->
<g id="edge10_Node000010_Node000006" class="edge">
<title>Node10&#45;&gt;Node6</title>
<g id="a_edge10_Node000010_Node000006"><a xlink:title=" ">
<path fill="none" stroke="#63b8ff" d="M137.36,-167.62C143.51,-149.84 156.97,-110.88 165.22,-87"/>
<polygon fill="#63b8ff" stroke="#63b8ff" points="168.44,-88.38 168.4,-77.79 161.83,-86.09 168.44,-88.38"/>
</a>
</g>
</g>
<!-- Node11 -->
<g id="Node000011" class="node">
<title>Node11</title>
<g id="a_Node000011"><a xlink:title=" ">
<polygon fill="#e0e0e0" stroke="#999999" points="271.88,-132 200.38,-132 200.38,-112 271.88,-112 271.88,-132"/>
<text xml:space="preserve" text-anchor="middle" x="236.12" y="-118.5" font-family="Helvetica,sans-Serif" font-size="10.00">cmsis_os2.h</text>
</a>
</g>
</g>
<!-- Node10&#45;&gt;Node11 -->
<g id="edge11_Node000010_Node000011" class="edge">
<title>Node10&#45;&gt;Node11</title>
<g id="a_edge11_Node000010_Node000011"><a xlink:title=" ">
<path fill="none" stroke="#63b8ff" d="M151.89,-167.59C167.45,-159.36 190.31,-147.26 208.29,-137.74"/>
<polygon fill="#63b8ff" stroke="#63b8ff" points="209.68,-140.96 216.88,-133.19 206.41,-134.77 209.68,-140.96"/>
</a>
</g>
</g>
</g>
</svg>
