<?xml version="1.0" encoding="UTF-8" standalone="no"?>
<!DOCTYPE svg PUBLIC "-//W3C//DTD SVG 1.1//EN"
 "http://www.w3.org/Graphics/SVG/1.1/DTD/svg11.dtd">
<!-- Generated by graphviz version 14.0.2 (20251019.1705)
 -->
<!-- Title: ports_hw.h Pages: 1 -->
<svg width="156pt" height="84pt"
 viewBox="0.00 0.00 156.00 84.00" xmlns="http://www.w3.org/2000/svg" xmlns:xlink="http://www.w3.org/1999/xlink">
<g id="graph0" class="graph" transform="scale(1 1) rotate(0) translate(4 80)">
<title>ports_hw.h</title>
<!-- Node1 -->
<g id="Node000001" class="node">
<title>Node1</title>
<g id="a_Node000001"><a xlink:title=" ">
<polygon fill="#999999" stroke="#666666" points="105.75,-76 42.5,-76 42.5,-56 105.75,-56 105.75,-76"/>
<text xml:space="preserve" text-anchor="middle" x="74.12" y="-62.5" font-family="Helvetica,sans-Serif" font-size="10.00">ports_hw.h</text>
</a>
</g>
</g>
<!-- Node2 -->
<g id="Node000002" class="node">
<title>Node2</title>
<g id="a_Node000002"><a xlink:href="app__main_8c.html" target="_top" xlink:title=" ">
<polygon fill="white" stroke="#666666" points="66.25,-20 0,-20 0,0 66.25,0 66.25,-20"/>
<text xml:space="preserve" text-anchor="middle" x="33.12" y="-6.5" font-family="Helvetica,sans-Serif" font-size="10.00">app_main.c</text>
</a>
</g>
</g>
<!-- Node1&#45;&gt;Node2 -->
<g id="edge1_Node000001_Node000002" class="edge">
<title>Node1&#45;&gt;Node2</title>
<g id="a_edge1_Node000001_Node000002"><a xlink:title=" ">
<path fill="none" stroke="#63b8ff" d="M60.03,-46.44C53.34,-37.62 45.63,-27.47 40.18,-20.3"/>
<polygon fill="#63b8ff" stroke="#63b8ff" points="57.23,-48.54 66.07,-54.39 62.81,-44.31 57.23,-48.54"/>
</a>
</g>
</g>
<!-- Node3 -->
<g id="Node000003" class="node">
<title>Node3</title>
<g id="a_Node000003"><a xlink:href="ports__hw_8c.html" target="_top" xlink:title=" ">
<polygon fill="white" stroke="#666666" points="147.75,-20 84.5,-20 84.5,0 147.75,0 147.75,-20"/>
<text xml:space="preserve" text-anchor="middle" x="116.12" y="-6.5" font-family="Helvetica,sans-Serif" font-size="10.00">ports_hw.c</text>
</a>
</g>
</g>
<!-- Node1&#45;&gt;Node3 -->
<g id="edge2_Node000001_Node000003" class="edge">
<title>Node1&#45;&gt;Node3</title>
<g id="a_edge2_Node000001_Node000003"><a xlink:title=" ">
<path fill="none" stroke="#63b8ff" d="M88.34,-46.72C95.25,-37.84 103.26,-27.55 108.89,-20.3"/>
<polygon fill="#63b8ff" stroke="#63b8ff" points="85.75,-44.36 82.37,-54.4 91.27,-48.65 85.75,-44.36"/>
</a>
</g>
</g>
</g>
</svg>
