<?xml version="1.0" encoding="UTF-8" standalone="no"?>
<!DOCTYPE svg PUBLIC "-//W3C//DTD SVG 1.1//EN"
 "http://www.w3.org/Graphics/SVG/1.1/DTD/svg11.dtd">
<!-- Generated by graphviz version 14.0.2 (20251019.1705)
 -->
<!-- Title: safety_utils.c Pages: 1 -->
<svg width="258pt" height="308pt"
 viewBox="0.00 0.00 258.00 308.00" xmlns="http://www.w3.org/2000/svg" xmlns:xlink="http://www.w3.org/1999/xlink">
<g id="graph0" class="graph" transform="scale(1 1) rotate(0) translate(4 304)">
<title>safety_utils.c</title>
<!-- Node1 -->
<g id="Node000001" class="node">
<title>Node1</title>
<g id="a_Node000001"><a xlink:title=" ">
<polygon fill="#999999" stroke="#666666" points="239.25,-300 164.75,-300 164.75,-280 239.25,-280 239.25,-300"/>
<text xml:space="preserve" text-anchor="middle" x="202" y="-286.5" font-family="Helvetica,sans-Serif" font-size="10.00">safety_utils.c</text>
</a>
</g>
</g>
<!-- Node2 -->
<g id="Node000002" class="node">
<title>Node2</title>
<g id="a_Node000002"><a xlink:href="safety__utils_8h.html" target="_top" xlink:title=" ">
<polygon fill="white" stroke="#666666" points="239.25,-244 164.75,-244 164.75,-224 239.25,-224 239.25,-244"/>
<text xml:space="preserve" text-anchor="middle" x="202" y="-230.5" font-family="Helvetica,sans-Serif" font-size="10.00">safety_utils.h</text>
</a>
</g>
</g>
<!-- Node1&#45;&gt;Node2 -->
<g id="edge1_Node000001_Node000002" class="edge">
<title>Node1&#45;&gt;Node2</title>
<g id="a_edge1_Node000001_Node000002"><a xlink:title=" ">
<path fill="none" stroke="#63b8ff" d="M202,-279.59C202,-273.01 202,-263.96 202,-255.73"/>
<polygon fill="#63b8ff" stroke="#63b8ff" points="205.5,-255.81 202,-245.81 198.5,-255.81 205.5,-255.81"/>
</a>
</g>
</g>
<!-- Node3 -->
<g id="Node000003" class="node">
<title>Node3</title>
<g id="a_Node000003"><a xlink:title=" ">
<polygon fill="#e0e0e0" stroke="#999999" points="250.12,-76 201.88,-76 201.88,-56 250.12,-56 250.12,-76"/>
<text xml:space="preserve" text-anchor="middle" x="226" y="-62.5" font-family="Helvetica,sans-Serif" font-size="10.00">stdint.h</text>
</a>
</g>
</g>
<!-- Node2&#45;&gt;Node3 -->
<g id="edge2_Node000002_Node000003" class="edge">
<title>Node2&#45;&gt;Node3</title>
<g id="a_edge2_Node000002_Node000003"><a xlink:title=" ">
<path fill="none" stroke="#63b8ff" d="M213.15,-223.59C222.06,-215.28 233.88,-202.28 239,-188 251.13,-154.14 241.38,-111.81 233.48,-87.24"/>
<polygon fill="#63b8ff" stroke="#63b8ff" points="236.82,-86.18 230.25,-77.87 230.2,-88.46 236.82,-86.18"/>
</a>
</g>
</g>
<!-- Node4 -->
<g id="Node000004" class="node">
<title>Node4</title>
<g id="a_Node000004"><a xlink:title=" ">
<polygon fill="#e0e0e0" stroke="#999999" points="229.88,-188 174.12,-188 174.12,-168 229.88,-168 229.88,-188"/>
<text xml:space="preserve" text-anchor="middle" x="202" y="-174.5" font-family="Helvetica,sans-Serif" font-size="10.00">stdbool.h</text>
</a>
</g>
</g>
<!-- Node2&#45;&gt;Node4 -->
<g id="edge3_Node000002_Node000004" class="edge">
<title>Node2&#45;&gt;Node4</title>
<g id="a_edge3_Node000002_Node000004"><a xlink:title=" ">
<path fill="none" stroke="#63b8ff" d="M202,-223.59C202,-217.01 202,-207.96 202,-199.73"/>
<polygon fill="#63b8ff" stroke="#63b8ff" points="205.5,-199.81 202,-189.81 198.5,-199.81 205.5,-199.81"/>
</a>
</g>
</g>
<!-- Node5 -->
<g id="Node000005" class="node">
<title>Node5</title>
<g id="a_Node000005"><a xlink:href="inputs_8h.html" target="_top" xlink:title="Input handling, safety interlock logic, and laser control API.">
<polygon fill="white" stroke="#666666" points="156.25,-188 105.75,-188 105.75,-168 156.25,-168 156.25,-188"/>
<text xml:space="preserve" text-anchor="middle" x="131" y="-174.5" font-family="Helvetica,sans-Serif" font-size="10.00">inputs.h</text>
</a>
</g>
</g>
<!-- Node2&#45;&gt;Node5 -->
<g id="edge4_Node000002_Node000005" class="edge">
<title>Node2&#45;&gt;Node5</title>
<g id="a_edge4_Node000002_Node000005"><a xlink:title=" ">
<path fill="none" stroke="#63b8ff" d="M189.63,-223.59C179.35,-215.77 164.48,-204.46 152.29,-195.19"/>
<polygon fill="#63b8ff" stroke="#63b8ff" points="154.51,-192.48 144.43,-189.21 150.27,-198.05 154.51,-192.48"/>
</a>
</g>
</g>
<!-- Node5&#45;&gt;Node3 -->
<g id="edge5_Node000005_Node000003" class="edge">
<title>Node5&#45;&gt;Node3</title>
<g id="a_edge5_Node000005_Node000003"><a xlink:title=" ">
<path fill="none" stroke="#63b8ff" d="M152.58,-167.64C167.93,-160.01 188.05,-147.91 201,-132 211.52,-119.08 217.96,-101.23 221.66,-87.51"/>
<polygon fill="#63b8ff" stroke="#63b8ff" points="225.06,-88.33 223.98,-77.79 218.25,-86.71 225.06,-88.33"/>
</a>
</g>
</g>
<!-- Node6 -->
<g id="Node000006" class="node">
<title>Node6</title>
<g id="a_Node000006"><a xlink:title=" ">
<polygon fill="#e0e0e0" stroke="#999999" points="104.75,-132 33.25,-132 33.25,-112 104.75,-112 104.75,-132"/>
<text xml:space="preserve" text-anchor="middle" x="69" y="-118.5" font-family="Helvetica,sans-Serif" font-size="10.00">cmsis_os2.h</text>
</a>
</g>
</g>
<!-- Node5&#45;&gt;Node6 -->
<g id="edge6_Node000005_Node000006" class="edge">
<title>Node5&#45;&gt;Node6</title>
<g id="a_edge6_Node000005_Node000006"><a xlink:title=" ">
<path fill="none" stroke="#63b8ff" d="M120.2,-167.59C111.4,-159.93 98.75,-148.91 88.23,-139.75"/>
<polygon fill="#63b8ff" stroke="#63b8ff" points="90.66,-137.22 80.82,-133.29 86.06,-142.5 90.66,-137.22"/>
</a>
</g>
</g>
<!-- Node7 -->
<g id="Node000007" class="node">
<title>Node7</title>
<g id="a_Node000007"><a xlink:href="_i_p_o_s__071125_2_core_2_inc_2main_8h.html" target="_top" xlink:title=": Header for main.c file. This file contains the common defines of the application.">
<polygon fill="white" stroke="#666666" points="66.62,-76 21.38,-76 21.38,-56 66.62,-56 66.62,-76"/>
<text xml:space="preserve" text-anchor="middle" x="44" y="-62.5" font-family="Helvetica,sans-Serif" font-size="10.00">main.h</text>
</a>
</g>
</g>
<!-- Node5&#45;&gt;Node7 -->
<g id="edge7_Node000005_Node000007" class="edge">
<title>Node5&#45;&gt;Node7</title>
<g id="a_edge7_Node000005_Node000007"><a xlink:title=" ">
<path fill="none" stroke="#63b8ff" d="M105.62,-174.25C80.11,-169.99 42.06,-159.19 24,-132 14.63,-117.89 22.04,-99.19 30.37,-85.47"/>
<polygon fill="#63b8ff" stroke="#63b8ff" points="33.14,-87.61 35.81,-77.36 27.33,-83.71 33.14,-87.61"/>
</a>
</g>
</g>
<!-- Node9 -->
<g id="Node000009" class="node">
<title>Node9</title>
<g id="a_Node000009"><a xlink:href="max31855_8h.html" target="_top" xlink:title=" ">
<polygon fill="white" stroke="#666666" points="191.62,-132 122.38,-132 122.38,-112 191.62,-112 191.62,-132"/>
<text xml:space="preserve" text-anchor="middle" x="157" y="-118.5" font-family="Helvetica,sans-Serif" font-size="10.00">max31855.h</text>
</a>
</g>
</g>
<!-- Node5&#45;&gt;Node9 -->
<g id="edge9_Node000005_Node000009" class="edge">
<title>Node5&#45;&gt;Node9</title>
<g id="a_edge9_Node000005_Node000009"><a xlink:title=" ">
<path fill="none" stroke="#63b8ff" d="M135.53,-167.59C138.85,-160.7 143.47,-151.1 147.58,-142.57"/>
<polygon fill="#63b8ff" stroke="#63b8ff" points="150.68,-144.19 151.87,-133.66 144.37,-141.15 150.68,-144.19"/>
</a>
</g>
</g>
<!-- Node8 -->
<g id="Node000008" class="node">
<title>Node8</title>
<g id="a_Node000008"><a xlink:title=" ">
<polygon fill="#e0e0e0" stroke="#999999" points="88,-20 0,-20 0,0 88,0 88,-20"/>
<text xml:space="preserve" text-anchor="middle" x="44" y="-6.5" font-family="Helvetica,sans-Serif" font-size="10.00">stm32f4xx_hal.h</text>
</a>
</g>
</g>
<!-- Node7&#45;&gt;Node8 -->
<g id="edge8_Node000007_Node000008" class="edge">
<title>Node7&#45;&gt;Node8</title>
<g id="a_edge8_Node000007_Node000008"><a xlink:title=" ">
<path fill="none" stroke="#63b8ff" d="M44,-55.59C44,-49.01 44,-39.96 44,-31.73"/>
<polygon fill="#63b8ff" stroke="#63b8ff" points="47.5,-31.81 44,-21.81 40.5,-31.81 47.5,-31.81"/>
</a>
</g>
</g>
<!-- Node9&#45;&gt;Node3 -->
<g id="edge12_Node000009_Node000003" class="edge">
<title>Node9&#45;&gt;Node3</title>
<g id="a_edge12_Node000009_Node000003"><a xlink:title=" ">
<path fill="none" stroke="#63b8ff" d="M169.02,-111.59C179.01,-103.77 193.46,-92.46 205.31,-83.19"/>
<polygon fill="#63b8ff" stroke="#63b8ff" points="207.21,-86.15 212.93,-77.23 202.89,-80.64 207.21,-86.15"/>
</a>
</g>
</g>
<!-- Node9&#45;&gt;Node7 -->
<g id="edge10_Node000009_Node000007" class="edge">
<title>Node9&#45;&gt;Node7</title>
<g id="a_edge10_Node000009_Node000007"><a xlink:title=" ">
<path fill="none" stroke="#63b8ff" d="M137.32,-111.59C119.84,-103.24 94.05,-90.92 74,-81.34"/>
<polygon fill="#63b8ff" stroke="#63b8ff" points="75.73,-78.29 65.2,-77.13 72.72,-84.6 75.73,-78.29"/>
</a>
</g>
</g>
<!-- Node10 -->
<g id="Node000010" class="node">
<title>Node10</title>
<g id="a_Node000010"><a xlink:title=" ">
<polygon fill="#e0e0e0" stroke="#999999" points="184.12,-76 117.88,-76 117.88,-56 184.12,-56 184.12,-76"/>
<text xml:space="preserve" text-anchor="middle" x="151" y="-62.5" font-family="Helvetica,sans-Serif" font-size="10.00">cmsis_os.h</text>
</a>
</g>
</g>
<!-- Node9&#45;&gt;Node10 -->
<g id="edge11_Node000009_Node000010" class="edge">
<title>Node9&#45;&gt;Node10</title>
<g id="a_edge11_Node000009_Node000010"><a xlink:title=" ">
<path fill="none" stroke="#63b8ff" d="M155.95,-111.59C155.22,-105.01 154.22,-95.96 153.3,-87.73"/>
<polygon fill="#63b8ff" stroke="#63b8ff" points="156.78,-87.35 152.2,-77.8 149.83,-88.13 156.78,-87.35"/>
</a>
</g>
</g>
</g>
</svg>
