<?xml version="1.0" encoding="UTF-8" standalone="no"?>
<!DOCTYPE svg PUBLIC "-//W3C//DTD SVG 1.1//EN"
 "http://www.w3.org/Graphics/SVG/1.1/DTD/svg11.dtd">
<!-- Generated by graphviz version 14.0.2 (20251019.1705)
 -->
<!-- Title: slave_link.h Pages: 1 -->
<svg width="320pt" height="84pt"
 viewBox="0.00 0.00 320.00 84.00" xmlns="http://www.w3.org/2000/svg" xmlns:xlink="http://www.w3.org/1999/xlink">
<g id="graph0" class="graph" transform="scale(1 1) rotate(0) translate(4 80)">
<title>slave_link.h</title>
<!-- Node1 -->
<g id="Node000001" class="node">
<title>Node1</title>
<g id="a_Node000001"><a xlink:title=" ">
<polygon fill="#999999" stroke="#666666" points="237.38,-76 169.62,-76 169.62,-56 237.38,-56 237.38,-76"/>
<text xml:space="preserve" text-anchor="middle" x="203.5" y="-62.5" font-family="Helvetica,sans-Serif" font-size="10.00">slave_link.h</text>
</a>
</g>
</g>
<!-- Node2 -->
<g id="Node000002" class="node">
<title>Node2</title>
<g id="a_Node000002"><a xlink:href="abcc__network__data__parameters_8c.html" target="_top" xlink:title=" ">
<polygon fill="white" stroke="#666666" points="163,-20 0,-20 0,0 163,0 163,-20"/>
<text xml:space="preserve" text-anchor="middle" x="81.5" y="-6.5" font-family="Helvetica,sans-Serif" font-size="10.00">abcc_network_data_parameters.c</text>
</a>
</g>
</g>
<!-- Node1&#45;&gt;Node2 -->
<g id="edge1_Node000001_Node000002" class="edge">
<title>Node1&#45;&gt;Node2</title>
<g id="a_edge1_Node000001_Node000002"><a xlink:title=" ">
<path fill="none" stroke="#63b8ff" d="M171.89,-51.01C150.21,-41.41 122.01,-28.93 102.92,-20.48"/>
<polygon fill="#63b8ff" stroke="#63b8ff" points="170.3,-54.13 180.87,-54.98 173.14,-47.73 170.3,-54.13"/>
</a>
</g>
</g>
<!-- Node3 -->
<g id="Node000003" class="node">
<title>Node3</title>
<g id="a_Node000003"><a xlink:href="_i_p_o_s___m40___v1__00__101125_2_core_2_src_2main_8c.html" target="_top" xlink:title=": Main program body">
<polygon fill="white" stroke="#666666" points="226.12,-20 180.88,-20 180.88,0 226.12,0 226.12,-20"/>
<text xml:space="preserve" text-anchor="middle" x="203.5" y="-6.5" font-family="Helvetica,sans-Serif" font-size="10.00">main.c</text>
</a>
</g>
</g>
<!-- Node1&#45;&gt;Node3 -->
<g id="edge2_Node000001_Node000003" class="edge">
<title>Node1&#45;&gt;Node3</title>
<g id="a_edge2_Node000001_Node000003"><a xlink:title=" ">
<path fill="none" stroke="#63b8ff" d="M203.5,-44.13C203.5,-35.9 203.5,-26.85 203.5,-20.3"/>
<polygon fill="#63b8ff" stroke="#63b8ff" points="200,-44.08 203.5,-54.08 207,-44.08 200,-44.08"/>
</a>
</g>
</g>
<!-- Node4 -->
<g id="Node000004" class="node">
<title>Node4</title>
<g id="a_Node000004"><a xlink:href="slave__link_8c.html" target="_top" xlink:title=" ">
<polygon fill="white" stroke="#666666" points="312.38,-20 244.62,-20 244.62,0 312.38,0 312.38,-20"/>
<text xml:space="preserve" text-anchor="middle" x="278.5" y="-6.5" font-family="Helvetica,sans-Serif" font-size="10.00">slave_link.c</text>
</a>
</g>
</g>
<!-- Node1&#45;&gt;Node4 -->
<g id="edge3_Node000001_Node000004" class="edge">
<title>Node1&#45;&gt;Node4</title>
<g id="a_edge3_Node000001_Node000004"><a xlink:title=" ">
<path fill="none" stroke="#63b8ff" d="M225.72,-49C238.61,-39.72 254.4,-28.35 265.33,-20.48"/>
<polygon fill="#63b8ff" stroke="#63b8ff" points="223.86,-46.03 217.79,-54.71 227.95,-51.71 223.86,-46.03"/>
</a>
</g>
</g>
</g>
</svg>
