<?xml version="1.0" encoding="UTF-8" standalone="no"?>
<!DOCTYPE svg PUBLIC "-//W3C//DTD SVG 1.1//EN"
 "http://www.w3.org/Graphics/SVG/1.1/DTD/svg11.dtd">
<!-- Generated by graphviz version 14.0.2 (20251019.1705)
 -->
<!-- Title: slave_link.c Pages: 1 -->
<svg width="414pt" height="140pt"
 viewBox="0.00 0.00 414.00 140.00" xmlns="http://www.w3.org/2000/svg" xmlns:xlink="http://www.w3.org/1999/xlink">
<g id="graph0" class="graph" transform="scale(1 1) rotate(0) translate(4 136)">
<title>slave_link.c</title>
<!-- Node1 -->
<g id="Node000001" class="node">
<title>Node1</title>
<g id="a_Node000001"><a xlink:title=" ">
<polygon fill="#999999" stroke="#666666" points="280,-132 212.25,-132 212.25,-112 280,-112 280,-132"/>
<text xml:space="preserve" text-anchor="middle" x="246.12" y="-118.5" font-family="Helvetica,sans-Serif" font-size="10.00">slave_link.c</text>
</a>
</g>
</g>
<!-- Node2 -->
<g id="Node000002" class="node">
<title>Node2</title>
<g id="a_Node000002"><a xlink:href="slave__link_8h.html" target="_top" xlink:title=" ">
<polygon fill="white" stroke="#666666" points="116,-76 48.25,-76 48.25,-56 116,-56 116,-76"/>
<text xml:space="preserve" text-anchor="middle" x="82.12" y="-62.5" font-family="Helvetica,sans-Serif" font-size="10.00">slave_link.h</text>
</a>
</g>
</g>
<!-- Node1&#45;&gt;Node2 -->
<g id="edge1_Node000001_Node000002" class="edge">
<title>Node1&#45;&gt;Node2</title>
<g id="a_edge1_Node000001_Node000002"><a xlink:title=" ">
<path fill="none" stroke="#63b8ff" d="M217.56,-111.59C191.03,-102.86 151.29,-89.77 121.71,-80.03"/>
<polygon fill="#63b8ff" stroke="#63b8ff" points="122.95,-76.76 112.35,-76.95 120.76,-83.4 122.95,-76.76"/>
</a>
</g>
</g>
<!-- Node4 -->
<g id="Node000004" class="node">
<title>Node4</title>
<g id="a_Node000004"><a xlink:href="ringbuffer_8h.html" target="_top" xlink:title=" ">
<polygon fill="white" stroke="#666666" points="199.12,-76 135.12,-76 135.12,-56 199.12,-56 199.12,-76"/>
<text xml:space="preserve" text-anchor="middle" x="167.12" y="-62.5" font-family="Helvetica,sans-Serif" font-size="10.00">ringbuffer.h</text>
</a>
</g>
</g>
<!-- Node1&#45;&gt;Node4 -->
<g id="edge3_Node000001_Node000004" class="edge">
<title>Node1&#45;&gt;Node4</title>
<g id="a_edge3_Node000001_Node000004"><a xlink:title=" ">
<path fill="none" stroke="#63b8ff" d="M232.36,-111.59C220.77,-103.67 203.93,-92.16 190.26,-82.82"/>
<polygon fill="#63b8ff" stroke="#63b8ff" points="192.47,-80.09 182.24,-77.33 188.52,-85.87 192.47,-80.09"/>
</a>
</g>
</g>
<!-- Node8 -->
<g id="Node000008" class="node">
<title>Node8</title>
<g id="a_Node000008"><a xlink:title=" ">
<polygon fill="#e0e0e0" stroke="#999999" points="275.5,-76 216.75,-76 216.75,-56 275.5,-56 275.5,-76"/>
<text xml:space="preserve" text-anchor="middle" x="246.12" y="-62.5" font-family="Helvetica,sans-Serif" font-size="10.00">protocol.h</text>
</a>
</g>
</g>
<!-- Node1&#45;&gt;Node8 -->
<g id="edge7_Node000001_Node000008" class="edge">
<title>Node1&#45;&gt;Node8</title>
<g id="a_edge7_Node000001_Node000008"><a xlink:title=" ">
<path fill="none" stroke="#63b8ff" d="M246.12,-111.59C246.12,-105.01 246.12,-95.96 246.12,-87.73"/>
<polygon fill="#63b8ff" stroke="#63b8ff" points="249.63,-87.81 246.13,-77.81 242.63,-87.81 249.63,-87.81"/>
</a>
</g>
</g>
<!-- Node9 -->
<g id="Node000009" class="node">
<title>Node9</title>
<g id="a_Node000009"><a xlink:title=" ">
<polygon fill="#e0e0e0" stroke="#999999" points="342.25,-76 294,-76 294,-56 342.25,-56 342.25,-76"/>
<text xml:space="preserve" text-anchor="middle" x="318.12" y="-62.5" font-family="Helvetica,sans-Serif" font-size="10.00">string.h</text>
</a>
</g>
</g>
<!-- Node1&#45;&gt;Node9 -->
<g id="edge8_Node000001_Node000009" class="edge">
<title>Node1&#45;&gt;Node9</title>
<g id="a_edge8_Node000001_Node000009"><a xlink:title=" ">
<path fill="none" stroke="#63b8ff" d="M258.67,-111.59C269.09,-103.77 284.17,-92.46 296.54,-83.19"/>
<polygon fill="#63b8ff" stroke="#63b8ff" points="298.62,-86.01 304.52,-77.21 294.42,-80.41 298.62,-86.01"/>
</a>
</g>
</g>
<!-- Node10 -->
<g id="Node000010" class="node">
<title>Node10</title>
<g id="a_Node000010"><a xlink:title=" ">
<polygon fill="#e0e0e0" stroke="#999999" points="405.75,-76 360.5,-76 360.5,-56 405.75,-56 405.75,-76"/>
<text xml:space="preserve" text-anchor="middle" x="383.12" y="-62.5" font-family="Helvetica,sans-Serif" font-size="10.00">main.h</text>
</a>
</g>
</g>
<!-- Node1&#45;&gt;Node10 -->
<g id="edge9_Node000001_Node000010" class="edge">
<title>Node1&#45;&gt;Node10</title>
<g id="a_edge9_Node000001_Node000010"><a xlink:title=" ">
<path fill="none" stroke="#63b8ff" d="M269.99,-111.59C292.06,-102.89 325.08,-89.88 349.76,-80.15"/>
<polygon fill="#63b8ff" stroke="#63b8ff" points="351.02,-83.42 359.04,-76.49 348.45,-76.91 351.02,-83.42"/>
</a>
</g>
</g>
<!-- Node3 -->
<g id="Node000003" class="node">
<title>Node3</title>
<g id="a_Node000003"><a xlink:title=" ">
<polygon fill="#e0e0e0" stroke="#999999" points="90.25,-20 0,-20 0,0 90.25,0 90.25,-20"/>
<text xml:space="preserve" text-anchor="middle" x="45.12" y="-6.5" font-family="Helvetica,sans-Serif" font-size="10.00">stm32h7xx_hal.h</text>
</a>
</g>
</g>
<!-- Node2&#45;&gt;Node3 -->
<g id="edge2_Node000002_Node000003" class="edge">
<title>Node2&#45;&gt;Node3</title>
<g id="a_edge2_Node000002_Node000003"><a xlink:title=" ">
<path fill="none" stroke="#63b8ff" d="M75.68,-55.59C70.8,-48.47 63.93,-38.45 57.95,-29.72"/>
<polygon fill="#63b8ff" stroke="#63b8ff" points="60.89,-27.82 52.35,-21.55 55.12,-31.77 60.89,-27.82"/>
</a>
</g>
</g>
<!-- Node5 -->
<g id="Node000005" class="node">
<title>Node5</title>
<g id="a_Node000005"><a xlink:title=" ">
<polygon fill="#e0e0e0" stroke="#999999" points="156.25,-20 108,-20 108,0 156.25,0 156.25,-20"/>
<text xml:space="preserve" text-anchor="middle" x="132.12" y="-6.5" font-family="Helvetica,sans-Serif" font-size="10.00">stdint.h</text>
</a>
</g>
</g>
<!-- Node4&#45;&gt;Node5 -->
<g id="edge4_Node000004_Node000005" class="edge">
<title>Node4&#45;&gt;Node5</title>
<g id="a_edge4_Node000004_Node000005"><a xlink:title=" ">
<path fill="none" stroke="#63b8ff" d="M161.03,-55.59C156.41,-48.47 149.92,-38.45 144.26,-29.72"/>
<polygon fill="#63b8ff" stroke="#63b8ff" points="147.35,-28.06 138.97,-21.57 141.48,-31.86 147.35,-28.06"/>
</a>
</g>
</g>
<!-- Node6 -->
<g id="Node000006" class="node">
<title>Node6</title>
<g id="a_Node000006"><a xlink:title=" ">
<polygon fill="#e0e0e0" stroke="#999999" points="230,-20 174.25,-20 174.25,0 230,0 230,-20"/>
<text xml:space="preserve" text-anchor="middle" x="202.12" y="-6.5" font-family="Helvetica,sans-Serif" font-size="10.00">stdbool.h</text>
</a>
</g>
</g>
<!-- Node4&#45;&gt;Node6 -->
<g id="edge5_Node000004_Node000006" class="edge">
<title>Node4&#45;&gt;Node6</title>
<g id="a_edge5_Node000004_Node000006"><a xlink:title=" ">
<path fill="none" stroke="#63b8ff" d="M173.22,-55.59C177.84,-48.47 184.33,-38.45 189.99,-29.72"/>
<polygon fill="#63b8ff" stroke="#63b8ff" points="192.77,-31.86 195.28,-21.57 186.9,-28.06 192.77,-31.86"/>
</a>
</g>
</g>
<!-- Node7 -->
<g id="Node000007" class="node">
<title>Node7</title>
<g id="a_Node000007"><a xlink:title=" ">
<polygon fill="#e0e0e0" stroke="#999999" points="299.75,-20 248.5,-20 248.5,0 299.75,0 299.75,-20"/>
<text xml:space="preserve" text-anchor="middle" x="274.12" y="-6.5" font-family="Helvetica,sans-Serif" font-size="10.00">stddef.h</text>
</a>
</g>
</g>
<!-- Node4&#45;&gt;Node7 -->
<g id="edge6_Node000004_Node000007" class="edge">
<title>Node4&#45;&gt;Node7</title>
<g id="a_edge6_Node000004_Node000007"><a xlink:title=" ">
<path fill="none" stroke="#63b8ff" d="M185.76,-55.59C202.16,-47.32 226.28,-35.14 245.19,-25.6"/>
<polygon fill="#63b8ff" stroke="#63b8ff" points="246.64,-28.79 253.99,-21.16 243.49,-22.54 246.64,-28.79"/>
</a>
</g>
</g>
</g>
</svg>
