<?xml version="1.0" encoding="UTF-8" standalone="no"?>
<!DOCTYPE svg PUBLIC "-//W3C//DTD SVG 1.1//EN"
 "http://www.w3.org/Graphics/SVG/1.1/DTD/svg11.dtd">
<!-- Generated by graphviz version 14.0.2 (20251019.1705)
 -->
<!-- Title: stm32f4xx_it.c Pages: 1 -->
<svg width="152pt" height="84pt"
 viewBox="0.00 0.00 152.00 84.00" xmlns="http://www.w3.org/2000/svg" xmlns:xlink="http://www.w3.org/1999/xlink">
<g id="graph0" class="graph" transform="scale(1 1) rotate(0) translate(4 80)">
<title>stm32f4xx_it.c</title>
<!-- Node1 -->
<g id="Node000001" class="node">
<title>Node1</title>
<g id="a_Node000001"><a xlink:title="Interrupt Service Routines.">
<polygon fill="#999999" stroke="#666666" points="102.88,-76 22.38,-76 22.38,-56 102.88,-56 102.88,-76"/>
<text xml:space="preserve" text-anchor="middle" x="62.62" y="-62.5" font-family="Helvetica,sans-Serif" font-size="10.00">stm32f4xx_it.c</text>
</a>
</g>
</g>
<!-- Node2 -->
<g id="Node000002" class="node">
<title>Node2</title>
<g id="a_Node000002"><a xlink:title=" ">
<polygon fill="#e0e0e0" stroke="#999999" points="45.25,-20 0,-20 0,0 45.25,0 45.25,-20"/>
<text xml:space="preserve" text-anchor="middle" x="22.62" y="-6.5" font-family="Helvetica,sans-Serif" font-size="10.00">main.h</text>
</a>
</g>
</g>
<!-- Node1&#45;&gt;Node2 -->
<g id="edge1_Node000001_Node000002" class="edge">
<title>Node1&#45;&gt;Node2</title>
<g id="a_edge1_Node000001_Node000002"><a xlink:title=" ">
<path fill="none" stroke="#63b8ff" d="M55.66,-55.59C50.32,-48.39 42.8,-38.23 36.28,-29.43"/>
<polygon fill="#63b8ff" stroke="#63b8ff" points="39.18,-27.47 30.41,-21.51 33.55,-31.63 39.18,-27.47"/>
</a>
</g>
</g>
<!-- Node3 -->
<g id="Node000003" class="node">
<title>Node3</title>
<g id="a_Node000003"><a xlink:href="stm32f4xx__it_8h.html" target="_top" xlink:title="This file contains the headers of the interrupt handlers.">
<polygon fill="white" stroke="#666666" points="143.88,-20 63.38,-20 63.38,0 143.88,0 143.88,-20"/>
<text xml:space="preserve" text-anchor="middle" x="103.62" y="-6.5" font-family="Helvetica,sans-Serif" font-size="10.00">stm32f4xx_it.h</text>
</a>
</g>
</g>
<!-- Node1&#45;&gt;Node3 -->
<g id="edge2_Node000001_Node000003" class="edge">
<title>Node1&#45;&gt;Node3</title>
<g id="a_edge2_Node000001_Node000003"><a xlink:title=" ">
<path fill="none" stroke="#63b8ff" d="M69.77,-55.59C75.23,-48.39 82.95,-38.23 89.63,-29.43"/>
<polygon fill="#63b8ff" stroke="#63b8ff" points="92.39,-31.58 95.65,-21.5 86.82,-27.35 92.39,-31.58"/>
</a>
</g>
</g>
</g>
</svg>
