<?xml version="1.0" encoding="UTF-8" standalone="no"?>
<!DOCTYPE svg PUBLIC "-//W3C//DTD SVG 1.1//EN"
 "http://www.w3.org/Graphics/SVG/1.1/DTD/svg11.dtd">
<!-- Generated by graphviz version 14.0.2 (20251019.1705)
 -->
<!-- Title: stm32f4xx_hal_timebase_tim.c Pages: 1 -->
<svg width="220pt" height="96pt"
 viewBox="0.00 0.00 220.00 96.00" xmlns="http://www.w3.org/2000/svg" xmlns:xlink="http://www.w3.org/1999/xlink">
<g id="graph0" class="graph" transform="scale(1 1) rotate(0) translate(4 92)">
<title>stm32f4xx_hal_timebase_tim.c</title>
<!-- Node1 -->
<g id="Node000001" class="node">
<title>Node1</title>
<g id="a_Node000001"><a xlink:title="HAL time base based on the hardware TIM.">
<polygon fill="#999999" stroke="#666666" points="163.38,-88 38.63,-88 38.63,-56 163.38,-56 163.38,-88"/>
<text xml:space="preserve" text-anchor="start" x="46.62" y="-74.5" font-family="Helvetica,sans-Serif" font-size="10.00">stm32f4xx_hal_timebase</text>
<text xml:space="preserve" text-anchor="middle" x="101" y="-62.5" font-family="Helvetica,sans-Serif" font-size="10.00">_tim.c</text>
</a>
</g>
</g>
<!-- Node2 -->
<g id="Node000002" class="node">
<title>Node2</title>
<g id="a_Node000002"><a xlink:title=" ">
<polygon fill="#e0e0e0" stroke="#999999" points="88,-20 0,-20 0,0 88,0 88,-20"/>
<text xml:space="preserve" text-anchor="middle" x="44" y="-6.5" font-family="Helvetica,sans-Serif" font-size="10.00">stm32f4xx_hal.h</text>
</a>
</g>
</g>
<!-- Node1&#45;&gt;Node2 -->
<g id="edge1_Node000001_Node000002" class="edge">
<title>Node1&#45;&gt;Node2</title>
<g id="a_edge1_Node000001_Node000002"><a xlink:title=" ">
<path fill="none" stroke="#63b8ff" d="M86.32,-55.55C78.49,-47.3 68.81,-37.12 60.69,-28.57"/>
<polygon fill="#63b8ff" stroke="#63b8ff" points="63.41,-26.34 53.98,-21.51 58.33,-31.17 63.41,-26.34"/>
</a>
</g>
</g>
<!-- Node3 -->
<g id="Node000003" class="node">
<title>Node3</title>
<g id="a_Node000003"><a xlink:title=" ">
<polygon fill="#e0e0e0" stroke="#999999" points="212.38,-20 105.62,-20 105.62,0 212.38,0 212.38,-20"/>
<text xml:space="preserve" text-anchor="middle" x="159" y="-6.5" font-family="Helvetica,sans-Serif" font-size="10.00">stm32f4xx_hal_tim.h</text>
</a>
</g>
</g>
<!-- Node1&#45;&gt;Node3 -->
<g id="edge2_Node000001_Node000003" class="edge">
<title>Node1&#45;&gt;Node3</title>
<g id="a_edge2_Node000001_Node000003"><a xlink:title=" ">
<path fill="none" stroke="#63b8ff" d="M115.94,-55.55C123.91,-47.3 133.75,-37.12 142.01,-28.57"/>
<polygon fill="#63b8ff" stroke="#63b8ff" points="144.42,-31.12 148.85,-21.5 139.39,-26.25 144.42,-31.12"/>
</a>
</g>
</g>
</g>
</svg>
