<?xml version="1.0" encoding="UTF-8" standalone="no"?>
<!DOCTYPE svg PUBLIC "-//W3C//DTD SVG 1.1//EN"
 "http://www.w3.org/Graphics/SVG/1.1/DTD/svg11.dtd">
<!-- Generated by graphviz version 14.0.2 (20251019.1705)
 -->
<!-- Title: stm32h7xx_hal_conf.h Pages: 1 -->
<svg width="1705pt" height="84pt"
 viewBox="0.00 0.00 1705.00 84.00" xmlns="http://www.w3.org/2000/svg" xmlns:xlink="http://www.w3.org/1999/xlink">
<g id="graph0" class="graph" transform="scale(1 1) rotate(0) translate(4 80)">
<title>stm32h7xx_hal_conf.h</title>
<!-- Node1 -->
<g id="Node000001" class="node">
<title>Node1</title>
<g id="a_Node000001"><a xlink:title="HAL configuration file.">
<polygon fill="#999999" stroke="#666666" points="916.62,-76 802.38,-76 802.38,-56 916.62,-56 916.62,-76"/>
<text xml:space="preserve" text-anchor="middle" x="859.5" y="-62.5" font-family="Helvetica,sans-Serif" font-size="10.00">stm32h7xx_hal_conf.h</text>
</a>
</g>
</g>
<!-- Node2 -->
<g id="Node000002" class="node">
<title>Node2</title>
<g id="a_Node000002"><a xlink:title=" ">
<polygon fill="#e0e0e0" stroke="#999999" points="109,-20 0,-20 0,0 109,0 109,-20"/>
<text xml:space="preserve" text-anchor="middle" x="54.5" y="-6.5" font-family="Helvetica,sans-Serif" font-size="10.00">stm32h7xx_hal_rcc.h</text>
</a>
</g>
</g>
<!-- Node1&#45;&gt;Node2 -->
<g id="edge1_Node000001_Node000002" class="edge">
<title>Node1&#45;&gt;Node2</title>
<g id="a_edge1_Node000001_Node000002"><a xlink:title=" ">
<path fill="none" stroke="#63b8ff" d="M802.12,-63.11C679.1,-58.72 380.65,-46.22 120.62,-20.24"/>
<polygon fill="#63b8ff" stroke="#63b8ff" points="121.25,-16.79 110.95,-19.27 120.55,-23.75 121.25,-16.79"/>
</a>
</g>
</g>
<!-- Node3 -->
<g id="Node000003" class="node">
<title>Node3</title>
<g id="a_Node000003"><a xlink:title=" ">
<polygon fill="#e0e0e0" stroke="#999999" points="240.25,-20 126.75,-20 126.75,0 240.25,0 240.25,-20"/>
<text xml:space="preserve" text-anchor="middle" x="183.5" y="-6.5" font-family="Helvetica,sans-Serif" font-size="10.00">stm32h7xx_hal_gpio.h</text>
</a>
</g>
</g>
<!-- Node1&#45;&gt;Node3 -->
<g id="edge2_Node000001_Node000003" class="edge">
<title>Node1&#45;&gt;Node3</title>
<g id="a_edge2_Node000001_Node000003"><a xlink:title=" ">
<path fill="none" stroke="#63b8ff" d="M802.21,-61.96C695.91,-56.06 460.73,-41.8 251.89,-20.19"/>
<polygon fill="#63b8ff" stroke="#63b8ff" points="252.53,-16.74 242.22,-19.18 251.8,-23.7 252.53,-16.74"/>
</a>
</g>
</g>
<!-- Node4 -->
<g id="Node000004" class="node">
<title>Node4</title>
<g id="a_Node000004"><a xlink:title=" ">
<polygon fill="#e0e0e0" stroke="#999999" points="372.62,-20 258.38,-20 258.38,0 372.62,0 372.62,-20"/>
<text xml:space="preserve" text-anchor="middle" x="315.5" y="-6.5" font-family="Helvetica,sans-Serif" font-size="10.00">stm32h7xx_hal_dma.h</text>
</a>
</g>
</g>
<!-- Node1&#45;&gt;Node4 -->
<g id="edge3_Node000001_Node000004" class="edge">
<title>Node1&#45;&gt;Node4</title>
<g id="a_edge3_Node000001_Node000004"><a xlink:title=" ">
<path fill="none" stroke="#63b8ff" d="M802.03,-60.37C714.29,-53.12 541.38,-38.18 384.35,-20.29"/>
<polygon fill="#63b8ff" stroke="#63b8ff" points="384.91,-16.83 374.58,-19.17 384.11,-23.78 384.91,-16.83"/>
</a>
</g>
</g>
<!-- Node5 -->
<g id="Node000005" class="node">
<title>Node5</title>
<g id="a_Node000005"><a xlink:title=" ">
<polygon fill="#e0e0e0" stroke="#999999" points="512.75,-20 390.25,-20 390.25,0 512.75,0 512.75,-20"/>
<text xml:space="preserve" text-anchor="middle" x="451.5" y="-6.5" font-family="Helvetica,sans-Serif" font-size="10.00">stm32h7xx_hal_mdma.h</text>
</a>
</g>
</g>
<!-- Node1&#45;&gt;Node5 -->
<g id="edge4_Node000001_Node000005" class="edge">
<title>Node1&#45;&gt;Node5</title>
<g id="a_edge4_Node000001_Node000005"><a xlink:title=" ">
<path fill="none" stroke="#63b8ff" d="M801.91,-57.38C729.16,-47.75 603.89,-31.17 524.5,-20.66"/>
<polygon fill="#63b8ff" stroke="#63b8ff" points="525.01,-17.2 514.63,-19.36 524.09,-24.14 525.01,-17.2"/>
</a>
</g>
</g>
<!-- Node6 -->
<g id="Node000006" class="node">
<title>Node6</title>
<g id="a_Node000006"><a xlink:title=" ">
<polygon fill="#e0e0e0" stroke="#999999" points="642.12,-20 530.88,-20 530.88,0 642.12,0 642.12,-20"/>
<text xml:space="preserve" text-anchor="middle" x="586.5" y="-6.5" font-family="Helvetica,sans-Serif" font-size="10.00">stm32h7xx_hal_exti.h</text>
</a>
</g>
</g>
<!-- Node1&#45;&gt;Node6 -->
<g id="edge5_Node000001_Node000006" class="edge">
<title>Node1&#45;&gt;Node6</title>
<g id="a_edge5_Node000001_Node000006"><a xlink:title=" ">
<path fill="none" stroke="#63b8ff" d="M811.63,-55.53C765.39,-46.38 695.22,-32.5 645.53,-22.68"/>
<polygon fill="#63b8ff" stroke="#63b8ff" points="646.28,-19.26 635.8,-20.75 644.93,-26.12 646.28,-19.26"/>
</a>
</g>
</g>
<!-- Node7 -->
<g id="Node000007" class="node">
<title>Node7</title>
<g id="a_Node000007"><a xlink:title=" ">
<polygon fill="#e0e0e0" stroke="#999999" points="782.75,-20 660.25,-20 660.25,0 782.75,0 782.75,-20"/>
<text xml:space="preserve" text-anchor="middle" x="721.5" y="-6.5" font-family="Helvetica,sans-Serif" font-size="10.00">stm32h7xx_hal_cortex.h</text>
</a>
</g>
</g>
<!-- Node1&#45;&gt;Node7 -->
<g id="edge6_Node000001_Node000007" class="edge">
<title>Node1&#45;&gt;Node7</title>
<g id="a_edge6_Node000001_Node000007"><a xlink:title=" ">
<path fill="none" stroke="#63b8ff" d="M835.46,-55.59C813.53,-47.01 780.87,-34.23 756.13,-24.55"/>
<polygon fill="#63b8ff" stroke="#63b8ff" points="757.72,-21.42 747.13,-21.03 755.17,-27.93 757.72,-21.42"/>
</a>
</g>
</g>
<!-- Node8 -->
<g id="Node000008" class="node">
<title>Node8</title>
<g id="a_Node000008"><a xlink:title=" ">
<polygon fill="#e0e0e0" stroke="#999999" points="917.75,-20 801.25,-20 801.25,0 917.75,0 917.75,-20"/>
<text xml:space="preserve" text-anchor="middle" x="859.5" y="-6.5" font-family="Helvetica,sans-Serif" font-size="10.00">stm32h7xx_hal_flash.h</text>
</a>
</g>
</g>
<!-- Node1&#45;&gt;Node8 -->
<g id="edge7_Node000001_Node000008" class="edge">
<title>Node1&#45;&gt;Node8</title>
<g id="a_edge7_Node000001_Node000008"><a xlink:title=" ">
<path fill="none" stroke="#63b8ff" d="M859.5,-55.59C859.5,-49.01 859.5,-39.96 859.5,-31.73"/>
<polygon fill="#63b8ff" stroke="#63b8ff" points="863,-31.81 859.5,-21.81 856,-31.81 863,-31.81"/>
</a>
</g>
</g>
<!-- Node9 -->
<g id="Node000009" class="node">
<title>Node9</title>
<g id="a_Node000009"><a xlink:title=" ">
<polygon fill="#e0e0e0" stroke="#999999" points="1055.25,-20 935.75,-20 935.75,0 1055.25,0 1055.25,-20"/>
<text xml:space="preserve" text-anchor="middle" x="995.5" y="-6.5" font-family="Helvetica,sans-Serif" font-size="10.00">stm32h7xx_hal_hsem.h</text>
</a>
</g>
</g>
<!-- Node1&#45;&gt;Node9 -->
<g id="edge8_Node000001_Node000009" class="edge">
<title>Node1&#45;&gt;Node9</title>
<g id="a_edge8_Node000001_Node000009"><a xlink:title=" ">
<path fill="none" stroke="#63b8ff" d="M883.19,-55.59C904.7,-47.05 936.7,-34.35 961.04,-24.68"/>
<polygon fill="#63b8ff" stroke="#63b8ff" points="962.22,-27.98 970.22,-21.04 959.63,-21.48 962.22,-27.98"/>
</a>
</g>
</g>
<!-- Node10 -->
<g id="Node000010" class="node">
<title>Node10</title>
<g id="a_Node000010"><a xlink:title=" ">
<polygon fill="#e0e0e0" stroke="#999999" points="1181.62,-20 1073.38,-20 1073.38,0 1181.62,0 1181.62,-20"/>
<text xml:space="preserve" text-anchor="middle" x="1127.5" y="-6.5" font-family="Helvetica,sans-Serif" font-size="10.00">stm32h7xx_hal_i2c.h</text>
</a>
</g>
</g>
<!-- Node1&#45;&gt;Node10 -->
<g id="edge9_Node000001_Node000010" class="edge">
<title>Node1&#45;&gt;Node10</title>
<g id="a_edge9_Node000001_Node000010"><a xlink:title=" ">
<path fill="none" stroke="#63b8ff" d="M906.49,-55.53C951.89,-46.38 1020.77,-32.5 1069.55,-22.68"/>
<polygon fill="#63b8ff" stroke="#63b8ff" points="1069.97,-26.16 1079.08,-20.76 1068.59,-19.3 1069.97,-26.16"/>
</a>
</g>
</g>
<!-- Node11 -->
<g id="Node000011" class="node">
<title>Node11</title>
<g id="a_Node000011"><a xlink:title=" ">
<polygon fill="#e0e0e0" stroke="#999999" points="1311.12,-20 1199.88,-20 1199.88,0 1311.12,0 1311.12,-20"/>
<text xml:space="preserve" text-anchor="middle" x="1255.5" y="-6.5" font-family="Helvetica,sans-Serif" font-size="10.00">stm32h7xx_hal_pwr.h</text>
</a>
</g>
</g>
<!-- Node1&#45;&gt;Node11 -->
<g id="edge10_Node000001_Node000011" class="edge">
<title>Node1&#45;&gt;Node11</title>
<g id="a_edge10_Node000001_Node000011"><a xlink:title=" ">
<path fill="none" stroke="#63b8ff" d="M916.91,-57.24C980.54,-48.63 1086.54,-34.25 1188.08,-20.33"/>
<polygon fill="#63b8ff" stroke="#63b8ff" points="1188.55,-23.8 1197.98,-18.97 1187.6,-16.86 1188.55,-23.8"/>
</a>
</g>
</g>
<!-- Node12 -->
<g id="Node000012" class="node">
<title>Node12</title>
<g id="a_Node000012"><a xlink:title=" ">
<polygon fill="#e0e0e0" stroke="#999999" points="1437.62,-20 1329.38,-20 1329.38,0 1437.62,0 1437.62,-20"/>
<text xml:space="preserve" text-anchor="middle" x="1383.5" y="-6.5" font-family="Helvetica,sans-Serif" font-size="10.00">stm32h7xx_hal_spi.h</text>
</a>
</g>
</g>
<!-- Node1&#45;&gt;Node12 -->
<g id="edge11_Node000001_Node000012" class="edge">
<title>Node1&#45;&gt;Node12</title>
<g id="a_edge11_Node000001_Node000012"><a xlink:title=" ">
<path fill="none" stroke="#63b8ff" d="M917.09,-60.21C1002.3,-52.94 1167.28,-38.16 1317.63,-20.3"/>
<polygon fill="#63b8ff" stroke="#63b8ff" points="1317.87,-23.8 1327.38,-19.13 1317.04,-16.85 1317.87,-23.8"/>
</a>
</g>
</g>
<!-- Node13 -->
<g id="Node000013" class="node">
<title>Node13</title>
<g id="a_Node000013"><a xlink:title=" ">
<polygon fill="#e0e0e0" stroke="#999999" points="1567.5,-20 1455.5,-20 1455.5,0 1567.5,0 1567.5,-20"/>
<text xml:space="preserve" text-anchor="middle" x="1511.5" y="-6.5" font-family="Helvetica,sans-Serif" font-size="10.00">stm32h7xx_hal_uart.h</text>
</a>
</g>
</g>
<!-- Node1&#45;&gt;Node13 -->
<g id="edge12_Node000001_Node000013" class="edge">
<title>Node1&#45;&gt;Node13</title>
<g id="a_edge12_Node000001_Node000013"><a xlink:title=" ">
<path fill="none" stroke="#63b8ff" d="M917.1,-61.76C1020.43,-55.68 1244.4,-41.35 1443.87,-20.22"/>
<polygon fill="#63b8ff" stroke="#63b8ff" points="1444.08,-23.72 1453.65,-19.18 1443.34,-16.76 1444.08,-23.72"/>
</a>
</g>
</g>
<!-- Node14 -->
<g id="Node000014" class="node">
<title>Node14</title>
<g id="a_Node000014"><a xlink:title=" ">
<polygon fill="#e0e0e0" stroke="#999999" points="1697.12,-20 1585.88,-20 1585.88,0 1697.12,0 1697.12,-20"/>
<text xml:space="preserve" text-anchor="middle" x="1641.5" y="-6.5" font-family="Helvetica,sans-Serif" font-size="10.00">stm32h7xx_hal_pcd.h</text>
</a>
</g>
</g>
<!-- Node1&#45;&gt;Node14 -->
<g id="edge13_Node000001_Node000014" class="edge">
<title>Node1&#45;&gt;Node14</title>
<g id="a_edge13_Node000001_Node000014"><a xlink:title=" ">
<path fill="none" stroke="#63b8ff" d="M916.78,-62.86C1036.69,-58.07 1323.16,-44.98 1574.33,-20.14"/>
<polygon fill="#63b8ff" stroke="#63b8ff" points="1574.4,-23.65 1584.01,-19.17 1573.71,-16.68 1574.4,-23.65"/>
</a>
</g>
</g>
</g>
</svg>
