<?xml version="1.0" encoding="UTF-8" standalone="no"?>
<!DOCTYPE svg PUBLIC "-//W3C//DTD SVG 1.1//EN"
 "http://www.w3.org/Graphics/SVG/1.1/DTD/svg11.dtd">
<!-- Generated by graphviz version 14.0.2 (20251019.1705)
 -->
<!-- Title: stm32f4xx_hal_conf.h Pages: 1 -->
<svg width="1402pt" height="84pt"
 viewBox="0.00 0.00 1402.00 84.00" xmlns="http://www.w3.org/2000/svg" xmlns:xlink="http://www.w3.org/1999/xlink">
<g id="graph0" class="graph" transform="scale(1 1) rotate(0) translate(4 80)">
<title>stm32f4xx_hal_conf.h</title>
<!-- Node1 -->
<g id="Node000001" class="node">
<title>Node1</title>
<g id="a_Node000001"><a xlink:title=" ">
<polygon fill="#999999" stroke="#666666" points="762.38,-76 650.38,-76 650.38,-56 762.38,-56 762.38,-76"/>
<text xml:space="preserve" text-anchor="middle" x="706.38" y="-62.5" font-family="Helvetica,sans-Serif" font-size="10.00">stm32f4xx_hal_conf.h</text>
</a>
</g>
</g>
<!-- Node2 -->
<g id="Node000002" class="node">
<title>Node2</title>
<g id="a_Node000002"><a xlink:title=" ">
<polygon fill="#e0e0e0" stroke="#999999" points="106.75,-20 0,-20 0,0 106.75,0 106.75,-20"/>
<text xml:space="preserve" text-anchor="middle" x="53.38" y="-6.5" font-family="Helvetica,sans-Serif" font-size="10.00">stm32f4xx_hal_rcc.h</text>
</a>
</g>
</g>
<!-- Node1&#45;&gt;Node2 -->
<g id="edge1_Node000001_Node000002" class="edge">
<title>Node1&#45;&gt;Node2</title>
<g id="a_edge1_Node000001_Node000002"><a xlink:title=" ">
<path fill="none" stroke="#63b8ff" d="M650.03,-61.99C546.73,-56.2 319.86,-42.18 118.51,-20.28"/>
<polygon fill="#63b8ff" stroke="#63b8ff" points="118.94,-16.81 108.62,-19.19 118.18,-23.77 118.94,-16.81"/>
</a>
</g>
</g>
<!-- Node3 -->
<g id="Node000003" class="node">
<title>Node3</title>
<g id="a_Node000003"><a xlink:title=" ">
<polygon fill="#e0e0e0" stroke="#999999" points="236,-20 124.75,-20 124.75,0 236,0 236,-20"/>
<text xml:space="preserve" text-anchor="middle" x="180.38" y="-6.5" font-family="Helvetica,sans-Serif" font-size="10.00">stm32f4xx_hal_gpio.h</text>
</a>
</g>
</g>
<!-- Node1&#45;&gt;Node3 -->
<g id="edge2_Node000001_Node000003" class="edge">
<title>Node1&#45;&gt;Node3</title>
<g id="a_edge2_Node000001_Node000003"><a xlink:title=" ">
<path fill="none" stroke="#63b8ff" d="M650.11,-60.3C565.16,-53.03 398.8,-38.12 247.53,-20.33"/>
<polygon fill="#63b8ff" stroke="#63b8ff" points="248.05,-16.87 237.71,-19.17 247.23,-23.82 248.05,-16.87"/>
</a>
</g>
</g>
<!-- Node4 -->
<g id="Node000004" class="node">
<title>Node4</title>
<g id="a_Node000004"><a xlink:title=" ">
<polygon fill="#e0e0e0" stroke="#999999" points="362.88,-20 253.88,-20 253.88,0 362.88,0 362.88,-20"/>
<text xml:space="preserve" text-anchor="middle" x="308.38" y="-6.5" font-family="Helvetica,sans-Serif" font-size="10.00">stm32f4xx_hal_exti.h</text>
</a>
</g>
</g>
<!-- Node1&#45;&gt;Node4 -->
<g id="edge3_Node000001_Node000004" class="edge">
<title>Node1&#45;&gt;Node4</title>
<g id="a_edge3_Node000001_Node000004"><a xlink:title=" ">
<path fill="none" stroke="#63b8ff" d="M649.92,-57.5C585.84,-48.95 477.83,-34.49 374.46,-20.28"/>
<polygon fill="#63b8ff" stroke="#63b8ff" points="375.07,-16.83 364.68,-18.94 374.11,-23.77 375.07,-16.83"/>
</a>
</g>
</g>
<!-- Node5 -->
<g id="Node000005" class="node">
<title>Node5</title>
<g id="a_Node000005"><a xlink:title=" ">
<polygon fill="#e0e0e0" stroke="#999999" points="493.38,-20 381.38,-20 381.38,0 493.38,0 493.38,-20"/>
<text xml:space="preserve" text-anchor="middle" x="437.38" y="-6.5" font-family="Helvetica,sans-Serif" font-size="10.00">stm32f4xx_hal_dma.h</text>
</a>
</g>
</g>
<!-- Node1&#45;&gt;Node5 -->
<g id="edge4_Node000001_Node000005" class="edge">
<title>Node1&#45;&gt;Node5</title>
<g id="a_edge4_Node000001_Node000005"><a xlink:title=" ">
<path fill="none" stroke="#63b8ff" d="M659.21,-55.53C613.64,-46.38 544.5,-32.5 495.54,-22.68"/>
<polygon fill="#63b8ff" stroke="#63b8ff" points="496.46,-19.29 485.97,-20.75 495.08,-26.15 496.46,-19.29"/>
</a>
</g>
</g>
<!-- Node6 -->
<g id="Node000006" class="node">
<title>Node6</title>
<g id="a_Node000006"><a xlink:title=" ">
<polygon fill="#e0e0e0" stroke="#999999" points="631.5,-20 511.25,-20 511.25,0 631.5,0 631.5,-20"/>
<text xml:space="preserve" text-anchor="middle" x="571.38" y="-6.5" font-family="Helvetica,sans-Serif" font-size="10.00">stm32f4xx_hal_cortex.h</text>
</a>
</g>
</g>
<!-- Node1&#45;&gt;Node6 -->
<g id="edge5_Node000001_Node000006" class="edge">
<title>Node1&#45;&gt;Node6</title>
<g id="a_edge5_Node000001_Node000006"><a xlink:title=" ">
<path fill="none" stroke="#63b8ff" d="M682.86,-55.59C661.5,-47.05 629.74,-34.35 605.58,-24.68"/>
<polygon fill="#63b8ff" stroke="#63b8ff" points="607.06,-21.51 596.48,-21.04 604.46,-28.01 607.06,-21.51"/>
</a>
</g>
</g>
<!-- Node7 -->
<g id="Node000007" class="node">
<title>Node7</title>
<g id="a_Node000007"><a xlink:title=" ">
<polygon fill="#e0e0e0" stroke="#999999" points="763.5,-20 649.25,-20 649.25,0 763.5,0 763.5,-20"/>
<text xml:space="preserve" text-anchor="middle" x="706.38" y="-6.5" font-family="Helvetica,sans-Serif" font-size="10.00">stm32f4xx_hal_flash.h</text>
</a>
</g>
</g>
<!-- Node1&#45;&gt;Node7 -->
<g id="edge6_Node000001_Node000007" class="edge">
<title>Node1&#45;&gt;Node7</title>
<g id="a_edge6_Node000001_Node000007"><a xlink:title=" ">
<path fill="none" stroke="#63b8ff" d="M706.38,-55.59C706.38,-49.01 706.38,-39.96 706.38,-31.73"/>
<polygon fill="#63b8ff" stroke="#63b8ff" points="709.88,-31.81 706.38,-21.81 702.88,-31.81 709.88,-31.81"/>
</a>
</g>
</g>
<!-- Node8 -->
<g id="Node000008" class="node">
<title>Node8</title>
<g id="a_Node000008"><a xlink:title=" ">
<polygon fill="#e0e0e0" stroke="#999999" points="890.88,-20 781.88,-20 781.88,0 890.88,0 890.88,-20"/>
<text xml:space="preserve" text-anchor="middle" x="836.38" y="-6.5" font-family="Helvetica,sans-Serif" font-size="10.00">stm32f4xx_hal_pwr.h</text>
</a>
</g>
</g>
<!-- Node1&#45;&gt;Node8 -->
<g id="edge7_Node000001_Node000008" class="edge">
<title>Node1&#45;&gt;Node8</title>
<g id="a_edge7_Node000001_Node000008"><a xlink:title=" ">
<path fill="none" stroke="#63b8ff" d="M729.02,-55.59C749.49,-47.09 779.89,-34.46 803.12,-24.81"/>
<polygon fill="#63b8ff" stroke="#63b8ff" points="804.26,-28.13 812.16,-21.06 801.58,-21.66 804.26,-28.13"/>
</a>
</g>
</g>
<!-- Node9 -->
<g id="Node000009" class="node">
<title>Node9</title>
<g id="a_Node000009"><a xlink:title=" ">
<polygon fill="#e0e0e0" stroke="#999999" points="1015.38,-20 909.38,-20 909.38,0 1015.38,0 1015.38,-20"/>
<text xml:space="preserve" text-anchor="middle" x="962.38" y="-6.5" font-family="Helvetica,sans-Serif" font-size="10.00">stm32f4xx_hal_spi.h</text>
</a>
</g>
</g>
<!-- Node1&#45;&gt;Node9 -->
<g id="edge8_Node000001_Node000009" class="edge">
<title>Node1&#45;&gt;Node9</title>
<g id="a_edge8_Node000001_Node000009"><a xlink:title=" ">
<path fill="none" stroke="#63b8ff" d="M751.26,-55.53C794.45,-46.42 859.87,-32.62 906.43,-22.8"/>
<polygon fill="#63b8ff" stroke="#63b8ff" points="907,-26.26 916.06,-20.77 905.55,-19.41 907,-26.26"/>
</a>
</g>
</g>
<!-- Node10 -->
<g id="Node000010" class="node">
<title>Node10</title>
<g id="a_Node000010"><a xlink:title=" ">
<polygon fill="#e0e0e0" stroke="#999999" points="1139.75,-20 1033,-20 1033,0 1139.75,0 1139.75,-20"/>
<text xml:space="preserve" text-anchor="middle" x="1086.38" y="-6.5" font-family="Helvetica,sans-Serif" font-size="10.00">stm32f4xx_hal_tim.h</text>
</a>
</g>
</g>
<!-- Node1&#45;&gt;Node10 -->
<g id="edge9_Node000001_Node000010" class="edge">
<title>Node1&#45;&gt;Node10</title>
<g id="a_edge9_Node000001_Node000010"><a xlink:title=" ">
<path fill="none" stroke="#63b8ff" d="M762.68,-57.09C823.88,-48.49 924.91,-34.24 1021.47,-20.41"/>
<polygon fill="#63b8ff" stroke="#63b8ff" points="1021.71,-23.91 1031.11,-19.03 1020.71,-16.99 1021.71,-23.91"/>
</a>
</g>
</g>
<!-- Node11 -->
<g id="Node000011" class="node">
<title>Node11</title>
<g id="a_Node000011"><a xlink:title=" ">
<polygon fill="#e0e0e0" stroke="#999999" points="1267.25,-20 1157.5,-20 1157.5,0 1267.25,0 1267.25,-20"/>
<text xml:space="preserve" text-anchor="middle" x="1212.38" y="-6.5" font-family="Helvetica,sans-Serif" font-size="10.00">stm32f4xx_hal_uart.h</text>
</a>
</g>
</g>
<!-- Node1&#45;&gt;Node11 -->
<g id="edge10_Node000001_Node000011" class="edge">
<title>Node1&#45;&gt;Node11</title>
<g id="a_edge10_Node000001_Node000011"><a xlink:title=" ">
<path fill="none" stroke="#63b8ff" d="M762.62,-59.97C844.53,-52.49 1001.73,-37.55 1145.99,-20.25"/>
<polygon fill="#63b8ff" stroke="#63b8ff" points="1146.22,-23.74 1155.73,-19.07 1145.38,-16.8 1146.22,-23.74"/>
</a>
</g>
</g>
<!-- Node12 -->
<g id="Node000012" class="node">
<title>Node12</title>
<g id="a_Node000012"><a xlink:title=" ">
<polygon fill="#e0e0e0" stroke="#999999" points="1393.88,-20 1284.88,-20 1284.88,0 1393.88,0 1393.88,-20"/>
<text xml:space="preserve" text-anchor="middle" x="1339.38" y="-6.5" font-family="Helvetica,sans-Serif" font-size="10.00">stm32f4xx_hal_pcd.h</text>
</a>
</g>
</g>
<!-- Node1&#45;&gt;Node12 -->
<g id="edge11_Node000001_Node000012" class="edge">
<title>Node1&#45;&gt;Node12</title>
<g id="a_edge11_Node000001_Node000012"><a xlink:title=" ">
<path fill="none" stroke="#63b8ff" d="M762.71,-61.73C863.2,-55.65 1080.2,-41.35 1273.21,-20.29"/>
<polygon fill="#63b8ff" stroke="#63b8ff" points="1273.36,-23.8 1282.92,-19.22 1272.6,-16.84 1273.36,-23.8"/>
</a>
</g>
</g>
</g>
</svg>
