<?xml version="1.0" encoding="UTF-8" standalone="no"?>
<!DOCTYPE svg PUBLIC "-//W3C//DTD SVG 1.1//EN"
 "http://www.w3.org/Graphics/SVG/1.1/DTD/svg11.dtd">
<!-- Generated by graphviz version 14.0.2 (20251019.1705)
 -->
<!-- Title: uart_master_task.c Pages: 1 -->
<svg width="417pt" height="140pt"
 viewBox="0.00 0.00 417.00 140.00" xmlns="http://www.w3.org/2000/svg" xmlns:xlink="http://www.w3.org/1999/xlink">
<g id="graph0" class="graph" transform="scale(1 1) rotate(0) translate(4 136)">
<title>uart_master_task.c</title>
<!-- Node1 -->
<g id="Node000001" class="node">
<title>Node1</title>
<g id="a_Node000001"><a xlink:title=" ">
<polygon fill="#999999" stroke="#666666" points="263.75,-132 163.75,-132 163.75,-112 263.75,-112 263.75,-132"/>
<text xml:space="preserve" text-anchor="middle" x="213.75" y="-118.5" font-family="Helvetica,sans-Serif" font-size="10.00">uart_master_task.c</text>
</a>
</g>
</g>
<!-- Node2 -->
<g id="Node000002" class="node">
<title>Node2</title>
<g id="a_Node000002"><a xlink:title=" ">
<polygon fill="#e0e0e0" stroke="#999999" points="71.5,-20 0,-20 0,0 71.5,0 71.5,-20"/>
<text xml:space="preserve" text-anchor="middle" x="35.75" y="-6.5" font-family="Helvetica,sans-Serif" font-size="10.00">cmsis_os2.h</text>
</a>
</g>
</g>
<!-- Node1&#45;&gt;Node2 -->
<g id="edge1_Node000001_Node000002" class="edge">
<title>Node1&#45;&gt;Node2</title>
<g id="a_edge1_Node000001_Node000002"><a xlink:title=" ">
<path fill="none" stroke="#63b8ff" d="M163.39,-116.47C111.47,-110.64 35.64,-98.46 17.75,-76 7.29,-62.86 14.2,-44.04 22.3,-30.03"/>
<polygon fill="#63b8ff" stroke="#63b8ff" points="25.19,-32.01 27.64,-21.7 19.3,-28.23 25.19,-32.01"/>
</a>
</g>
</g>
<!-- Node3 -->
<g id="Node000003" class="node">
<title>Node3</title>
<g id="a_Node000003"><a xlink:href="uart__master__task_8h.html" target="_top" xlink:title=" ">
<polygon fill="white" stroke="#666666" points="126.75,-76 26.75,-76 26.75,-56 126.75,-56 126.75,-76"/>
<text xml:space="preserve" text-anchor="middle" x="76.75" y="-62.5" font-family="Helvetica,sans-Serif" font-size="10.00">uart_master_task.h</text>
</a>
</g>
</g>
<!-- Node1&#45;&gt;Node3 -->
<g id="edge2_Node000001_Node000003" class="edge">
<title>Node1&#45;&gt;Node3</title>
<g id="a_edge2_Node000001_Node000003"><a xlink:title=" ">
<path fill="none" stroke="#63b8ff" d="M189.89,-111.59C168.21,-103.05 135.98,-90.35 111.46,-80.68"/>
<polygon fill="#63b8ff" stroke="#63b8ff" points="112.79,-77.45 102.21,-77.03 110.23,-83.96 112.79,-77.45"/>
</a>
</g>
</g>
<!-- Node5 -->
<g id="Node000005" class="node">
<title>Node5</title>
<g id="a_Node000005"><a xlink:href="master__link_8h.html" target="_top" xlink:title=" ">
<polygon fill="white" stroke="#666666" points="219,-76 144.5,-76 144.5,-56 219,-56 219,-76"/>
<text xml:space="preserve" text-anchor="middle" x="181.75" y="-62.5" font-family="Helvetica,sans-Serif" font-size="10.00">master_link.h</text>
</a>
</g>
</g>
<!-- Node1&#45;&gt;Node5 -->
<g id="edge5_Node000001_Node000005" class="edge">
<title>Node1&#45;&gt;Node5</title>
<g id="a_edge5_Node000001_Node000005"><a xlink:title=" ">
<path fill="none" stroke="#63b8ff" d="M208.18,-111.59C204,-104.55 198.15,-94.67 193.01,-86"/>
<polygon fill="#63b8ff" stroke="#63b8ff" points="196.14,-84.42 188.03,-77.6 190.12,-87.99 196.14,-84.42"/>
</a>
</g>
</g>
<!-- Node6 -->
<g id="Node000006" class="node">
<title>Node6</title>
<g id="a_Node000006"><a xlink:title=" ">
<polygon fill="#e0e0e0" stroke="#999999" points="257.75,-20 169.75,-20 169.75,0 257.75,0 257.75,-20"/>
<text xml:space="preserve" text-anchor="middle" x="213.75" y="-6.5" font-family="Helvetica,sans-Serif" font-size="10.00">stm32f4xx_hal.h</text>
</a>
</g>
</g>
<!-- Node1&#45;&gt;Node6 -->
<g id="edge8_Node000001_Node000006" class="edge">
<title>Node1&#45;&gt;Node6</title>
<g id="a_edge8_Node000001_Node000006"><a xlink:title=" ">
<path fill="none" stroke="#63b8ff" d="M217.61,-111.54C221.05,-102.57 225.83,-88.62 227.75,-76 230.06,-60.78 226.17,-43.77 221.9,-30.98"/>
<polygon fill="#63b8ff" stroke="#63b8ff" points="225.18,-29.76 218.42,-21.61 218.62,-32.2 225.18,-29.76"/>
</a>
</g>
</g>
<!-- Node7 -->
<g id="Node000007" class="node">
<title>Node7</title>
<g id="a_Node000007"><a xlink:title=" ">
<polygon fill="#e0e0e0" stroke="#999999" points="320.38,-76 275.12,-76 275.12,-56 320.38,-56 320.38,-76"/>
<text xml:space="preserve" text-anchor="middle" x="297.75" y="-62.5" font-family="Helvetica,sans-Serif" font-size="10.00">stdio.h</text>
</a>
</g>
</g>
<!-- Node1&#45;&gt;Node7 -->
<g id="edge9_Node000001_Node000007" class="edge">
<title>Node1&#45;&gt;Node7</title>
<g id="a_edge9_Node000001_Node000007"><a xlink:title=" ">
<path fill="none" stroke="#63b8ff" d="M228.38,-111.59C240.83,-103.59 258.97,-91.93 273.57,-82.54"/>
<polygon fill="#63b8ff" stroke="#63b8ff" points="275.21,-85.65 281.73,-77.3 271.43,-79.76 275.21,-85.65"/>
</a>
</g>
</g>
<!-- Node8 -->
<g id="Node000008" class="node">
<title>Node8</title>
<g id="a_Node000008"><a xlink:title=" ">
<polygon fill="#e0e0e0" stroke="#999999" points="409.12,-76 338.38,-76 338.38,-56 409.12,-56 409.12,-76"/>
<text xml:space="preserve" text-anchor="middle" x="373.75" y="-62.5" font-family="Helvetica,sans-Serif" font-size="10.00">FreeRTOS.h</text>
</a>
</g>
</g>
<!-- Node1&#45;&gt;Node8 -->
<g id="edge10_Node000001_Node000008" class="edge">
<title>Node1&#45;&gt;Node8</title>
<g id="a_edge10_Node000001_Node000008"><a xlink:title=" ">
<path fill="none" stroke="#63b8ff" d="M241.62,-111.59C267.5,-102.86 306.28,-89.77 335.14,-80.03"/>
<polygon fill="#63b8ff" stroke="#63b8ff" points="335.87,-83.48 344.23,-76.96 333.63,-76.85 335.87,-83.48"/>
</a>
</g>
</g>
<!-- Node3&#45;&gt;Node2 -->
<g id="edge3_Node000003_Node000002" class="edge">
<title>Node3&#45;&gt;Node2</title>
<g id="a_edge3_Node000003_Node000002"><a xlink:title=" ">
<path fill="none" stroke="#63b8ff" d="M69.61,-55.59C64.14,-48.39 56.43,-38.23 49.74,-29.43"/>
<polygon fill="#63b8ff" stroke="#63b8ff" points="52.56,-27.35 43.73,-21.5 46.98,-31.58 52.56,-27.35"/>
</a>
</g>
</g>
<!-- Node4 -->
<g id="Node000004" class="node">
<title>Node4</title>
<g id="a_Node000004"><a xlink:title=" ">
<polygon fill="#e0e0e0" stroke="#999999" points="146.88,-20 98.62,-20 98.62,0 146.88,0 146.88,-20"/>
<text xml:space="preserve" text-anchor="middle" x="122.75" y="-6.5" font-family="Helvetica,sans-Serif" font-size="10.00">stdint.h</text>
</a>
</g>
</g>
<!-- Node3&#45;&gt;Node4 -->
<g id="edge4_Node000003_Node000004" class="edge">
<title>Node3&#45;&gt;Node4</title>
<g id="a_edge4_Node000003_Node000004"><a xlink:title=" ">
<path fill="none" stroke="#63b8ff" d="M84.76,-55.59C91.03,-48.24 99.92,-37.8 107.53,-28.87"/>
<polygon fill="#63b8ff" stroke="#63b8ff" points="110.03,-31.33 113.85,-21.45 104.7,-26.79 110.03,-31.33"/>
</a>
</g>
</g>
<!-- Node5&#45;&gt;Node4 -->
<g id="edge6_Node000005_Node000004" class="edge">
<title>Node5&#45;&gt;Node4</title>
<g id="a_edge6_Node000005_Node000004"><a xlink:title=" ">
<path fill="none" stroke="#63b8ff" d="M171.47,-55.59C163.18,-48.01 151.3,-37.13 141.35,-28.02"/>
<polygon fill="#63b8ff" stroke="#63b8ff" points="143.77,-25.49 134.03,-21.32 139.04,-30.65 143.77,-25.49"/>
</a>
</g>
</g>
<!-- Node5&#45;&gt;Node6 -->
<g id="edge7_Node000005_Node000006" class="edge">
<title>Node5&#45;&gt;Node6</title>
<g id="a_edge7_Node000005_Node000006"><a xlink:title=" ">
<path fill="none" stroke="#63b8ff" d="M187.32,-55.59C191.5,-48.55 197.35,-38.67 202.49,-30"/>
<polygon fill="#63b8ff" stroke="#63b8ff" points="205.38,-31.99 207.47,-21.6 199.36,-28.42 205.38,-31.99"/>
</a>
</g>
</g>
</g>
</svg>
