<?xml version="1.0" encoding="UTF-8" standalone="no"?>
<!DOCTYPE svg PUBLIC "-//W3C//DTD SVG 1.1//EN"
 "http://www.w3.org/Graphics/SVG/1.1/DTD/svg11.dtd">
<!-- Generated by graphviz version 14.0.2 (20251019.1705)
 -->
<!-- Title: uart_master_task.h Pages: 1 -->
<svg width="268pt" height="84pt"
 viewBox="0.00 0.00 268.00 84.00" xmlns="http://www.w3.org/2000/svg" xmlns:xlink="http://www.w3.org/1999/xlink">
<g id="graph0" class="graph" transform="scale(1 1) rotate(0) translate(4 80)">
<title>uart_master_task.h</title>
<!-- Node1 -->
<g id="Node000001" class="node">
<title>Node1</title>
<g id="a_Node000001"><a xlink:title=" ">
<polygon fill="#999999" stroke="#666666" points="163.12,-76 63.12,-76 63.12,-56 163.12,-56 163.12,-76"/>
<text xml:space="preserve" text-anchor="middle" x="113.12" y="-62.5" font-family="Helvetica,sans-Serif" font-size="10.00">uart_master_task.h</text>
</a>
</g>
</g>
<!-- Node2 -->
<g id="Node000002" class="node">
<title>Node2</title>
<g id="a_Node000002"><a xlink:href="app__main_8c.html" target="_top" xlink:title=" ">
<polygon fill="white" stroke="#666666" points="66.25,-20 0,-20 0,0 66.25,0 66.25,-20"/>
<text xml:space="preserve" text-anchor="middle" x="33.12" y="-6.5" font-family="Helvetica,sans-Serif" font-size="10.00">app_main.c</text>
</a>
</g>
</g>
<!-- Node1&#45;&gt;Node2 -->
<g id="edge1_Node000001_Node000002" class="edge">
<title>Node1&#45;&gt;Node2</title>
<g id="a_edge1_Node000001_Node000002"><a xlink:title=" ">
<path fill="none" stroke="#63b8ff" d="M89.82,-49.27C76,-39.94 58.94,-28.43 47.17,-20.48"/>
<polygon fill="#63b8ff" stroke="#63b8ff" points="87.69,-52.05 97.94,-54.75 91.61,-46.25 87.69,-52.05"/>
</a>
</g>
</g>
<!-- Node3 -->
<g id="Node000003" class="node">
<title>Node3</title>
<g id="a_Node000003"><a xlink:href="freertos_8c.html" target="_top" xlink:title=" ">
<polygon fill="white" stroke="#666666" points="141.75,-20 84.5,-20 84.5,0 141.75,0 141.75,-20"/>
<text xml:space="preserve" text-anchor="middle" x="113.12" y="-6.5" font-family="Helvetica,sans-Serif" font-size="10.00">freertos.c</text>
</a>
</g>
</g>
<!-- Node1&#45;&gt;Node3 -->
<g id="edge2_Node000001_Node000003" class="edge">
<title>Node1&#45;&gt;Node3</title>
<g id="a_edge2_Node000001_Node000003"><a xlink:title=" ">
<path fill="none" stroke="#63b8ff" d="M113.12,-44.13C113.12,-35.9 113.12,-26.85 113.12,-20.3"/>
<polygon fill="#63b8ff" stroke="#63b8ff" points="109.63,-44.08 113.13,-54.08 116.63,-44.08 109.63,-44.08"/>
</a>
</g>
</g>
<!-- Node4 -->
<g id="Node000004" class="node">
<title>Node4</title>
<g id="a_Node000004"><a xlink:href="uart__master__task_8c.html" target="_top" xlink:title=" ">
<polygon fill="white" stroke="#666666" points="260.12,-20 160.12,-20 160.12,0 260.12,0 260.12,-20"/>
<text xml:space="preserve" text-anchor="middle" x="210.12" y="-6.5" font-family="Helvetica,sans-Serif" font-size="10.00">uart_master_task.c</text>
</a>
</g>
</g>
<!-- Node1&#45;&gt;Node4 -->
<g id="edge3_Node000001_Node000004" class="edge">
<title>Node1&#45;&gt;Node4</title>
<g id="a_edge3_Node000001_Node000004"><a xlink:title=" ">
<path fill="none" stroke="#63b8ff" d="M139.93,-50.08C156.92,-40.62 178.4,-28.66 193.1,-20.48"/>
<polygon fill="#63b8ff" stroke="#63b8ff" points="138.38,-46.94 131.34,-54.86 141.78,-53.05 138.38,-46.94"/>
</a>
</g>
</g>
</g>
</svg>
