<?xml version="1.0" encoding="UTF-8" standalone="no"?>
<!DOCTYPE svg PUBLIC "-//W3C//DTD SVG 1.1//EN"
 "http://www.w3.org/Graphics/SVG/1.1/DTD/svg11.dtd">
<!-- Generated by graphviz version 14.0.2 (20251019.1705)
 -->
<!-- Title: usb_otg.h Pages: 1 -->
<svg width="130pt" height="84pt"
 viewBox="0.00 0.00 130.00 84.00" xmlns="http://www.w3.org/2000/svg" xmlns:xlink="http://www.w3.org/1999/xlink">
<g id="graph0" class="graph" transform="scale(1 1) rotate(0) translate(4 80)">
<title>usb_otg.h</title>
<!-- Node1 -->
<g id="Node000001" class="node">
<title>Node1</title>
<g id="a_Node000001"><a xlink:title="This file contains all the function prototypes for the usb_otg.c file.">
<polygon fill="#999999" stroke="#666666" points="87,-76 28.25,-76 28.25,-56 87,-56 87,-76"/>
<text xml:space="preserve" text-anchor="middle" x="57.62" y="-62.5" font-family="Helvetica,sans-Serif" font-size="10.00">usb_otg.h</text>
</a>
</g>
</g>
<!-- Node2 -->
<g id="Node000002" class="node">
<title>Node2</title>
<g id="a_Node000002"><a xlink:href="_i_p_o_s___m40___v1__00__101125_2_core_2_src_2main_8c.html" target="_top" xlink:title=": Main program body">
<polygon fill="white" stroke="#666666" points="45.25,-20 0,-20 0,0 45.25,0 45.25,-20"/>
<text xml:space="preserve" text-anchor="middle" x="22.62" y="-6.5" font-family="Helvetica,sans-Serif" font-size="10.00">main.c</text>
</a>
</g>
</g>
<!-- Node1&#45;&gt;Node2 -->
<g id="edge1_Node000001_Node000002" class="edge">
<title>Node1&#45;&gt;Node2</title>
<g id="a_edge1_Node000001_Node000002"><a xlink:title=" ">
<path fill="none" stroke="#63b8ff" d="M45.41,-46.15C39.74,-37.4 33.25,-27.39 28.65,-20.3"/>
<polygon fill="#63b8ff" stroke="#63b8ff" points="42.33,-47.84 50.71,-54.32 48.2,-44.03 42.33,-47.84"/>
</a>
</g>
</g>
<!-- Node3 -->
<g id="Node000003" class="node">
<title>Node3</title>
<g id="a_Node000003"><a xlink:href="usb__otg_8c.html" target="_top" xlink:title="This file provides code for the configuration of the USB_OTG instances.">
<polygon fill="white" stroke="#666666" points="122,-20 63.25,-20 63.25,0 122,0 122,-20"/>
<text xml:space="preserve" text-anchor="middle" x="92.62" y="-6.5" font-family="Helvetica,sans-Serif" font-size="10.00">usb_otg.c</text>
</a>
</g>
</g>
<!-- Node1&#45;&gt;Node3 -->
<g id="edge2_Node000001_Node000003" class="edge">
<title>Node1&#45;&gt;Node3</title>
<g id="a_edge2_Node000001_Node000003"><a xlink:title=" ">
<path fill="none" stroke="#63b8ff" d="M69.84,-46.15C75.51,-37.4 82,-27.39 86.6,-20.3"/>
<polygon fill="#63b8ff" stroke="#63b8ff" points="67.05,-44.03 64.54,-54.32 72.92,-47.84 67.05,-44.03"/>
</a>
</g>
</g>
</g>
</svg>
