<?xml version="1.0" encoding="UTF-8" standalone="no"?>
<!DOCTYPE svg PUBLIC "-//W3C//DTD SVG 1.1//EN"
 "http://www.w3.org/Graphics/SVG/1.1/DTD/svg11.dtd">
<!-- Generated by graphviz version 14.0.2 (20251019.1705)
 -->
<!-- Title: usb_commands.c Pages: 1 -->
<svg width="905pt" height="252pt"
 viewBox="0.00 0.00 905.00 252.00" xmlns="http://www.w3.org/2000/svg" xmlns:xlink="http://www.w3.org/1999/xlink">
<g id="graph0" class="graph" transform="scale(1 1) rotate(0) translate(4 248)">
<title>usb_commands.c</title>
<!-- Node1 -->
<g id="Node000001" class="node">
<title>Node1</title>
<g id="a_Node000001"><a xlink:title="USB command interface for IPOS firmware.">
<polygon fill="#999999" stroke="#666666" points="510,-244 416.75,-244 416.75,-224 510,-224 510,-244"/>
<text xml:space="preserve" text-anchor="middle" x="463.38" y="-230.5" font-family="Helvetica,sans-Serif" font-size="10.00">usb_commands.c</text>
</a>
</g>
</g>
<!-- Node2 -->
<g id="Node000002" class="node">
<title>Node2</title>
<g id="a_Node000002"><a xlink:href="debug__flags_8h.html" target="_top" xlink:title=" ">
<polygon fill="white" stroke="#666666" points="76.75,-132 0,-132 0,-112 76.75,-112 76.75,-132"/>
<text xml:space="preserve" text-anchor="middle" x="38.38" y="-118.5" font-family="Helvetica,sans-Serif" font-size="10.00">debug_flags.h</text>
</a>
</g>
</g>
<!-- Node1&#45;&gt;Node2 -->
<g id="edge1_Node000001_Node000002" class="edge">
<title>Node1&#45;&gt;Node2</title>
<g id="a_edge1_Node000001_Node000002"><a xlink:title=" ">
<path fill="none" stroke="#63b8ff" d="M416.37,-230.59C356.73,-226.48 251.29,-215.66 165.38,-188 127.62,-175.85 87.41,-153.47 62.59,-138.41"/>
<polygon fill="#63b8ff" stroke="#63b8ff" points="64.58,-135.52 54.23,-133.25 60.9,-141.48 64.58,-135.52"/>
</a>
</g>
</g>
<!-- Node4 -->
<g id="Node000004" class="node">
<title>Node4</title>
<g id="a_Node000004"><a xlink:title=" ">
<polygon fill="#e0e0e0" stroke="#999999" points="456.75,-188 398,-188 398,-168 456.75,-168 456.75,-188"/>
<text xml:space="preserve" text-anchor="middle" x="427.38" y="-174.5" font-family="Helvetica,sans-Serif" font-size="10.00">protocol.h</text>
</a>
</g>
</g>
<!-- Node1&#45;&gt;Node4 -->
<g id="edge3_Node000001_Node000004" class="edge">
<title>Node1&#45;&gt;Node4</title>
<g id="a_edge3_Node000001_Node000004"><a xlink:title=" ">
<path fill="none" stroke="#63b8ff" d="M457.1,-223.59C452.36,-216.47 445.68,-206.45 439.85,-197.72"/>
<polygon fill="#63b8ff" stroke="#63b8ff" points="442.87,-195.94 434.41,-189.56 437.05,-199.82 442.87,-195.94"/>
</a>
</g>
</g>
<!-- Node5 -->
<g id="Node000005" class="node">
<title>Node5</title>
<g id="a_Node000005"><a xlink:title=" ">
<polygon fill="#e0e0e0" stroke="#999999" points="330.12,-132 258.62,-132 258.62,-112 330.12,-112 330.12,-132"/>
<text xml:space="preserve" text-anchor="middle" x="294.38" y="-118.5" font-family="Helvetica,sans-Serif" font-size="10.00">cmsis_os2.h</text>
</a>
</g>
</g>
<!-- Node1&#45;&gt;Node5 -->
<g id="edge4_Node000001_Node000005" class="edge">
<title>Node1&#45;&gt;Node5</title>
<g id="a_edge4_Node000001_Node000005"><a xlink:title=" ">
<path fill="none" stroke="#63b8ff" d="M416.43,-231.92C381.42,-228.52 335.05,-218.08 307.38,-188 296.41,-176.08 293.57,-157.61 293.24,-143.41"/>
<polygon fill="#63b8ff" stroke="#63b8ff" points="296.73,-143.87 293.42,-133.8 289.73,-143.73 296.73,-143.87"/>
</a>
</g>
</g>
<!-- Node6 -->
<g id="Node000006" class="node">
<title>Node6</title>
<g id="a_Node000006"><a xlink:href="inputs_8h.html" target="_top" xlink:title="Input handling, safety interlock logic, and laser control API.">
<polygon fill="white" stroke="#666666" points="255.62,-188 205.12,-188 205.12,-168 255.62,-168 255.62,-188"/>
<text xml:space="preserve" text-anchor="middle" x="230.38" y="-174.5" font-family="Helvetica,sans-Serif" font-size="10.00">inputs.h</text>
</a>
</g>
</g>
<!-- Node1&#45;&gt;Node6 -->
<g id="edge5_Node000001_Node000006" class="edge">
<title>Node1&#45;&gt;Node6</title>
<g id="a_edge5_Node000001_Node000006"><a xlink:title=" ">
<path fill="none" stroke="#63b8ff" d="M422.52,-223.53C378.62,-213.36 309.47,-197.33 267.19,-187.53"/>
<polygon fill="#63b8ff" stroke="#63b8ff" points="268.03,-184.13 257.5,-185.29 266.45,-190.95 268.03,-184.13"/>
</a>
</g>
</g>
<!-- Node9 -->
<g id="Node000009" class="node">
<title>Node9</title>
<g id="a_Node000009"><a xlink:href="max31855_8h.html" target="_top" xlink:title=" ">
<polygon fill="white" stroke="#666666" points="164,-132 94.75,-132 94.75,-112 164,-112 164,-132"/>
<text xml:space="preserve" text-anchor="middle" x="129.38" y="-118.5" font-family="Helvetica,sans-Serif" font-size="10.00">max31855.h</text>
</a>
</g>
</g>
<!-- Node1&#45;&gt;Node9 -->
<g id="edge20_Node000001_Node000009" class="edge">
<title>Node1&#45;&gt;Node9</title>
<g id="a_edge20_Node000001_Node000009"><a xlink:title=" ">
<path fill="none" stroke="#63b8ff" d="M416.38,-233.37C360.91,-232 267.25,-223.88 196.38,-188 174.55,-176.95 155.17,-156.34 142.94,-141.28"/>
<polygon fill="#63b8ff" stroke="#63b8ff" points="145.81,-139.27 136.91,-133.53 140.29,-143.57 145.81,-139.27"/>
</a>
</g>
</g>
<!-- Node11 -->
<g id="Node000011" class="node">
<title>Node11</title>
<g id="a_Node000011"><a xlink:title=" ">
<polygon fill="#e0e0e0" stroke="#999999" points="523.5,-188 475.25,-188 475.25,-168 523.5,-168 523.5,-188"/>
<text xml:space="preserve" text-anchor="middle" x="499.38" y="-174.5" font-family="Helvetica,sans-Serif" font-size="10.00">string.h</text>
</a>
</g>
</g>
<!-- Node1&#45;&gt;Node11 -->
<g id="edge14_Node000001_Node000011" class="edge">
<title>Node1&#45;&gt;Node11</title>
<g id="a_edge14_Node000001_Node000011"><a xlink:title=" ">
<path fill="none" stroke="#63b8ff" d="M469.65,-223.59C474.39,-216.47 481.07,-206.45 486.9,-197.72"/>
<polygon fill="#63b8ff" stroke="#63b8ff" points="489.7,-199.82 492.34,-189.56 483.88,-195.94 489.7,-199.82"/>
</a>
</g>
</g>
<!-- Node12 -->
<g id="Node000012" class="node">
<title>Node12</title>
<g id="a_Node000012"><a xlink:title=" ">
<polygon fill="#e0e0e0" stroke="#999999" points="589.12,-188 541.62,-188 541.62,-168 589.12,-168 589.12,-188"/>
<text xml:space="preserve" text-anchor="middle" x="565.38" y="-174.5" font-family="Helvetica,sans-Serif" font-size="10.00">stdlib.h</text>
</a>
</g>
</g>
<!-- Node1&#45;&gt;Node12 -->
<g id="edge15_Node000001_Node000012" class="edge">
<title>Node1&#45;&gt;Node12</title>
<g id="a_edge15_Node000001_Node000012"><a xlink:title=" ">
<path fill="none" stroke="#63b8ff" d="M481.14,-223.59C496.7,-215.36 519.56,-203.26 537.54,-193.74"/>
<polygon fill="#63b8ff" stroke="#63b8ff" points="538.93,-196.96 546.13,-189.19 535.66,-190.77 538.93,-196.96"/>
</a>
</g>
</g>
<!-- Node13 -->
<g id="Node000013" class="node">
<title>Node13</title>
<g id="a_Node000013"><a xlink:title=" ">
<polygon fill="#e0e0e0" stroke="#999999" points="652,-188 606.75,-188 606.75,-168 652,-168 652,-188"/>
<text xml:space="preserve" text-anchor="middle" x="629.38" y="-174.5" font-family="Helvetica,sans-Serif" font-size="10.00">stdio.h</text>
</a>
</g>
</g>
<!-- Node1&#45;&gt;Node13 -->
<g id="edge16_Node000001_Node000013" class="edge">
<title>Node1&#45;&gt;Node13</title>
<g id="a_edge16_Node000001_Node000013"><a xlink:title=" ">
<path fill="none" stroke="#63b8ff" d="M492.29,-223.59C521.04,-214.24 565.11,-199.9 595.49,-190.02"/>
<polygon fill="#63b8ff" stroke="#63b8ff" points="596.53,-193.36 604.96,-186.94 594.37,-186.71 596.53,-193.36"/>
</a>
</g>
</g>
<!-- Node14 -->
<g id="Node000014" class="node">
<title>Node14</title>
<g id="a_Node000014"><a xlink:title=" ">
<polygon fill="#e0e0e0" stroke="#999999" points="746.75,-188 670,-188 670,-168 746.75,-168 746.75,-188"/>
<text xml:space="preserve" text-anchor="middle" x="708.38" y="-174.5" font-family="Helvetica,sans-Serif" font-size="10.00">usbd_cdc_if.h</text>
</a>
</g>
</g>
<!-- Node1&#45;&gt;Node14 -->
<g id="edge17_Node000001_Node000014" class="edge">
<title>Node1&#45;&gt;Node14</title>
<g id="a_edge17_Node000001_Node000014"><a xlink:title=" ">
<path fill="none" stroke="#63b8ff" d="M506.33,-223.53C548.75,-214.18 613.59,-199.89 658.32,-190.03"/>
<polygon fill="#63b8ff" stroke="#63b8ff" points="659.02,-193.46 668.03,-187.89 657.51,-186.63 659.02,-193.46"/>
</a>
</g>
</g>
<!-- Node15 -->
<g id="Node000015" class="node">
<title>Node15</title>
<g id="a_Node000015"><a xlink:title=" ">
<polygon fill="#e0e0e0" stroke="#999999" points="835.75,-188 765,-188 765,-168 835.75,-168 835.75,-188"/>
<text xml:space="preserve" text-anchor="middle" x="800.38" y="-174.5" font-family="Helvetica,sans-Serif" font-size="10.00">FreeRTOS.h</text>
</a>
</g>
</g>
<!-- Node1&#45;&gt;Node15 -->
<g id="edge18_Node000001_Node000015" class="edge">
<title>Node1&#45;&gt;Node15</title>
<g id="a_edge18_Node000001_Node000015"><a xlink:title=" ">
<path fill="none" stroke="#63b8ff" d="M510.26,-226.43C565.77,-218.51 661.3,-204.42 753.34,-188.29"/>
<polygon fill="#63b8ff" stroke="#63b8ff" points="753.81,-191.76 763.05,-186.58 752.59,-184.87 753.81,-191.76"/>
</a>
</g>
</g>
<!-- Node16 -->
<g id="Node000016" class="node">
<title>Node16</title>
<g id="a_Node000016"><a xlink:title=" ">
<polygon fill="#e0e0e0" stroke="#999999" points="896.88,-188 853.88,-188 853.88,-168 896.88,-168 896.88,-188"/>
<text xml:space="preserve" text-anchor="middle" x="875.38" y="-174.5" font-family="Helvetica,sans-Serif" font-size="10.00">task.h</text>
</a>
</g>
</g>
<!-- Node1&#45;&gt;Node16 -->
<g id="edge19_Node000001_Node000016" class="edge">
<title>Node1&#45;&gt;Node16</title>
<g id="a_edge19_Node000001_Node000016"><a xlink:title=" ">
<path fill="none" stroke="#63b8ff" d="M510.4,-229.95C580.68,-224.85 717.38,-212.83 842.56,-188.04"/>
<polygon fill="#63b8ff" stroke="#63b8ff" points="842.88,-191.55 851.99,-186.14 841.49,-184.69 842.88,-191.55"/>
</a>
</g>
</g>
<!-- Node17 -->
<g id="Node000017" class="node">
<title>Node17</title>
<g id="a_Node000017"><a xlink:href="log__flash_8h.html" target="_top" xlink:title="Public API for flash&#45;based logging of system events and errors.">
<polygon fill="white" stroke="#666666" points="380,-188 316.75,-188 316.75,-168 380,-168 380,-188"/>
<text xml:space="preserve" text-anchor="middle" x="348.38" y="-174.5" font-family="Helvetica,sans-Serif" font-size="10.00">log_flash.h</text>
</a>
</g>
</g>
<!-- Node1&#45;&gt;Node17 -->
<g id="edge21_Node000001_Node000017" class="edge">
<title>Node1&#45;&gt;Node17</title>
<g id="a_edge21_Node000001_Node000017"><a xlink:title=" ">
<path fill="none" stroke="#63b8ff" d="M443.34,-223.59C425.56,-215.24 399.31,-202.92 378.91,-193.34"/>
<polygon fill="#63b8ff" stroke="#63b8ff" points="380.47,-190.21 369.93,-189.12 377.5,-196.54 380.47,-190.21"/>
</a>
</g>
</g>
<!-- Node3 -->
<g id="Node000003" class="node">
<title>Node3</title>
<g id="a_Node000003"><a xlink:title=" ">
<polygon fill="#e0e0e0" stroke="#999999" points="202.5,-76 154.25,-76 154.25,-56 202.5,-56 202.5,-76"/>
<text xml:space="preserve" text-anchor="middle" x="178.38" y="-62.5" font-family="Helvetica,sans-Serif" font-size="10.00">stdint.h</text>
</a>
</g>
</g>
<!-- Node2&#45;&gt;Node3 -->
<g id="edge2_Node000002_Node000003" class="edge">
<title>Node2&#45;&gt;Node3</title>
<g id="a_edge2_Node000002_Node000003"><a xlink:title=" ">
<path fill="none" stroke="#63b8ff" d="M62.76,-111.59C85.01,-103.01 118.14,-90.23 143.24,-80.55"/>
<polygon fill="#63b8ff" stroke="#63b8ff" points="144.32,-83.89 152.39,-77.02 141.8,-77.36 144.32,-83.89"/>
</a>
</g>
</g>
<!-- Node6&#45;&gt;Node3 -->
<g id="edge6_Node000006_Node000003" class="edge">
<title>Node6&#45;&gt;Node3</title>
<g id="a_edge6_Node000006_Node000003"><a xlink:title=" ">
<path fill="none" stroke="#63b8ff" d="M225.94,-167.62C217.5,-149.76 198.95,-110.53 187.67,-86.67"/>
<polygon fill="#63b8ff" stroke="#63b8ff" points="190.88,-85.27 183.44,-77.72 184.55,-88.26 190.88,-85.27"/>
</a>
</g>
</g>
<!-- Node6&#45;&gt;Node5 -->
<g id="edge7_Node000006_Node000005" class="edge">
<title>Node6&#45;&gt;Node5</title>
<g id="a_edge7_Node000006_Node000005"><a xlink:title=" ">
<path fill="none" stroke="#63b8ff" d="M241.52,-167.59C250.7,-159.85 263.93,-148.69 274.86,-139.47"/>
<polygon fill="#63b8ff" stroke="#63b8ff" points="276.81,-142.4 282.2,-133.27 272.3,-137.05 276.81,-142.4"/>
</a>
</g>
</g>
<!-- Node7 -->
<g id="Node000007" class="node">
<title>Node7</title>
<g id="a_Node000007"><a xlink:href="_i_p_o_s__071125_2_core_2_inc_2main_8h.html" target="_top" xlink:title=": Header for main.c file. This file contains the common defines of the application.">
<polygon fill="white" stroke="#666666" points="266,-76 220.75,-76 220.75,-56 266,-56 266,-76"/>
<text xml:space="preserve" text-anchor="middle" x="243.38" y="-62.5" font-family="Helvetica,sans-Serif" font-size="10.00">main.h</text>
</a>
</g>
</g>
<!-- Node6&#45;&gt;Node7 -->
<g id="edge8_Node000006_Node000007" class="edge">
<title>Node6&#45;&gt;Node7</title>
<g id="a_edge8_Node000006_Node000007"><a xlink:title=" ">
<path fill="none" stroke="#63b8ff" d="M231.48,-167.62C233.57,-150.01 238.1,-111.59 240.93,-87.65"/>
<polygon fill="#63b8ff" stroke="#63b8ff" points="244.39,-88.2 242.09,-77.86 237.44,-87.38 244.39,-88.2"/>
</a>
</g>
</g>
<!-- Node6&#45;&gt;Node9 -->
<g id="edge10_Node000006_Node000009" class="edge">
<title>Node6&#45;&gt;Node9</title>
<g id="a_edge10_Node000006_Node000009"><a xlink:title=" ">
<path fill="none" stroke="#63b8ff" d="M212.78,-167.59C197.45,-159.4 174.96,-147.37 157.19,-137.87"/>
<polygon fill="#63b8ff" stroke="#63b8ff" points="158.91,-134.82 148.44,-133.19 155.61,-140.99 158.91,-134.82"/>
</a>
</g>
</g>
<!-- Node8 -->
<g id="Node000008" class="node">
<title>Node8</title>
<g id="a_Node000008"><a xlink:title=" ">
<polygon fill="#e0e0e0" stroke="#999999" points="287.38,-20 199.38,-20 199.38,0 287.38,0 287.38,-20"/>
<text xml:space="preserve" text-anchor="middle" x="243.38" y="-6.5" font-family="Helvetica,sans-Serif" font-size="10.00">stm32f4xx_hal.h</text>
</a>
</g>
</g>
<!-- Node7&#45;&gt;Node8 -->
<g id="edge9_Node000007_Node000008" class="edge">
<title>Node7&#45;&gt;Node8</title>
<g id="a_edge9_Node000007_Node000008"><a xlink:title=" ">
<path fill="none" stroke="#63b8ff" d="M243.38,-55.59C243.38,-49.01 243.38,-39.96 243.38,-31.73"/>
<polygon fill="#63b8ff" stroke="#63b8ff" points="246.88,-31.81 243.38,-21.81 239.88,-31.81 246.88,-31.81"/>
</a>
</g>
</g>
<!-- Node9&#45;&gt;Node3 -->
<g id="edge13_Node000009_Node000003" class="edge">
<title>Node9&#45;&gt;Node3</title>
<g id="a_edge13_Node000009_Node000003"><a xlink:title=" ">
<path fill="none" stroke="#63b8ff" d="M137.91,-111.59C144.66,-104.16 154.26,-93.58 162.42,-84.58"/>
<polygon fill="#63b8ff" stroke="#63b8ff" points="164.79,-87.18 168.92,-77.42 159.61,-82.47 164.79,-87.18"/>
</a>
</g>
</g>
<!-- Node9&#45;&gt;Node7 -->
<g id="edge11_Node000009_Node000007" class="edge">
<title>Node9&#45;&gt;Node7</title>
<g id="a_edge11_Node000009_Node000007"><a xlink:title=" ">
<path fill="none" stroke="#63b8ff" d="M149.23,-111.59C166.86,-103.24 192.88,-90.92 213.1,-81.34"/>
<polygon fill="#63b8ff" stroke="#63b8ff" points="214.46,-84.57 221.99,-77.13 211.46,-78.25 214.46,-84.57"/>
</a>
</g>
</g>
<!-- Node10 -->
<g id="Node000010" class="node">
<title>Node10</title>
<g id="a_Node000010"><a xlink:title=" ">
<polygon fill="#e0e0e0" stroke="#999999" points="136.5,-76 70.25,-76 70.25,-56 136.5,-56 136.5,-76"/>
<text xml:space="preserve" text-anchor="middle" x="103.38" y="-62.5" font-family="Helvetica,sans-Serif" font-size="10.00">cmsis_os.h</text>
</a>
</g>
</g>
<!-- Node9&#45;&gt;Node10 -->
<g id="edge12_Node000009_Node000010" class="edge">
<title>Node9&#45;&gt;Node10</title>
<g id="a_edge12_Node000009_Node000010"><a xlink:title=" ">
<path fill="none" stroke="#63b8ff" d="M124.85,-111.59C121.53,-104.7 116.91,-95.1 112.8,-86.57"/>
<polygon fill="#63b8ff" stroke="#63b8ff" points="116,-85.15 108.51,-77.66 109.69,-88.19 116,-85.15"/>
</a>
</g>
</g>
<!-- Node17&#45;&gt;Node3 -->
<g id="edge22_Node000017_Node000003" class="edge">
<title>Node17&#45;&gt;Node3</title>
<g id="a_edge22_Node000017_Node000003"><a xlink:title=" ">
<path fill="none" stroke="#63b8ff" d="M349.97,-167.76C351.81,-153.88 353.01,-127.62 339.38,-112 338.84,-111.39 260.95,-89.8 213.72,-76.75"/>
<polygon fill="#63b8ff" stroke="#63b8ff" points="214.75,-73.41 204.18,-74.12 212.89,-80.15 214.75,-73.41"/>
</a>
</g>
</g>
<!-- Node17&#45;&gt;Node5 -->
<g id="edge25_Node000017_Node000005" class="edge">
<title>Node17&#45;&gt;Node5</title>
<g id="a_edge25_Node000017_Node000005"><a xlink:title=" ">
<path fill="none" stroke="#63b8ff" d="M338.97,-167.59C331.46,-160.08 320.73,-149.35 311.68,-140.3"/>
<polygon fill="#63b8ff" stroke="#63b8ff" points="314.29,-137.96 304.74,-133.37 309.34,-142.91 314.29,-137.96"/>
</a>
</g>
</g>
<!-- Node17&#45;&gt;Node7 -->
<g id="edge24_Node000017_Node000007" class="edge">
<title>Node17&#45;&gt;Node7</title>
<g id="a_edge24_Node000017_Node000007"><a xlink:title=" ">
<path fill="none" stroke="#63b8ff" d="M356.78,-167.88C367.95,-154.62 384.91,-129.65 372.38,-112 351.09,-82.04 308.32,-71.86 277.87,-68.49"/>
<polygon fill="#63b8ff" stroke="#63b8ff" points="278.25,-65.01 267.98,-67.62 277.63,-71.99 278.25,-65.01"/>
</a>
</g>
</g>
<!-- Node18 -->
<g id="Node000018" class="node">
<title>Node18</title>
<g id="a_Node000018"><a xlink:title=" ">
<polygon fill="#e0e0e0" stroke="#999999" points="476,-132 424.75,-132 424.75,-112 476,-112 476,-132"/>
<text xml:space="preserve" text-anchor="middle" x="450.38" y="-118.5" font-family="Helvetica,sans-Serif" font-size="10.00">stddef.h</text>
</a>
</g>
</g>
<!-- Node17&#45;&gt;Node18 -->
<g id="edge23_Node000017_Node000018" class="edge">
<title>Node17&#45;&gt;Node18</title>
<g id="a_edge23_Node000017_Node000018"><a xlink:title=" ">
<path fill="none" stroke="#63b8ff" d="M366.14,-167.59C381.7,-159.36 404.56,-147.26 422.54,-137.74"/>
<polygon fill="#63b8ff" stroke="#63b8ff" points="423.93,-140.96 431.13,-133.19 420.66,-134.77 423.93,-140.96"/>
</a>
</g>
</g>
</g>
</svg>
