<?xml version="1.0" encoding="UTF-8" standalone="no"?>
<!DOCTYPE svg PUBLIC "-//W3C//DTD SVG 1.1//EN"
 "http://www.w3.org/Graphics/SVG/1.1/DTD/svg11.dtd">
<!-- Generated by graphviz version 14.0.2 (20251019.1705)
 -->
<!-- Title: w25q.c Pages: 1 -->
<svg width="159pt" height="196pt"
 viewBox="0.00 0.00 159.00 196.00" xmlns="http://www.w3.org/2000/svg" xmlns:xlink="http://www.w3.org/1999/xlink">
<g id="graph0" class="graph" transform="scale(1 1) rotate(0) translate(4 192)">
<title>w25q.c</title>
<!-- Node1 -->
<g id="Node000001" class="node">
<title>Node1</title>
<g id="a_Node000001"><a xlink:title=" ">
<polygon fill="#999999" stroke="#666666" points="115.75,-188 68.25,-188 68.25,-168 115.75,-168 115.75,-188"/>
<text xml:space="preserve" text-anchor="middle" x="92" y="-174.5" font-family="Helvetica,sans-Serif" font-size="10.00">w25q.c</text>
</a>
</g>
</g>
<!-- Node2 -->
<g id="Node000002" class="node">
<title>Node2</title>
<g id="a_Node000002"><a xlink:href="w25q_8h.html" target="_top" xlink:title=" ">
<polygon fill="white" stroke="#666666" points="89.75,-132 42.25,-132 42.25,-112 89.75,-112 89.75,-132"/>
<text xml:space="preserve" text-anchor="middle" x="66" y="-118.5" font-family="Helvetica,sans-Serif" font-size="10.00">w25q.h</text>
</a>
</g>
</g>
<!-- Node1&#45;&gt;Node2 -->
<g id="edge1_Node000001_Node000002" class="edge">
<title>Node1&#45;&gt;Node2</title>
<g id="a_edge1_Node000001_Node000002"><a xlink:title=" ">
<path fill="none" stroke="#63b8ff" d="M87.47,-167.59C84.15,-160.7 79.53,-151.1 75.42,-142.57"/>
<polygon fill="#63b8ff" stroke="#63b8ff" points="78.63,-141.15 71.13,-133.66 72.32,-144.19 78.63,-141.15"/>
</a>
</g>
</g>
<!-- Node5 -->
<g id="Node000005" class="node">
<title>Node5</title>
<g id="a_Node000005"><a xlink:title=" ">
<polygon fill="#e0e0e0" stroke="#999999" points="151.12,-76 84.88,-76 84.88,-56 151.12,-56 151.12,-76"/>
<text xml:space="preserve" text-anchor="middle" x="118" y="-62.5" font-family="Helvetica,sans-Serif" font-size="10.00">cmsis_os.h</text>
</a>
</g>
</g>
<!-- Node1&#45;&gt;Node5 -->
<g id="edge5_Node000001_Node000005" class="edge">
<title>Node1&#45;&gt;Node5</title>
<g id="a_edge5_Node000001_Node000005"><a xlink:title=" ">
<path fill="none" stroke="#63b8ff" d="M94.22,-167.62C98.4,-149.92 107.54,-111.24 113.2,-87.32"/>
<polygon fill="#63b8ff" stroke="#63b8ff" points="116.55,-88.36 115.44,-77.83 109.73,-86.75 116.55,-88.36"/>
</a>
</g>
</g>
<!-- Node3 -->
<g id="Node000003" class="node">
<title>Node3</title>
<g id="a_Node000003"><a xlink:href="_i_p_o_s__071125_2_core_2_inc_2main_8h.html" target="_top" xlink:title=": Header for main.c file. This file contains the common defines of the application.">
<polygon fill="white" stroke="#666666" points="66.62,-76 21.38,-76 21.38,-56 66.62,-56 66.62,-76"/>
<text xml:space="preserve" text-anchor="middle" x="44" y="-62.5" font-family="Helvetica,sans-Serif" font-size="10.00">main.h</text>
</a>
</g>
</g>
<!-- Node2&#45;&gt;Node3 -->
<g id="edge2_Node000002_Node000003" class="edge">
<title>Node2&#45;&gt;Node3</title>
<g id="a_edge2_Node000002_Node000003"><a xlink:title=" ">
<path fill="none" stroke="#63b8ff" d="M62.17,-111.59C59.39,-104.78 55.54,-95.32 52.09,-86.86"/>
<polygon fill="#63b8ff" stroke="#63b8ff" points="55.37,-85.64 48.36,-77.7 48.89,-88.28 55.37,-85.64"/>
</a>
</g>
</g>
<!-- Node2&#45;&gt;Node5 -->
<g id="edge4_Node000002_Node000005" class="edge">
<title>Node2&#45;&gt;Node5</title>
<g id="a_edge4_Node000002_Node000005"><a xlink:title=" ">
<path fill="none" stroke="#63b8ff" d="M75.06,-111.59C82.22,-104.16 92.41,-93.58 101.07,-84.58"/>
<polygon fill="#63b8ff" stroke="#63b8ff" points="103.58,-87.02 108,-77.39 98.54,-82.16 103.58,-87.02"/>
</a>
</g>
</g>
<!-- Node4 -->
<g id="Node000004" class="node">
<title>Node4</title>
<g id="a_Node000004"><a xlink:title=" ">
<polygon fill="#e0e0e0" stroke="#999999" points="88,-20 0,-20 0,0 88,0 88,-20"/>
<text xml:space="preserve" text-anchor="middle" x="44" y="-6.5" font-family="Helvetica,sans-Serif" font-size="10.00">stm32f4xx_hal.h</text>
</a>
</g>
</g>
<!-- Node3&#45;&gt;Node4 -->
<g id="edge3_Node000003_Node000004" class="edge">
<title>Node3&#45;&gt;Node4</title>
<g id="a_edge3_Node000003_Node000004"><a xlink:title=" ">
<path fill="none" stroke="#63b8ff" d="M44,-55.59C44,-49.01 44,-39.96 44,-31.73"/>
<polygon fill="#63b8ff" stroke="#63b8ff" points="47.5,-31.81 44,-21.81 40.5,-31.81 47.5,-31.81"/>
</a>
</g>
</g>
</g>
</svg>
